<svg width="59" height="82" viewBox="0 0 59 82" fill="none" xmlns="http://www.w3.org/2000/svg">
<path d="M29.5 82C31.8382 59.1392 43.2224 41.5269 57.1829 40.1115C58.3585 36.8963 59 33.4201 59 29.7924C59 13.3385 45.7928 0 29.5 0C13.2072 0 0 13.3385 0 29.7924C0 33.4201 0.641529 36.8963 1.81709 40.1115C15.7776 41.5269 27.1618 59.1392 29.5 82Z" fill="#E9B30F"/>
<path d="M27.4522 32.976C26.9578 32.9891 26.3854 32.9891 25.7869 32.963H22.9638V31.7066L22.4434 31.4579C22.4694 30.8559 22.8857 31.0129 23.4712 31.0129L33.814 31.026C33.9701 31.1831 34.2043 31.4972 34.3474 31.6935L35.0109 32.1515C34.9848 32.1123 35.2841 32.4787 35.2971 33.0284C35.2971 33.0546 35.2971 33.1331 35.2971 33.2378C34.4124 33.6304 33.7879 34.2717 32.4609 35.2009C32.4349 35.2271 32.3959 35.2533 32.3439 35.2664C32.0837 34.8868 31.6673 34.5073 31.3811 34.2194C30.4444 33.4865 29.4427 33.0284 27.4522 32.976ZM22.4954 32.963H22.2092C22.2092 32.1777 22.3393 32.1385 21.8059 31.7066C21.4937 30.6596 21.8579 30.7774 21.897 30.0576C21.7278 29.822 21.4026 29.5733 21.1814 29.3377C20.8692 29.0367 20.5049 28.4871 20.3228 28.0683C20.0756 27.2438 19.8674 26.9427 19.8154 25.8827L19.5292 26.1706C19.4381 26.2753 19.4251 26.3015 19.308 26.4323C19.1389 26.6156 19.0348 26.7464 18.8527 26.9427C18.02 27.8065 16.5239 29.0367 16.0816 30.0314C15.5872 31.1307 15.8474 32.3871 16.5239 32.9891C17.1093 33.5257 17.0313 33.2116 17.3045 34.1932L17.3435 34.311C17.2785 34.3371 17.2264 34.3502 17.1614 34.3371C17.1093 34.3371 17.0443 34.3371 16.9793 34.3241C16.9402 34.2717 16.9272 34.2063 16.9012 34.1408C16.7321 33.6042 16.8622 33.7089 16.4979 33.4472C16.2767 33.2771 16.1206 33.1069 15.9645 32.8713C14.5204 30.6465 16.4979 28.6834 18.0851 27.3092C18.5014 26.9427 19.8935 25.5816 20.0235 25.032C20.1536 26.5763 20.1667 27.3354 21.1944 28.7881C21.3896 29.0498 21.5587 29.2461 21.7669 29.4424C22.8727 30.4763 21.988 30.0052 22.0401 31.0915C22.0661 31.6673 22.2742 31.6019 22.4954 31.9029V32.963ZM16.693 34.2848C16.1466 34.1932 15.3921 34.0361 15.1709 34.1408C15.0018 34.2717 14.9757 34.7036 14.9107 34.9653C14.8456 35.2664 14.7806 35.5543 14.7155 35.8553C14.2732 35.9469 14.039 35.7898 14 36.0647L14.026 36.6536L20.0105 37.9493L20.0366 37.9231C20.0756 37.9624 20.0366 37.9493 20.1536 37.9885C20.3358 38.054 25.2275 37.8184 25.4486 37.8053C27.296 37.753 29.1044 37.6483 30.9388 37.5697C31.3681 37.5567 31.6153 37.753 32.1357 37.7791C32.591 37.8053 33.0464 37.7661 33.4497 37.6352C34.2173 37.3865 36.455 37.3603 38.2633 37.3342C39.6424 37.3473 41.5808 37.2949 43.9356 37.1509L44.6511 37.1248C44.7292 36.9285 44.7032 36.5489 44.6642 36.3395L44.3129 36.3133V36.261C43.8575 33.7875 44.0657 33.9445 43.3111 34.0885C43.168 33.6959 42.7647 33.421 43.155 32.675C43.5453 31.9291 45.6139 30.7904 44.8203 28.3169C43.7665 25.0451 39.8375 24.9404 39.4732 20.9487C39.6294 20.7524 39.9286 20.5692 39.7985 20.0849C39.6554 19.5614 39.5123 20.1373 39.5253 19.1034C39.5253 18.2527 39.5123 17.4151 39.5253 16.5644H40.3579C40.514 16.7869 40.3319 16.7345 40.6311 16.8392C40.8263 16.7345 40.9954 16.5906 40.9954 16.2241C40.9954 15.8184 40.8393 15.8053 40.6571 15.5959C40.436 15.6875 40.436 15.7661 40.4099 15.7922C40.3969 15.8053 40.3839 15.8315 40.3839 15.8446C40.3709 15.8446 40.3709 15.8708 40.3579 15.8839H39.5253V14.7191C39.5383 14.706 39.5643 14.6667 39.5643 14.6798L39.7855 14.4442C39.5513 13.9207 38.8488 13.8946 38.5886 14.4442L38.8227 14.6929C38.8227 14.6929 38.8488 14.706 38.8618 14.7191V15.8839H37.9771C37.769 15.5698 37.9511 15.7006 37.769 15.609C37.2095 15.9362 37.2225 16.5906 37.769 16.8392C37.9381 16.7607 37.808 16.8654 37.9251 16.656C37.9381 16.656 37.9511 16.6298 37.9511 16.6167C37.9511 16.6037 37.9641 16.5775 37.9771 16.5644H38.8618V19.3782C38.8618 19.7577 38.9008 19.6007 38.7447 19.8101C38.5626 20.0326 38.3804 20.2681 38.6146 20.6346C38.8488 21.001 38.9398 20.7524 38.8097 21.4591C38.7577 21.7994 38.6926 22.0873 38.5756 22.3883C38.3934 22.9118 38.0682 23.4877 37.7039 23.7625C37.5218 22.4668 36.3379 21.0796 35.6223 20.5037C33.827 19.051 31.3941 17.3366 30.1972 15.2687C29.95 14.8369 29.5077 13.9207 29.4947 13.3056C29.4817 12.9654 29.846 13.0046 29.872 12.4549C29.885 11.9969 29.6118 11.8006 29.3906 11.565V7.93978H30.3534C30.5485 7.97904 30.3403 8.08374 30.6396 8.24079C31.4722 7.87434 31.0559 6.98439 30.7827 6.86661C30.4444 6.74882 30.5355 6.97131 30.4184 7.15453H29.4297L29.3906 5.74109L29.7289 5.55786C29.5207 4.82497 28.519 4.79879 28.2978 5.57095L28.6491 5.74109L28.6361 7.15453C27.257 7.15453 27.6343 7.20688 27.5172 6.84043C27.27 6.85352 27.1659 6.89278 27.0489 7.07601C26.9188 7.25923 26.8797 7.46863 26.9318 7.73038C26.9708 7.86125 27.0749 8.08374 27.205 8.16226C27.4652 8.30623 27.5042 8.14918 27.5562 8.08374L28.6361 7.93978L28.6491 11.5781C27.5562 12.1801 28.3759 13.057 28.4019 13.1224C28.6881 13.8684 27.27 15.7006 26.8277 16.2372C25.2405 18.1611 21.2205 21.3806 20.9472 22.3098C20.57 22.1135 20.674 22.048 20.6871 21.4984C20.6871 21.1843 20.7001 20.844 20.674 20.543L20.6871 19.1688C22.1181 19.1557 21.3245 19.1688 21.7669 19.4175C22.3003 19.195 22.3523 18.449 21.7669 18.2134C21.3245 18.4359 22.1311 18.5275 20.6871 18.4752C20.6871 16.499 20.7131 17.5067 20.9603 17.0486C20.7521 16.499 20.0105 16.4466 19.7503 17.0486C20.0105 17.4936 20.0105 16.656 20.0105 18.4883H19.1779C18.9828 18.2265 19.1779 18.3574 18.9828 18.2134C18.3713 18.3705 18.3843 19.2342 18.9828 19.4175L19.1779 19.1557H20.0105V22.1135C19.0868 23.0689 20.2317 22.7155 19.8414 24.0112C18.8527 27.3223 13.8049 28.8535 15.2229 32.4002C15.3921 32.819 15.7043 33.264 16.0295 33.5781C16.1466 33.6828 16.4068 33.9576 16.693 34.2848ZM41.815 34.0361C41.1515 33.8529 40.5661 33.4603 39.7855 33.1724L42.6216 33.0677C42.5696 33.6042 42.7257 33.6697 42.8688 34.0361C42.5566 34.0361 42.1923 34.0361 41.815 34.0361ZM20.2447 20.1242L20.2577 18.9332L19.0478 18.9201L18.9437 19.2342C18.5925 18.9332 18.6575 18.7893 18.8266 18.4097C19.0608 18.4883 18.8266 18.3574 18.9437 18.5144L19.0218 18.6453C19.0348 18.6453 19.0348 18.6715 19.0478 18.6846H20.2577V17.101L19.9325 16.9701C20.2447 16.6953 20.3748 16.7345 20.7391 16.9047C20.583 17.4543 20.4789 16.1718 20.4789 18.6846C21.5327 18.6846 21.4806 18.8024 21.7799 18.5144C21.897 18.4228 21.6888 18.4883 21.897 18.4228C22.1051 18.8024 22.0531 18.9201 21.8449 19.2342C21.7278 19.1034 21.7929 19.1557 21.7018 18.9201H20.4919L20.4789 20.399L20.4008 22.048C20.1797 21.9564 20.2447 22.048 20.2447 21.6423V20.1242ZM43.0379 26.6156C43.6754 27.2961 44.7422 28.4347 44.2999 29.9921C44.0137 30.9737 43.194 31.7589 42.2964 32.1515L41.828 32.2955C40.475 32.6227 38.7967 32.6227 37.3656 32.4526C35.9346 32.2824 34.9068 31.6411 34.3604 30.6857C33.1895 28.6441 34.7247 27.2045 35.9866 25.9481C36.1948 25.7387 36.4029 25.6078 36.6241 25.4115C37.4437 24.6524 38.4194 23.841 38.8618 22.8725C38.9789 22.5977 39.0569 22.2444 39.187 21.9826C40.1237 24.43 40.9694 24.6917 43.0379 26.6156ZM22.4434 29.5864C25.6308 29.5733 30.2493 29.4948 33.3976 29.5864C33.4107 30.0706 33.4757 30.267 33.6188 30.6203L22.4434 30.6072C22.7296 30.1623 22.7816 30.0183 22.4434 29.5864ZM29.4166 14.7452C29.5077 14.8369 29.6508 15.2295 29.7679 15.4389C30.3664 16.5251 32.4609 18.6846 33.2155 19.1295C34.8417 20.5037 36.6501 21.4068 36.3249 23.9588C36.1948 25.0058 35.2971 25.8957 34.7637 26.4323C33.866 27.3485 33.7099 27.885 33.4107 28.8273C33.3586 28.9844 33.3846 28.9059 33.3456 28.9844C32.1097 29.0498 25.4226 29.0367 24.3558 28.8928C22.9898 28.7095 22.001 28.1991 21.4156 27.3223C20.8041 26.4192 20.4659 24.9665 20.8562 23.7363C21.0513 23.1212 21.2985 22.6893 21.5977 22.2182C22.2482 21.2366 24.0696 19.6399 24.9543 18.8154C25.6308 18.1872 27.6213 16.0933 28.1287 15.2164C28.4539 14.6275 28.6751 13.96 28.9873 13.8422C29.2085 14.0123 29.3386 14.4442 29.4166 14.7452ZM20.1797 22.5584C19.9845 22.4537 20.2837 22.6108 20.0886 22.5061L19.9975 22.4537C20.1927 22.2705 20.557 22.2705 20.6871 22.5454C20.7391 22.6631 20.57 22.9772 20.4529 23.0558C20.4529 22.7678 20.4529 22.7024 20.1797 22.5584ZM39.6033 20.4252C39.4082 20.6608 39.5773 20.5692 39.3041 20.6739C39.3822 20.2289 39.2911 20.1111 38.8878 20.0195C39.2 19.653 39.5903 19.9017 39.6033 20.4252ZM39.0699 16.1194V14.5097C38.6406 14.4966 38.8618 14.562 38.7837 14.3526C39.0439 14.0778 39.3692 14.2217 39.6033 14.3657C39.5123 14.562 39.6424 14.4966 39.3041 14.5097V16.1063H40.488C40.6701 15.7661 40.501 15.8839 40.6962 15.8184C40.8913 16.1718 40.9303 16.2896 40.6962 16.6298C40.514 16.5644 40.5921 16.5251 40.488 16.355H39.3041C39.3041 16.9308 39.3041 17.5067 39.3041 18.0695V19.3782C39.2781 19.7185 39.3561 19.5483 39.2 19.6399C39.0049 19.5614 39.0699 19.6661 39.0569 19.3128L39.0699 16.355H37.899C37.899 16.3681 37.886 16.3943 37.886 16.4074L37.7039 16.6167C37.3917 16.3288 37.5088 16.054 37.6779 15.8053C37.9381 15.9362 37.808 16.2241 37.886 16.054C37.886 16.0409 37.899 16.0933 37.899 16.1063L39.0699 16.1194ZM29.0524 12.9523C29.3516 12.1016 28.8702 12.1539 28.6621 11.9184C29.4947 11.5519 29.95 12.7821 29.0524 12.9523ZM28.8963 5.61021C28.7401 5.50551 28.7792 5.57095 28.7141 5.53169C28.545 5.44008 28.6361 5.58404 28.558 5.40081C28.8182 5.08671 29.2215 5.0998 29.4687 5.40081C29.3906 5.61021 29.3516 5.46625 29.1434 5.61021V7.37702L30.5485 7.3901L30.6916 7.04983C31.0429 7.31158 31.0949 7.78273 30.6916 8.00521L30.6135 7.8089C30.5745 7.71729 30.5875 7.73038 30.5485 7.66494L29.1434 7.69112C29.1434 8.28005 29.2345 11.264 29.0524 11.4996C28.8442 11.421 28.8963 11.5519 28.8963 11.1593V7.66494H27.4912C27.3871 7.83508 27.4782 7.67803 27.4131 7.86125L27.3481 8.00521C26.9448 7.79581 26.9838 7.27232 27.3481 7.04983L27.4912 7.3901L28.8963 7.36393V5.61021ZM21.4416 32.963H21.4026C21.2465 32.963 20.9993 32.976 20.7911 32.9499H19.9585C19.8544 33.0153 19.3991 33.0807 19.2039 33.1724C18.8657 33.3163 18.4103 33.6697 17.994 33.9576C17.8769 33.722 17.7468 33.4995 17.6688 33.421C17.3826 33.1069 16.0816 32.8321 16.3808 31.1569C16.5499 30.267 17.3305 29.4294 17.7989 28.8797C18.7096 27.8065 18.6315 27.7934 19.36 26.7857C19.4511 29.5079 19.9195 28.9844 20.9212 30.8951C21.2335 31.5103 21.4546 32.2432 21.4416 32.963ZM32.4219 36.7321L32.9033 36.9415C32.7472 36.9546 32.578 36.9677 32.4219 36.9808C32.1747 36.9808 32.0186 36.9415 31.7844 36.9023C31.7974 36.8238 31.7584 36.9023 31.8105 36.8238C32.0446 36.7714 32.1617 36.7321 32.4219 36.7321ZM33.5928 36.8892L32.7472 36.261C33.9831 34.2586 35.3751 33.1985 37.899 33.2771C39.122 33.3032 39.7464 33.6435 40.6571 34.0492C42.0882 34.7036 42.0882 34.6382 43.5193 34.5204L43.8445 36.3264C43.7275 36.6144 43.4282 36.4442 43.0249 36.4704C41.1125 36.562 39.6294 36.6536 38.5235 36.7452C36.9363 36.8107 35.219 36.7976 33.5928 36.8892ZM32.1877 36.2872C31.6804 36.3264 31.4982 36.4835 31.1209 36.706C30.8998 36.8368 30.0151 36.8107 29.7029 36.8238C28.7271 36.8499 27.7774 36.9415 26.8147 36.9546C24.8762 36.9939 22.9117 37.1902 20.9733 37.2164C21.0123 36.5882 21.2465 35.9338 21.3636 35.358L21.91 35.4103C22.3393 35.4496 22.6906 35.3972 23.0809 35.2925C23.3541 35.214 23.9265 34.9261 24.0436 34.913C24.1477 34.8083 24.642 34.5335 24.8112 34.4288C26.6846 33.3163 28.7401 32.976 30.6266 34.2063C31.264 34.6905 32.1617 35.4103 32.1877 36.2872ZM20.4919 37.0593L20.4269 37.2556C19.8804 37.2818 15.1709 36.1694 15.1319 36.1432C15.1579 35.7768 15.379 35.3056 15.34 34.9915C15.379 34.9392 15.34 35.0308 15.3921 34.8999L15.4441 34.7167C15.4961 34.5858 15.4701 34.6512 15.5221 34.5989C16.0295 34.5989 16.7841 34.7559 17.3045 34.8345C18.4494 35.0046 19.7113 35.1486 20.8692 35.2925L20.4919 37.0593ZM25.6698 33.4995L25.6958 33.4734C24.7851 33.722 23.7574 34.7298 22.7296 34.8868C22.5995 34.9784 22.0271 34.9392 21.7929 34.9261C20.9212 34.7036 18.3583 34.5596 18.1631 34.4026C18.5274 34.1147 19.0608 33.7089 19.4901 33.5519C20.0235 33.3556 20.8562 33.421 21.4937 33.421C22.2092 33.421 22.9247 33.421 23.6403 33.421C23.9915 33.421 24.3558 33.421 24.7071 33.421C24.9283 33.421 25.6828 33.3687 25.6698 33.4995Z" fill="#522100"/>
<path d="M35.7529 26.6025C35.2846 27.0867 34.9203 27.4139 34.5691 28.0944C33.5543 30.0445 35.1155 31.7589 37.0669 32.1254C37.9256 32.2955 39.5258 32.3348 40.4105 32.1908C42.5571 32.073 44.8078 30.3062 43.5328 28.0159C43.0905 27.2307 41.087 25.0843 40.6056 24.8618C40.9699 25.8041 43.6369 28.1991 41.9977 30.568C41.6074 31.1438 41.178 31.3925 40.5145 31.615C38.8623 32.0338 37.21 31.772 36.5596 30.5811C36.2473 29.979 36.1953 29.1022 36.4164 28.3693C36.6246 27.6887 37.0019 27.2045 37.2751 26.6679C37.5613 26.3015 37.8996 25.6994 38.1207 25.2937C38.3939 24.7964 38.5761 24.3645 38.7192 23.7625V23.6316L38.6541 23.6578C38.2118 24.1551 38.3549 24.2336 37.5353 24.9796C36.9238 25.5293 36.3384 26.0135 35.7529 26.6025Z" fill="#522100"/>
<path d="M34.4243 25.9743C35.4521 24.7964 36.4279 23.7887 35.5172 22.0088C35.2179 21.3937 35.0228 21.2628 34.6195 20.8571C34.2942 20.5692 32.2257 18.8155 32.0826 18.7631C32.5249 19.8624 33.4486 20.543 33.956 22.1397C34.1902 22.8333 34.3073 23.8934 34.0471 24.5739C33.969 24.9796 33.7739 25.333 33.6047 25.634C33.3445 26.1182 32.9412 26.6025 32.5379 26.9558C29.988 29.233 22.8586 28.8142 23.8083 23.7363C24.2767 21.9957 25.4346 20.7 26.3322 19.5483C27.1909 18.449 28.3748 16.9047 28.5829 15.1248C28.5439 14.9023 28.5829 15.0332 28.3358 15.4782C28.2317 15.6745 28.1406 15.8053 27.9975 16.0147C26.3583 18.593 22.1821 21.1974 21.3235 23.684C20.686 25.5424 21.4536 27.6233 23.5351 28.3169C24.8101 28.7488 26.5144 28.6179 27.9975 28.6179C29.5977 28.6179 31.2239 28.631 32.8241 28.6179C32.9933 28.3562 33.0713 27.8196 33.4486 27.2568C33.7608 26.7726 34.034 26.4323 34.4243 25.9743Z" fill="#522100"/>
</svg>
