<svg width="56" height="56" viewBox="0 0 56 56" fill="none" xmlns="http://www.w3.org/2000/svg">
<circle cx="27.5" cy="27.5" r="17.5" fill="#CD8C5D"/>
<path d="M19.091 14.0001C19.7939 14.0001 20.3637 13.4303 20.3637 12.7274C20.3637 12.0245 19.7939 11.4547 19.091 11.4547C18.3882 11.4547 17.8184 12.0245 17.8184 12.7274C17.8184 13.4303 18.3882 14.0001 19.091 14.0001Z" fill="#522100"/>
<path d="M36.9153 44.5505C37.6182 44.5505 38.188 43.9807 38.188 43.2778C38.188 42.5749 37.6182 42.0051 36.9153 42.0051C36.2124 42.0051 35.6426 42.5749 35.6426 43.2778C35.6426 43.9807 36.2124 44.5505 36.9153 44.5505Z" fill="#522100"/>
<path d="M12.7278 20.3636C13.4307 20.3636 14.0005 19.7937 14.0005 19.0909C14.0005 18.388 13.4307 17.8182 12.7278 17.8182C12.0249 17.8182 11.4551 18.388 11.4551 19.0909C11.4551 19.7937 12.0249 20.3636 12.7278 20.3636Z" fill="#522100"/>
<path d="M43.2707 38.1831C43.9736 38.1831 44.5434 37.6133 44.5434 36.9104C44.5434 36.2075 43.9736 35.6377 43.2707 35.6377C42.5678 35.6377 41.998 36.2075 41.998 36.9104C41.998 37.6133 42.5678 38.1831 43.2707 38.1831Z" fill="#522100"/>
<path d="M36.9094 13.9948C37.6123 13.9948 38.1821 13.425 38.1821 12.7221C38.1821 12.0192 37.6123 11.4494 36.9094 11.4494C36.2065 11.4494 35.6367 12.0192 35.6367 12.7221C35.6367 13.425 36.2065 13.9948 36.9094 13.9948Z" fill="#522100"/>
<path d="M19.0891 44.5467C19.792 44.5467 20.3618 43.9769 20.3618 43.274C20.3618 42.5711 19.792 42.0013 19.0891 42.0013C18.3862 42.0013 17.8164 42.5711 17.8164 43.274C17.8164 43.9769 18.3862 44.5467 19.0891 44.5467Z" fill="#522100"/>
<path d="M43.2707 20.3636C43.9736 20.3636 44.5434 19.7937 44.5434 19.0909C44.5434 18.388 43.9736 17.8182 43.2707 17.8182C42.5678 17.8182 41.998 18.388 41.998 19.0909C41.998 19.7937 42.5678 20.3636 43.2707 20.3636Z" fill="#522100"/>
<path d="M12.7278 38.1804C13.4307 38.1804 14.0005 37.6106 14.0005 36.9078C14.0005 36.2049 13.4307 35.6351 12.7278 35.6351C12.0249 35.6351 11.4551 36.2049 11.4551 36.9078C11.4551 37.6106 12.0249 38.1804 12.7278 38.1804Z" fill="#522100"/>
<path d="M28 0C12.6 0 0 12.6 0 28C0 43.4 12.6 56 28 56C28.7637 56 29.2727 55.4909 29.2727 54.7273C29.2727 53.9638 28.7635 53.4546 28 53.4546C14 53.4545 2.54548 42 2.54548 28C2.54548 14 14 2.54548 28 2.54548C42 2.54548 53.4545 14 53.4545 28C53.4545 40.2182 44.8 50.6545 32.8363 52.9455C32.2 53.0728 31.6909 53.7091 31.8182 54.4728C31.9455 55.2365 32.5818 55.6183 33.3455 55.491C46.4545 52.9455 56 41.3637 56 28C56 12.6 43.4 0 28 0Z" fill="#522100"/>
<path d="M33.3464 5.72729C32.7101 5.59997 31.9464 5.9818 31.8191 6.61815C31.6918 7.25449 32.0736 8.01815 32.71 8.14546C41.4918 10.3091 47.7281 17.8181 48.3645 26.7273H45.819C45.0553 26.7273 44.5463 27.2364 44.5463 28C44.5463 28.7635 45.0555 29.2727 45.819 29.2727H48.2372C47.6009 39.4545 39.4555 47.6 29.2736 48.2363V45.8181C29.2736 45.0545 28.7645 44.5455 28.0009 44.5455C27.2374 44.5455 26.7283 45.0546 26.7283 45.8181V48.2363C16.5464 47.6 8.40094 39.4545 7.76459 29.2727H10.1828C10.9464 29.2727 11.4555 28.7635 11.4555 28C11.4555 27.2364 10.9463 26.7273 10.1828 26.7273H7.63728C8.27363 16.5455 16.5464 8.27277 26.7281 7.63643V10.1819C26.7281 10.9456 27.2373 11.4546 28.0008 11.4546C28.7644 11.4546 29.2735 10.9455 29.2735 10.1819V6.36363C29.2735 5.59997 28.7644 5.09094 28.0008 5.09094C15.4009 5.09083 5.0918 15.4 5.0918 28C5.0918 40.6 15.4009 50.9091 28.0009 50.9091C40.6009 50.9091 50.9101 40.6 50.9101 28C50.9101 17.4363 43.6555 8.27266 33.3464 5.72729Z" fill="#522100"/>
<path d="M39.0725 37.2909L31.4362 29.6546C31.6907 29.1454 31.818 28.6364 31.818 28C31.818 26.3455 30.7998 24.9455 29.2725 24.4364V17.8182C29.2725 17.0546 28.7634 16.5455 27.9998 16.5455C27.2363 16.5455 26.7271 17.0547 26.7271 17.8182V24.4364C25.1998 24.9455 24.1816 26.3455 24.1816 28C24.1816 30.1637 25.8362 31.8182 27.9998 31.8182C28.6362 31.8182 29.1453 31.6909 29.6543 31.4364L37.2907 39.0727C37.5452 39.3273 37.927 39.4546 38.1816 39.4546C38.4362 39.4546 38.818 39.3273 39.0725 39.0727C39.5816 38.5637 39.5816 37.8 39.0725 37.2909ZM27.9998 29.2727C27.2362 29.2727 26.7271 28.7636 26.7271 28C26.7271 27.2365 27.2363 26.7274 27.9998 26.7274C28.7634 26.7274 29.2725 27.2365 29.2725 28C29.2725 28.7636 28.7635 29.2727 27.9998 29.2727Z" fill="#522100"/>
</svg>
