<svg width="56" height="56" viewBox="0 0 56 56" fill="none" xmlns="http://www.w3.org/2000/svg">
<rect x="1" y="1" width="54" height="54" rx="2" stroke="#522100" stroke-width="2"/>
<rect x="31" y="13" width="16" height="12" rx="1" fill="#CD8C5D"/>
<path d="M25.468 34.1104C24.8856 34.4904 22.5168 35.0184 18.0013 35.0184C13.4858 35.0184 11.117 34.4904 10.5346 34.1104V33.0114C10.5346 32.1764 10.9593 31.4084 11.6098 31.0294L15.2097 29.1284C15.7716 28.8344 16.1337 28.2114 16.1337 27.5404V25.7374L15.57 25.4774C14.1541 24.8234 13.2338 23.5764 12.756 21.6634L12.6225 21.1304L12.1316 20.9664C11.7414 20.8354 11.468 20.4464 11.468 20.0184V19.0184C11.468 18.6564 11.6612 18.3204 11.9729 18.1424L12.4106 17.8924L12.462 17.3634C12.5544 16.4254 12.7494 15.5604 13.0425 14.7934C13.1666 14.4684 13.2721 14.2254 13.358 14.0264C13.6744 13.2984 13.7892 12.9224 13.7098 12.1514C14.8074 12.8234 16.1262 13.1094 17.557 12.9924C17.7017 12.9794 17.8501 12.9734 18.0022 12.9734C21.4966 12.9734 23.2028 14.3294 23.536 17.3714L23.5938 17.8934L24.0278 18.1394C24.3396 18.3174 24.5346 18.6544 24.5346 19.0184V20.0184C24.5346 20.4464 24.2612 20.8354 23.8701 20.9654L23.3792 21.1294L23.2457 21.6624C22.7678 23.5754 21.8476 24.8224 20.4317 25.4764L19.868 25.7374V27.5484C19.868 28.2174 20.2133 28.8204 20.7677 29.1234L24.291 31.0524C25.0172 31.4404 25.468 32.2224 25.468 33.0914V34.1104Z" fill="#CD8C5D"/>
<path d="M23.1301 29.2644L19.7346 27.4064V27.0194C21.2541 26.1304 22.3228 24.6664 22.9192 22.6554C23.8236 22.1414 24.4013 21.1404 24.4013 20.0184V19.0184C24.4013 18.0924 23.999 17.2334 23.327 16.6694C22.7446 12.8894 20.2825 10.9734 16.0013 10.9734C15.7988 10.9734 15.6009 10.9814 15.4077 10.9974C14.6013 11.0684 13.4206 10.9934 12.3986 10.2574C12.0169 9.98136 11.7285 9.71336 11.5446 9.46436C11.231 9.03536 10.7037 8.88536 10.2361 9.09136C9.76757 9.29736 9.49224 9.79936 9.55104 10.3384C9.59024 10.7124 9.64903 11.1474 9.7377 11.6244C9.91783 12.5994 9.91784 12.5994 9.6649 13.1824C9.5697 13.4034 9.4521 13.6724 9.31397 14.0354C9.00504 14.8464 8.7857 15.7344 8.6597 16.6824C7.99704 17.2474 7.6013 18.1014 7.6013 19.0184V20.0184C7.6013 21.1404 8.17904 22.1414 9.08344 22.6554C9.67984 24.6674 10.7485 26.1314 12.268 27.0194V27.3954L8.75024 29.2534C7.46597 30.0034 6.66797 31.4434 6.66797 33.0114V34.3364C6.66797 35.1394 6.66797 37.0184 16.0013 37.0184C25.3346 37.0184 25.3346 35.1394 25.3346 34.3364V33.0914C25.3346 31.4604 24.49 29.9954 23.1301 29.2644ZM23.468 34.1104C22.8856 34.4904 20.5168 35.0184 16.0013 35.0184C11.4858 35.0184 9.11704 34.4904 8.53464 34.1104V33.0114C8.53464 32.1764 8.9593 31.4084 9.60984 31.0294L13.2097 29.1284C13.7716 28.8344 14.1337 28.2114 14.1337 27.5404V25.7374L13.57 25.4774C12.1541 24.8234 11.2338 23.5764 10.756 21.6634L10.6225 21.1304L10.1316 20.9664C9.74144 20.8354 9.46797 20.4464 9.46797 20.0184V19.0184C9.46797 18.6564 9.66117 18.3204 9.9729 18.1424L10.4106 17.8924L10.462 17.3634C10.5544 16.4254 10.7494 15.5604 11.0425 14.7934C11.1666 14.4684 11.2721 14.2254 11.358 14.0264C11.6744 13.2984 11.7892 12.9224 11.7098 12.1514C12.8074 12.8234 14.1262 13.1094 15.557 12.9924C15.7017 12.9794 15.8501 12.9734 16.0022 12.9734C19.4966 12.9734 21.2028 14.3294 21.536 17.3714L21.5938 17.8934L22.0278 18.1394C22.3396 18.3174 22.5346 18.6544 22.5346 19.0184V20.0184C22.5346 20.4464 22.2612 20.8354 21.8701 20.9654L21.3792 21.1294L21.2457 21.6624C20.7678 23.5754 19.8476 24.8224 18.4317 25.4764L17.868 25.7374V27.5484C17.868 28.2174 18.2133 28.8204 18.7677 29.1234L22.291 31.0524C23.0172 31.4404 23.468 32.2224 23.468 33.0914V34.1104Z M31.9333 31H41.2667C41.7828 31 42.2 30.553 42.2 30C42.2 29.447 41.7828 29 41.2667 29H31.9333C31.4172 29 31 29.447 31 30C31 30.553 31.4172 31 31.9333 31Z M44.9997 31H45.9331C46.4492 31 46.8664 30.553 46.8664 30C46.8664 29.447 46.4492 29 45.9331 29H44.9997C44.4836 29 44.0664 29.447 44.0664 30C44.0664 30.553 44.4836 31 44.9997 31Z M7.86667 42H6.93333C6.4172 42 6 42.447 6 43C6 43.553 6.4172 44 6.93333 44H7.86667C8.3828 44 8.8 43.553 8.8 43C8.8 42.447 8.3828 42 7.86667 42Z M13.467 42H11.6003C11.0842 42 10.667 42.447 10.667 43C10.667 43.553 11.0842 44 11.6003 44H13.467C13.9831 44 14.4003 43.553 14.4003 43C14.4003 42.447 13.9831 42 13.467 42Z M18.1333 42H17.1999C16.6838 42 16.2666 42.447 16.2666 43C16.2666 43.553 16.6838 44 17.1999 44H18.1333C18.6494 44 19.0666 43.553 19.0666 43C19.0666 42.447 18.6494 42 18.1333 42Z M23.7336 42H21.8669C21.3508 42 20.9336 42.447 20.9336 43C20.9336 43.553 21.3508 44 21.8669 44H23.7336C24.2497 44 24.6669 43.553 24.6669 43C24.6669 42.447 24.2497 42 23.7336 42Z M26.8039 42.29C26.6349 42.479 26.5332 42.74 26.5332 43C26.5332 43.26 26.6349 43.52 26.8039 43.71C26.9803 43.89 27.2239 44 27.4665 44C27.7092 44 27.9519 43.89 28.1292 43.71C28.2972 43.52 28.3999 43.26 28.3999 43C28.3999 42.74 28.2972 42.479 28.1292 42.29C27.7745 41.92 27.1492 41.92 26.8039 42.29Z M27.75 42H26.875C26.3911 42 26 42.447 26 43C26 43.553 26.3911 44 26.875 44H27.75C28.2339 44 28.625 43.553 28.625 43C28.625 42.447 28.2339 42 27.75 42Z M33.0003 42H31.2503C30.7665 42 30.3753 42.447 30.3753 43C30.3753 43.553 30.7665 44 31.2503 44H33.0003C33.4842 44 33.8754 43.553 33.8754 43C33.8754 42.447 33.4842 42 33.0003 42Z M37.375 42H36.5C36.0161 42 35.625 42.447 35.625 43C35.625 43.553 36.0161 44 36.5 44H37.375C37.8589 44 38.25 43.553 38.25 43C38.25 42.447 37.8589 42 37.375 42Z M42.6253 42H40.8753C40.3915 42 40.0003 42.447 40.0003 43C40.0003 43.553 40.3915 44 40.8753 44H42.6253C43.1092 44 43.5003 43.553 43.5003 43C43.5003 42.447 43.1092 42 42.6253 42Z M45.5037 42.29C45.3454 42.479 45.25 42.74 45.25 43C45.25 43.26 45.3454 43.52 45.5037 43.71C45.6691 43.89 45.8975 44 46.125 44C46.3525 44 46.58 43.89 46.7462 43.71C46.9037 43.52 47 43.26 47 43C47 42.74 46.9037 42.479 46.7462 42.29C46.4137 41.92 45.8275 41.92 45.5037 42.29Z M45.2917 46H7.70833C6.76363 46 6 46.447 6 47C6 47.553 6.76363 48 7.70833 48H45.2917C46.2364 48 47 47.553 47 47C47 46.447 46.2364 46 45.2917 46Z" fill="#522100"/>
</svg>
