<svg width="56" height="56" viewBox="0 0 56 56" fill="none" xmlns="http://www.w3.org/2000/svg">
<path d="M33.4193 43.3549H22.5806C20.0904 43.3549 18.0645 41.3289 18.0645 38.8387V28.0968C18.0645 27.5445 18.5122 27.0968 19.0645 27.0968H36.9354C37.4877 27.0968 37.9354 27.5445 37.9354 28.0968V38.8387C37.9354 41.3289 35.9095 43.3549 33.4193 43.3549Z" fill="#CD8C5D"/>
<path d="M30.709 17.1613C30.709 17.6601 31.1134 18.0645 31.6122 18.0645C32.111 18.0645 32.5154 17.6601 32.5154 17.1613C32.5154 16.6624 32.111 16.2581 31.6122 16.2581C31.1134 16.2581 30.709 16.6624 30.709 17.1613Z" fill="#CD8C5D"/>
<path d="M23.4844 17.1613C23.4844 17.6601 23.8888 18.0645 24.3876 18.0645C24.8864 18.0645 25.2908 17.6601 25.2908 17.1613C25.2908 16.6624 24.8864 16.2581 24.3876 16.2581C23.8888 16.2581 23.4844 16.6624 23.4844 17.1613Z" fill="#CD8C5D"/>
<path d="M37.0322 30.7097H18.9677C18.4688 30.7097 18.0645 31.114 18.0645 31.6129C18.0645 32.1117 18.4688 32.5161 18.9677 32.5161H37.0322C37.531 32.5161 37.9354 32.1117 37.9354 31.6129C37.9354 31.114 37.531 30.7097 37.0322 30.7097Z" fill="#522100"/>
<path d="M51.4884 52.7854C49.999 51.0955 50.4235 47.7445 50.9148 43.8643C51.1948 41.6586 51.4839 39.3779 51.4839 37.0323C51.4839 28.4489 44.6546 27.2801 42.8725 27.1212C39.6932 23.8253 37.9355 19.5088 37.9355 14.9168V12.6452C37.9355 11.6475 37.1267 10.8387 36.129 10.8387V10.8387V4.51613C36.129 2.02594 34.1031 0 31.6129 0H24.3871C21.8969 0 19.871 2.02594 19.871 4.51613V10.8387V10.8387C18.8733 10.8387 18.0645 11.6475 18.0645 12.6452V14.9168C18.0645 19.5088 16.3068 23.8253 13.1275 27.1221C11.3454 27.2801 4.51613 28.4489 4.51613 37.0323C4.51613 39.3779 4.80516 41.6586 5.08426 43.8643C5.57561 47.7445 6.00013 51.0955 4.51071 52.7854C3.79591 53.5969 2.61134 54.0513 0.903101 54.165C0.405364 54.1981 0 54.5979 0 55.0968V55.0968C0 55.5956 0.405297 56.0037 0.903281 55.9745C3.17535 55.8413 4.80456 55.1856 5.86645 53.9804C7.8951 51.6781 7.42361 47.9523 6.87626 43.6375C6.60439 41.4879 6.32258 39.2641 6.32258 37.0323C6.32258 30.6726 10.7023 29.2916 12.6452 28.9908V51.4839C12.6452 53.9741 14.6711 56 17.1613 56H38.8387C41.3289 56 43.3548 53.9741 43.3548 51.4839V28.9854C45.2959 29.2763 49.6774 30.6356 49.6774 37.0323C49.6774 39.2641 49.3956 41.4879 49.1237 43.6375C48.5773 47.9523 48.1049 51.6781 50.1335 53.9804C51.1954 55.1856 52.8247 55.8413 55.0967 55.9745C55.5947 56.0037 56 55.5956 56 55.0968V55.0968C56 54.5979 55.5946 54.1981 55.0969 54.165C53.3886 54.0513 52.204 53.5969 51.4884 52.7854ZM34.3226 4.51613V10.8387H32.5161V4.51613C32.5161 3.49548 32.163 2.56335 31.5894 1.80645H31.6129C33.1068 1.80645 34.3226 3.02219 34.3226 4.51613ZM28 1.80645C29.176 1.80645 30.1695 2.56426 30.5435 3.6129H25.4574C25.8305 2.56426 26.824 1.80645 28 1.80645ZM25.2903 5.41935H30.7097V10.8387H25.2903V5.41935ZM21.6774 4.51613C21.6774 3.02219 22.8932 1.80645 24.3871 1.80645H24.4106C23.837 2.56335 23.4839 3.49548 23.4839 4.51613V10.8387H21.6774V4.51613ZM38.8387 52.3871C39.8594 52.3871 40.7915 52.0339 41.5484 51.4604V51.4839C41.5484 52.9778 40.3326 54.1935 38.8387 54.1935H17.1613C15.6674 54.1935 14.4516 52.9778 14.4516 51.4839V51.4604C15.2085 52.0339 16.1406 52.3871 17.1613 52.3871H18.0645C18.5634 52.3871 18.9677 51.9827 18.9677 51.4839V51.4839C18.9677 50.985 18.5634 50.5806 18.0645 50.5806H17.1613C15.6674 50.5806 14.4516 49.3649 14.4516 47.871V28.3694C17.9498 24.7366 19.871 19.9739 19.871 14.9168V12.6452H23.4839V14.4516H25.2903V12.6452H30.7097V14.4516H32.5161V12.6452H36.129V14.9168C36.129 19.9739 38.0502 24.7366 41.5484 28.3694V47.871C41.5484 49.3649 40.3326 50.5806 38.8387 50.5806H37.9355C37.4366 50.5806 37.0323 50.985 37.0323 51.4839V51.4839C37.0323 51.9827 37.4366 52.3871 37.9355 52.3871H38.8387Z" fill="#522100"/>
<path d="M34.323 50.5806H32.5165C32.0177 50.5806 31.6133 50.985 31.6133 51.4839C31.6133 51.9827 32.0177 52.3871 32.5165 52.3871H34.323C34.8218 52.3871 35.2262 51.9827 35.2262 51.4839C35.2262 50.985 34.8218 50.5806 34.323 50.5806Z" fill="#522100"/>
<path d="M28.903 50.5806H27.0966C26.5977 50.5806 26.1934 50.985 26.1934 51.4839C26.1934 51.9827 26.5977 52.3871 27.0966 52.3871H28.903C29.4019 52.3871 29.8063 51.9827 29.8063 51.4839C29.8063 50.985 29.4019 50.5806 28.903 50.5806Z" fill="#522100"/>
<path d="M23.4831 50.5806H21.6767C21.1778 50.5806 20.7734 50.985 20.7734 51.4839C20.7734 51.9827 21.1778 52.3871 21.6767 52.3871H23.4831C23.982 52.3871 24.3863 51.9827 24.3863 51.4839C24.3863 50.985 23.982 50.5806 23.4831 50.5806Z" fill="#522100"/>
</svg>
