<svg width="56" height="56" viewBox="0 0 56 56" fill="none" xmlns="http://www.w3.org/2000/svg">
<path d="M40.9848 41.942C40.2663 42.6605 39.0972 42.6605 38.3786 41.942L31.8539 35.4172C31.4737 35.037 31.3684 34.4534 31.5919 33.9648C31.958 33.164 31.8196 32.2717 31.2392 31.6914L30.1391 30.5913C29.76 30.2122 29.2559 30.0034 28.7198 30.0034C28.1837 30.0034 27.6797 30.2123 27.3006 30.5913C27.0564 30.8355 26.7317 30.97 26.3864 30.97C26.0411 30.97 25.7164 30.8354 25.4722 30.5913L18.6654 23.7846C14.5854 19.7045 14.0122 16.482 14.2779 14.46C14.371 13.7511 15.216 13.5672 15.7216 14.0727L40.9848 39.3358C41.7034 40.0544 41.7034 41.2235 40.9848 41.942Z" fill="#CD8C5D"/>
<path d="M42.267 39.0529L15.0933 11.879C14.9116 11.6973 14.6609 11.6018 14.4051 11.6145C14.1485 11.6279 13.9096 11.7493 13.7477 11.9486C13.6972 12.0108 12.5088 13.5019 12.4231 16.0344C12.3129 19.2908 13.9812 22.6664 17.3821 26.0673L24.1889 32.8741C24.7757 33.4609 25.556 33.7841 26.3861 33.7841C27.2161 33.7841 27.9963 33.4609 28.5831 32.8741C28.6298 32.8274 28.683 32.8176 28.7195 32.8176C28.7559 32.8176 28.8091 32.8275 28.8558 32.8741L29.9559 33.9742C29.998 34.0163 29.9806 34.1248 29.9414 34.2101C29.4044 35.3842 29.6571 36.7869 30.5704 37.7L37.0951 44.2249C37.8082 44.9379 38.7446 45.2944 39.6811 45.2944C40.6177 45.2944 41.5541 44.9379 42.267 44.2249C43.6931 42.799 43.6931 40.4788 42.267 39.0529ZM40.9844 42.942C40.2659 43.6605 39.0968 43.6605 38.3782 42.942L31.8534 36.4172C31.4733 36.037 31.3679 35.4535 31.5915 34.9648C31.9576 34.164 31.8192 33.2718 31.2388 32.6914L30.1387 31.5913C29.7596 31.2122 29.2555 31.0034 28.7194 31.0034C28.1833 31.0034 27.6793 31.2123 27.3002 31.5913C27.0559 31.8356 26.7313 31.97 26.386 31.97C26.0407 31.97 25.716 31.8354 25.4717 31.5913L18.665 24.7846C13.3977 19.5173 13.9751 15.6792 14.6567 14.0083L40.9844 40.3359C41.703 41.0544 41.703 42.2236 40.9844 42.942Z" fill="#522100"/>
<path d="M43.0879 13.7442C42.7336 13.3899 42.1592 13.3899 41.8051 13.7442L36.0158 19.5335C35.6614 19.8877 35.6614 20.4622 36.0158 20.8165C36.1929 20.9935 36.4251 21.0822 36.6572 21.0822C36.8893 21.0822 37.1215 20.9937 37.2985 20.8165L43.0879 15.027C43.442 14.6727 43.442 14.0983 43.0879 13.7442Z" fill="#CD8C5D"/>
<path d="M40.6231 10.539C40.2688 10.1848 39.6944 10.1848 39.3404 10.539L33.4391 16.4403C32.5344 17.3449 32.0004 18.4943 31.9742 19.5939L31.9337 21.282L30.2891 22.9265C29.9349 23.2808 29.9349 23.8552 30.2891 24.2093C30.4662 24.3865 30.6983 24.4751 30.9305 24.4751C31.1626 24.4751 31.3948 24.3865 31.5719 24.2093L33.4732 22.308C33.6379 22.1433 33.7329 21.9214 33.7386 21.6884L33.7878 19.6373C33.8029 19.0085 34.152 18.2929 34.7219 17.7229L40.623 11.8218C40.9774 11.4675 40.9774 10.8931 40.6231 10.539Z" fill="#CD8C5D"/>
<path d="M25.1154 35.6053C24.7612 35.251 24.1869 35.251 23.8326 35.6053L16.5753 42.8626C16.2271 43.2108 15.7644 43.4024 15.2722 43.4024C14.78 43.4024 14.3171 43.2106 13.9691 42.8626C13.621 42.5145 13.4293 42.0517 13.4293 41.5595C13.4293 41.0672 13.6211 40.6045 13.9691 40.2564L20.9746 33.251C21.3288 32.8967 21.3288 32.3223 20.9746 31.9682C20.6203 31.6139 20.0459 31.6139 19.6918 31.9682L12.6863 38.9737C11.9956 39.6644 11.6152 40.5828 11.6152 41.5596C11.6152 42.5366 11.9957 43.4549 12.6863 44.1456C13.3769 44.8363 14.2955 45.2167 15.2723 45.2167C16.2491 45.2167 17.1674 44.8362 17.8583 44.1456L25.1156 36.8882C25.4697 36.5337 25.4697 35.9593 25.1154 35.6053Z" fill="#CD8C5D"/>
<path d="M46.4281 16.3448C46.0739 15.9905 45.4994 15.9905 45.1454 16.3448L39.2444 22.2458C38.6838 22.8063 37.9652 23.1324 37.3111 23.1254L35.1787 23.093C34.9358 23.0896 34.6969 23.1851 34.5235 23.3586L32.6221 25.2599C32.2679 25.6142 32.2679 26.1886 32.6221 26.5427C32.7992 26.7198 33.0314 26.8085 33.2635 26.8085C33.4956 26.8085 33.7278 26.72 33.9049 26.5427L35.5348 24.9128L37.2835 24.9392C38.4324 24.9568 39.6133 24.4425 40.5271 23.5285L46.4281 17.6275C46.7824 17.2733 46.7824 16.6989 46.4281 16.3448Z" fill="#CD8C5D"/>
<path d="M47.799 8.20105C42.5106 2.91244 35.4791 0 28 0C20.5209 0 13.4894 2.91244 8.20105 8.20105C2.91266 13.4897 0 20.5209 0 28C0 35.4791 2.91244 42.5106 8.20105 47.799C13.4897 53.0873 20.5209 56 28 56C35.4791 56 42.5106 53.0876 47.799 47.799C53.0873 42.5103 56 35.4791 56 28C56 20.5209 53.0876 13.4894 47.799 8.20105ZM46.5162 46.5162C41.5703 51.462 34.9945 54.1858 28 54.1858C21.0055 54.1858 14.4297 51.462 9.4838 46.5162C4.53808 41.5703 1.8142 34.9944 1.8142 28C1.8142 21.0056 4.53808 14.4297 9.4838 9.4838C14.4297 4.53808 21.0056 1.8142 28 1.8142C34.9944 1.8142 41.5703 4.53797 46.5162 9.4838C51.462 14.4297 54.1858 21.0055 54.1858 28C54.1858 34.9945 51.4619 41.5703 46.5162 46.5162Z" fill="#522100"/>
</svg>
