<svg width="56" height="56" viewBox="0 0 56 56" fill="none" xmlns="http://www.w3.org/2000/svg">
<path d="M47.1071 6.64473L46.5601 8.28034C46.4666 8.55976 46.2065 8.74794 45.9138 8.74794C45.6015 8.74794 45.3292 8.53428 45.2527 8.2293L44.9342 6.95985C44.8936 6.79788 44.8936 6.62828 44.9342 6.4663L45.1365 5.65975C45.2723 5.11847 44.9452 4.56919 44.4071 4.43514L43.6963 4.25805C43.4669 4.20088 43.2247 4.22743 43.0128 4.33301L40.4878 5.59122C40.35 5.65991 40.1982 5.69565 40.0444 5.69565H36.8657C36.7593 5.69565 36.6536 5.71276 36.5525 5.74633L32.3341 7.14768C32.1874 7.19642 32.0538 7.27876 31.944 7.38823L29.3038 10.0195C29.1386 10.1841 29.0355 10.4014 29.0122 10.6342L28.5521 15.2187C28.5427 15.3133 28.5465 15.4087 28.5635 15.5021L29.4632 20.4334C29.523 20.7611 29.4181 21.0973 29.183 21.3316L28.7139 21.7991C28.1744 22.3367 27.2603 22.0969 27.0498 21.3625L26.8014 20.496C26.6377 19.925 26.0213 19.6202 25.4727 19.8389L25.3118 19.903C24.6554 20.1647 23.9438 19.6775 23.9438 18.9664V17.5495C23.9438 17.1838 23.6495 16.8874 23.2865 16.8874C22.849 16.8874 22.5335 16.4649 22.6549 16.0415L23.2041 14.1258C23.3293 13.6894 23.0692 13.2356 22.6314 13.1266C22.0599 12.9842 21.8351 12.2872 22.2143 11.8336L23.4802 10.3198C23.727 10.0247 23.6628 9.5787 23.343 9.36621C22.9306 9.09217 22.9688 8.47072 23.4116 8.25004L24.4477 7.73379C24.9808 7.46811 25.142 6.77909 24.7826 6.3016C24.3795 5.76585 24.6378 4.98933 25.28 4.80645L26.7248 4.39506C27.1658 4.26948 27.4276 3.81317 27.3153 3.36558C27.1679 2.77806 27.6588 2.22752 28.2545 2.31233L29.5897 2.50243C30.1125 2.57685 30.5797 2.16809 30.5797 1.6363C30.5797 0.958209 31.3125 0.537976 31.8913 0.884113L32.2117 1.07566C32.7095 1.37334 33.3535 1.1843 33.6146 0.663814L33.6701 0.553194C33.9312 0.0327114 34.5752 -0.156335 35.0731 0.14135L36.0406 0.719895C36.432 0.953914 36.9308 0.892215 37.2544 0.569778L37.5331 0.292C37.9228 -0.0963157 38.5501 -0.0963158 38.9398 0.292L39.3019 0.652915C39.7842 1.13361 40.5314 0.81196 41.1841 0.625406C41.2226 0.614414 41.261 0.608504 41.2991 0.608504C41.5518 0.608504 41.8175 1.38747 42.0237 2.22246C42.1932 2.90915 42.9702 3.272 43.5743 2.91079L43.76 2.79976C44.3228 2.46321 45.0496 2.75304 45.2312 3.38648L45.7442 5.17585C45.8324 5.48371 46.1122 5.69565 46.4303 5.69565C46.9188 5.69565 47.2631 6.17848 47.1071 6.64473Z" fill="#CD8C5D"/>
<path d="M32.1106 33.6749C32.519 32.047 33.1317 25.5354 30.0685 23.5006C29.0481 26.0441 23.9436 25.0267 23.9436 25.0267C23.9436 25.0267 27.5167 30.6226 25.4749 36.7271C26.4958 34.6923 29.8987 34.014 32.1106 33.6749Z" fill="#CD8C5D"/>
<path d="M37.2156 44.3579H44.3619L41.2992 54.5322L40.2783 54.0235L37.2156 44.3579Z" fill="#CD8C5D"/>
<path d="M13.2247 44.3579H19.3501L12.7143 54.5322L11.6934 53.0061L13.2247 44.3579Z" fill="#CD8C5D"/>
<path d="M43.8513 27.0616C43.8513 27.6235 44.3084 28.079 44.8723 28.079C45.4361 28.079 45.8932 27.6235 45.8932 27.0616C45.8932 26.4997 45.4361 26.0442 44.8723 26.0442C44.3084 26.0442 43.8513 26.4997 43.8513 27.0616Z" fill="#CD8C5D"/>
<path d="M40.7888 22.9919C40.7888 23.5538 41.2459 24.0093 41.8098 24.0093C42.3736 24.0093 42.8307 23.5538 42.8307 22.9919C42.8307 22.43 42.3736 21.9745 41.8098 21.9745C41.2459 21.9745 40.7888 22.43 40.7888 22.9919Z" fill="#CD8C5D"/>
<path d="M36.7048 19.9397C36.7048 20.5016 37.1619 20.9571 37.7257 20.9571C38.2896 20.9571 38.7466 20.5016 38.7466 19.9397C38.7466 19.3778 38.2896 18.9222 37.7257 18.9222C37.1619 18.9222 36.7048 19.3778 36.7048 19.9397Z" fill="#CD8C5D"/>
<path fill-rule="evenodd" clip-rule="evenodd" d="M29.2191 22.9363C28.9064 23.4038 29.0332 24.0355 29.5023 24.3472C30.0416 24.7054 30.47 25.295 30.7884 26.0949C31.1065 26.8944 31.2901 27.8443 31.3742 28.8269C31.5437 30.8055 31.2959 32.7275 31.1202 33.4281C30.9835 33.9732 31.316 34.5256 31.863 34.6619C32.41 34.7982 32.9643 34.4668 33.101 33.9216C33.3337 32.9943 33.5965 30.8466 33.4086 28.6538C33.3141 27.5506 33.1021 26.3894 32.6863 25.3447C32.2708 24.3006 31.6272 23.3132 30.6348 22.654C30.1656 22.3423 29.5318 22.4687 29.2191 22.9363ZM23.0823 25.5729L23.086 25.5788C23.0905 25.5861 23.0981 25.5985 23.1087 25.616C23.1299 25.651 23.1626 25.7062 23.2048 25.7804C23.2891 25.9289 23.4108 26.1527 23.5522 26.442C23.8357 27.0219 24.1957 27.8587 24.4955 28.8748C25.0976 30.9148 25.4398 33.6148 24.5064 36.4054C24.3281 36.9385 24.6172 37.5147 25.1521 37.6924C25.687 37.8701 26.2652 37.582 26.4435 37.0489C27.5519 33.7349 27.1284 30.5847 26.4544 28.3006C26.1162 27.1547 25.7105 26.211 25.3878 25.5509C25.2262 25.2202 25.0846 24.9592 24.9815 24.7778C24.9299 24.687 24.8879 24.616 24.8577 24.5661C24.8427 24.5411 24.8305 24.5214 24.8216 24.5071L24.8107 24.4897L24.8072 24.484L24.8059 24.482L24.8053 24.4812C24.8051 24.4808 24.8049 24.4805 23.9436 25.0267L24.8049 24.4805C24.5022 24.0064 23.8712 23.8667 23.3955 24.1683C22.9201 24.4698 22.7798 25.0981 23.0818 25.5721C23.0818 25.5722 23.0819 25.5723 23.0819 25.5724L23.0823 25.5729Z" fill="#522100"/>
<path fill-rule="evenodd" clip-rule="evenodd" d="M43.8516 47.4101C43.8516 46.8482 43.3945 46.3927 42.8307 46.3927H40.7889C40.225 46.3927 39.7679 46.8482 39.7679 47.4101C39.7679 47.972 40.225 48.4275 40.7889 48.4275H42.8307C43.3945 48.4275 43.8516 47.972 43.8516 47.4101Z" fill="#522100"/>
<path fill-rule="evenodd" clip-rule="evenodd" d="M44.8711 44.3579C44.8711 43.796 44.414 43.3404 43.8502 43.3404H40.7875C40.2237 43.3404 39.7666 43.796 39.7666 44.3579C39.7666 44.9198 40.2237 45.3753 40.7875 45.3753H43.8502C44.414 45.3753 44.8711 44.9198 44.8711 44.3579Z" fill="#522100"/>
<path fill-rule="evenodd" clip-rule="evenodd" d="M20.3691 44.3579C20.3691 43.796 19.9121 43.3404 19.3482 43.3404H16.2855C15.7217 43.3404 15.2646 43.796 15.2646 44.3579C15.2646 44.9198 15.7217 45.3753 16.2855 45.3753H19.3482C19.9121 45.3753 20.3691 44.9198 20.3691 44.3579Z" fill="#522100"/>
<path fill-rule="evenodd" clip-rule="evenodd" d="M21.091 25.3248C20.6923 24.9275 20.0459 24.9275 19.6473 25.3248L16.5845 28.3771C16.1859 28.7744 16.1859 29.4186 16.5845 29.8159C16.9832 30.2133 17.6296 30.2133 18.0283 29.8159L21.091 26.7637C21.4897 26.3663 21.4897 25.7221 21.091 25.3248Z" fill="#522100"/>
<path fill-rule="evenodd" clip-rule="evenodd" d="M18.3281 47.4101C18.3281 46.8482 17.8711 46.3927 17.3072 46.3927H15.2654C14.7016 46.3927 14.2445 46.8482 14.2445 47.4101C14.2445 47.972 14.7016 48.4275 15.2654 48.4275H17.3072C17.8711 48.4275 18.3281 47.972 18.3281 47.4101Z" fill="#522100"/>
<path fill-rule="evenodd" clip-rule="evenodd" d="M42.5085 3.35736C41.5793 3.6253 40.7584 4.01839 40.2634 4.31436L39.6708 4.66871C39.5525 4.67459 39.4154 4.67808 39.2573 4.67808C37.0995 4.67808 32.6883 5.20743 29.3473 8.53708C28.5301 9.35157 28.1016 10.4786 27.8879 11.6368C27.6722 12.8065 27.6564 14.1111 27.7493 15.396C27.9276 17.8629 28.5178 20.4025 29.0317 22.0755C29.0206 22.141 29.0022 22.238 28.9717 22.3715C28.9049 22.6637 28.7898 23.0881 28.6001 23.6579C28.5767 23.6804 28.487 23.7528 28.2296 23.8317C27.8489 23.9484 27.309 24.0092 26.6875 24.0092C26.0776 24.0092 25.4472 23.9509 24.9149 23.8637C24.3499 23.7712 23.9999 23.6627 23.8899 23.6079C23.7445 23.5355 23.5776 23.4601 23.407 23.4135C23.256 23.3722 22.9235 23.3019 22.5641 23.461C22.1664 23.6372 22.0087 23.9684 21.9517 24.1155C21.9075 24.2295 21.8739 24.3757 21.8692 24.396C21.8689 24.3973 21.8687 24.3981 21.8687 24.3984C21.8639 24.4174 21.8603 24.4302 21.8578 24.4383C21.8332 24.4585 21.7595 24.5091 21.5905 24.5664C21.5908 24.5662 21.591 24.5661 21.591 24.566C21.5906 24.5641 21.499 24.5787 21.2634 24.5427C21.007 24.5034 20.6735 24.4194 20.2706 24.2893C19.4673 24.0298 18.4898 23.6205 17.486 23.1516C15.4726 22.211 13.4793 21.0906 12.7697 20.6191C11.0894 19.5027 9.56904 20.1086 8.92926 20.7462L8.85778 20.8175L8.80171 20.9013C8.45939 21.413 7.64571 22.6791 7.20667 23.5542C6.93421 24.0973 6.9507 24.6522 7.14229 25.1516C7.31435 25.6 7.62404 25.9986 7.93522 26.3432C8.25476 26.697 8.65207 27.0746 9.07022 27.4678C9.12287 27.5172 9.17609 27.5672 9.22988 27.6177C9.61286 27.9773 10.0245 28.3637 10.4606 28.7984C12.4284 30.7595 13.33 32.146 13.7744 33.4501C13.7761 33.4658 13.7794 33.4998 13.7813 33.5575C13.7854 33.6764 13.7827 33.8439 13.7708 34.0637C13.7469 34.502 13.6897 35.0894 13.6034 35.8004C13.431 37.2193 13.1499 39.0722 12.8167 41.0894C12.1555 45.0938 11.2968 49.703 10.7028 52.7502C10.6093 53.0415 10.4966 53.4694 10.4595 53.8653C10.4412 54.0606 10.428 54.3681 10.5224 54.6689C10.5728 54.8293 10.6744 55.0547 10.8871 55.2448C11.1202 55.4532 11.4092 55.5495 11.693 55.5495C12.1576 55.5495 12.5554 55.366 12.8059 55.2209C13.0709 55.0674 13.2933 54.8848 13.4357 54.7428L13.5015 54.6773L13.5543 54.601C15.2527 52.1467 17.928 48.3379 20.4319 44.8908C22.9644 41.4044 25.248 38.3924 26.197 37.4465C27.2768 36.3705 28.9709 35.6706 30.5741 35.3747C31.3654 35.2287 32.0859 35.1906 32.6394 35.2371C32.9162 35.2604 33.1281 35.3029 33.2759 35.3508C33.3372 35.3707 33.3786 35.3886 33.4046 35.4014C33.4164 35.424 33.4321 35.4554 33.4514 35.4973C33.52 35.6457 33.6054 35.8587 33.7065 36.1392C33.9078 36.6976 34.1485 37.4584 34.418 38.3668C34.9562 40.181 35.5909 42.5209 36.23 44.8776L36.2326 44.8872C36.8687 47.2329 37.5092 49.5948 38.055 51.4344C38.3279 52.3542 38.5817 53.1593 38.803 53.7733C38.9133 54.0791 39.0213 54.3539 39.1252 54.5785C39.2097 54.7614 39.3495 55.0454 39.5564 55.2515C40.1096 55.8029 40.7906 56.1218 41.5148 55.9562C42.1682 55.8067 42.553 55.3255 42.7227 54.9871L42.7767 54.8796L42.804 54.7626C43.4781 51.8738 44.6661 47.8239 45.8914 43.647C46.1976 42.6031 46.5062 41.5513 46.8096 40.5077C48.3076 35.3558 49.7044 30.3305 49.9714 27.6716C50.1394 25.9988 49.5492 24.4496 48.662 23.0932C47.7763 21.739 46.5473 20.5027 45.3026 19.4184C44.1986 18.4565 43.0428 17.5812 42.0571 16.8345C41.9296 16.738 41.805 16.6436 41.6836 16.5514C41.1471 16.1438 40.6818 15.7851 40.3058 15.4688C39.9179 15.1425 39.6814 14.9076 39.5633 14.7506C39.2808 14.3753 39.2931 14.1904 39.2966 14.1625C39.2991 14.1434 39.3111 14.0726 39.4596 13.969C39.6159 13.8599 39.8653 13.7625 40.1699 13.7232C40.4725 13.6841 40.7611 13.7114 40.976 13.7827C41.2321 13.8678 41.7312 14.1396 42.433 14.5563C42.6213 14.668 42.8204 14.7879 43.025 14.9109C43.5239 15.2112 44.055 15.5308 44.5386 15.7997C44.8834 15.9915 45.2278 16.1713 45.5447 16.311C45.8412 16.4417 46.1962 16.5753 46.5386 16.6134C46.7116 16.6327 46.9669 16.6382 47.2352 16.5386C47.5423 16.4247 47.8085 16.1923 47.9494 15.8567C48.0731 15.5621 48.0634 15.2763 48.0341 15.077C48.0036 14.8691 47.9383 14.6647 47.8619 14.4745C47.4071 13.3415 47.3343 12.5707 47.2953 11.8708C47.2913 11.7994 47.2877 11.7265 47.2841 11.6523C47.2518 10.9911 47.2142 10.2224 46.826 9.35201L46.8166 9.3309L46.8063 9.31024C46.6292 8.95734 46.339 8.40498 46.0376 7.88375C45.8895 7.62774 45.7161 7.3383 45.5382 7.0764C45.5961 7.01502 45.6607 6.94803 45.7326 6.87396C45.7461 6.86006 45.7599 6.84592 45.7738 6.83157C45.908 6.69351 46.0616 6.53543 46.2054 6.37615C46.3632 6.20141 46.5341 5.9984 46.6761 5.78254C46.8102 5.57877 46.9715 5.28581 47.0229 4.9374C47.0821 4.53616 46.9873 4.09084 46.6503 3.73126C46.3589 3.42036 45.9722 3.26748 45.6304 3.18231C44.561 2.91587 43.4215 3.09407 42.5085 3.35736ZM44.6212 5.0876C44.5225 5.19418 44.4169 5.30284 44.304 5.41913C44.2912 5.43233 44.2782 5.44564 44.2652 5.45905C44.1198 5.60884 43.9561 5.77822 43.8164 5.94145C43.6902 6.08888 43.5126 6.31083 43.4032 6.56778C43.2923 6.82806 43.1393 7.44222 43.64 7.94114C43.7317 8.03251 43.9648 8.37459 44.2685 8.89971C44.5395 9.36837 44.8048 9.87212 44.969 10.1984C45.188 10.6985 45.2093 11.0991 45.2455 11.7782C45.249 11.844 45.2527 11.9124 45.2566 11.9837C45.2886 12.5569 45.3452 13.2184 45.5659 14.0408C45.5552 14.0349 45.5445 14.0289 45.5337 14.0229C45.082 13.7716 44.601 13.4822 44.1154 13.19C43.9032 13.0622 43.69 12.934 43.478 12.8081C42.8353 12.4265 42.1312 12.0216 41.6217 11.8523C40.5722 11.5037 39.2107 11.6588 38.2887 12.3019C37.7992 12.6435 37.3645 13.1767 37.2713 13.9048C37.1791 14.6241 37.4466 15.3295 37.9298 15.9715C38.1946 16.3233 38.5814 16.6811 38.9889 17.0239C39.4083 17.3766 39.9108 17.7632 40.4459 18.1697C40.5696 18.2637 40.6955 18.3591 40.8231 18.4558C41.8135 19.2061 42.9112 20.0377 43.9587 20.9503C45.1434 21.9824 46.2137 23.0762 46.9515 24.2044C47.6879 25.3303 48.0455 26.4159 47.9398 27.4689C47.6959 29.8972 46.3704 34.707 44.8485 39.9414C44.5503 40.967 44.2454 42.0062 43.9415 43.042C42.7974 46.9418 41.6674 50.7934 40.9618 53.6878C40.8964 53.5419 40.8171 53.3418 40.7246 53.0852C40.5232 52.5268 40.2825 51.766 40.013 50.8575C39.4748 49.0433 38.8402 46.7035 38.2011 44.3467L38.1985 44.3372C37.5623 41.9915 36.9218 39.6296 36.3761 37.7899C36.1032 36.8702 35.8494 36.0651 35.628 35.4511C35.5178 35.1453 35.4097 34.8705 35.3059 34.6458C35.2214 34.463 35.0816 34.179 34.8747 33.9728C34.5911 33.6901 34.2335 33.5214 33.9072 33.4157C33.5704 33.3066 33.1961 33.2418 32.811 33.2094C32.0404 33.1447 31.1338 33.202 30.2024 33.3739C28.3601 33.7139 26.2258 34.5402 24.7533 36.0077C23.6605 37.0967 21.2649 40.274 18.778 43.6976C16.7416 46.501 14.5944 49.5397 12.9461 51.9024C13.5192 48.9141 14.2504 44.9384 14.8314 41.4199C15.1662 39.3929 15.4529 37.5067 15.6304 36.045C15.719 35.3157 15.7822 34.6774 15.8096 34.1738C15.8232 33.9227 15.8288 33.6901 15.822 33.4886C15.816 33.313 15.799 33.0682 15.7242 32.8444C15.1432 31.1072 14.0012 29.4492 11.9044 27.3595C11.4453 26.902 11.0107 26.494 10.6289 26.1355C10.5753 26.0853 10.5228 26.0359 10.4714 25.9876C10.0441 25.5859 9.7076 25.264 9.45288 24.9819C9.19336 24.6946 9.08763 24.5216 9.05092 24.4286C9.40582 23.7303 10.0615 22.6945 10.4209 22.1501C10.4367 22.14 10.4557 22.1291 10.4778 22.1181C10.5441 22.0851 10.6299 22.0552 10.7317 22.0416C10.9157 22.0169 11.2207 22.0355 11.6371 22.3122C12.4588 22.8582 14.5492 24.0269 16.6194 24.9941C17.6574 25.479 18.7217 25.9281 19.6412 26.225C20.0997 26.3731 20.5478 26.4918 20.9534 26.5539C21.3293 26.6115 21.7978 26.6424 22.2248 26.5006C22.7374 26.3303 23.1367 26.0833 23.4216 25.7492C23.4546 25.7105 23.4851 25.6717 23.5132 25.6332C23.8392 25.7319 24.2129 25.8109 24.5838 25.8716C25.216 25.9752 25.9574 26.0441 26.6875 26.0441C27.4059 26.0441 28.174 25.9777 28.8301 25.7765C29.4445 25.5881 30.2395 25.1913 30.5273 24.331C30.7401 23.6947 30.8773 23.1962 30.9625 22.8236C31.0414 22.4784 31.0901 22.1807 31.0901 21.9744V21.8175L31.0427 21.668C30.5496 20.1119 29.9574 17.6228 29.7858 15.2498C29.7001 14.0632 29.7226 12.9451 29.8961 12.0047C30.0716 11.0528 30.3833 10.3824 30.7911 9.97594C33.5755 7.20101 37.3323 6.71294 39.2573 6.71294C40.078 6.71294 40.7342 6.6386 41.1786 6.40302C41.3588 6.3075 41.6131 6.12443 41.7591 5.82067C42.1158 5.64663 42.5763 5.45611 43.076 5.31204C43.6239 5.15405 44.1559 5.07025 44.6212 5.0876Z" fill="#522100"/>
</svg>
