<svg width="57" height="56" viewBox="0 0 57 56" fill="none" xmlns="http://www.w3.org/2000/svg">
<path d="M0 26H24.5H56V39.8667L53 40.5778L47 42.5L43 43L34 42.5L24.5 39.5111L17 38.4444L6 38.8L0 40.2222V26Z" fill="#CD8C5D"/>
<path d="M43.7714 19.653V19.4624V13.3156C43.7714 8.80837 39.9311 5 35.4286 5C30.8483 5 27.0857 8.63678 27.0857 13.1081V19.653H25.3714V19.4624V13.3156C25.3714 8.8358 21.6659 5.19122 17.0857 5.19122C12.5832 5.19122 8.8 8.9919 8.8 13.4896V19.653H8.75669H0.860817C0.385401 19.653 0 20.0384 0 20.5138V20.5138C0 20.9892 0.385401 21.3746 0.860817 21.3746H23.6571V38.4739C23.8822 38.5352 24.1085 38.599 24.3359 38.6652C25.3184 38.951 26.3219 39.2824 27.3367 39.6592C27.5528 39.7394 27.7669 39.8138 27.9843 39.8984C28.0486 39.9234 28.1126 39.9471 28.1768 39.9717L41.9429 39.8535V42.1732C41.9944 42.1713 42.0441 42.1691 42.0944 42.1669C42.0568 42.1686 42.0205 42.1716 41.9827 42.1732C37.8566 42.3533 33.1162 41.8606 28.1768 39.9717C28.1126 39.9471 28.0486 39.9234 27.9843 39.8984C27.7669 39.8138 27.5528 39.7394 27.3367 39.6592C26.3219 39.2824 25.3184 38.951 24.3359 38.6652C24.1085 38.599 23.8822 38.5352 23.6571 38.4739C23.643 38.4701 23.6285 38.4658 23.6144 38.4619C11.7715 35.2553 2.7749 38.4007 0.521301 39.3028C0.200762 39.4311 0 39.7448 0 40.09V40.09C0 40.7062 0.640772 41.1359 1.22241 40.9327C4.71862 39.7108 15.2867 36.8414 27.3459 41.5363C31.8733 43.2994 36.2747 43.9288 40.2521 43.9288C48.6226 43.9281 53.9693 41.6773 55.5243 40.9295C55.8041 40.795 55.9734 40.511 55.977 40.2005V40.2005C55.9846 39.5572 55.2935 39.1173 54.7005 39.3667C52.7752 40.1764 48.8339 41.5819 43.7714 42.0501V21.3746H55.1392C55.6146 21.3746 56 20.9892 56 20.5138V20.5138C56 20.0384 55.6146 19.653 55.1392 19.653H43.7714ZM23.6571 19.4623V19.653H10.5143V13.4896C10.5143 9.94373 13.531 6.9474 17.0857 6.9474C20.7019 6.9474 23.6571 9.80382 23.6571 13.3155V19.4623ZM41.9429 38.1318H25.3714V33.6556H41.9429V38.1318ZM41.9429 31.934H25.3714V27.5725H41.9429V31.934ZM41.9429 25.7361H25.3714V21.3746H41.9429V25.7361ZM41.9429 19.4624V19.653H28.9143V13.1081C28.9143 9.60595 31.8123 6.7563 35.4286 6.7563C38.9833 6.7563 41.9429 9.76021 41.9429 13.3156V19.4624Z" fill="#522100"/>
<path d="M14.9106 24.9326H0.860818C0.385401 24.9326 0 25.318 0 25.7934C0 26.2689 0.385402 26.6543 0.860818 26.6543H14.9106C15.386 26.6543 15.7714 26.2689 15.7714 25.7934C15.7714 25.318 15.386 24.9326 14.9106 24.9326Z" fill="#522100"/>
<path d="M19.2521 24.9326H18.3452C17.8698 24.9326 17.4844 25.318 17.4844 25.7934C17.4844 26.2689 17.8698 26.6543 18.3452 26.6543H19.2521C19.7275 26.6543 20.1129 26.2689 20.1129 25.7934C20.1129 25.318 19.7275 24.9326 19.2521 24.9326Z" fill="#522100"/>
<path d="M55.1396 24.9326H47.2612C46.7858 24.9326 46.4004 25.318 46.4004 25.7934C46.4004 26.2689 46.7858 26.6543 47.2612 26.6543H55.1396C55.615 26.6543 56.0004 26.2689 56.0004 25.7934C56.0004 25.318 55.615 24.9326 55.1396 24.9326Z" fill="#522100"/>
<path d="M28.0272 49.5578C15.9222 54.2712 4.96525 50.5679 1.30622 49.026C0.713366 48.7762 0.0241786 49.2161 0.0313048 49.8594V49.8594C0.0347479 50.1702 0.204031 50.4545 0.484164 50.5892C2.03973 51.3372 7.3857 53.5875 15.7553 53.5882C19.7327 53.5882 24.1328 52.9588 28.6601 51.1957C40.7747 46.4791 51.3816 49.3969 54.8272 50.6089C55.3869 50.8058 56.0012 50.3912 56.0012 49.7978V49.7978C56.0012 49.4315 55.7666 49.0962 55.4238 48.967C52.7614 47.964 41.9957 44.1188 28.0272 49.5578Z" fill="#522100"/>
<path d="M17.1641 46.7046C17.6364 46.8182 18.1416 46.5878 18.3076 46.1314V46.1314C18.4731 45.6766 18.2396 45.1699 17.7717 45.0466C14.7452 44.2491 11.6209 44.9929 10.1714 45.4459C9.70849 45.5906 9.49224 46.0974 9.673 46.5475V46.5475C9.85399 46.9981 10.3654 47.2226 10.8308 47.0839C12.1215 46.6991 14.7155 46.1158 17.1641 46.7046Z" fill="#CD8C5D"/>
</svg>
