<svg width="56" height="56" viewBox="0 0 56 56" fill="none" xmlns="http://www.w3.org/2000/svg">
<g clip-path="url(#clip0)">
<path d="M1.09375 53.8125C0.491094 53.8125 0 54.3036 0 54.9062C0 55.5089 0.491094 56 1.09375 56C1.69641 56 2.1875 55.5089 2.1875 54.9062C2.1875 54.3036 1.69641 53.8125 1.09375 53.8125Z" fill="#522100"/>
<path d="M17.5 20.0572V52C17.5 53.6569 18.8431 55 20.5 55H40.5C42.1569 55 43.5 53.6569 43.5 52V19.9881C43.5 19.0505 43.0617 18.1669 42.3153 17.5996L32.7471 10.3278C31.7067 9.53708 30.2741 9.51082 29.2054 10.2629L18.7735 17.6038C17.9751 18.1657 17.5 19.0809 17.5 20.0572Z" fill="#CD8C5D"/>
<path d="M54.9063 53.8125H50.9688V40.3405C50.9688 40.3405 54.2513 42.7667 54.2561 42.7702C54.7174 43.1111 55.4357 43.0146 55.7859 42.5408C56.1448 42.055 56.0421 41.3701 55.5564 41.011L41.125 30.3989V20.6768C41.125 20.6768 45.752 23.9771 45.754 23.9786C46.2295 24.3178 46.9384 24.1878 47.2754 23.6992C47.6183 23.2019 47.4932 22.5207 46.9959 22.1779L29.0938 9.29086V5.25H31.2813C31.8852 5.25 32.375 4.76033 32.375 4.15625C32.375 3.55217 31.8852 3.0625 31.2813 3.0625H29.0938V1.09375C29.0938 0.489672 28.604 0 28 0C27.396 0 26.9063 0.489672 26.9063 1.09375V3.0625H24.7188C24.1148 3.0625 23.625 3.55217 23.625 4.15625C23.625 4.76033 24.1148 5.25 24.7188 5.25H26.9063V9.29086L9.00409 22.1778C8.50687 22.5206 8.38186 23.2018 8.72464 23.699C9.05287 24.175 9.75692 24.3158 10.246 23.9785L14.875 20.6767V30.3988L0.443639 41.011C-0.0419865 41.3701 -0.144799 42.0549 0.21417 42.5408C0.568654 43.0203 1.26494 43.1242 1.74389 42.7702L5.03126 40.3405V53.9046C4.64561 54.0739 4.37501 54.4591 4.37501 54.9062C4.37501 55.5089 4.86611 56 5.46876 56H54.9063C55.5089 56 56 55.5089 56 54.9062C56 54.3036 55.5088 53.8125 54.9063 53.8125ZM30.7344 53.8125H25.2656V47.7559C25.2656 46.2481 26.4923 45.0215 28 45.0215C29.5077 45.0215 30.7344 46.2481 30.7344 47.7559V53.8125ZM48.7813 53.8125H32.9219V47.7559C32.9219 45.0419 30.714 42.834 28 42.834C25.286 42.834 23.0781 45.0419 23.0781 47.7559V53.8125H7.21876V38.7261L14.875 33.1115V35.7656C14.875 36.3683 15.3661 36.8594 15.9688 36.8594C16.5714 36.8594 17.0625 36.3683 17.0625 35.7656V19.1466L28 11.202L38.9375 19.1466V35.7656C38.9375 36.3683 39.4286 36.8594 40.0313 36.8594C40.6339 36.8594 41.125 36.3683 41.125 35.7656V33.1115L48.7813 38.7261V53.8125Z" fill="#522100"/>
<path d="M31.2812 31.7188H29.0938V29.75C29.0938 29.1459 28.604 28.6562 28 28.6562C27.396 28.6562 26.9062 29.1459 26.9062 29.75V31.7188H24.7188C24.1148 31.7188 23.625 32.2084 23.625 32.8125C23.625 33.4166 24.1148 33.9062 24.7188 33.9062H26.9062V38.5C26.9062 39.1041 27.396 39.5938 28 39.5938C28.604 39.5938 29.0938 39.1041 29.0938 38.5V33.9062H31.2812C31.8852 33.9062 32.375 33.4166 32.375 32.8125C32.375 32.2084 31.8852 31.7188 31.2812 31.7188Z" fill="#522100"/>
<path d="M12.9248 44.1089C11.1155 44.1089 9.64355 45.593 9.64355 47.4172V50.2339C9.64355 50.8379 10.1333 51.3276 10.7373 51.3276H15.1123C15.7163 51.3276 16.2061 50.8379 16.2061 50.2339V47.4172C16.2061 45.593 14.7341 44.1089 12.9248 44.1089ZM14.0186 49.1401H11.8311V47.4172C11.8311 46.7993 12.3217 46.2964 12.9248 46.2964C13.5279 46.2964 14.0186 46.7992 14.0186 47.4172V49.1401Z" fill="#522100"/>
<path d="M28 16.0781C26.1907 16.0781 24.7188 17.5622 24.7188 19.3865V24.6094C24.7188 25.2135 25.2085 25.7031 25.8125 25.7031H30.1875C30.7915 25.7031 31.2812 25.2135 31.2812 24.6094V19.3865C31.2812 17.5622 29.8093 16.0781 28 16.0781ZM29.0938 23.5156H26.9062V19.3865C26.9062 18.7685 27.3969 18.2656 28 18.2656C28.6031 18.2656 29.0938 18.7684 29.0938 19.3865V23.5156Z" fill="#522100"/>
<path d="M15.9688 39.0469C15.3661 39.0469 14.875 39.538 14.875 40.1406C14.875 40.7433 15.3661 41.2344 15.9688 41.2344C16.5714 41.2344 17.0625 40.7433 17.0625 40.1406C17.0625 39.538 16.5714 39.0469 15.9688 39.0469Z" fill="#522100"/>
<path d="M40.0312 39.0469C39.4286 39.0469 38.9375 39.538 38.9375 40.1406C38.9375 40.7433 39.4286 41.2344 40.0312 41.2344C40.6339 41.2344 41.125 40.7433 41.125 40.1406C41.125 39.538 40.6339 39.0469 40.0312 39.0469Z" fill="#522100"/>
<path d="M43.2031 44.1089C41.3938 44.1089 39.9219 45.593 39.9219 47.4172V50.2339C39.9219 50.8379 40.4117 51.3276 41.0156 51.3276H45.3906C45.9946 51.3276 46.4844 50.8379 46.4844 50.2339V47.4172C46.4844 45.593 45.0124 44.1089 43.2031 44.1089ZM44.2969 49.1401H42.1094V47.4172C42.1094 46.7993 42.6 46.2964 43.2031 46.2964C43.8062 46.2964 44.2969 46.7992 44.2969 47.4172V49.1401Z" fill="#522100"/>
</g>
<defs>
<clipPath id="category-seminariya-2">
<rect width="56" height="56" fill="white"/>
</clipPath>
</defs>
</svg>
