<svg width="36" height="36" viewBox="0 0 36 36" fill="none" xmlns="http://www.w3.org/2000/svg">
<path fill-rule="evenodd" clip-rule="evenodd" d="M4 9.5C4 8.11926 5.11926 7 6.5 7H11.5C12.8807 7 14 8.11926 14 9.5C14 10.8807 12.8807 12 11.5 12H6.5C5.11926 12 4 10.8807 4 9.5ZM3.5 20.5L5 17H8L9.5 20.5H3.5ZM2 24C1.44775 24 1 24.4477 1 25V33C1 33.5523 1.44775 34 2 34H8C8.55225 34 9 33.5523 9 33V25C9 24.4477 8.55225 24 8 24H2ZM15 11C14.4478 11 14 11.4477 14 12V18C14 19.6569 15.3431 21 17 21H33C34.6569 21 36 19.6569 36 18V14C36 12.3431 34.6569 11 33 11H15Z" fill="#CD8C5D"/>
<path d="M9.97911 22.1877C10.1049 21.9891 10.1234 21.7389 10.0286 21.5231L8.33723 17.6755C8.22723 17.4251 7.98363 17.264 7.71504 17.264H5.07691C4.80841 17.264 4.56472 17.4251 4.45464 17.6756L2.76347 21.5232C2.66874 21.7389 2.68733 21.9891 2.81301 22.1877C2.93878 22.3863 3.15433 22.5061 3.38574 22.5061H4.32955C4.21334 22.7833 4.14887 23.0884 4.14887 23.4086V23.7881C4.14887 24.1083 4.21334 24.4134 4.32955 24.6905H0.682128C0.305423 24.6905 0 25.0027 0 25.3878V35.3028C0 35.6878 0.305423 36 0.682128 36H9.34106C9.71777 36 10.0232 35.6878 10.0232 35.3028V25.3879C10.0232 25.0028 9.71777 24.6906 9.34106 24.6906H8.46248C8.57879 24.4135 8.64325 24.1083 8.64325 23.7882V23.4086C8.64325 23.0884 8.57879 22.7834 8.46248 22.5062H9.40638C9.63779 22.5061 9.85343 22.3862 9.97911 22.1877ZM5.51825 18.6584H7.27379L8.35206 21.1116H6.39606H4.44006L5.51825 18.6584ZM7.27899 23.4086V23.7881C7.27899 24.2857 6.88284 24.6905 6.39606 24.6905C5.90928 24.6905 5.51322 24.2857 5.51322 23.7881V23.4086C5.51322 22.911 5.90928 22.5061 6.39606 22.5061C6.88284 22.5061 7.27899 22.911 7.27899 23.4086ZM8.65894 26.0851V28.0948H5.94492C5.56821 28.0948 5.26279 28.407 5.26279 28.7921C5.26279 29.1771 5.56821 29.4893 5.94492 29.4893H8.65894V31.2015H5.94492C5.56821 31.2015 5.26279 31.5137 5.26279 31.8987C5.26279 32.2838 5.56821 32.596 5.94492 32.596H8.65894V34.6056H1.36426V26.0851H8.65894ZM18.1384 18.5227C18.1384 18.9078 17.833 19.2199 17.4563 19.2199H17.2872C16.9105 19.2199 16.605 18.9078 16.605 18.5227C16.605 18.1376 16.9105 17.8255 17.2872 17.8255H17.4563C17.833 17.8255 18.1384 18.1376 18.1384 18.5227ZM30.009 15.4663C30.009 15.8514 29.7035 16.1636 29.3268 16.1636H29.1578C28.7811 16.1636 28.4757 15.8514 28.4757 15.4663C28.4757 15.0813 28.7811 14.7691 29.1578 14.7691H29.3268C29.7035 14.7691 30.009 15.0813 30.009 15.4663ZM32.3832 18.5227C32.3832 18.9078 32.0778 19.2199 31.7011 19.2199H31.5321C31.1554 19.2199 30.8499 18.9078 30.8499 18.5227C30.8499 18.1376 31.1554 17.8255 31.5321 17.8255H31.7011C32.0778 17.8255 32.3832 18.1376 32.3832 18.5227ZM33.6397 11.8719H30.2231C30.2514 11.7953 30.2669 11.7122 30.2669 11.6255C30.2669 11.2404 29.9615 10.9282 29.5848 10.9282H25.2554C24.8787 10.9282 24.5732 11.2404 24.5732 11.6255C24.5732 11.7122 24.5888 11.7953 24.6171 11.8719H13.9354C14.2 11.4302 14.3527 10.9112 14.3527 10.3563C14.3527 8.75179 13.0756 7.44646 11.506 7.44646H5.61127C5.06855 7.44646 4.56079 7.60255 4.12867 7.87308V3.11003C4.12867 1.94651 3.20259 1 2.06429 1C0.925989 1 0 1.94651 0 3.10995V22.0121C0 22.3971 0.305423 22.7093 0.682128 22.7093C1.05883 22.7093 1.36426 22.3971 1.36426 22.0121V3.10995C1.36426 2.71539 1.67838 2.3944 2.06446 2.3944C2.45038 2.3944 2.76441 2.71539 2.76441 3.10995V15.1242C2.76441 15.5092 3.06983 15.8214 3.44654 15.8214C3.82324 15.8214 4.12867 15.5092 4.12867 15.1242V13.2664H12.9884V19.2592C12.9884 20.8351 14.2427 22.1172 15.7844 22.1172H34.6357V25.1481H12.0064C11.6297 25.1481 11.3243 25.4603 11.3243 25.8453C11.3243 26.2304 11.6297 26.5426 12.0064 26.5426H31.8713V28.058C31.8713 28.443 32.1768 28.7552 32.5535 28.7552H35.3179C35.6946 28.7552 36 28.443 36 28.058V14.2844C35.9999 12.9542 34.9411 11.8719 33.6397 11.8719ZM11.5059 11.8719H5.61127C4.79374 11.8719 4.12867 11.1921 4.12867 10.3563C4.12867 9.52076 4.79374 8.84095 5.61127 8.84095H11.506C12.3234 8.84095 12.9885 9.52076 12.9885 10.3565C12.9884 11.1921 12.3233 11.8719 11.5059 11.8719ZM34.6357 27.3607H33.2355V26.5426H34.6357V27.3607ZM34.6357 20.7227H15.7844C14.995 20.7227 14.3527 20.0661 14.3527 19.2592V13.2664H33.6397C34.1888 13.2664 34.6357 13.723 34.6357 14.2844V20.7227ZM27.6351 18.5227C27.6351 18.9078 27.3296 19.2199 26.9529 19.2199H26.7839C26.4071 19.2199 26.1017 18.9078 26.1017 18.5227C26.1017 18.1376 26.4071 17.8255 26.7839 17.8255H26.9529C27.3296 17.8255 27.6351 18.1376 27.6351 18.5227ZM20.5124 15.4663C20.5124 15.8514 20.207 16.1636 19.8303 16.1636H19.6612C19.2845 16.1636 18.9791 15.8514 18.9791 15.4663C18.9791 15.0813 19.2845 14.7691 19.6612 14.7691H19.8303C20.207 14.7691 20.5124 15.0813 20.5124 15.4663ZM25.2608 15.4663C25.2608 15.8514 24.9554 16.1636 24.5787 16.1636H24.4096C24.0329 16.1636 23.7275 15.8514 23.7275 15.4663C23.7275 15.0813 24.0329 14.7691 24.4096 14.7691H24.5787C24.9554 14.7691 25.2608 15.0813 25.2608 15.4663ZM22.8867 18.5227C22.8867 18.9078 22.5813 19.2199 22.2046 19.2199H22.0355C21.6588 19.2199 21.3533 18.9078 21.3533 18.5227C21.3533 18.1376 21.6588 17.8255 22.0355 17.8255H22.2046C22.5813 17.8255 22.8867 18.1376 22.8867 18.5227Z" fill="#522100"/>
</svg>
