<svg width="56" height="56" viewBox="0 0 56 56" fill="none" xmlns="http://www.w3.org/2000/svg">
<rect x="23.5" y="20" width="12.3698" height="3" rx="1" transform="rotate(30 23.5 20)" fill="#CD8C5D"/>
<path d="M21 14H25C25.5523 14 26 13.5523 26 13V7C26 6.44772 26.4477 6 27 6H29C29.5523 6 30 6.44772 30 7V13C30 13.5523 30.4477 14 31 14H35C35.5523 14 36 14.4477 36 15V17C36 17.5523 35.5523 18 35 18H31C30.4477 18 30 18.4477 30 19V34C30 34.5523 29.5523 35 29 35H27C26.4477 35 26 34.5523 26 34V19C26 18.4477 25.5523 18 25 18H21C20.4477 18 20 17.5523 20 17V15C20 14.4477 20.4477 14 21 14Z" fill="#CD8C5D"/>
<path d="M55.1491 25.959C54.6005 25.4356 53.8797 25.1675 53.1212 25.2027C52.8177 25.2169 52.5282 25.2816 52.2591 25.3874V24.2588C52.2591 22.7438 51.0267 21.5114 49.5117 21.5114C47.9968 21.5114 46.7644 22.7438 46.7644 24.2588V25.4393C46.4559 25.3192 46.121 25.2526 45.7706 25.2526C44.2556 25.2526 43.0232 26.485 43.0232 28V30.1157C42.7148 29.9956 42.3798 29.929 42.0294 29.929C40.5145 29.929 39.282 31.1614 39.282 32.6764V38.3929C35.0835 38.8326 31.7998 42.3927 31.7998 46.7057V55.1232C31.7998 55.6075 32.1924 56 32.6767 56C33.161 56 33.5535 55.6076 33.5535 55.1232V46.7057C33.5535 43.0635 36.5167 40.1003 40.1589 40.1003H43.9C44.2182 40.1003 44.4959 39.9303 44.6496 39.6767L49.4684 34.7848C49.6547 34.5958 49.9034 34.4906 50.1689 34.4885C50.1713 34.4885 50.1739 34.4885 50.1764 34.4885C50.439 34.4885 50.6862 34.5898 50.8736 34.7742C51.2593 35.1543 51.2643 35.7937 50.8842 36.1796L45.9207 41.2181C45.608 41.5355 45.5868 42.0531 45.8722 42.3952C46.1994 42.7873 46.8117 42.8126 47.17 42.4489L52.1335 37.4104C52.6484 36.8875 52.929 36.1954 52.9236 35.4616C52.9187 34.804 52.6839 34.1838 52.259 33.6915V28C52.259 27.4481 52.6828 26.9791 53.2036 26.9547C53.7636 26.9268 54.2466 27.3863 54.2466 27.9471V37.925L51.6976 40.4739C51.3783 40.7932 51.3571 41.3205 51.6509 41.6637C51.9787 42.0466 52.5809 42.0706 52.9375 41.7141L55.7433 38.9084C55.9078 38.7439 56.0001 38.5209 56.0001 38.2883V27.9474C56.0002 27.1997 55.69 26.4751 55.1491 25.959ZM43.0232 38.3465H41.0357V32.6764C41.0357 32.1284 41.4816 31.6826 42.0295 31.6826C42.5775 31.6826 43.0233 32.1284 43.0233 32.6764L43.0232 38.3465ZM44.7768 37.0484V28C44.7768 27.452 45.2226 27.0062 45.7706 27.0062C46.3185 27.0062 46.7644 27.452 46.7644 28V34.9561C46.7644 34.9802 46.7661 35.0037 46.768 35.0272L44.7768 37.0484ZM50.5054 32.7565C50.3969 32.7436 50.2876 32.7348 50.1767 32.7348C50.1697 32.7348 50.1626 32.7348 50.1556 32.7349C49.5559 32.7394 48.987 32.9347 48.518 33.2913V24.2588C48.518 23.7108 48.9638 23.265 49.5117 23.265C50.0597 23.265 50.5055 23.7108 50.5055 24.2588L50.5054 32.7565Z" fill="#522100"/>
<path d="M50.1311 43.2797C49.7887 42.9374 49.2334 42.9374 48.8911 43.2796L46.1467 46.0242L40.6073 49.7171C40.3634 49.8797 40.2168 50.1534 40.2168 50.4466V55.123C40.2168 55.6074 40.6093 55.9999 41.0937 55.9999C41.5779 55.9999 41.9705 55.6075 41.9705 55.123V50.9159L47.1917 47.4352C47.2398 47.4033 47.2846 47.3665 47.3254 47.3256L50.1312 44.5198C50.4735 44.1772 50.4735 43.6222 50.1311 43.2797Z" fill="#522100"/>
<path d="M16.7183 38.3928V32.6763C16.7183 31.1613 15.4858 29.9289 13.9709 29.9289C13.6206 29.9289 13.2855 29.9955 12.9771 30.1156V28C12.9771 26.485 11.7447 25.2526 10.2297 25.2526C9.87939 25.2526 9.54437 25.3192 9.23594 25.4393V24.2588C9.23594 22.7438 8.0035 21.5114 6.48855 21.5114C4.9736 21.5114 3.74116 22.7438 3.74116 24.2588V25.3874C3.4721 25.2817 3.18259 25.2171 2.87907 25.2027C2.12111 25.1689 1.39978 25.4355 0.851155 25.959C0.310187 26.4751 0 27.1997 0 27.9471V29.8705C0 30.3548 0.392546 30.7473 0.876858 30.7473C1.36106 30.7473 1.75372 30.3549 1.75372 29.8705V27.9471C1.75372 27.3868 2.23661 26.9261 2.7966 26.9547C3.31745 26.9791 3.74127 27.4482 3.74127 28V33.6937C2.82023 34.7649 2.85785 36.3857 3.86684 37.4102L8.83026 42.4488C9.18934 42.8131 9.79987 42.7865 10.1281 42.3951C10.4143 42.0538 10.3917 41.535 10.0795 41.218L5.11622 36.1796C4.73155 35.7891 4.73637 35.1587 5.12672 34.7742C5.51183 34.3947 6.15343 34.4002 6.53208 34.7848L11.3509 39.6767C11.5047 39.9301 11.7823 40.1002 12.1005 40.1002H15.8416C19.4838 40.1002 22.447 43.0634 22.447 46.7056V55.1231C22.447 55.6074 22.8395 55.9999 23.3238 55.9999C23.808 55.9999 24.2007 55.6075 24.2007 55.1231V46.7056C24.2005 42.3925 20.9168 38.8324 16.7183 38.3928ZM7.48233 33.2913C7.01333 32.9347 6.44436 32.7394 5.84466 32.7349C5.72686 32.7338 5.61016 32.7411 5.49488 32.7548V24.2588C5.49488 23.7108 5.94069 23.265 6.48866 23.265C7.03663 23.265 7.48244 23.7108 7.48244 24.2588L7.48233 33.2913ZM11.2235 37.0483L9.23244 35.0271C9.2343 35.0037 9.23604 34.98 9.23604 34.9561V28C9.23604 27.452 9.68186 27.0062 10.2298 27.0062C10.7778 27.0062 11.2236 27.452 11.2236 28L11.2235 37.0483ZM14.9646 38.3465H12.9771V32.6764C12.9771 32.1284 13.4229 31.6826 13.9709 31.6826C14.5188 31.6826 14.9647 32.1284 14.9647 32.6764L14.9646 38.3465Z" fill="#522100"/>
<path d="M15.3924 49.7172L9.85303 46.0243L1.75372 37.9249V34.5469C1.75372 34.0626 1.36117 33.67 0.876858 33.67C0.392655 33.67 0 34.0625 0 34.5469V38.2881C0 38.5206 0.0923123 38.7435 0.256812 38.9081L8.6743 47.3256C8.71509 47.3664 8.75983 47.4031 8.80795 47.4352L14.0292 50.9159V55.123C14.0292 55.6073 14.4217 55.9999 14.906 55.9999C15.3903 55.9999 15.7829 55.6075 15.7829 55.123V50.4466C15.7829 50.1535 15.6363 49.8796 15.3924 49.7172Z" fill="#522100"/>
<path d="M36.419 13.0939H30.7489V5.55319C30.7489 5.06888 30.3563 4.67633 29.872 4.67633H26.1308C25.6466 4.67633 25.254 5.06877 25.254 5.55319V13.0939H19.5839C19.0997 13.0939 18.707 13.4864 18.707 13.9708V17.7119C18.707 18.1963 19.0996 18.5888 19.5839 18.5888H25.254V35.4823C25.254 35.9666 25.6465 36.3591 26.1308 36.3591H29.872C30.3562 36.3591 30.7489 35.9667 30.7489 35.4823V18.5887H36.419C36.9032 18.5887 37.2958 18.1963 37.2958 17.7118V13.9707C37.2958 13.4864 36.9033 13.0939 36.419 13.0939ZM35.5422 16.8351H29.8721C29.3879 16.8351 28.9953 17.2275 28.9953 17.7119V34.6054H27.0078V17.7118C27.0078 17.2275 26.6153 16.835 26.131 16.835H20.4609V14.8475H26.131C26.6152 14.8475 27.0078 14.4551 27.0078 13.9707V6.43005H28.9953V13.9708C28.9953 14.4551 29.3878 14.8476 29.8721 14.8476H35.5422V16.8351Z" fill="#522100"/>
<path d="M22.2122 4.06316L21.2769 2.44321C21.0347 2.02376 20.4984 1.88026 20.0792 2.12231C19.6598 2.36446 19.5161 2.90073 19.7583 3.32007L20.6934 4.94002C20.9511 5.38638 21.5571 5.51336 21.9731 5.20744C22.3281 4.94625 22.4323 4.44455 22.2122 4.06316Z" fill="#CD8C5D"/>
<path d="M17.0994 8.53494L15.4795 7.59968C15.06 7.35752 14.5239 7.50113 14.2817 7.92059C14.0395 8.34004 14.1833 8.8763 14.6026 9.11846L16.2225 10.0537C16.67 10.3118 17.2576 10.1175 17.4645 9.64543C17.6416 9.24172 17.4808 8.75512 17.0994 8.53494Z" fill="#CD8C5D"/>
<path d="M14.9075 14.9644H13.037C12.5528 14.9644 12.1602 15.3569 12.1602 15.8413C12.1602 16.3256 12.5527 16.7181 13.037 16.7181H14.9075C15.3917 16.7181 15.7844 16.3257 15.7844 15.8413C15.7844 15.357 15.3917 14.9644 14.9075 14.9644Z" fill="#CD8C5D"/>
<path d="M42.9642 14.9644H41.0937C40.6095 14.9644 40.2168 15.3569 40.2168 15.8413C40.2168 16.3256 40.6093 16.7181 41.0937 16.7181H42.9642C43.4484 16.7181 43.841 16.3257 43.841 15.8413C43.841 15.357 43.4485 14.9644 42.9642 14.9644Z" fill="#CD8C5D"/>
<path d="M41.7187 7.92069C41.4764 7.50124 40.9402 7.35774 40.5209 7.59978L38.901 8.53505C38.5748 8.72339 38.4025 9.11145 38.4822 9.47972C38.5687 9.87883 38.9319 10.1714 39.3402 10.1714C39.489 10.1714 39.6398 10.1336 39.7778 10.0538L41.3978 9.11856C41.8171 8.8763 41.9608 8.34003 41.7187 7.92069Z" fill="#CD8C5D"/>
<path d="M27.9999 0C27.5157 0 27.123 0.392437 27.123 0.876858V2.74739C27.123 3.2317 27.5156 3.62424 27.9999 3.62424C28.4842 3.62424 28.8768 3.23181 28.8768 2.74739V0.876858C28.8768 0.392437 28.4841 0 27.9999 0Z" fill="#522100"/>
<path d="M17.4199 21.9499C17.1776 21.5304 16.6414 21.3869 16.2221 21.629L14.6021 22.5642C14.276 22.7526 14.1037 23.1406 14.1833 23.5089C14.2698 23.908 14.6331 24.2006 15.0414 24.2006C15.1901 24.2006 15.3409 24.1627 15.479 24.083L17.0989 23.1477C17.5183 22.9055 17.662 22.3692 17.4199 21.9499Z" fill="#522100"/>
<path d="M21.8913 26.4218C21.4718 26.1798 20.9357 26.3233 20.6935 26.7427L19.7583 28.3627C19.4277 28.935 19.8518 29.678 20.5168 29.678C20.8198 29.678 21.1145 29.5207 21.2769 29.2395L22.2122 27.6196C22.4543 27.2002 22.3107 26.664 21.8913 26.4218Z" fill="#522100"/>
<path d="M41.3983 22.5641L39.7784 21.6289C39.359 21.3867 38.8228 21.5303 38.5806 21.9498C38.3383 22.3692 38.4821 22.9055 38.9015 23.1477L40.5215 24.0829C40.9689 24.3411 41.5565 24.1467 41.7634 23.6746C41.9405 23.2709 41.7797 22.7844 41.3983 22.5641Z" fill="#522100"/>
<path d="M35.9206 2.12242C35.5011 1.88026 34.965 2.02387 34.7228 2.44332L33.7876 4.06327C33.5454 4.48261 33.6891 5.01888 34.1085 5.26104C34.5228 5.50013 35.0675 5.35379 35.3062 4.94013L36.2415 3.32018C36.4835 2.90073 36.3399 2.36446 35.9206 2.12242Z" fill="#522100"/>
<path d="M13.048 6.19684L7.37797 2.92336C6.95852 2.68132 6.42236 2.82482 6.1802 3.24427C5.93794 3.66361 6.08166 4.19988 6.50111 4.44203L12.171 7.71551C12.309 7.79524 12.4598 7.83309 12.6086 7.83309C12.9117 7.83309 13.2063 7.67581 13.3688 7.3946C13.6109 6.97515 13.4673 6.43889 13.048 6.19684Z" fill="#CD8C5D"/>
<path d="M9.29491 14.9644H2.74795C2.26375 14.9644 1.87109 15.3569 1.87109 15.8413C1.87109 16.3256 2.26364 16.7181 2.74795 16.7181H9.29491C9.77911 16.7181 10.1718 16.3257 10.1718 15.8413C10.1718 15.357 9.77911 14.9644 9.29491 14.9644Z" fill="#CD8C5D"/>
<path d="M53.2519 14.9644H46.705C46.2208 14.9644 45.8281 15.3569 45.8281 15.8413C45.8281 16.3256 46.2207 16.7181 46.705 16.7181H53.2519C53.7361 16.7181 54.1288 16.3257 54.1288 15.8413C54.1288 15.357 53.7361 14.9644 53.2519 14.9644Z" fill="#CD8C5D"/>
<path d="M49.8179 3.24428C49.5757 2.82483 49.0395 2.68144 48.6201 2.92338L42.9503 6.19685C42.5309 6.43901 42.3872 6.97527 42.6294 7.39462C42.7918 7.67593 43.0864 7.8331 43.3895 7.8331C43.5383 7.8331 43.6891 7.79526 43.8271 7.71552L49.497 4.44204C49.9163 4.19989 50.0599 3.66362 49.8179 3.24428Z" fill="#CD8C5D"/>
</svg>
