<svg width="56" height="56" viewBox="0 0 56 56" fill="none" xmlns="http://www.w3.org/2000/svg">
<path d="M21.5 52.5L19 55H52.5L55 52.5V44.5H22.5V50.5L21.5 52.5Z" fill="#CD8C5D"/>
<path d="M1 5V15.5L11.5 16V5L9 1.5L6 0.5L3 1.5L1 5Z" fill="#CD8C5D"/>
<rect x="17" y="8" width="23" height="8" rx="1" fill="#CD8C5D"/>
<path d="M54.377 43.7138H46.4381V15.4708C46.4381 15.1062 46.2765 14.7602 45.9947 14.5213L44.7314 13.4504L45.8471 12.7501C46.2172 12.5176 46.4381 12.1223 46.4381 11.6926V5.57321C46.4381 2.50043 43.971 0.000546876 40.9386 0.000546876H22.7953C22.3316 0.000546876 21.9557 0.367501 21.9557 0.820423C21.9557 1.27335 22.3316 1.6403 22.7953 1.6403H40.9386C42.8155 1.6403 44.3797 3.04151 44.6986 4.88098H40.307C39.8433 4.88098 39.4675 5.24793 39.4675 5.70086C39.4675 6.15378 39.8433 6.52073 40.307 6.52073H44.7592V7.52862H41.8855C41.4218 7.52862 41.046 7.89558 41.046 8.3485C41.046 8.80142 41.4218 9.16838 41.8855 9.16838H44.7592V11.4843L43.3835 12.3478C43.0393 12.564 42.8252 12.9164 42.7958 13.3151C42.7665 13.7137 42.9269 14.0926 43.236 14.3545L44.7592 15.6457V43.714H23.1691C22.2742 43.714 21.546 44.425 21.546 45.2991V49.8565C21.546 52.3201 19.6123 54.3269 17.2235 54.359C14.4087 54.3268 12.1272 51.9665 12.1261 49.0682L12.1244 44.6706H17.1653C17.629 44.6706 18.0049 44.3036 18.0049 43.8507C18.0049 43.3978 17.629 43.0308 17.1653 43.0308H12.1237L12.1233 41.7191H14.3384C14.802 41.7191 15.1779 41.3521 15.1779 40.8992C15.1779 40.4463 14.802 40.0793 14.3384 40.0793H12.1226L12.1174 26.3099L13.6151 24.7495C13.9968 24.3517 14.0729 23.7634 13.8046 23.2855L12.1178 20.2807V6.14437C12.1178 6.13825 12.1173 6.13223 12.1173 6.12611V5.91764C12.1173 4.23665 11.3946 2.7183 10.2381 1.64008L17.5157 1.63975C17.9793 1.63975 18.3552 1.27269 18.3552 0.819877C18.3552 0.366954 17.9793 0 17.5157 0L6.05856 0.000546876C6.05699 0.000546876 6.05553 0.000765627 6.05396 0.000765627C2.7154 0.00339063 0.000112044 2.65661 0.000112044 5.91764V7.0489C0.000112044 7.50183 0.375979 7.86878 0.839652 7.86878C1.30333 7.86878 1.67919 7.50183 1.67919 7.0489V5.91764C1.67919 3.55907 3.64398 1.64041 6.059 1.64041C6.13214 1.64041 6.20483 1.64238 6.27706 1.64577C7.35763 1.70013 8.36863 2.15721 9.14322 2.94613C9.97469 3.79521 10.434 4.92396 10.4387 6.126V15.0559H1.67908V12.0772C1.67908 11.6243 1.30321 11.2573 0.83954 11.2573C0.375867 11.2573 0 11.6243 0 12.0772V15.1105C0 15.9844 0.728102 16.6956 1.62308 16.6956H10.4391V20.4907C10.4391 20.6285 10.4747 20.764 10.5424 20.8848L12.1962 23.8306L10.787 25.2987C10.5623 25.5326 10.4387 25.8379 10.4387 26.1589L10.4472 49.0687C10.4486 52.8193 13.4016 55.8815 17.0719 55.9946C17.1027 55.998 17.134 56 17.1656 56H17.2816H21.7784H50.0291C53.3216 56 56 53.2843 56 49.9465V45.2988C56 44.4248 55.2719 43.7138 54.377 43.7138ZM54.321 49.9466C54.321 52.3804 52.3957 54.3605 50.0291 54.3605H22.4905H21.2825C22.4766 53.2376 23.225 51.634 23.225 49.8564V45.3535H54.3209V49.9466H54.321Z" fill="#522100"/>
<path d="M35.9093 14H20.7263C20.2626 14 19.8867 14.367 19.8867 14.8199C19.8867 15.2728 20.2626 15.6398 20.7263 15.6398H35.9094C36.3731 15.6398 36.749 15.2728 36.749 14.8199C36.749 14.367 36.373 14 35.9093 14Z" fill="#CD8C5D"/>
<path d="M38.7967 25.2396H27.4225C26.9589 25.2396 26.583 25.6066 26.583 26.0595C26.583 26.5124 26.9589 26.8794 27.4225 26.8794H38.7967C39.2603 26.8794 39.6362 26.5124 39.6362 26.0595C39.6362 25.6066 39.2603 25.2396 38.7967 25.2396Z" fill="#CD8C5D"/>
<path d="M27.8214 31.5798H17.8395C17.3759 31.5798 17 31.9467 17 32.3996C17 32.8526 17.3759 33.2195 17.8395 33.2195H27.8214C28.2851 33.2195 28.6609 32.8526 28.6609 32.3996C28.6609 31.9467 28.2851 31.5798 27.8214 31.5798Z" fill="#CD8C5D"/>
<path d="M38.7968 34.7498H26.2341C25.7704 34.7498 25.3945 35.1167 25.3945 35.5697C25.3945 36.0226 25.7704 36.3895 26.2341 36.3895H38.7968C39.2605 36.3895 39.6364 36.0226 39.6364 35.5697C39.6364 35.1167 39.2605 34.7498 38.7968 34.7498Z" fill="#CD8C5D"/>
<path d="M27.8214 19H17.8395C17.3759 19 17 19.3671 17 19.8199C17 20.2728 17.3759 20.6398 17.8395 20.6398H27.8214C28.2851 20.6398 28.6609 20.2728 28.6609 19.8199C28.6609 19.367 28.2851 19 27.8214 19Z" fill="#522100"/>
<path d="M38.7969 19H31.3171C30.8534 19 30.4775 19.367 30.4775 19.8199C30.4775 20.2728 30.8534 20.6398 31.3171 20.6398H38.7968C39.2605 20.6398 39.6363 20.2728 39.6363 19.8199C39.6363 19.367 39.2606 19 38.7969 19Z" fill="#522100"/>
<path d="M21.9584 22.17H17.8395C17.3759 22.17 17 22.537 17 22.9899C17 23.4428 17.3759 23.8098 17.8395 23.8098H21.9584C22.4221 23.8098 22.7979 23.4428 22.7979 22.9899C22.7979 22.537 22.4221 22.17 21.9584 22.17Z" fill="#522100"/>
<path d="M38.7974 22.17H33.8034C33.3397 22.17 32.9639 22.537 32.9639 22.9899C32.9639 23.4428 33.3397 23.8098 33.8034 23.8098H38.7974C39.2611 23.8098 39.637 23.4428 39.637 22.9899C39.637 22.537 39.2611 22.17 38.7974 22.17Z" fill="#522100"/>
<path d="M23.8412 25.34H17.8395C17.3759 25.34 17 25.707 17 26.1599C17 26.6128 17.3759 26.9798 17.8395 26.9798H23.8412C24.3049 26.9798 24.6807 26.6128 24.6807 26.1599C24.6807 25.707 24.3049 25.34 23.8412 25.34Z" fill="#522100"/>
<path d="M19.8989 28.5101H17.8395C17.3759 28.5101 17 28.877 17 29.3299C17 29.7829 17.3759 30.1498 17.8395 30.1498H19.8989C20.3625 30.1498 20.7384 29.7829 20.7384 29.3299C20.7384 28.877 20.3624 28.5101 19.8989 28.5101Z" fill="#522100"/>
<path d="M38.7974 28.5101H33.8034C33.3397 28.5101 32.9639 28.877 32.9639 29.3299C32.9639 29.7829 33.3397 30.1498 33.8034 30.1498H38.7974C39.2611 30.1498 39.637 29.7829 39.637 29.3299C39.637 28.877 39.2611 28.5101 38.7974 28.5101Z" fill="#522100"/>
<path d="M38.7969 31.6802H31.3171C30.8534 31.6802 30.4775 32.0471 30.4775 32.5001C30.4775 32.953 30.8534 33.3199 31.3171 33.3199H38.7968C39.2605 33.3199 39.6363 32.953 39.6363 32.5001C39.6363 32.0471 39.2606 31.6802 38.7969 31.6802Z" fill="#522100"/>
<path d="M21.9584 34.8502H17.8395C17.3759 34.8502 17 35.2172 17 35.6701C17 36.123 17.3759 36.49 17.8395 36.49H21.9584C22.4221 36.49 22.7979 36.123 22.7979 35.6701C22.7979 35.2172 22.4221 34.8502 21.9584 34.8502Z" fill="#522100"/>
<path d="M30.8186 22.17H25.2516C24.788 22.17 24.4121 22.537 24.4121 22.9899C24.4121 23.4428 24.788 23.8098 25.2516 23.8098H30.8186C31.2823 23.8098 31.6582 23.4428 31.6582 22.9899C31.6581 22.537 31.2822 22.17 30.8186 22.17Z" fill="#522100"/>
<path d="M29.6387 28.5101H22.8308C22.3671 28.5101 21.9912 28.8771 21.9912 29.3299C21.9912 29.7829 22.3671 30.1498 22.8308 30.1498H29.6387C30.1024 30.1498 30.4782 29.7829 30.4782 29.3299C30.4781 28.877 30.1023 28.5101 29.6387 28.5101Z" fill="#522100"/>
</svg>
