<svg width="58" height="56" viewBox="0 0 58 56" fill="none" xmlns="http://www.w3.org/2000/svg">
<path d="M50.3446 0.898254C49.8986 0.898254 49.5346 1.26844 49.5346 1.72205V41.8371C49.5346 42.2912 49.8986 42.6614 50.3446 42.6614H51.4012C52.8675 42.6614 54.1599 43.1936 55.1345 44.1134V4.69482C54.973 2.48805 53.4366 0.898254 51.4012 0.898254H50.3446Z" fill="#CD8C5D"/>
<path d="M55.0676 50.3051C54.5814 50.3051 54.1738 49.9228 54.137 49.4253C53.973 47.1495 52.4366 45.5597 50.4012 45.5597H49.3446C47.8689 45.5597 46.668 44.3379 46.668 42.8371V2.72207C46.668 1.22135 47.8689 0 49.3446 0H50.4012C53.4577 0 55.7593 2.31322 55.9981 5.62576L56.0011 49.3562C56.0011 49.8667 55.6033 50.2852 55.1022 50.3051C55.0902 50.3051 55.0791 50.3051 55.0676 50.3051ZM49.3446 1.89828C48.8986 1.89828 48.5346 2.26847 48.5346 2.72207V42.8371C48.5346 43.2912 48.8986 43.6614 49.3446 43.6614H50.4012C51.8675 43.6614 53.1599 44.1936 54.1345 45.1134V5.69485C53.973 3.48808 52.4366 1.89828 50.4012 1.89828H49.3446Z" fill="#522100"/>
<path d="M26.1327 18.9833C25.8939 18.9833 25.6546 18.8903 25.4726 18.7052L18.9397 12.061C18.5748 11.6899 18.5748 11.0899 18.9397 10.7188C19.3037 10.3478 19.8954 10.3478 20.2594 10.7188L26.7924 17.363C27.1577 17.7341 27.1577 18.3337 26.7924 18.7052C26.6104 18.8903 26.3716 18.9833 26.1327 18.9833Z" fill="#CD8C5D"/>
<path d="M19.5993 18.9833C19.3605 18.9833 19.1217 18.8903 18.9397 18.7052C18.5748 18.3337 18.5748 17.7341 18.9397 17.363L25.4726 10.7188C25.8367 10.3478 26.4284 10.3478 26.7924 10.7188C27.1577 11.0899 27.1577 11.6899 26.7924 12.061L20.2594 18.7052C20.0774 18.8903 19.8382 18.9833 19.5993 18.9833Z" fill="#CD8C5D"/>
<path d="M15.8666 16.1356H13.9999C13.4847 16.1356 13.0664 15.7102 13.0664 15.1867C13.0664 14.6627 13.4847 14.2373 13.9999 14.2373H15.8666C16.3818 14.2373 16.8001 14.6627 16.8001 15.1867C16.8001 15.7102 16.3818 16.1356 15.8666 16.1356Z" fill="#CD8C5D"/>
<path d="M9.33293 16.1356H7.4663C6.95105 16.1356 6.5332 15.7102 6.5332 15.1867C6.5332 14.6627 6.95105 14.2373 7.4663 14.2373H9.33293C9.84818 14.2373 10.2665 14.6627 10.2665 15.1867C10.2665 15.7102 9.84818 16.1356 9.33293 16.1356Z" fill="#CD8C5D"/>
<path d="M43.8662 56C43.351 56 42.9331 55.5751 42.9331 55.0511C42.9331 54.5175 42.8472 53.9949 42.6772 53.4943C42.5093 52.999 42.7678 52.4589 43.2548 52.2873C43.7432 52.1153 44.2734 52.379 44.4421 52.8747C44.6793 53.5743 44.7997 54.3068 44.7997 55.0511C44.7997 55.5751 44.3815 56 43.8662 56Z" fill="#CD8C5D"/>
<path d="M40.6466 50.8435C40.5133 50.8435 40.3779 50.8148 40.2502 50.7531C39.6285 50.4563 38.962 50.3051 38.2669 50.3051H37.1535C36.6383 50.3051 36.22 49.8802 36.22 49.3562C36.22 48.8322 36.6383 48.4068 37.1535 48.4068H38.2669C39.2385 48.4068 40.1728 48.6184 41.0453 49.0351C41.5118 49.2584 41.7118 49.8242 41.4926 50.2986C41.3328 50.6414 40.997 50.8435 40.6466 50.8435ZM32.6875 50.3051H29.1145C28.5992 50.3051 28.1814 49.8802 28.1814 49.3562C28.1814 48.8322 28.5992 48.4068 29.1145 48.4068H32.6875C33.2028 48.4068 33.6206 48.8322 33.6206 49.3562C33.6206 49.8802 33.2028 50.3051 32.6875 50.3051ZM24.6485 50.3051H21.0759C20.5607 50.3051 20.1424 49.8802 20.1424 49.3562C20.1424 48.8322 20.5607 48.4068 21.0759 48.4068H24.6485C25.1638 48.4068 25.5821 48.8322 25.5821 49.3562C25.5821 49.8802 25.1638 50.3051 24.6485 50.3051ZM16.7526 49.3866C16.6108 49.3866 16.4664 49.3532 16.331 49.2841C15.1595 48.6784 14.102 47.8073 13.2732 46.764C12.9493 46.3556 13.0121 45.7586 13.4125 45.4293C13.8128 45.1 14.4007 45.1638 14.7245 45.5709C15.3893 46.4082 16.2374 47.1064 17.1756 47.5917C17.6349 47.829 17.8186 48.4003 17.5853 48.8683C17.4209 49.1968 17.0936 49.3866 16.7526 49.3866ZM12.2222 43.0083C11.7667 43.0083 11.3685 42.6694 11.3002 42.1976C11.2339 41.7431 11.2002 41.2778 11.2002 40.8137C11.2002 39.9261 11.3228 39.0475 11.5625 38.1998C11.7052 37.6958 12.2222 37.4073 12.7178 37.5507C13.2134 37.6958 13.4992 38.2216 13.3565 38.7256C13.1642 39.4025 13.0668 40.1046 13.0668 40.8137C13.0668 41.1848 13.0942 41.5567 13.1463 41.9212C13.2219 42.4396 12.869 42.9227 12.3597 42.9988C12.314 43.0053 12.2683 43.0083 12.2222 43.0083ZM14.7536 35.579C14.5071 35.579 14.2605 35.4804 14.0768 35.284C13.7214 34.9042 13.7363 34.3033 14.1097 33.9418C15.068 33.0146 16.2293 32.2921 17.4679 31.8519C17.9528 31.6782 18.4868 31.9393 18.6569 32.4346C18.8265 32.929 18.571 33.4709 18.0835 33.6438C17.0936 33.9957 16.1648 34.5749 15.3966 35.3179C15.2163 35.4925 14.9851 35.579 14.7536 35.579ZM25.7611 33.2206H22.1885C21.6732 33.2206 21.2549 32.7952 21.2549 32.2712C21.2549 31.7472 21.6732 31.3223 22.1885 31.3223H25.7611C26.2763 31.3223 26.6946 31.7472 26.6946 32.2712C26.6946 32.7952 26.2763 33.2206 25.7611 33.2206ZM30.2262 33.2128C29.7289 33.2128 29.3153 32.8143 29.2939 32.3034C29.2726 31.7798 29.6716 31.3375 30.1869 31.3145C31.2546 31.268 32.2787 30.9947 33.2306 30.5011C33.6907 30.2617 34.2525 30.449 34.4858 30.9161C34.7191 31.3827 34.5371 31.9541 34.0782 32.1926C32.8853 32.8104 31.6028 33.1532 30.2663 33.211C30.2531 33.2119 30.2394 33.2128 30.2262 33.2128ZM36.9284 29.288C36.7549 29.288 36.5793 29.2389 36.4225 29.1364C35.9897 28.8514 35.8654 28.2639 36.1444 27.8234C36.7267 26.9075 37.0992 25.8994 37.2543 24.8271C37.3287 24.3088 37.8029 23.949 38.3126 24.0259C38.8223 24.102 39.1748 24.5842 39.1005 25.1022C38.9069 26.4452 38.4395 27.7069 37.7123 28.8535C37.535 29.1351 37.2355 29.288 36.9284 29.288ZM37.6444 21.4603C37.2766 21.4603 36.9284 21.2382 36.7801 20.8711C36.3815 19.8818 35.7645 18.9672 34.9955 18.2255C34.6212 17.8649 34.6063 17.264 34.96 16.8834C35.3147 16.5027 35.9055 16.488 36.2798 16.8473C37.2385 17.7719 38.0093 18.9137 38.5066 20.1494C38.7018 20.6347 38.4741 21.1891 37.9973 21.3881C37.8824 21.4377 37.7619 21.4603 37.6444 21.4603Z" fill="#CD8C5D"/>
<path d="M31.7195 16.3463C31.6503 16.3463 31.5811 16.3389 31.511 16.3224C30.9744 16.1982 30.4211 16.1356 29.8657 16.1356C29.3505 16.1356 28.9326 15.7102 28.9326 15.1867C28.9326 14.6627 29.3505 14.2373 29.8657 14.2373C30.5613 14.2373 31.2534 14.3159 31.9267 14.4719C32.4287 14.5884 32.7432 15.0972 32.6291 15.6077C32.5304 16.0483 32.1451 16.3463 31.7195 16.3463Z" fill="#CD8C5D"/>
<path d="M49.4662 56H6.5334C2.93046 56 0 53.0198 0 49.3562V5.69483C0 5.17084 0.418271 4.74591 0.933526 4.74591H47.5996C48.1148 4.74591 48.5331 5.17084 48.5331 5.69483V42.8371C48.5331 43.2912 48.8971 43.6614 49.3432 43.6614H50.3997C53.4562 43.6614 55.7578 45.9742 55.9979 49.2867C55.9996 53.0198 53.0692 56 49.4662 56V56ZM1.86663 6.64419V49.3562C1.86663 51.9727 3.96012 54.1017 6.5334 54.1017H49.4662C52.0395 54.1017 54.133 51.9727 54.133 49.3562C53.9715 47.1494 52.4351 45.5596 50.3997 45.5596H49.3432C47.8675 45.5596 46.6665 44.3379 46.6665 42.8371V6.64419H1.86663Z" fill="#522100"/>
<path d="M34.5342 45.5596C34.2129 45.5596 33.9006 45.3906 33.7267 45.0886L31.2666 40.7994L28.8061 45.0886C28.5468 45.5414 27.9747 45.6943 27.5295 45.4306C27.0844 45.1664 26.934 44.5846 27.1937 44.1319L30.46 38.437C30.7941 37.8544 31.7379 37.8544 32.0728 38.437L35.3395 44.1319C35.5989 44.5846 35.4489 45.1655 35.0037 45.4306C34.8551 45.5175 34.6936 45.5596 34.5342 45.5596Z" fill="#522100"/>
<path d="M29.4034 29.4241H27.4505C26.6712 29.4241 25.9594 29.0043 25.5459 28.3009C25.1062 27.5531 25.0857 26.6116 25.4925 25.8447L26.4687 23.9995C26.872 23.2352 27.6039 22.7798 28.4272 22.7798C29.2501 22.7798 29.9819 23.2352 30.3861 23.9995L31.3624 25.8447C31.7682 26.6125 31.7477 27.554 31.3081 28.3018C30.8945 29.0043 30.1827 29.4241 29.4034 29.4241V29.4241ZM27.1361 26.7433C27.0203 26.9618 27.0673 27.1877 27.1485 27.3272C27.2014 27.4171 27.2967 27.5253 27.4505 27.5253H29.4034C29.5564 27.5253 29.6525 27.4185 29.7047 27.3281C29.7867 27.1886 29.8324 26.9627 29.717 26.7433L28.7408 24.8984C28.64 24.7064 28.5007 24.6781 28.4272 24.6781C28.3533 24.6781 28.214 24.7064 28.1136 24.8984L27.1361 26.7433Z" fill="#522100"/>
<path d="M21.9362 43.6614H19.9837C19.2044 43.6614 18.4922 43.2417 18.0791 42.5383C17.6394 41.7905 17.6189 40.849 18.0257 40.0821L19.0019 38.2368C19.4052 37.4726 20.1367 37.0172 20.96 37.0172C21.7824 37.0172 22.5151 37.4726 22.918 38.2368L23.8943 40.0808C24.3006 40.849 24.2801 41.7905 23.8413 42.5383C23.4277 43.2417 22.7155 43.6614 21.9362 43.6614V43.6614ZM19.6693 40.9806C19.5535 41.1992 19.6001 41.4251 19.6812 41.5646C19.7346 41.6545 19.8299 41.7627 19.9837 41.7627H21.9362C22.0905 41.7627 22.1857 41.6545 22.2387 41.5646C22.3207 41.426 22.3665 41.1992 22.2507 40.9806L21.2744 39.1366C21.1727 38.9437 21.0339 38.9155 20.96 38.9155C20.8865 38.9155 20.7472 38.9437 20.6464 39.1358L19.6693 40.9806Z" fill="#522100"/>
<circle cx="13.5" cy="22.5" r="3.5" fill="#CD8C5D"/>
<path d="M13.0653 26.5764C11.0064 26.5764 9.33203 24.8736 9.33203 22.7798C9.33203 20.686 11.0064 18.9833 13.0653 18.9833C15.1246 18.9833 16.799 20.686 16.799 22.7798C16.799 24.8736 15.1246 26.5764 13.0653 26.5764ZM13.0653 20.8816C12.0361 20.8816 11.1987 21.7327 11.1987 22.7798C11.1987 23.8265 12.0361 24.6781 13.0653 24.6781C14.0949 24.6781 14.9323 23.8265 14.9323 22.7798C14.9323 21.7327 14.0949 20.8816 13.0653 20.8816Z" fill="#522100"/>
<path d="M13.0659 29.424C12.5511 29.424 12.1328 28.9987 12.1328 28.4747V25.627C12.1328 25.1035 12.5511 24.6781 13.0659 24.6781C13.5812 24.6781 13.9994 25.1035 13.9994 25.627V28.4747C13.9994 28.9987 13.5812 29.424 13.0659 29.424V29.424Z" fill="#522100"/>
</svg>
