<svg width="56" height="56" viewBox="0 0 56 56" fill="none" xmlns="http://www.w3.org/2000/svg">
<path d="M50.5172 19.7931C50.5172 18.0417 49.18 16.6185 47.4739 16.4476C47.0674 15.0379 45.7823 14 44.2414 14C42.375 14 40.8621 15.513 40.8621 17.3793H33.1379V9.65517C35.0043 9.65517 36.5172 8.14221 36.5172 6.27586C36.5172 4.56014 35.2331 3.15821 33.5763 2.94097C33.359 1.28414 31.9571 0 30.2414 0C28.5257 0 27.1237 1.28414 26.9065 2.94097C25.2497 3.15821 23.9655 4.56014 23.9655 6.27586C23.9655 8.14221 25.4785 9.65517 27.3448 9.65517V17.3793H18.6552C18.6552 15.513 17.1422 14 15.2759 14C13.7349 14 12.4498 15.0379 12.0433 16.4476C10.3372 16.6185 9 18.0417 9 19.7931C9 21.4953 10.2639 22.8905 11.9014 23.1241C11.9014 23.1406 11.8966 23.156 11.8966 23.1724C11.8966 25.0388 13.4095 26.5517 15.2759 26.5517C17.1422 26.5517 18.6552 25.0388 18.6552 23.1724H27.3448V46.3448C25.4785 46.3448 23.9655 47.8578 23.9655 49.7241C23.9655 51.4399 25.2497 52.8418 26.9065 53.059C27.1237 54.7159 28.5257 56 30.2414 56C31.9571 56 33.359 54.7159 33.5763 53.059C35.2331 52.8418 36.5172 51.4399 36.5172 49.7241C36.5172 47.8578 35.0043 46.3448 33.1379 46.3448V23.1724H40.8621C40.8621 25.0388 42.375 26.5517 44.2414 26.5517C46.1077 26.5517 47.6207 25.0388 47.6207 23.1724C47.6207 23.156 47.6159 23.1406 47.6159 23.1241C49.2534 22.8905 50.5172 21.4953 50.5172 19.7931Z" fill="#CD8C5D"/>
<path d="M45.8117 16.0057C45.1407 14.5245 43.6492 13.5333 42 13.5333C40.0045 13.5333 38.3301 14.9324 37.9045 16.8H32.2V11.0955C34.0676 10.6699 35.4667 8.99547 35.4667 7C35.4667 5.1352 34.2197 3.5168 32.4744 2.99227C31.9499 1.24693 30.3315 0 28.4667 0C26.6019 0 24.9835 1.24693 24.4589 2.99227C22.7136 3.5168 21.4667 5.1352 21.4667 7C21.4667 8.99547 22.8657 10.6699 24.7333 11.0955V16.8H18.0955C17.6699 14.9324 15.9955 13.5333 14 13.5333C12.3508 13.5333 10.8593 14.5245 10.1883 16.0057C8.33373 16.4612 7 18.1132 7 20.0667C7 21.8764 8.18533 23.4659 9.85787 24.0324C10.192 26.0167 11.9224 27.5333 14 27.5333C15.9955 27.5333 17.6699 26.1343 18.0955 24.2667H24.7333V44.9045C22.8657 45.3301 21.4667 47.0045 21.4667 49C21.4667 50.8648 22.7136 52.4832 24.4589 53.0077C24.9835 54.7531 26.6019 56 28.4667 56C30.3315 56 31.9499 54.7531 32.4744 53.0077C34.2197 52.4832 35.4667 50.8648 35.4667 49C35.4667 47.0045 34.0676 45.3301 32.2 44.9045V24.2667H37.9045C38.3301 26.1343 40.0045 27.5333 42 27.5333C44.0776 27.5333 45.808 26.0167 46.1412 24.0324C47.8137 23.4659 49 21.8764 49 20.0667C49 18.1132 47.6663 16.4612 45.8117 16.0057ZM45.1304 22.3627C44.6703 22.428 44.3287 22.8219 44.3287 23.2867C44.3287 23.3109 44.3305 23.3427 44.3324 23.3725C44.3119 24.6409 43.2731 25.6667 42 25.6667C40.7139 25.6667 39.6667 24.6195 39.6667 23.3333C39.6667 22.8181 39.2485 22.4 38.7333 22.4H31.2667C30.7515 22.4 30.3333 22.8181 30.3333 23.3333V45.7333C30.3333 46.2485 30.7515 46.6667 31.2667 46.6667C32.5528 46.6667 33.6 47.7139 33.6 49C33.6 50.1592 32.7264 51.1467 31.5691 51.2979C31.15 51.3529 30.8196 51.6833 30.7645 52.1024C30.6133 53.2597 29.6259 54.1333 28.4667 54.1333C27.3075 54.1333 26.32 53.2597 26.1688 52.1024C26.1137 51.6833 25.7833 51.3529 25.3643 51.2979C24.2069 51.1467 23.3333 50.1592 23.3333 49C23.3333 47.7139 24.3805 46.6667 25.6667 46.6667C26.1819 46.6667 26.6 46.2485 26.6 45.7333V23.3333C26.6 22.8181 26.1819 22.4 25.6667 22.4H17.2667C16.7515 22.4 16.3333 22.8181 16.3333 23.3333C16.3333 24.6195 15.2861 25.6667 14 25.6667C12.7269 25.6667 11.6881 24.6419 11.6667 23.3735C11.6685 23.3427 11.6704 23.3109 11.6704 23.2867C11.6704 22.8219 11.3288 22.4289 10.8687 22.3627C9.72813 22.2003 8.86667 21.2128 8.86667 20.0667C8.86667 18.8729 9.77013 17.8817 10.9676 17.7613C11.3475 17.7231 11.6657 17.458 11.7712 17.0912C12.0587 16.0953 12.9752 15.4 14 15.4C15.2861 15.4 16.3333 16.4472 16.3333 17.7333C16.3333 18.2485 16.7515 18.6667 17.2667 18.6667H25.6667C26.1819 18.6667 26.6 18.2485 26.6 17.7333V10.2667C26.6 9.75147 26.1819 9.33333 25.6667 9.33333C24.3805 9.33333 23.3333 8.28613 23.3333 7C23.3333 5.8408 24.2069 4.85333 25.3643 4.70213C25.7833 4.64707 26.1137 4.31667 26.1688 3.8976C26.32 2.74027 27.3075 1.86667 28.4667 1.86667C29.6259 1.86667 30.6133 2.74027 30.7645 3.8976C30.8196 4.31667 31.15 4.64707 31.5691 4.70213C32.7264 4.85333 33.6 5.8408 33.6 7C33.6 8.28613 32.5528 9.33333 31.2667 9.33333C30.7515 9.33333 30.3333 9.75147 30.3333 10.2667V17.7333C30.3333 18.2485 30.7515 18.6667 31.2667 18.6667H38.7333C39.2485 18.6667 39.6667 18.2485 39.6667 17.7333C39.6667 16.4472 40.7139 15.4 42 15.4C43.0248 15.4 43.9413 16.0953 44.2279 17.0912C44.3333 17.458 44.6516 17.7231 45.0315 17.7613C46.2299 17.8808 47.1324 18.872 47.1324 20.0667C47.1333 21.2128 46.2719 22.2003 45.1304 22.3627Z" fill="#522100"/>
</svg>
