<svg width="57" height="56" viewBox="0 0 57 56" fill="none" xmlns="http://www.w3.org/2000/svg">
<path d="M1 49.5V52.5C1 53.0523 1.44771 53.5 2 53.5H54C54.5523 53.5 55 53.0523 55 52.5V49.5C55 48.3954 54.1046 47.5 53 47.5H3C1.89543 47.5 1 48.3954 1 49.5Z" fill="#CD8C5D"/>
<path d="M7.5 32.5L2.5 30.5L0.5 36L2.5 37.5L5 37L7.5 32.5Z" fill="#CD8C5D"/>
<path d="M16.5 34L12 33L11 38.5L14 40L15 39L16.5 34Z" fill="#CD8C5D"/>
<path d="M44 33L39.5 34L41 40L45 39L44 33Z" fill="#CD8C5D"/>
<path d="M53 30.5L49 32L52 38L55.5 36L53 30.5Z" fill="#CD8C5D"/>
<path d="M29 13L28 16.5H39L38.5 14L37 12L33 11L29 13Z" fill="#CD8C5D"/>
<path d="M15.5 12.5L17 16.5H5.5V15.5L8.28479 12L12 11L15.5 12.5Z" fill="#CD8C5D"/>
<path d="M24.5 12L22 11L27 1.5H28H29L34 11L32 11.5L28.5 14.5L27.5 15L26.5 13.5L24.5 12Z" fill="#CD8C5D"/>
<path d="M53.2009 48.5331H32.6676V29.6946C33.7831 29.3017 34.5306 28.2492 34.5343 27.0665V17.7332H37.2355L40.6736 32.634L39.967 32.758C39.4766 32.8441 39.0408 33.1226 38.7567 33.5314C38.4725 33.9404 38.3636 34.4458 38.4539 34.9355L39.0614 38.224C39.4277 40.13 41.2556 41.3895 43.167 41.0532C44.0938 40.8946 44.9179 40.3696 45.4534 39.5967C45.9841 38.8375 46.187 37.8967 46.0162 36.9862L45.406 33.6813C45.2167 32.6759 44.2558 32.0085 43.2477 32.1819L42.5149 32.3106L39.1514 17.7331H44.4556L49.9106 30.4754L49.105 30.7647C48.6363 30.9328 48.2541 31.2812 48.0437 31.7325C47.8332 32.1838 47.8118 32.7006 47.9844 33.1677L49.1424 36.3049C49.8271 38.1213 51.8432 39.0517 53.6697 38.394C54.5558 38.0804 55.2785 37.4232 55.6745 36.5706C56.0688 35.7322 56.1087 34.7704 55.7853 33.9023L54.6218 30.7496C54.2646 29.7909 53.2042 29.2964 52.2402 29.639L51.671 29.8434L46.4864 17.7331H50.4008C50.9163 17.7331 51.3341 17.3152 51.3341 16.7998C51.3284 13.3067 48.5772 10.4357 45.0876 10.281L28.4877 0.136745C28.1888 -0.0455818 27.8131 -0.0455818 27.5143 0.136745L10.9143 10.2811C7.42471 10.4357 4.67339 13.3069 4.66782 16.8C4.66782 17.3154 5.08563 17.7332 5.60111 17.7332H9.51551L4.33083 29.8437L3.76176 29.6395C2.79784 29.2963 1.73702 29.7908 1.38013 30.7497L0.216711 33.9025C-0.106709 34.7706 -0.0667877 35.7325 0.327507 36.5708C0.723553 37.4234 1.44608 38.0805 2.33223 38.3942C4.15857 39.0519 6.17478 38.1216 6.85946 36.3051L8.01752 33.168C8.19 32.7007 8.16857 32.184 7.95813 31.7326C7.74769 31.2813 7.36554 30.9327 6.89687 30.7645L6.09143 30.4755L11.5463 17.7335H16.8505L13.487 32.3109L12.7542 32.1823C11.7459 32.0083 10.7847 32.676 10.5959 33.6816L9.98571 36.9865C9.81487 37.897 10.0177 38.8378 10.5486 39.597C11.0841 40.3699 11.9081 40.8949 12.8349 41.0535C14.7465 41.39 16.5742 40.1304 16.9405 38.2243L17.548 34.9353C17.6383 34.4458 17.5293 33.9404 17.2451 33.5315C16.961 33.1227 16.5253 32.8443 16.035 32.7584L15.3284 32.6343L18.7665 17.7336H21.4677V27.0668C21.4714 28.2495 22.2189 29.3019 23.3344 29.6948V48.5334H2.80112C1.25544 48.5351 0.00277452 49.7877 0.0011339 51.3334V55.0667C0.0011339 55.5822 0.418944 56 0.934427 56H55.0675C55.583 56 56.0008 55.5821 56.0008 55.0667V51.3334C55.9991 49.7874 54.7466 48.5349 53.2009 48.5331ZM42.0146 34.2948L42.0189 34.2929L43.5705 34.0205L44.1807 37.3254C44.2596 37.7462 44.1659 38.1809 43.9205 38.5317C43.6681 38.8947 43.2804 39.1409 42.8444 39.2148C41.9409 39.3785 41.0735 38.7861 40.8971 37.8851L40.2897 34.5965L41.996 34.2969L42.0146 34.2948ZM52.8709 31.396L54.0344 34.5487C54.1836 34.95 54.165 35.3944 53.9829 35.7819C53.7961 36.1824 53.4557 36.4909 53.0387 36.6373C52.1764 36.9521 51.2208 36.5165 50.8936 35.6589L49.7361 32.5217L52.8709 31.396ZM6.26643 32.5217L5.10849 35.6589C4.78146 36.5167 3.82607 36.9528 2.96387 36.6378C2.54683 36.4913 2.20601 36.1825 2.0192 35.7819C1.83709 35.3944 1.8185 34.95 1.96769 34.5487L3.13121 31.3964L6.26643 32.5217ZM15.7122 34.5966L15.1048 37.8851C14.928 38.786 14.0609 39.3781 13.1575 39.2148C12.7216 39.1409 12.3338 38.8947 12.0815 38.5317C11.8361 38.1809 11.7424 37.7462 11.8213 37.3254L12.4315 34.0204L13.9831 34.2929L13.9874 34.2948L14.006 34.2969L15.7122 34.5966ZM32.6676 27.0666C32.6669 27.5818 32.2494 27.9992 31.7343 27.9999H24.2676C23.7525 27.9992 23.335 27.5818 23.3343 27.0666V17.7334H28.001H32.6677L32.6676 27.0666ZM30.801 29.8666V48.5332H25.201V29.8666H30.801ZM29.0281 15.8667C29.4745 13.6955 31.3843 12.1362 33.6009 12.1334C35.8175 12.1362 37.7272 13.6955 38.1736 15.8667H29.0281ZM49.3737 15.8667H40.2281C40.6718 13.6938 42.5833 12.1334 44.8008 12.1334C47.0184 12.1334 48.9299 13.6938 49.3737 15.8667ZM42.3006 10.7661C41.0071 11.3075 39.9208 12.2488 39.2009 13.4521C38.1269 11.6546 36.2564 10.4808 34.1707 10.2956L32.124 10.4414L30.4907 3.54868L42.3006 10.7661ZM28.001 2.88248L30.4907 3.54868L32.124 10.4414C30.3988 10.8456 28.9112 11.9319 28.001 13.4521C27.0908 11.9319 25.6032 10.8456 23.878 10.4414L25.5112 3.54879L28.001 2.88248ZM10.9379 15.8667H6.62825C7.07198 13.6938 8.98341 12.1334 11.201 12.1334C13.4187 12.1334 15.33 13.6939 15.7737 15.8667H10.9379ZM16.8011 13.4521C16.0812 12.2488 14.9948 11.3075 13.7013 10.7661L25.5112 3.54879L23.878 10.4414L21.8311 10.2956C19.7454 10.4808 17.875 11.6546 16.8011 13.4521ZM17.8282 15.8667C18.2719 13.6938 20.1834 12.1334 22.4009 12.1334C24.6186 12.1334 26.5299 13.6939 26.9737 15.8667H17.8282ZM54.1342 54.1331H1.86772V51.3331C1.86838 50.8179 2.28586 50.4005 2.80101 50.3998H53.2008C53.7159 50.4005 54.1334 50.8179 54.1341 51.3331L54.1342 54.1331Z" fill="#522100"/>
</svg>
