<svg width="59" height="59" viewBox="0 0 59 59" fill="none" xmlns="http://www.w3.org/2000/svg">
<path d="M2.95117 48.213C2.95117 47.1085 3.8466 46.213 4.95117 46.213H54.0503C55.1549 46.213 56.0503 47.1084 56.0503 48.213V54.0491C56.0503 55.1537 55.1549 56.0491 54.0503 56.0491H4.95117C3.8466 56.0491 2.95117 55.1537 2.95117 54.0491V48.213Z" fill="#CD8C5D"/>
<path d="M23.1802 32.0042C22.5888 31.4128 22.5861 30.4567 23.1741 29.8686L45.6902 7.35292C47.9559 5.08723 51.6399 5.09777 53.9186 7.37645C56.1973 9.65513 56.2078 13.3391 53.9421 15.6048L31.4261 38.1205C30.838 38.7085 29.8819 38.7058 29.2905 38.1144L23.1802 32.0042Z" fill="#CD8C5D"/>
<path fill-rule="evenodd" clip-rule="evenodd" d="M0 49C0 47.8954 0.864553 47 1.93103 47H31.32C31.8533 47 32.2855 47.4477 32.2855 48C32.2855 48.5523 31.8533 49 31.32 49L1.93103 49V57H54.069V49H43.6515C43.1183 49 42.686 48.5523 42.686 48C42.686 47.4477 43.1183 47 43.6515 47H54.069C55.1354 47 56 47.8954 56 49V57C56 58.1046 55.1354 59 54.069 59H1.93103C0.864552 59 0 58.1046 0 57V49ZM33.2002 48C33.2002 47.4477 33.6325 47 34.1658 47H40.8058C41.339 47 41.7713 47.4477 41.7713 48C41.7713 48.5523 41.339 49 40.8058 49H34.1658C33.6325 49 33.2002 48.5523 33.2002 48Z" fill="#522100"/>
<path fill-rule="evenodd" clip-rule="evenodd" d="M44.6868 6.54751L20.6191 30.6149C20.419 30.815 20.419 31.1395 20.6191 31.3397L27.4253 38.1457C27.6254 38.3459 27.9499 38.3459 28.1501 38.1457L52.2178 14.0784C54.2974 11.9988 54.2974 8.62709 52.2178 6.54751C50.1382 4.46793 46.7665 4.46793 44.6868 6.54751ZM19.2281 29.2239C18.2597 30.1923 18.2597 31.7623 19.2281 32.7307L26.0342 39.5368C27.0026 40.5052 28.5727 40.5052 29.5411 39.5368L53.6089 15.4694C56.4567 12.6216 56.4567 8.00431 53.6089 5.15648C50.761 2.30865 46.1437 2.30865 43.2958 5.15648L19.2281 29.2239Z" fill="#522100"/>
<path fill-rule="evenodd" clip-rule="evenodd" d="M51.6838 4.31502C52.0679 4.69914 52.0679 5.32193 51.6838 5.70605L44.3808 13.009C43.9967 13.3931 43.3739 13.3931 42.9897 13.009C42.6056 12.6248 42.6056 12.0021 42.9897 11.6179L50.2928 4.31502C50.6769 3.9309 51.2997 3.9309 51.6838 4.31502Z" fill="#522100"/>
<path fill-rule="evenodd" clip-rule="evenodd" d="M31.8611 36.6565C31.477 37.0406 30.8542 37.0406 30.4701 36.6565L24.9059 31.0923C24.5217 30.7082 24.5217 30.0854 24.9059 29.7013C25.29 29.3172 25.9128 29.3172 26.2969 29.7013L31.8611 35.2654C32.2452 35.6495 32.2452 36.2723 31.8611 36.6565Z" fill="#522100"/>
<path fill-rule="evenodd" clip-rule="evenodd" d="M41.5998 14.4C41.9839 14.7841 41.9839 15.4069 41.5998 15.791L40.9043 16.4865C40.5202 16.8706 39.8974 16.8706 39.5132 16.4865C39.1291 16.1024 39.1291 15.4796 39.5132 15.0955L40.2088 14.4C40.5929 14.0159 41.2157 14.0159 41.5998 14.4Z" fill="#522100"/>
<path fill-rule="evenodd" clip-rule="evenodd" d="M19.9355 34.0803L18.5445 35.4713L23.4132 40.3399L24.8042 38.9489L19.9355 34.0803ZM20.6311 31.9937C20.2469 31.6096 19.6241 31.6096 19.24 31.9937L16.4579 34.7758C16.0738 35.1599 16.0738 35.7827 16.4579 36.1668L22.7176 42.4265C23.1018 42.8106 23.7246 42.8106 24.1087 42.4265L26.8908 39.6444C27.2749 39.2603 27.2749 38.6375 26.8908 38.2534L20.6311 31.9937Z" fill="#522100"/>
<path fill-rule="evenodd" clip-rule="evenodd" d="M18.5469 38.2534L8.34757 48.6886L12.7765 48.1968L20.6335 40.34L18.5469 38.2534ZM19.2424 36.1669C18.8583 35.7828 18.2355 35.7828 17.8513 36.1669L5.82128 48.1968C5.43715 48.5809 7.96344 48.3045 8.34757 48.6886L12.7765 48.1968L12.2821 48.6886C12.6662 49.0727 14.2493 49.1804 15.5586 48.1968L22.72 41.0355C23.1042 40.6514 23.1042 40.0286 22.72 39.6445L19.2424 36.1669Z" fill="#522100"/>
<path fill-rule="evenodd" clip-rule="evenodd" d="M8.85276 9.83606C9.396 9.83606 9.83638 10.2764 9.83638 10.8197C9.83638 15.1655 13.3594 18.6885 17.7054 18.6885C18.2486 18.6885 18.689 19.1289 18.689 19.6721C18.689 20.2154 18.2486 20.6557 17.7054 20.6557C12.273 20.6557 7.86914 16.252 7.86914 10.8197C7.86914 10.2764 8.30952 9.83606 8.85276 9.83606Z" fill="#CD8C5D"/>
<path fill-rule="evenodd" clip-rule="evenodd" d="M31.3352 43.0343C31.3768 42.4927 31.8497 42.0874 32.3913 42.129C36.7244 42.4622 40.5072 39.2197 40.8404 34.8866C40.8821 34.345 41.3549 33.9396 41.8966 33.9813C42.4382 34.0229 42.8435 34.4958 42.8019 35.0374C42.3854 40.4537 37.6569 44.5069 32.2405 44.0904C31.6989 44.0488 31.2935 43.5759 31.3352 43.0343Z" fill="#CD8C5D"/>
<path fill-rule="evenodd" clip-rule="evenodd" d="M20.24 24.3615C19.8827 23.9523 19.9247 23.331 20.3339 22.9737C23.6074 20.1152 23.9438 15.1443 21.0853 11.8708C20.728 11.4616 20.7701 10.8403 21.1793 10.483C21.5884 10.1257 22.2098 10.1677 22.5671 10.5769C26.1403 14.6687 25.7197 20.8824 21.6278 24.4554C21.2187 24.8127 20.5973 24.7707 20.24 24.3615Z" fill="#522100"/>
<path fill-rule="evenodd" clip-rule="evenodd" d="M54.7568 28.1483C54.8133 28.6886 54.4211 29.1724 53.8808 29.2289C49.5584 29.6808 46.4208 33.551 46.8727 37.8733C46.9292 38.4136 46.537 38.8974 45.9967 38.9539C45.4564 39.0103 44.9727 38.6181 44.9162 38.0779C44.3513 32.675 48.2733 27.8372 53.6762 27.2723C54.2165 27.2158 54.7003 27.608 54.7568 28.1483Z" fill="#522100"/>
<path fill-rule="evenodd" clip-rule="evenodd" d="M11.0671 29.1354C11.3878 29.5739 11.2923 30.1893 10.8537 30.51C8.51951 32.2168 8.01819 34.9642 9.20618 36.5888C9.52684 37.0273 9.4313 37.6427 8.99279 37.9634C8.55428 38.284 7.93886 38.1885 7.6182 37.75C5.59966 34.9896 6.76469 31.0629 9.69256 28.922C10.1311 28.6014 10.7465 28.6969 11.0671 29.1354Z" fill="#522100"/>
</svg>
