<svg width="56" height="56" viewBox="0 0 56 56" fill="none" xmlns="http://www.w3.org/2000/svg">
<path d="M22.4887 35.2512C22.9719 34.7003 23.4841 34.171 24.055 33.695L24.3864 33.4186C22.8897 33.4186 21.6767 32.2056 21.6767 30.709C21.6767 29.2124 22.8897 27.9994 24.3864 27.9994C24.3864 27.9994 24.9139 25.6411 27.0908 23.4652C26.9156 23.085 26.7566 22.6984 26.5931 22.3127L26.193 22.5801L21.6767 27.0962L17.1604 22.5801L12.6441 27.0962L8.12779 22.5801C8.00043 22.5521 7.8803 22.5295 7.75475 22.5042C6.67806 24.9709 5.34937 27.34 3.79667 29.5764C2.9756 30.7587 2.31352 32.0584 1.82666 33.4403L3.6115 35.2251L8.12779 30.709L12.6441 35.2251L17.1604 30.709L21.6767 35.2251L22.4887 35.2512Z" fill="#CD8C5D"/>
<path d="M55.0969 44.5578C55.0969 42.4109 54.6028 40.3236 53.6941 38.4341L49.6773 42.4507L43.3545 36.1282L37.0317 42.4507L30.7089 36.1282L24.3861 42.4507L20.3693 38.4341C19.4606 40.3236 18.9666 42.4109 18.9666 44.5578C18.9666 45.0989 19.009 45.6345 19.0695 46.1674L24.3861 51.4828L30.7089 45.1603L37.0317 51.4828L43.3545 45.1603L49.6773 51.4828L54.9939 46.1665C55.0544 45.6345 55.0969 45.098 55.0969 44.5578Z" fill="#CD8C5D"/>
<path d="M51.4729 33.8262C52.5532 33.2011 53.2902 32.0459 53.2902 30.7092C53.2902 28.9506 52.0275 27.4865 50.361 27.165C49.8271 25.6747 48.0631 21.9498 43.3544 20.0775V18.0642C43.3544 16.872 42.5749 15.8685 41.5036 15.5072C41.2904 13.2411 40.1307 11.1303 38.2961 9.75468L37.0316 8.80631L35.7679 9.75468C33.9325 11.1303 32.7736 13.2411 32.5604 15.5072C31.4874 15.8685 30.7088 16.872 30.7088 18.0642V20.0775C29.4017 20.5977 28.3233 21.2598 27.4335 21.9787C25.4193 17.2504 24.3859 12.3948 24.3859 7.52375V7.22569H26.1925C27.6865 7.22569 28.9022 6.00997 28.9022 4.51606V2.70963C28.9022 1.21572 27.6865 0 26.1925 0H8.12729C6.6333 0 5.41752 1.21572 5.41752 2.70963V4.51606C5.41752 6.00997 6.6333 7.22569 8.12729 7.22569H9.93381V8.15509C9.93381 15.3519 7.55463 22.5803 3.05459 29.0608C0.750381 32.3774 -0.307335 36.4419 0.0774532 40.5045C0.835287 48.5359 7.19965 55.0074 15.2097 55.8916C15.8673 55.9639 16.5222 56 17.1725 56C18.9492 56 20.6889 55.7155 22.3744 55.1772L23.06 55.9991H51.0032L52.5143 54.1873C54.7616 51.4894 56 48.0689 56 44.5572C56 40.4864 54.3543 36.6469 51.4729 33.8262ZM48.4063 27.0963H45.3867L47.0478 24.8817C47.7135 25.7036 48.1417 26.4903 48.4063 27.0963ZM27.0153 24.8817L28.6764 27.0963H25.6568C25.9215 26.4894 26.3505 25.7036 27.0153 24.8817ZM28.2925 23.5747C30.0584 22.0682 32.798 20.7739 37.0316 20.7739C41.2651 20.7739 44.0047 22.0682 45.7706 23.5747L44.1601 25.7217L40.6446 22.2064L37.0316 25.8192L33.4185 22.2064L29.9031 25.7217L28.2925 23.5747ZM33.4185 24.7606L35.7544 27.0963H31.0827L33.4185 24.7606ZM40.6446 24.7606L42.9804 27.0963H38.3088L40.6446 24.7606ZM36.8509 11.1998L37.0316 11.0652L37.2122 11.1998C38.5518 12.2051 39.4279 13.7153 39.6682 15.3555H34.395C34.6352 13.7153 35.5105 12.2051 36.8509 11.1998ZM32.5153 18.0642C32.5153 17.5657 32.9199 17.161 33.4185 17.161H40.6446C41.1432 17.161 41.5479 17.5657 41.5479 18.0642V19.4976C40.2336 19.1652 38.7387 18.9674 37.0316 18.9674C35.3244 18.9674 33.8295 19.1661 32.5153 19.4976V18.0642ZM18.9664 7.22569V5.41927H8.12729C7.6287 5.41927 7.22404 5.01463 7.22404 4.51606V2.70963C7.22404 2.21106 7.6287 1.80642 8.12729 1.80642H26.1925C26.6911 1.80642 27.0957 2.21106 27.0957 2.70963V4.51606C27.0957 5.01463 26.6911 5.41927 26.1925 5.41927H20.7729V7.22569H22.5794V7.52375C22.5794 9.84139 22.8116 12.1536 23.2478 14.4514H11.1622C11.5416 12.3632 11.7403 10.2587 11.7403 8.15509V7.22569H18.9664ZM4.53774 30.0914C7.56185 25.7388 9.66464 21.0548 10.7874 16.2587H23.6326C24.2026 18.6305 25.0047 20.9825 26.0353 23.3019C24.6786 24.813 23.9994 26.3358 23.7013 27.1659C22.0366 27.4865 20.7729 28.9506 20.7729 30.7092C20.7729 32.045 21.5091 33.2002 22.5903 33.8253C19.7089 36.646 18.0631 40.4864 18.0631 44.5572C18.0631 45.679 18.2031 46.7882 18.4479 47.8702H4.74459C3.17021 45.7097 2.13869 43.131 1.87494 40.3347C1.52628 36.6442 2.4476 33.1018 4.53774 30.0914ZM15.4076 54.096C11.8596 53.704 8.67467 52.0837 6.27923 49.6766H18.9637C19.4785 51.0983 20.2183 52.435 21.1414 53.6507C19.2889 54.1484 17.3685 54.3128 15.4076 54.096ZM51.126 53.0311L50.1577 54.1927H23.9054L22.938 53.032C20.959 50.6566 19.8697 47.6471 19.8697 44.5572C19.8697 40.6174 21.6057 36.9106 24.6325 34.3889L24.7129 34.322H45.1609V32.5156H24.3859C23.3906 32.5156 22.5794 31.7045 22.5794 30.7092C22.5794 29.7129 23.3906 28.9028 24.3859 28.9028H49.6772C50.6726 28.9028 51.4837 29.7129 51.4837 30.7092C51.4837 31.7045 50.6726 32.5156 49.6772 32.5156H46.9674V34.322H49.3502L49.4306 34.3889C52.4574 36.9115 54.1935 40.6174 54.1935 44.5572C54.1935 47.6471 53.1042 50.6566 51.126 53.0311Z" fill="#522100"/>
<path d="M37.9347 36.1257H36.1282V37.9322H37.9347V36.1257Z" fill="#522100"/>
<path d="M50.5802 36.1257H48.7737V37.9322H50.5802V36.1257Z" fill="#522100"/>
<path d="M25.2894 36.1257H23.4829V37.9322H25.2894V36.1257Z" fill="#522100"/>
<path d="M31.6102 48.7708H29.8037V50.5772H31.6102V48.7708Z" fill="#522100"/>
<path d="M44.2574 48.7708H42.4509V50.5772H44.2574V48.7708Z" fill="#522100"/>
<path d="M18.0631 35.2227H16.2566V37.0291H18.0631V35.2227Z" fill="#522100"/>
<path d="M9.03113 35.2227H7.22461V37.0291H9.03113V35.2227Z" fill="#522100"/>
</svg>
