<svg width="56" height="56" viewBox="0 0 56 56" fill="none" xmlns="http://www.w3.org/2000/svg">
<path fill-rule="evenodd" clip-rule="evenodd" d="M42.5401 9.49285L40.327 3.96165C39.6894 2.36799 37.8646 1.61192 36.2867 2.28758L30.8101 4.63265C29.0171 5.40043 26.9878 5.40021 25.1949 4.63204L19.7188 2.2858C18.1411 1.6098 16.3161 2.36547 15.6781 3.95901L13.4638 9.48973C12.7389 11.3005 11.3038 12.7353 9.49285 13.4599L3.96166 15.673C2.36799 16.3106 1.61192 18.1354 2.28758 19.7133L4.63264 25.1899C5.40043 26.9829 5.40021 29.0122 4.63204 30.8051L2.2858 36.2812C1.6098 37.8589 2.36548 39.6839 3.959 40.3218L9.48973 42.5362C11.3005 43.2611 12.7353 44.6962 13.4599 46.5071L15.673 52.0383C16.3106 53.632 18.1354 54.3881 19.7133 53.7124L25.1899 51.3674C26.9829 50.5996 29.0122 50.5998 30.8051 51.368L36.2812 53.7142C37.8589 54.3902 39.6839 53.6345 40.3218 52.041L42.5362 46.5103C43.2611 44.6995 44.6962 43.2647 46.5071 42.5401L52.0383 40.327C53.632 39.6894 54.3881 37.8646 53.7124 36.2867L51.3674 30.8101C50.5996 29.0171 50.5998 26.9878 51.368 25.1949L53.7142 19.7188C54.3902 18.1411 53.6345 16.3161 52.041 15.6781L46.5103 13.4638C44.6995 12.7389 43.2647 11.3038 42.5401 9.49285ZM42.2186 3.2048C41.1559 0.548692 38.1146 -0.711424 35.4847 0.414687L30.0082 2.75975C28.7274 3.30816 27.2779 3.30801 25.9973 2.75932L20.5212 0.413078C17.8916 -0.713599 14.85 0.545864 13.7867 3.20175L11.5724 8.73247C11.0546 10.0259 10.0295 11.0507 8.736 11.5683L3.2048 13.7814C0.548692 14.8441 -0.711424 17.8854 0.414688 20.5153L2.75975 25.9918C3.30816 27.2726 3.30801 28.7221 2.75932 30.0027L0.413077 35.4788C-0.713598 38.1084 0.545864 41.15 3.20175 42.2133L8.73247 44.4276C10.0259 44.9454 11.0507 45.9705 11.5683 47.264L13.7814 52.7952C14.8441 55.4513 17.8854 56.7114 20.5153 55.5853L25.9918 53.2403C27.2726 52.6918 28.7221 52.692 30.0027 53.2407L35.4788 55.5869C38.1084 56.7136 41.15 55.4541 42.2133 52.7983L44.4276 47.2675C44.9454 45.9741 45.9705 44.9493 47.264 44.4317L52.7952 42.2186C55.4513 41.1559 56.7114 38.1146 55.5853 35.4847L53.2403 30.0082C52.6918 28.7274 52.692 27.2779 53.2407 25.9973L55.5869 20.5212C56.7136 17.8916 55.4541 14.85 52.7983 13.7867L47.2675 11.5724C45.9741 11.0546 44.9493 10.0295 44.4317 8.736L42.2186 3.2048Z" fill="#522100"/>
<path d="M25.4911 13.8472C27.1162 9.37564 33.4402 9.37564 35.0653 13.8472L36.1425 16.8112C36.6574 18.2279 37.7732 19.3437 39.1898 19.8586L42.1539 20.9358C46.6255 22.5609 46.6254 28.8849 42.1539 30.51L39.1898 31.5872C37.7732 32.1021 36.6574 33.2179 36.1425 34.6345L35.0653 37.5986C33.4402 42.0702 27.1162 42.0701 25.4911 37.5986L24.4139 34.6345C23.899 33.2179 22.7832 32.1021 21.3665 31.5872L18.4025 30.51C13.9309 28.8849 13.9309 22.5609 18.4025 20.9358L21.3665 19.8586C22.7832 19.3437 23.899 18.2279 24.4139 16.8112L25.4911 13.8472Z" fill="#CD8C5D"/>
<path fill-rule="evenodd" clip-rule="evenodd" d="M40.5708 11.8781C36.6796 14.3588 31.5066 12.2161 30.5093 7.71045C29.9144 5.02314 26.0833 5.02315 25.4885 7.71045C24.4912 12.2161 19.3181 14.3588 15.427 11.8781C13.1061 10.3985 10.3971 13.1075 11.8767 15.4283C14.3575 19.3195 12.2148 24.4925 7.70911 25.4898C5.0218 26.0847 5.0218 29.9158 7.70911 30.5106C12.2148 31.5079 14.3575 36.681 11.8767 40.5721C10.3971 42.893 13.1061 45.602 15.427 44.1224C19.3181 41.6416 24.4912 43.7843 25.4885 48.29C26.0833 50.9773 29.9144 50.9773 30.5093 48.29C31.5066 43.7843 36.6796 41.6416 40.5708 44.1224C42.8916 45.602 45.6006 42.893 44.121 40.5721C41.6402 36.681 43.783 31.5079 48.2886 30.5106C50.976 29.9158 50.976 26.0847 48.2886 25.4898C43.783 24.4925 41.6402 19.3195 44.121 15.4283C45.6006 13.1075 42.8916 10.3985 40.5708 11.8781ZM45.839 16.5235C48.491 12.3637 43.6354 7.50809 39.4756 10.1601C36.7773 11.8804 33.1901 10.3945 32.4985 7.27014C31.4323 2.45341 24.5654 2.45341 23.4993 7.27014C22.8077 10.3945 19.2205 11.8804 16.5222 10.1601C12.3624 7.50809 7.50675 12.3637 10.1588 16.5235C11.8791 19.2218 10.3932 22.809 7.2688 23.5006C2.45207 24.5668 2.45207 31.4337 7.2688 32.4998C10.3932 33.1914 11.8791 36.7786 10.1588 39.4769C7.50674 43.6367 12.3624 48.4924 16.5222 45.8403C19.2205 44.1201 22.8077 45.6059 23.4993 48.7303C24.5654 53.547 31.4323 53.547 32.4985 48.7303C33.1901 45.6059 36.7772 44.12 39.4755 45.8403C43.6354 48.4924 48.491 43.6367 45.839 39.4769C44.1187 36.7786 45.6046 33.1914 48.729 32.4998C53.5457 31.4337 53.5457 24.5668 48.729 23.5006C45.6046 22.809 44.1187 19.2218 45.839 16.5235Z" fill="#CD8C5D"/>
<path fill-rule="evenodd" clip-rule="evenodd" d="M31.4961 14.1335C31.9863 13.7832 32.4316 13.3448 32.8086 12.818C33.7969 11.4396 35.9668 12.3678 35.6523 14.0344C34.9258 17.8959 38.2578 21.3054 42.1348 20.666C43.8086 20.39 44.6875 22.5811 43.2852 23.5374C42.7969 23.8708 42.3809 24.262 42.0371 24.6938C41.498 24.0603 40.7793 23.5409 39.877 23.2129L36.9121 22.1357C35.4961 21.6208 34.3809 20.505 33.8652 19.0883L32.7871 16.1243C32.4922 15.3138 32.043 14.6502 31.4961 14.1335ZM26.8691 15.0212C27.6582 15.2114 28.4844 15.231 29.2812 15.0792C29.9766 15.3909 30.5645 15.9713 30.873 16.8202L31.9512 19.7842C32.6719 21.7675 34.2324 23.3297 36.2168 24.0505L39.1797 25.1277C40.0859 25.4572 40.6836 26.1059 40.9785 26.8616C40.7852 27.6543 40.7656 28.4821 40.918 29.2827C40.6055 29.9771 40.0293 30.5637 39.1797 30.8723L36.2168 31.9495C34.2324 32.6703 32.6719 34.2324 31.9512 36.2158L30.873 39.1798C30.543 40.0864 29.8926 40.6876 29.1367 40.9815C28.3477 40.7899 27.5234 40.7689 26.7266 40.9193C26.0312 40.6075 25.4375 40.0287 25.1289 39.1797L24.0508 36.2158C23.3301 34.2324 21.7676 32.6703 19.7852 31.9495L16.8203 30.8723C15.9121 30.5419 15.3125 29.8871 15.0195 29.1287C15.209 28.3391 15.2305 27.5148 15.0781 26.7177C15.3906 26.0233 15.9727 25.4363 16.8203 25.1277L19.7852 24.0505C21.7676 23.3297 23.3301 21.7675 24.0508 19.7842L25.1289 16.8202C25.459 15.9136 26.1133 15.3152 26.8691 15.0212ZM29.375 12.9523C28.5625 12.733 27.6992 12.7132 26.8789 12.8919C26.2344 12.6393 25.6504 12.1961 25.2188 11.5634C23.0312 8.36176 18.0234 10.3699 18.6543 14.1951C19.0625 16.6763 16.8809 18.8092 14.4102 18.3435C10.5996 17.6255 8.47852 22.5873 11.6289 24.846C12.2793 25.3124 12.7207 25.9396 12.9512 26.6237C12.7324 27.4352 12.7129 28.2997 12.8906 29.1203C12.6387 29.7645 12.1934 30.3483 11.5605 30.7803C8.35938 32.9666 10.3672 37.9755 14.1934 37.3445C16.6738 36.9353 18.8066 39.1173 18.3418 41.5886C17.623 45.3984 22.5859 47.5202 24.8438 44.3693C25.3105 43.7186 25.9375 43.2786 26.6211 43.048C27.4355 43.2701 28.2949 43.2878 29.1191 43.1083C29.7637 43.3609 30.3457 43.8041 30.7793 44.4369C32.9648 47.6385 37.9727 45.6304 37.3418 41.8052C36.9336 39.3239 39.1152 37.1911 41.5859 37.6568C45.3965 38.3748 47.5176 33.413 44.3672 31.1543C43.7168 30.6879 43.2773 30.0607 43.0469 29.3766C43.2695 28.5617 43.2852 27.7043 43.1055 26.8799C43.3574 26.2357 43.8027 25.652 44.4355 25.22C47.6367 23.0336 45.6289 18.0248 41.8027 18.6558C39.3223 19.065 37.1895 16.8829 37.6543 14.4117C38.373 10.6019 33.4102 8.48004 31.1523 11.631C30.6855 12.2817 30.0586 12.7217 29.375 12.9523ZM41.8652 31.4987C41.3496 32.0449 40.6855 32.493 39.877 32.7871L36.9121 33.8643C35.4961 34.3792 34.3809 35.495 33.8652 36.9116L32.7871 39.8757C32.459 40.7796 31.9375 41.5008 31.3027 42.0392C31.7344 42.383 32.127 42.7993 32.4609 43.288C33.418 44.6885 35.6094 43.8101 35.332 42.1367C34.6934 38.2596 38.1016 34.927 41.9648 35.6547C43.6309 35.9687 44.5586 33.7982 43.1797 32.8102C42.6543 32.4328 42.2148 31.9882 41.8652 31.4987ZM24.502 41.8654C23.9551 41.3488 23.5078 40.6856 23.2129 39.8757L22.1367 36.9116C21.6211 35.495 20.5059 34.3792 19.0898 33.8643L16.125 32.7871C15.2207 32.4585 14.5 31.9378 13.9609 31.3027C13.6172 31.736 13.2012 32.1285 12.7109 32.4628C11.3105 33.4193 12.1875 35.6103 13.8613 35.3344C17.7383 34.6948 21.0723 38.1044 20.3438 41.9659C20.0293 43.6324 22.1992 44.5606 23.1875 43.1823C23.5664 42.6548 24.0117 42.2159 24.502 41.8654ZM14.1328 24.505C13.7832 24.0142 13.3438 23.5684 12.8164 23.1901C11.4375 22.2021 12.3652 20.0316 14.0332 20.3456C17.8945 21.0733 21.3027 17.7406 20.6641 13.8635C20.3887 12.1902 22.5801 11.3118 23.5352 12.7123C23.8691 13.2017 24.2617 13.6184 24.6953 13.9625C24.0605 14.5007 23.541 15.2214 23.2129 16.1243L22.1367 19.0883C21.6211 20.505 20.5059 21.6208 19.0898 22.1357L16.125 23.2129C15.3145 23.5077 14.6504 23.9571 14.1328 24.505Z" fill="#522100"/>
</svg>
