<svg width="56" height="56" viewBox="0 0 56 56" fill="none" xmlns="http://www.w3.org/2000/svg">
<path d="M24.244 55.7437C24.2048 55.7437 24.1638 55.7411 24.1235 55.7351C23.5296 55.6531 22.9298 55.5505 22.3419 55.4292C21.8685 55.3317 21.5643 54.8686 21.6617 54.3952C21.7591 53.9227 22.2155 53.6193 22.6956 53.715C23.245 53.8287 23.8013 53.9244 24.3627 54.0021C24.8412 54.068 25.1762 54.5098 25.1095 54.9883C25.0489 55.4267 24.6746 55.7437 24.244 55.7437Z" fill="#522100"/>
<path d="M18.7319 54.3772C18.6328 54.3772 18.532 54.3602 18.4329 54.3243C17.8654 54.1183 17.3015 53.8919 16.7555 53.6518C16.3129 53.4579 16.112 52.9409 16.3068 52.4991C16.5 52.0573 17.016 51.8556 17.4595 52.0504C17.9748 52.2768 18.4986 52.4862 19.0309 52.6802C19.4846 52.8452 19.7197 53.3468 19.5539 53.8014C19.4249 54.1568 19.0891 54.3772 18.7319 54.3772Z" fill="#522100"/>
<path d="M13.6303 51.8873C13.4714 51.8873 13.3107 51.8445 13.1664 51.754C12.6562 51.4335 12.1555 51.0977 11.6685 50.7465C11.2763 50.4645 11.1875 49.9176 11.4694 49.5254C11.7505 49.1331 12.2983 49.0443 12.6905 49.3263C13.1485 49.6553 13.6168 49.9706 14.0962 50.2706C14.5055 50.5278 14.6294 51.0678 14.373 51.4771C14.2063 51.742 13.9217 51.8873 13.6303 51.8873Z" fill="#522100"/>
<path d="M53.8644 37.0724C53.7772 37.0724 53.6884 37.0596 53.6004 37.0314C53.1398 36.8861 52.8843 36.3939 53.0304 35.9333C53.1996 35.3976 53.3525 34.8541 53.4885 34.3046C53.6039 33.8355 54.0806 33.5466 54.5472 33.6645C55.0163 33.7799 55.3034 34.2541 55.1873 34.7233C55.0429 35.3103 54.8796 35.8897 54.6985 36.4614C54.5804 36.8341 54.236 37.0724 53.8644 37.0724Z" fill="#522100"/>
<path d="M54.9997 31.5121C54.9723 31.5121 54.9441 31.5112 54.9159 31.5078C54.4349 31.4626 54.0819 31.0353 54.1281 30.5542C54.181 29.9961 54.217 29.433 54.2357 28.8639C54.2502 28.3811 54.6664 27.982 55.138 28.018C55.6208 28.0334 56.0003 28.4376 55.984 28.9204C55.9651 29.5253 55.9259 30.1261 55.8694 30.72C55.8269 31.1729 55.4458 31.5121 54.9997 31.5121Z" fill="#522100"/>
<path d="M54.9556 25.8364C54.5147 25.8364 54.1362 25.5049 54.0866 25.0571C54.0259 24.5042 53.9448 23.9411 53.8457 23.3839C53.7611 22.9079 54.0781 22.4533 54.5532 22.3688C55.0386 22.2834 55.4847 22.6012 55.5683 23.0764C55.6743 23.6728 55.7615 24.2744 55.8264 24.8657C55.8793 25.346 55.5324 25.7783 55.0522 25.8313C55.0197 25.8347 54.9872 25.8364 54.9556 25.8364Z" fill="#522100"/>
<path d="M53.7378 20.2923C53.3711 20.2923 53.0293 20.0607 52.9072 19.6932C52.7294 19.1575 52.5329 18.6285 52.321 18.1081C52.1381 17.6603 52.3535 17.1497 52.8004 16.9673C53.2464 16.7835 53.7583 16.9989 53.9412 17.4467C54.1685 18.003 54.3787 18.5729 54.5684 19.1412C54.7205 19.5992 54.4726 20.0948 54.0138 20.2477C53.9224 20.2777 53.8292 20.2923 53.7378 20.2923Z" fill="#522100"/>
<path d="M51.3867 15.1263C51.0868 15.1263 50.7954 14.9725 50.6322 14.6956C50.3451 14.2089 50.0435 13.7316 49.7265 13.2651C49.4548 12.8652 49.559 12.3208 49.9589 12.0496C50.3588 11.7775 50.9023 11.8821 51.174 12.2816C51.5115 12.7789 51.8336 13.2877 52.1395 13.8069C52.3847 14.223 52.2464 14.7597 51.8302 15.0049C51.6909 15.0874 51.538 15.1263 51.3867 15.1263Z" fill="#522100"/>
<path d="M48.7983 8.91992L46.134 3.64416C45.917 3.21223 45.3898 3.03744 44.9583 3.25751C44.5275 3.47539 44.3542 4.00183 44.5721 4.43289L45.3961 6.0646C40.4643 2.13758 34.3982 0 28 0C20.5206 0 13.4899 2.91264 8.20138 8.20119C2.91287 13.4897 0 20.5213 0 28.0009C0 35.4805 2.91298 42.5115 8.20138 47.8001C8.37233 47.9711 8.59611 48.0565 8.82 48.0565C9.04389 48.0565 9.26778 47.9711 9.43862 47.8001C9.78042 47.4583 9.78042 46.9045 9.43862 46.5627C4.48098 41.6048 1.75 35.013 1.75 28.0009C1.75 20.9887 4.48098 14.3965 9.43873 9.43859C14.3965 4.48069 20.9881 1.75005 28 1.75005C33.9962 1.75005 39.6811 3.75266 44.3037 7.43139L42.5247 6.96303C42.0581 6.84042 41.5788 7.11857 41.4557 7.58594C41.3327 8.05331 41.6113 8.53185 42.0786 8.6549L47.7944 10.1602C47.8687 10.1798 47.943 10.1893 48.0174 10.1893C48.2771 10.1893 48.5293 10.073 48.6976 9.86451C48.9146 9.59708 48.9538 9.22705 48.7983 8.91992Z" fill="#522100"/>
<path d="M48.7983 8.91992L46.134 3.64416C45.917 3.21223 45.3898 3.03744 44.9583 3.25751C44.5275 3.47539 44.3542 4.00183 44.5721 4.43289L45.3961 6.0646C40.4643 2.13758 34.3982 0 28 0C26.8915 0 25.795 0.0716428 24.712 0.203553C24.1912 0.266993 23.8515 0.789822 23.9949 1.29449C23.9965 1.30018 23.9981 1.30587 23.9997 1.31145C24.1179 1.7284 24.5179 1.992 24.9481 1.93983C25.9535 1.81787 26.9709 1.75005 28 1.75005C33.9962 1.75005 39.6811 3.75266 44.3037 7.43139L42.5247 6.96303C42.0581 6.84042 41.5788 7.11857 41.4557 7.58594C41.3327 8.05331 41.6113 8.53185 42.0786 8.6549L47.7944 10.1602C47.8687 10.1798 47.943 10.1893 48.0174 10.1893C48.2771 10.1893 48.5293 10.073 48.6976 9.86451C48.9146 9.59708 48.9538 9.22705 48.7983 8.91992Z" fill="#522100"/>
<path d="M47.6865 56C45.5152 56 43.749 54.2338 43.749 52.0624V47.6873C43.749 45.5159 45.5152 43.7496 47.6865 43.7496C49.8578 43.7496 51.624 45.5159 51.624 47.6873V52.0624C51.624 54.2338 49.8578 56 47.6865 56ZM47.6865 45.4997C46.48 45.4997 45.499 46.4807 45.499 47.6873V52.0624C45.499 53.2689 46.48 54.25 47.6865 54.25C48.893 54.25 49.874 53.2689 49.874 52.0624V47.6873C49.874 46.4807 48.893 45.4997 47.6865 45.4997Z" fill="#CD8C5D"/>
<path d="M38.9365 48.1248C38.1274 48.1248 37.3753 48.3712 36.749 48.7913V47.6873C36.749 46.4807 37.73 45.4997 38.9365 45.4997C39.5133 45.4997 40.0576 45.7218 40.4686 46.1261C40.8138 46.4645 41.3676 46.4602 41.706 46.1158C42.0453 45.7715 42.0401 45.2168 41.6957 44.8784C40.9549 44.1504 39.9756 43.7496 38.9365 43.7496C36.7652 43.7496 34.999 45.5159 34.999 47.6873V52.0624C34.999 54.2338 36.7652 56 38.9365 56C41.1078 56 42.874 54.2338 42.874 52.0624C42.874 49.891 41.1078 48.1248 38.9365 48.1248ZM38.9365 54.25C37.73 54.25 36.749 53.2689 36.749 52.0624C36.749 50.8558 37.73 49.8748 38.9365 49.8748C40.143 49.8748 41.124 50.8558 41.124 52.0624C41.124 53.2689 40.143 54.25 38.9365 54.25Z" fill="#CD8C5D"/>
<path d="M30.1866 49.8757C29.7029 49.8757 29.3116 49.4843 29.3116 49.0007C29.3116 48.517 29.7029 48.1256 30.1866 48.1256C30.9103 48.1256 31.4991 47.5369 31.4991 46.8131C31.4991 46.0893 30.9103 45.5006 30.1866 45.5006C29.8995 45.5006 29.6278 45.5911 29.4004 45.7621C29.0133 46.0543 28.4656 45.9748 28.1751 45.5895C27.8846 45.2033 27.9615 44.6546 28.3477 44.3641C28.8809 43.9625 29.5167 43.7506 30.1866 43.7506C31.8751 43.7506 33.2491 45.1247 33.2491 46.8132C33.2491 48.5017 31.8751 49.8757 30.1866 49.8757Z" fill="#CD8C5D"/>
<path d="M30.1868 56C28.6735 56 27.2765 55.1164 26.6279 53.7483C26.4203 53.3117 26.6065 52.7895 27.0432 52.5828C27.4815 52.376 28.0019 52.5622 28.2087 52.9981C28.5693 53.7586 29.3459 54.2499 30.1868 54.2499C31.3933 54.2499 32.3743 53.2689 32.3743 52.0624C32.3743 50.8558 31.3931 49.8757 30.1866 49.8757C29.7029 49.8757 29.3116 49.4843 29.3116 49.0007C29.3116 48.517 29.7029 48.1256 30.1866 48.1256C32.3579 48.1256 34.1243 49.891 34.1243 52.0624C34.1243 54.2338 32.3581 56 30.1868 56Z" fill="#CD8C5D"/>
<path d="M47.6865 56C45.5152 56 43.749 54.2338 43.749 52.0624V48.9998C43.749 48.5161 44.1404 48.1248 44.624 48.1248C45.1077 48.1248 45.499 48.5161 45.499 48.9998V52.0624C45.499 53.2689 46.48 54.25 47.6865 54.25C48.893 54.25 49.874 53.2689 49.874 52.0624V48.9998C49.874 48.5161 50.2654 48.1248 50.749 48.1248C51.2327 48.1248 51.624 48.5161 51.624 48.9998V52.0624C51.624 54.2338 49.8578 56 47.6865 56Z" fill="#CD8C5D"/>
<path d="M38.9365 48.1248C38.1111 48.1248 37.346 48.3822 36.7124 48.818C36.6265 48.4248 36.2931 48.1248 35.874 48.1248C35.3904 48.1248 34.999 48.5161 34.999 48.9998V52.0624C34.999 54.2338 36.7652 56 38.9365 56C41.1078 56 42.874 54.2338 42.874 52.0624C42.874 49.891 41.1078 48.1248 38.9365 48.1248ZM38.9365 54.25C37.73 54.25 36.749 53.2689 36.749 52.0624C36.749 50.8558 37.73 49.8748 38.9365 49.8748C40.143 49.8748 41.124 50.8558 41.124 52.0624C41.124 53.2689 40.143 54.25 38.9365 54.25Z" fill="#CD8C5D"/>
<path d="M53.375 44.6246C51.9275 44.6246 50.75 43.447 50.75 41.9995C50.75 40.552 51.9275 39.3745 53.375 39.3745C54.8225 39.3745 56 40.552 56 41.9995C56 43.447 54.8225 44.6246 53.375 44.6246ZM53.375 41.1245C52.8922 41.1245 52.5 41.5167 52.5 41.9995C52.5 42.4823 52.8922 42.8746 53.375 42.8746C53.8578 42.8746 54.25 42.4823 54.25 41.9995C54.25 41.5167 53.8578 41.1245 53.375 41.1245Z" fill="#CD8C5D"/>
<path d="M40.1832 24.6408L26.3024 17.1887C25.2633 16.6309 24 17.3766 24 18.5479V33.4521C24 34.6235 25.2633 35.3691 26.3024 34.8113L40.1832 27.3592C41.2723 26.7745 41.2723 25.2255 40.1832 24.6408Z" fill="#CD8C5D"/>
<path d="M38.8079 27.3396L39.2753 26.4768L38.8079 27.3396C39.3317 27.6233 39.3317 28.375 38.8079 28.6587L39.2842 29.538L38.8079 28.6587L23.2323 37.0958C22.7325 37.3665 22.125 37.0047 22.125 36.4363V19.562C22.125 18.9937 22.7325 18.6318 23.2323 18.9025C23.2323 18.9025 23.2323 18.9025 23.2323 18.9025L38.8079 27.3396Z" stroke="#522100" stroke-width="2"/>
</svg>
