<svg width="56" height="56" viewBox="0 0 56 56" fill="none" xmlns="http://www.w3.org/2000/svg">
<path d="M11.668 41.1175C11.668 34.2471 23.7014 27.1059 28.636 18.8719C29.2214 17.8952 29.514 17.4068 29.5597 17.3508C30.0908 16.6996 30.5784 16.6996 31.1095 17.3508C31.1552 17.4068 31.4479 17.8952 32.0333 18.8719C36.9679 27.1059 49.0013 34.2471 49.0013 41.1175C49.0013 49.0397 42.4828 51.0202 39.2235 51.0202H30.3346H21.4457C18.1865 51.0202 11.668 49.0397 11.668 41.1175Z" fill="#CD8C5D"/>
<path d="M36.5557 5.89916C36.832 5.89916 37.0557 6.12302 37.0557 6.39916V9.39995H39.4941C39.7695 9.39995 39.9941 9.62381 39.9941 9.89995C39.9941 10.1761 39.7695 10.4 39.4941 10.4H37.0557V16.4285C37.4551 16.6149 37.7314 17.0179 37.7314 17.4851C37.7314 17.5533 37.7256 17.6201 37.7148 17.6851C37.707 17.7292 37.6963 17.7725 37.6836 17.8148C38.0967 18.9304 38.8398 20.0541 39.8027 21.2021C40.8682 22.4723 42.1445 23.706 43.4307 24.949L43.5918 25.1047C44.9102 26.3793 46.2412 27.6768 47.2383 28.9657C48.2256 30.2422 49 31.6535 49 33.162L48.9971 33.3984L49 33.5597C49 35.1575 48.5928 36.4202 47.9541 37.4001C47.5879 36.7059 47.1367 36.0076 46.6191 35.3044C46.8623 34.722 47.0088 34.0172 47.0088 33.162C47.0088 32.3025 46.5566 31.3188 45.6533 30.15C44.7588 28.9934 43.5352 27.7951 42.1953 26.4998L42.0088 26.3193C40.7441 25.0975 39.4004 23.7986 38.2666 22.4472C37.6279 21.6858 37.0371 20.8867 36.5557 20.0503C36.0742 20.8867 35.4834 21.6858 34.8447 22.4472C34.8066 22.4922 34.7686 22.5371 34.7305 22.5819C34.291 22.0599 33.8711 21.5338 33.4736 21.0031C34.3574 19.9238 35.0391 18.8652 35.4277 17.8138L35.4072 17.7318L35.3955 17.6692C35.3857 17.6092 35.3809 17.5477 35.3809 17.4851C35.3809 17.0185 35.6572 16.6158 36.0557 16.4291V10.4H33.6172C33.3408 10.4 33.1172 10.1761 33.1172 9.89995C33.1172 9.62381 33.3408 9.39995 33.6172 9.39995H36.0557V6.39916C36.0557 6.12302 36.2793 5.89916 36.5557 5.89916Z" fill="#522100"/>
<path fill-rule="evenodd" clip-rule="evenodd" d="M27.7227 0.5C27.7227 0.223857 27.498 0 27.2227 0C26.9473 0 26.7227 0.223857 26.7227 0.5V5.69161H22.4473C22.1719 5.69161 21.9473 5.91547 21.9473 6.19161C21.9473 6.46776 22.1719 6.69161 22.4473 6.69161H26.7227V16.6921C25.9102 16.9104 25.3125 17.6477 25.3125 18.5237C25.3125 18.9275 25.4395 19.302 25.6562 19.6096C24.916 21.3842 23.7188 23.152 22.2324 24.9302C20.4375 27.078 18.291 29.1606 16.1504 31.236L15.875 31.5038C13.6719 33.6432 11.4766 35.7903 9.83984 37.9145C8.2168 40.022 7 42.2827 7 44.658C7 49.0111 8.85742 51.8343 11.2305 53.5277C13.5469 55.1792 16.2871 55.7172 18.127 55.7172H36.3164C38.1582 55.7172 40.8984 55.1792 43.2129 53.5277C45.5859 51.8343 47.4453 49.0111 47.4453 44.658C47.4453 42.2827 46.2266 40.022 44.6035 37.9145C42.9668 35.7903 40.7734 33.6432 38.5684 31.5038L38.293 31.2361L38.2871 31.2301C36.1504 29.1566 34.0059 27.076 32.2129 24.9302C30.7246 23.1521 29.5293 21.3843 28.7891 19.6098C29.0059 19.3021 29.1328 18.9276 29.1328 18.5237C29.1328 17.6477 28.5352 16.9104 27.7227 16.6921V6.69161H31.9961C32.2734 6.69161 32.4961 6.46776 32.4961 6.19161C32.4961 5.91547 32.2734 5.69161 31.9961 5.69161H27.7227V0.5ZM9.24609 44.658C9.24609 43.068 10.0762 41.3185 11.6074 39.3312C13.125 37.3607 15.1953 35.3285 17.4238 33.1648L17.7305 32.8683L17.748 32.8534C19.8555 30.807 22.0723 28.6542 23.9414 26.4177C25.2207 24.8865 26.3711 23.2788 27.2227 21.593C28.0742 23.2788 29.2227 24.8865 30.502 26.4177C32.373 28.6542 34.5898 30.807 36.6973 32.8533L36.7148 32.8683L37.0195 33.1648C39.25 35.3285 41.3184 37.3607 42.8379 39.3312C44.3691 41.3185 45.1973 43.068 45.1973 44.658C45.1973 48.2353 43.7207 50.3686 41.9258 51.649C40.0723 52.9714 37.8105 53.4247 36.3164 53.4247H18.127C16.6328 53.4247 14.373 52.9714 12.5195 51.649C10.7246 50.3686 9.24609 48.2353 9.24609 44.658Z" fill="#522100"/>
</svg>
