<svg width="56" height="56" viewBox="0 0 56 56" fill="none" xmlns="http://www.w3.org/2000/svg">
<g clip-path="url(#clip0)">
<path d="M20 -1H-3V57H20V-1Z" fill="#CD8C5D"/>
<path d="M3.61328 43.3548H10.8391V36.129H3.61328V43.3548ZM5.41973 37.9355H9.03264V41.5484H5.41973V37.9355Z" fill="#522100"/>
<path d="M12.6445 43.3548H19.8703V36.129H12.6445V43.3548ZM14.451 37.9355H18.0639V41.5484H14.451V37.9355Z" fill="#522100"/>
<path d="M3.61328 32.5161H10.8391V25.2903H3.61328V32.5161ZM5.41973 27.0967H9.03264V30.7096H5.41973V27.0967Z" fill="#522100"/>
<path d="M3.61328 21.6774H10.8391V14.4516H3.61328V21.6774ZM5.41973 16.2581H9.03264V19.871H5.41973V16.2581Z" fill="#522100"/>
<path d="M3.61328 10.8387H10.8391V3.61292H3.61328V10.8387ZM5.41973 5.41937H9.03264V9.03227H5.41973V5.41937Z" fill="#522100"/>
<path d="M54.1935 9.93548V0H38.8387V1.14168C37.8135 0.424516 36.5689 0 35.2258 0C34.897 0 34.5764 0.0325161 34.2612 0.0812903C33.5314 0.0243871 32.1241 0 31.6129 0C28.7009 0 25.9515 0.679226 23.4839 1.85613V0H0V56H23.483L23.501 36.1046C24.1477 36.409 24.8098 36.6917 25.4999 36.9257C25.7835 37.6492 26.4763 38.9381 28 39.7925V42.4516H26.1935V44.2581H28V52.3871C28 54.3796 29.6204 56 31.6129 56C33.6054 56 35.2258 54.3796 35.2258 52.3871V44.2581H37.0323V42.4516H35.2258V39.7934C36.7495 38.939 37.4432 37.6501 37.7259 36.9266C38.1053 36.7983 38.472 36.6493 38.8387 36.4994V56H56V9.93548H54.1935ZM40.6452 1.80645H52.3871V9.93548H48.3154C46.5983 6.75252 43.9645 4.09252 40.6452 2.2969V1.80645ZM29.325 9.39355L33.1556 19.3525C33.4826 20.2025 34.3145 20.7742 35.2258 20.7742C36.1372 20.7742 36.969 20.2025 37.296 19.3525L40.9992 9.72593C43.6529 12.4437 45.1613 15.7495 45.1613 18.9677C45.1613 26.4383 39.0835 32.5161 31.6129 32.5161C28.5609 32.5161 25.751 31.4901 23.4839 29.7812V8.14258C25.0627 6.95303 26.9107 6.09948 28.9348 5.69394C28.915 5.90077 28.9032 6.11032 28.9032 6.32258V7.12284C28.9032 7.90142 29.045 8.66464 29.325 9.39355ZM35.2258 1.80645C37.716 1.80645 39.7419 3.83239 39.7419 6.32258V7.12284C39.7419 7.67923 39.6408 8.22477 39.4412 8.74413L35.6097 18.7031C35.4886 19.021 34.963 19.021 34.841 18.7031L31.0105 8.74503C30.8108 8.22387 30.7097 7.67923 30.7097 7.12284V6.32258C30.7097 3.83239 32.7356 1.80645 35.2258 1.80645ZM21.6783 54.1935H1.80645V1.80645H21.6774V2.84155C21.0515 3.22903 20.4463 3.64542 19.871 4.10065V3.6129H12.6452V10.8387H14.5013C13.3244 13.3063 12.6452 16.0557 12.6452 18.9677C12.6452 21.1743 13.0308 23.3014 13.7281 25.2903H12.6452V32.5161H18.3246C19.3381 33.5079 20.4653 34.3894 21.6955 35.14L21.6783 54.1935ZM18.3635 5.41935C17.2615 6.49781 16.3014 7.71445 15.4867 9.03226H14.4516V5.41935H18.3635ZM14.4516 27.0968H14.4697C15.0775 28.3857 15.8281 29.5951 16.7061 30.7097H14.4516V27.0968ZM33.4194 52.3871C33.4194 53.3834 32.6092 54.1935 31.6129 54.1935C30.6166 54.1935 29.8065 53.3834 29.8065 52.3871V44.2581H33.4194V52.3871ZM33.4194 42.4516H29.8065V40.4573C30.3457 40.5738 30.9409 40.6452 31.6129 40.6452C32.2849 40.6452 32.8801 40.5738 33.4194 40.4573V42.4516ZM36.7432 35.3477L36.2591 35.4995L36.1363 35.9917C36.0188 36.4668 35.2457 38.8387 31.6129 38.8387C27.9801 38.8387 27.207 36.4668 27.0895 35.9917L26.9667 35.4995L26.4826 35.3477C19.2866 33.096 14.4516 26.5133 14.4516 18.9677C14.4516 9.79187 21.6955 2.2969 30.7621 1.84981C30.2102 2.39987 29.7631 3.05381 29.4434 3.77548C26.516 4.19006 23.8786 5.42387 21.7415 7.22581H21.6774V7.28181C18.3517 10.1161 16.2581 14.3243 16.2581 18.9677C16.2581 23.6465 18.3671 27.8356 21.6774 30.6537V30.7097H21.7388C24.4106 32.9605 27.8537 34.3226 31.6129 34.3226C40.0797 34.3226 46.9677 27.4346 46.9677 18.9677C46.9677 14.9719 44.9788 10.8965 41.5195 7.71897C41.5384 7.52116 41.5484 7.32245 41.5484 7.12284V6.32258C41.5484 5.81316 41.4815 5.32 41.3668 4.8449C45.9895 8.01974 48.7742 13.2259 48.7742 18.9677C48.7742 26.5133 43.9392 33.096 36.7432 35.3477ZM21.6774 9.77561V28.1481C19.4428 25.7311 18.0645 22.512 18.0645 18.9677C18.0645 15.4443 19.4311 12.2062 21.6774 9.77561ZM54.1935 54.1935H40.6452V51.4839H54.1935V54.1935ZM54.1935 49.6774H52.3871V28H50.5806V49.6774H48.7742V46.0645H46.9677V49.6774H40.6452V35.6503C46.704 32.3906 50.5806 26.0671 50.5806 18.9677C50.5806 16.4279 50.0775 13.9865 49.1599 11.7419H54.1935V49.6774Z" fill="#522100"/>
<path d="M50.5809 5.41937H48.7744V7.22582H50.5809V5.41937Z" fill="#522100"/>
<path d="M35.2263 9.03227C36.7202 9.03227 37.936 7.81653 37.936 6.32259C37.936 4.82866 36.7202 3.61292 35.2263 3.61292C33.7323 3.61292 32.5166 4.82866 32.5166 6.32259C32.5166 7.81653 33.7323 9.03227 35.2263 9.03227ZM35.2263 5.41937C35.724 5.41937 36.1295 5.82401 36.1295 6.32259C36.1295 6.82117 35.724 7.22582 35.2263 7.22582C34.7286 7.22582 34.3231 6.82117 34.3231 6.32259C34.3231 5.82401 34.7286 5.41937 35.2263 5.41937Z" fill="#522100"/>
<path d="M52.3875 24.3871H50.5811V26.1935H52.3875V24.3871Z" fill="#522100"/>
<path d="M48.7742 42.4516H46.9678V44.258H48.7742V42.4516Z" fill="#522100"/>
</g>
<defs>
<clipPath id="category-infrastruktura-2">
<rect width="56" height="56" fill="white"/>
</clipPath>
</defs>
</svg>
