<svg width="56" height="56" viewBox="0 0 56 56" fill="none" xmlns="http://www.w3.org/2000/svg">
<path d="M39.0711 24.6449C39.0711 24.5576 39.0711 24.4704 39.0711 24.3832C39.0711 20.9813 36.2798 18.19 32.8779 18.19C30.5228 18.19 28.5166 19.4984 27.4698 21.3302C26.6848 20.7196 25.7253 20.2835 24.5913 20.2835C22.149 20.2835 20.1427 22.2897 20.1427 24.7321V24.8193C18.0493 25.6044 16.5664 27.6978 16.5664 30.053C16.5664 33.1931 19.096 35.7227 22.2362 35.7227H37.4138C40.5539 35.7227 43.0835 33.1931 43.0835 30.053C43.1708 27.5234 41.4262 25.3427 39.0711 24.6449Z" fill="#CD8C5D"/>
<path d="M50.5918 32.3614C53.0006 32.3614 54.9532 30.4087 54.9532 28C54.9532 25.5913 53.0006 23.6386 50.5918 23.6386C48.1831 23.6386 46.2305 25.5913 46.2305 28C46.2305 30.4087 48.1831 32.3614 50.5918 32.3614Z" fill="#CD8C5D"/>
<path d="M27.9141 55.0405C30.3228 55.0405 32.2755 53.0878 32.2755 50.6791C32.2755 48.2704 30.3228 46.3178 27.9141 46.3178C25.5054 46.3178 23.5527 48.2704 23.5527 50.6791C23.5527 53.0878 25.5054 55.0405 27.9141 55.0405Z" fill="#CD8C5D"/>
<path d="M27.9141 9.68224C30.3228 9.68224 32.2755 7.72959 32.2755 5.32087C32.2755 2.91215 30.3228 0.959501 27.9141 0.959501C25.5054 0.959501 23.5527 2.91215 23.5527 5.32087C23.5527 7.72959 25.5054 9.68224 27.9141 9.68224Z" fill="#CD8C5D"/>
<path d="M5.23442 32.3614C7.64314 32.3614 9.59579 30.4087 9.59579 28C9.59579 25.5913 7.64314 23.6386 5.23442 23.6386C2.8257 23.6386 0.873047 25.5913 0.873047 28C0.873047 30.4087 2.8257 32.3614 5.23442 32.3614Z" fill="#CD8C5D"/>
<path d="M46.9283 31.6636C47.8879 32.6231 49.1963 33.2336 50.5919 33.2336C51.9875 33.2336 53.296 32.7103 54.2555 31.6636C55.215 30.704 55.8255 29.3956 55.8255 28C55.8255 26.6044 55.3022 25.296 54.2555 24.3364C53.296 23.2897 51.9875 22.7664 50.5919 22.7664C49.1963 22.7664 47.8879 23.2897 46.9283 24.3364C46.1433 25.1215 45.6199 26.081 45.4455 27.1277H40.648C39.9502 26.2555 38.9907 25.4704 37.9439 25.0343C37.8567 23.4642 37.2461 21.9813 36.2866 20.8474L47.6262 9.50779C48.4984 10.1184 49.5452 10.4673 50.6791 10.4673C53.5576 10.4673 55.9128 8.11215 55.9128 5.23364C55.9128 2.35514 53.5576 0 50.6791 0C47.8006 0 45.4455 2.35514 45.4455 5.23364C45.4455 6.3676 45.7944 7.41433 46.405 8.2866L35.0654 19.6262C33.9315 18.8411 32.5358 18.3178 30.9657 18.3178C30.2679 18.3178 29.5701 18.405 28.8723 18.6667V10.4673C29.919 10.2928 30.8785 9.76947 31.6636 8.98442C32.6231 8.02492 33.1464 6.71651 33.1464 5.32087C33.1464 3.92523 32.6231 2.61682 31.5763 1.65732C30.6168 0.610592 29.3084 0.0872274 27.9128 0.0872274C26.5171 0.0872274 25.2087 0.610592 24.2492 1.65732C23.2025 2.61682 22.6791 3.92523 22.6791 5.32087C22.6791 6.71651 23.2025 8.02492 24.2492 8.98442C25.0343 9.76947 25.9938 10.2928 27.0405 10.4673V19.5389C26.3427 19.9751 25.7321 20.5857 25.2087 21.1963C24.4237 20.7601 23.5514 20.4984 22.5919 20.4984C22.243 20.4984 21.9813 20.4984 21.7196 20.5857L9.50779 8.37383C10.1184 7.50156 10.4673 6.45483 10.4673 5.32087C10.4673 2.44237 8.11215 0.0872274 5.23364 0.0872274C2.35514 0.0872274 0 2.44237 0 5.32087C0 8.19938 2.35514 10.5545 5.23364 10.5545C6.3676 10.5545 7.41433 10.2056 8.2866 9.59502L19.9751 21.2835C18.5794 22.1558 17.6199 23.5514 17.4455 25.296C16.5732 25.7321 15.7882 26.3427 15.1776 27.1277H10.3801C10.2056 26.081 9.68224 25.1215 8.8972 24.3364C7.93769 23.2897 6.62928 22.7664 5.23364 22.7664C3.83801 22.7664 2.5296 23.2897 1.57009 24.3364C0.523365 25.296 0 26.6044 0 28C0 29.3956 0.523365 30.704 1.57009 31.6636C2.5296 32.7103 3.83801 33.2336 5.23364 33.2336C6.62928 33.2336 7.93769 32.7103 8.8972 31.6636C9.68224 30.8785 10.2056 29.919 10.3801 28.8723H14.2181C13.9564 29.5701 13.7819 30.3551 13.7819 31.1402C13.7819 33.757 15.352 36.0249 17.6199 37.0717L8.2866 46.405C7.41433 45.7944 6.3676 45.4455 5.23364 45.4455C2.35514 45.4455 0 47.8006 0 50.6791C0 53.5576 2.35514 55.9128 5.23364 55.9128C8.11215 55.9128 10.4673 53.5576 10.4673 50.6791C10.4673 49.5452 10.1184 48.4984 9.50779 47.6262L19.5389 37.595C19.8006 37.595 20.0623 37.595 20.2368 37.595H27.0405V45.5327C25.9938 45.7072 25.0343 46.2305 24.2492 47.0156C23.2025 47.9751 22.6791 49.2835 22.6791 50.6791C22.6791 52.0748 23.2025 53.3832 24.2492 54.3427C25.2087 55.3022 26.5171 55.9128 27.9128 55.9128C29.3084 55.9128 30.6168 55.3894 31.5763 54.3427C32.5358 53.3832 33.1464 52.0748 33.1464 50.6791C33.1464 49.2835 32.6231 47.9751 31.5763 47.0156C30.7913 46.2305 29.8318 45.7072 28.785 45.5327V37.595H35.5016C35.7632 37.595 36.0249 37.595 36.1994 37.595L46.3178 47.7134C45.7072 48.5857 45.3583 49.6324 45.3583 50.7664C45.3583 53.6449 47.7134 56 50.5919 56C53.4704 56 55.8255 53.6449 55.8255 50.7664C55.8255 47.8879 53.4704 45.5327 50.5919 45.5327C49.4579 45.5327 48.4112 45.8816 47.5389 46.4922L38.2056 37.0717C40.4735 36.0249 42.0436 33.757 42.0436 31.1402C42.0436 30.3551 41.8692 29.6573 41.6075 28.8723H45.4455C45.6199 29.919 46.1433 30.8785 46.9283 31.6636ZM48.1495 25.5576C48.8474 24.8598 49.7196 24.5109 50.5919 24.5109C51.5514 24.5109 52.4237 24.8598 53.0343 25.5576C53.7321 26.2555 54.081 27.1277 54.081 28C54.081 28.9595 53.7321 29.8318 53.0343 30.4424C51.7259 31.7508 49.4579 31.7508 48.0623 30.4424C47.4517 29.8318 47.1028 28.9595 47.1028 28C47.1028 27.0405 47.4517 26.1682 48.1495 25.5576ZM50.5919 1.83178C52.5109 1.83178 54.081 3.40187 54.081 5.32087C54.081 7.23988 52.5109 8.80997 50.5919 8.80997C48.6729 8.80997 47.1028 7.23988 47.1028 5.32087C47.1028 3.40187 48.6729 1.83178 50.5919 1.83178ZM5.23364 8.80997C3.31464 8.80997 1.74455 7.23988 1.74455 5.32087C1.74455 3.40187 3.31464 1.83178 5.23364 1.83178C7.15265 1.83178 8.72274 3.40187 8.72274 5.32087C8.72274 7.23988 7.15265 8.80997 5.23364 8.80997ZM7.67601 30.4424C6.3676 31.7508 4.09969 31.7508 2.70405 30.4424C2.09346 29.8318 1.74455 28.9595 1.74455 28C1.74455 27.0405 2.09346 26.1682 2.79128 25.5576C3.40187 24.8598 4.27414 24.5109 5.23364 24.5109C6.19315 24.5109 7.06542 24.8598 7.67601 25.5576C8.37383 26.1682 8.72274 27.0405 8.72274 28C8.72274 28.9595 8.37383 29.8318 7.67601 30.4424ZM5.23364 54.1682C3.31464 54.1682 1.74455 52.5981 1.74455 50.6791C1.74455 48.7601 3.31464 47.19 5.23364 47.19C7.15265 47.19 8.72274 48.7601 8.72274 50.6791C8.72274 52.5981 7.15265 54.1682 5.23364 54.1682ZM50.5919 47.19C52.5109 47.19 54.081 48.7601 54.081 50.6791C54.081 52.5981 52.5109 54.1682 50.5919 54.1682C48.6729 54.1682 47.1028 52.5981 47.1028 50.6791C47.1028 48.7601 48.6729 47.19 50.5919 47.19ZM35.1526 19.7134V19.8006C35.0654 19.8006 35.0654 19.7134 34.9782 19.7134H35.1526ZM25.4704 7.76324C24.7726 7.15265 24.4237 6.28037 24.4237 5.32087C24.4237 4.36137 24.7726 3.4891 25.4704 2.8785C26.081 2.18069 26.9533 1.83178 27.9128 1.83178C28.8723 1.83178 29.7445 2.18069 30.3551 2.8785C31.053 3.4891 31.4019 4.36137 31.4019 5.32087C31.4019 6.28037 31.053 7.15265 30.3551 7.76324C29.0467 9.07165 26.7788 9.07165 25.4704 7.76324ZM30.3551 48.2368C31.053 48.9346 31.4019 49.8069 31.4019 50.6791C31.4019 51.6386 31.053 52.5109 30.3551 53.1215C29.0467 54.4299 26.7788 54.4299 25.3832 53.1215C24.7726 52.5109 24.4237 51.6386 24.4237 50.6791C24.4237 49.7196 24.7726 48.8474 25.4704 48.2368C26.1682 47.5389 27.0405 47.19 27.9128 47.19C28.8723 47.19 29.7445 47.5389 30.3551 48.2368ZM35.5016 35.8505H20.324C17.7072 35.8505 15.5265 33.6698 15.5265 31.053C15.5265 29.0467 16.7477 27.3894 18.5794 26.6044L19.1028 26.3427V25.7321C19.1028 23.8131 20.6729 22.1558 22.6791 22.1558C23.5514 22.1558 24.3364 22.4174 24.947 23.028L25.7321 23.7259L26.2555 22.7664C27.215 21.109 28.9595 20.0623 30.8785 20.0623C33.8442 20.0623 36.1994 22.4174 36.1994 25.3832V26.2555L36.8972 26.4299C38.9034 27.0405 40.3863 28.8723 40.3863 31.053C40.2991 33.757 38.1184 35.8505 35.5016 35.8505Z" fill="#522100"/>
<path d="M28.7856 28.8723H27.041V30.6168H28.7856V28.8723Z" fill="#522100"/>
<path d="M23.6391 28.8723H21.8945V30.6168H23.6391V28.8723Z" fill="#522100"/>
<path d="M33.932 28.8723H32.1875V30.6168H33.932V28.8723Z" fill="#522100"/>
</svg>
