<svg width="56" height="56" viewBox="0 0 56 56" fill="none" xmlns="http://www.w3.org/2000/svg">
<path d="M12.5 19V47C12.5 47.5523 12.9477 48 13.5 48H17.5C18.0523 48 18.5 47.5523 18.5 47V45C18.5 44.4477 18.9477 44 19.5 44C20.0523 44 20.5 43.5523 20.5 43V28C20.5 27.4477 20.9477 27 21.5 27H38.5C39.0523 27 39.5 27.4477 39.5 28V43C39.5 43.5523 39.9477 44 40.5 44C41.0523 44 41.5 44.4477 41.5 45V47C41.5 47.5523 41.9477 48 42.5 48H46.5C47.0523 48 47.5 47.5523 47.5 47V19H47.9617C48.8113 19 49.5 18.3113 49.5 17.4617C49.5 16.8733 49.1644 16.3365 48.6354 16.0788L30 7L11.3646 16.0788C10.8356 16.3365 10.5 16.8733 10.5 17.4617C10.5 18.3113 11.1887 19 12.0383 19H12.5Z" fill="#CD8C5D"/>
<path d="M54.8333 53.6667H50.1667V51.3333C50.1667 50.0467 49.1199 49 47.8333 49H46.6667V22.1537C47.9751 22.0225 49 20.9149 49 19.5726C49 18.5725 48.4154 17.6512 47.5104 17.2254L29.1667 8.59297V5.83333H30.3333C30.9777 5.83333 31.5 5.31102 31.5 4.66667C31.5 4.02232 30.9777 3.5 30.3333 3.5H29.1667V1.16667C29.1667 0.522317 28.6444 0 28 0C27.3557 0 26.8333 0.522317 26.8333 1.16667V3.5H25.6667C25.0223 3.5 24.5 4.02232 24.5 4.66667C24.5 5.31102 25.0223 5.83333 25.6667 5.83333H26.8333V8.59297L8.48948 17.2254C7.58462 17.6512 7 18.5725 7 19.5726C7 20.9149 8.02492 22.0226 9.33333 22.1537V49H8.16667C6.88007 49 5.83333 50.0467 5.83333 51.3333V53.6667H1.16667C0.522317 53.6667 0 54.189 0 54.8333C0 55.4777 0.522317 56 1.16667 56H54.8333C55.4777 56 56 55.4777 56 54.8333C56 54.189 55.4777 53.6667 54.8333 53.6667ZM9.48302 19.3366L28 10.6227L46.5169 19.3366C46.6079 19.3794 46.6667 19.472 46.6667 19.5726C46.6667 19.7163 46.5497 19.8333 46.4059 19.8333H45.5C44.8557 19.8333 44.3333 20.3557 44.3333 21V49H40.8333V46.6667C40.8333 45.3801 39.7866 44.3333 38.5 44.3333V30.3333C38.5 29.0467 37.4533 28 36.1667 28H19.8333C18.5467 28 17.5 29.0467 17.5 30.3333V44.3333C16.2134 44.3333 15.1667 45.3801 15.1667 46.6667V49H11.6667V21C11.6667 20.3557 11.1444 19.8333 10.5 19.8333H9.59408C9.45035 19.8333 9.33333 19.7163 9.33333 19.5726C9.33333 19.472 9.39213 19.3794 9.48302 19.3366ZM36.1667 30.3333V44.3333H29.1667V30.3333H36.1667ZM26.8333 30.3333V44.3333H19.8333V30.3333H26.8333ZM47.8333 53.6667H8.16667V51.3333H16.3333C16.9777 51.3333 17.5 50.811 17.5 50.1667V46.6667H38.5V50.1667C38.5 50.811 39.0223 51.3333 39.6667 51.3333H47.8333V53.6667Z" fill="#522100"/>
<path d="M28.0013 24.5C30.2529 24.5 32.0846 22.6682 32.0846 20.4166C32.0846 18.1651 30.2529 16.3333 28.0013 16.3333C25.7498 16.3333 23.918 18.1651 23.918 20.4166C23.918 22.6682 25.7498 24.5 28.0013 24.5ZM28.0013 18.6666C28.9663 18.6666 29.7513 19.4517 29.7513 20.4166C29.7513 21.3816 28.9663 22.1666 28.0013 22.1666C27.0364 22.1666 26.2513 21.3816 26.2513 20.4166C26.2513 19.4517 27.0364 18.6666 28.0013 18.6666Z" fill="#522100"/>
</svg>
