<svg width="56" height="56" viewBox="0 0 56 56" fill="none" xmlns="http://www.w3.org/2000/svg">
<path d="M4.02148 43.9429V10.3714C9.38365 9.02858 11.3945 6.34286 18.7674 6.34286C24.6658 6.34286 27.9278 10.1476 28.8215 12.3857C29.7152 10.1476 32.3069 6.34286 38.2053 6.34286C44.1036 6.34286 49.5999 9.70001 54.2918 10.3714V43.9429C50.9404 43.2714 45.8463 39.9143 38.8755 39.9143C31.9047 39.9143 29.2683 43.4952 28.8215 45.2857C28.1512 43.4952 25.3361 39.9143 19.4377 39.9143C13.5393 39.9143 7.37284 43.2714 4.02148 43.9429Z" fill="#CD8C5D"/>
<path d="M28.9022 43.7538V16.109C28.9022 15.5976 28.4979 15.1832 27.9989 15.1832C27.5 15.1832 27.0957 15.5976 27.0957 16.109V43.7538C27.0957 44.2652 27.5 44.6796 27.9989 44.6796C28.4979 44.6796 28.9022 44.2652 28.9022 43.7538Z" fill="#522100"/>
<path d="M55.0968 9.15454C53.1872 9.15454 50.8078 8.30995 48.2885 7.41587C45.0981 6.28342 41.4817 5 37.7312 5C33.3915 5 30.744 6.94926 29.2873 8.58449C28.7425 9.19626 28.3202 9.80927 28.0001 10.353C27.68 9.80927 27.2578 9.19626 26.713 8.58449C25.2561 6.94926 22.6087 5 18.269 5C14.5185 5 10.9022 6.28342 7.71174 7.41587C5.19222 8.30995 2.81277 9.15454 0.903226 9.15454C0.404284 9.15454 0 9.56893 0 10.0803V47.371C0 47.8824 0.404284 48.2968 0.903226 48.2968C3.11673 48.2968 5.63577 47.4027 8.30257 46.4561C11.3585 45.3716 14.8222 44.1422 18.2688 44.1422C21.2241 44.1422 23.6162 45.1453 25.3787 47.1236C25.715 47.5011 26.2864 47.5276 26.6548 47.1828C27.0232 46.8381 27.049 46.2525 26.7126 45.8748C25.2558 44.2397 22.6083 42.2905 18.2688 42.2905C14.5182 42.2905 10.9019 43.5739 7.7115 44.7064C5.57567 45.4646 3.54016 46.1869 1.80645 46.3893V10.9602C3.79246 10.7663 5.992 9.98554 8.30257 9.16552C11.3585 8.08097 14.8222 6.85162 18.2688 6.85162C25.2394 6.85162 27.0632 12.5252 27.1365 12.7637C27.2531 13.1523 27.6033 13.4177 28 13.4177C28.3967 13.4177 28.7469 13.1524 28.8635 12.7637C28.8811 12.7046 30.7161 6.85162 37.7312 6.85162C41.1778 6.85162 44.6415 8.08097 47.6974 9.16552C50.0081 9.98567 52.2075 10.7663 54.1935 10.9602V46.3893C52.4598 46.1869 50.4243 45.4647 48.2885 44.7065C45.0981 43.574 41.4817 42.2906 37.7312 42.2906C33.3914 42.2906 30.7439 44.2399 29.2873 45.8751C28.9509 46.2528 28.9768 46.8383 29.3451 47.1831C29.7136 47.5278 30.2849 47.5013 30.6212 47.1238C32.3837 45.1454 34.7758 44.1423 37.7312 44.1423C41.1778 44.1423 44.6415 45.3717 47.6974 46.4563C50.3644 47.4028 52.8834 48.2969 55.0968 48.2969C55.5957 48.2969 56 47.8825 56 47.3711V10.0803C56 9.56905 55.5957 9.15454 55.0968 9.15454Z" fill="#522100"/>
<path d="M55.0968 50.1484C53.1872 50.1484 50.8078 49.3038 48.2885 48.4098C45.0981 47.2773 41.4817 45.9939 37.7312 45.9939C33.6555 45.9939 31.0725 47.7132 29.5666 49.2769L26.4333 49.2768C24.9273 47.713 22.3442 45.9939 18.2688 45.9939C14.5182 45.9939 10.9019 47.2773 7.7115 48.4098C5.19222 49.3038 2.81277 50.1484 0.903226 50.1484C0.404284 50.1484 0 50.5628 0 51.0742C0 51.5856 0.404284 52 0.903226 52C3.11673 52 5.63577 51.106 8.30257 50.1594C11.3585 49.0749 14.8222 47.8455 18.2688 47.8455C21.2241 47.8455 23.6162 48.8486 25.3787 50.8269C25.5498 51.0189 25.7919 51.1283 26.0457 51.1283L29.9541 51.1284C30.2078 51.1284 30.4499 51.0189 30.621 50.827C32.3835 48.8486 34.7756 47.8455 37.7311 47.8455C41.1777 47.8455 44.6414 49.0749 47.6973 50.1594C50.3642 51.106 52.8833 52 55.0967 52C55.5956 52 55.9999 51.5856 55.9999 51.0742C55.9999 50.5628 55.5957 50.1484 55.0968 50.1484Z" fill="#522100"/>
</svg>
