<svg width="57" height="56" viewBox="0 0 57 56" fill="none" xmlns="http://www.w3.org/2000/svg">
<path fill-rule="evenodd" clip-rule="evenodd" d="M53.7892 29.9822C54.04 29.0075 54.1741 27.9818 54.1741 26.921C54.1741 20.2911 48.9411 15 42.5871 15C36.2331 15 31 20.2911 31 26.921C31 27.9818 31.1341 29.0075 31.385 29.9822C36.0017 31.0829 39.6408 35.2339 41.9114 40.479C42.0843 40.5155 42.3178 40.543 42.5871 40.543C42.8563 40.543 43.0899 40.5155 43.2628 40.479C45.5333 35.2339 49.1724 31.0829 53.7892 29.9822ZM44.9149 41.7071C44.4551 42.8216 40.719 42.8216 40.2592 41.7071C38.026 36.294 34.5029 32.5616 30.4593 31.8309C30.0811 31.7626 29.7511 31.5138 29.6371 31.1468C29.2232 29.814 29 28.3942 29 26.921C29 19.2326 35.083 13 42.5871 13C50.0912 13 56.1741 19.2326 56.1741 26.921C56.1741 28.3942 55.9509 29.814 55.537 31.1468C55.4231 31.5138 55.093 31.7626 54.7148 31.8309C50.6713 32.5616 47.1481 36.294 44.9149 41.7071Z" fill="#522100"/>
<path d="M26.4061 43.266C26.6973 44.2447 29.3027 44.2447 29.5939 43.266C32.2131 34.4629 37.3668 28.209 43.4236 27.2763C43.7459 27.2266 44.0253 27.015 44.1271 26.7061C44.6934 24.988 45 23.1493 45 21.2379C45 11.7177 37.3891 4 28 4C18.611 4 11 11.7177 11 21.2379C11 23.1493 11.3066 24.988 11.8729 26.7061C11.9747 27.015 12.2541 27.2266 12.5764 27.2763C18.6332 28.209 23.7869 34.4629 26.4061 43.266Z" fill="#CD8C5D"/>
<path d="M44.293 21.346C44.293 23.174 44.0293 24.9362 43.5391 26.5975C35.6064 28.1427 29.4238 36.1202 26.2695 46.2778L26.1465 46.2822L26.0225 46.2778C25.5986 44.9124 25.1201 43.5864 24.5898 42.3102C23.9746 42.5409 23.373 42.8328 22.7881 43.1816C23.3418 44.5267 23.8398 45.9415 24.2783 47.4166C24.6211 48.5707 27.6709 48.5707 28.0146 47.4166C31.1123 36.9864 37.2334 29.5727 44.4297 28.4722C44.8086 28.4143 45.1377 28.1654 45.2578 27.8017C45.9297 25.7733 46.293 23.6025 46.293 21.346C46.293 10.1093 37.2734 1 26.1465 1C15.0195 1 6 10.1093 6 21.346C6 22.1168 6.04199 22.8777 6.125 23.6262C6.74512 23.3133 7.39062 23.0414 8.05762 22.8141C8.01953 22.33 8 21.8405 8 21.346C8 11.1951 16.1426 3 26.1465 3C36.1504 3 44.293 11.1951 44.293 21.346Z" fill="#522100"/>
<path fill-rule="evenodd" clip-rule="evenodd" d="M23.7393 39.5252C23.9803 38.5753 24.1091 37.5758 24.1091 36.5421C24.1091 30.1009 19.1051 24.9363 13 24.9363C6.89492 24.9363 1.89091 30.1009 1.89091 36.5421C1.89091 37.5758 2.0197 38.5753 2.26068 39.5252C5.03218 40.1943 7.44123 42.0491 9.35941 44.5442C10.833 46.461 12.063 48.8095 13 51.4496C13.937 48.8095 15.167 46.461 16.6406 44.5442C18.5588 42.0491 20.9678 40.1943 23.7393 39.5252ZM13.9764 54.7312C15.9058 47.2967 20.0299 41.9691 24.9046 41.2692C25.0842 41.2435 25.2393 41.122 25.2973 40.946C25.7529 39.5654 26 38.0838 26 36.5421C26 29.063 20.1799 23 13 23C5.82014 23 0 29.063 0 36.5421C0 38.0838 0.247127 39.5654 0.702666 40.946C0.760726 41.122 0.915803 41.2435 1.09544 41.2692C5.97007 41.9691 10.0942 47.2967 12.0236 54.7312C12.0298 54.755 12.036 54.7788 12.0421 54.8026C12.074 54.9267 12.1053 55.0514 12.136 55.1766C12.1683 55.3086 12.2 55.4412 12.2309 55.5745C12.3628 56.1418 13.6372 56.1418 13.7691 55.5745C13.8 55.4412 13.8317 55.3086 13.864 55.1766C13.8947 55.0514 13.926 54.9267 13.9579 54.8026C13.964 54.7788 13.9702 54.755 13.9764 54.7312Z" fill="#522100"/>
</svg>
