<svg width="56" height="56" viewBox="0 0 56 56" fill="none" xmlns="http://www.w3.org/2000/svg">
<path d="M5.5 11L1.5 10V45.5H4.5L9.5 43.5L14.5 36L16.5 25.5L14 20L11.5 14L5.5 11Z" fill="#CD8C5D"/>
<path d="M51 11L55 10V45.5H52L47 43.5L42 36L40 25.5L42.5 20L45 14L51 11Z" fill="#CD8C5D"/>
<path d="M1.86693 9.33334V9.33334C1.35146 9.33334 0.933594 9.75121 0.933594 10.2667V21.2044V34.7956V45.7333C0.933594 46.2488 1.35146 46.6667 1.86693 46.6667V46.6667H54.1336V46.6667C54.6491 46.6667 55.0669 46.2488 55.0669 45.7333V34.7956V21.2044V10.2667C55.0669 9.75121 54.6491 9.33334 54.1336 9.33334V9.33334H1.86693ZM28.9336 23.4276C31.0607 23.8616 32.6669 25.746 32.6669 28C32.6669 30.254 31.0607 32.1384 28.9336 32.5724V23.4276ZM2.80026 23.5956L8.40026 24.9956V31.0044L2.80026 32.4044V23.5956ZM2.80026 34.3289L8.752 32.841C9.64233 32.6184 10.2669 31.8185 10.2669 30.9007V25.0993C10.2669 24.1816 9.64233 23.3816 8.752 23.159L2.80026 21.6711V11.2383C9.78066 11.8141 14.9336 18.8272 14.9336 28C14.9336 37.1728 9.78066 44.1859 2.80026 44.7617V34.3289ZM27.0669 32.5724C24.9399 32.1384 23.3336 30.254 23.3336 28C23.3336 25.746 24.9399 23.8616 27.0669 23.4276V32.5724ZM27.0669 21.5413C23.9057 21.9968 21.4669 24.7156 21.4669 28C21.4669 31.2844 23.9057 34.0032 27.0669 34.4587V44.8H8.55613C13.5224 41.8357 16.8003 35.5936 16.8003 28C16.8003 20.4064 13.5224 14.1643 8.55613 11.2H27.0669V21.5413ZM28.9336 44.8V34.4587C32.0948 34.0032 34.5336 31.2844 34.5336 28C34.5336 24.7156 32.0948 21.9968 28.9336 21.5413V11.2H47.4444C42.4781 14.1643 39.2003 20.4064 39.2003 28C39.2003 35.5936 42.4781 41.8357 47.4444 44.8H28.9336ZM53.2003 32.4044L47.6003 31.0044V24.9956L53.2003 23.5956V32.4044ZM53.2003 21.6711L47.2485 23.159C46.3582 23.3816 45.7336 24.1816 45.7336 25.0993V30.9007C45.7336 31.8185 46.3582 32.6184 47.2485 32.841L53.2003 34.3289V44.7617C46.2199 44.1859 41.0669 37.1728 41.0669 28C41.0669 18.8272 46.2199 11.8141 53.2003 11.2383V21.6711Z" fill="#522100"/>
<path d="M24.2671 54.1334H23.3337C22.8185 54.1334 22.4004 54.5515 22.4004 55.0667C22.4004 55.5819 22.8185 56 23.3337 56H24.2671C24.7823 56 25.2004 55.5819 25.2004 55.0667C25.2004 54.5515 24.7823 54.1334 24.2671 54.1334Z" fill="#522100"/>
<path d="M28.0005 54.1334H27.0671C26.5519 54.1334 26.1338 54.5515 26.1338 55.0667C26.1338 55.5819 26.5519 56 27.0671 56H28.0005C28.5157 56 28.9338 55.5819 28.9338 55.0667C28.9338 54.5515 28.5157 54.1334 28.0005 54.1334Z" fill="#522100"/>
<path d="M20.5337 54.1334H19.6003C19.0851 54.1334 18.667 54.5515 18.667 55.0667C18.667 55.5819 19.0851 56 19.6003 56H20.5337C21.0489 56 21.467 55.5819 21.467 55.0667C21.467 54.5515 21.0489 54.1334 20.5337 54.1334Z" fill="#522100"/>
<path d="M31.7329 54.1334H30.7995C30.2843 54.1334 29.8662 54.5515 29.8662 55.0667C29.8662 55.5819 30.2843 56 30.7995 56H31.7329C32.2481 56 32.6662 55.5819 32.6662 55.0667C32.6662 54.5515 32.2481 54.1334 31.7329 54.1334Z" fill="#522100"/>
<path d="M35.4663 54.1334H34.5329C34.0177 54.1334 33.5996 54.5515 33.5996 55.0667C33.5996 55.5819 34.0177 56 34.5329 56H35.4663C35.9815 56 36.3996 55.5819 36.3996 55.0667C36.3996 54.5515 35.9815 54.1334 35.4663 54.1334Z" fill="#522100"/>
<path d="M16.8003 54.1334H15.8669C15.3517 54.1334 14.9336 54.5515 14.9336 55.0667C14.9336 55.5819 15.3517 56 15.8669 56H16.8003C17.3155 56 17.7336 55.5819 17.7336 55.0667C17.7336 54.5515 17.3155 54.1334 16.8003 54.1334Z" fill="#522100"/>
<path d="M5.60007 54.1334H4.66673C4.15153 54.1334 3.7334 54.5515 3.7334 55.0667C3.7334 55.5819 4.15153 56 4.66673 56H5.60007C6.11527 56 6.5334 55.5819 6.5334 55.0667C6.5334 54.5515 6.11527 54.1334 5.60007 54.1334Z" fill="#522100"/>
<path d="M1.86667 54.1334H0.933333C0.418133 54.1334 0 54.5515 0 55.0667C0 55.5819 0.418133 56 0.933333 56H1.86667C2.38187 56 2.8 55.5819 2.8 55.0667C2.8 54.5515 2.38187 54.1334 1.86667 54.1334Z" fill="#522100"/>
<path d="M9.33346 54.1334H8.40013C7.88493 54.1334 7.4668 54.5515 7.4668 55.0667C7.4668 55.5819 7.88493 56 8.40013 56H9.33346C9.84866 56 10.2668 55.5819 10.2668 55.0667C10.2668 54.5515 9.84866 54.1334 9.33346 54.1334Z" fill="#522100"/>
<path d="M13.0669 54.1334H12.1335C11.6183 54.1334 11.2002 54.5515 11.2002 55.0667C11.2002 55.5819 11.6183 56 12.1335 56H13.0669C13.5821 56 14.0002 55.5819 14.0002 55.0667C14.0002 54.5515 13.5821 54.1334 13.0669 54.1334Z" fill="#522100"/>
<path d="M46.6665 54.1334H45.7331C45.2179 54.1334 44.7998 54.5515 44.7998 55.0667C44.7998 55.5819 45.2179 56 45.7331 56H46.6665C47.1817 56 47.5998 55.5819 47.5998 55.0667C47.5998 54.5515 47.1817 54.1334 46.6665 54.1334Z" fill="#522100"/>
<path d="M50.3999 54.1334H49.4665C48.9513 54.1334 48.5332 54.5515 48.5332 55.0667C48.5332 55.5819 48.9513 56 49.4665 56H50.3999C50.9151 56 51.3332 55.5819 51.3332 55.0667C51.3332 54.5515 50.9151 54.1334 50.3999 54.1334Z" fill="#522100"/>
<path d="M42.9331 54.1334H41.9997C41.4845 54.1334 41.0664 54.5515 41.0664 55.0667C41.0664 55.5819 41.4845 56 41.9997 56H42.9331C43.4483 56 43.8664 55.5819 43.8664 55.0667C43.8664 54.5515 43.4483 54.1334 42.9331 54.1334Z" fill="#522100"/>
<path d="M54.1333 54.1334H53.1999C52.6847 54.1334 52.2666 54.5515 52.2666 55.0667C52.2666 55.5819 52.6847 56 53.1999 56H54.1333C54.6485 56 55.0666 55.5819 55.0666 55.0667C55.0666 54.5515 54.6485 54.1334 54.1333 54.1334Z" fill="#522100"/>
<path d="M16.8003 51.3333H15.8669C15.3517 51.3333 14.9336 51.7514 14.9336 52.2666C14.9336 52.7818 15.3517 53.2 15.8669 53.2H16.8003C17.3155 53.2 17.7336 52.7818 17.7336 52.2666C17.7336 51.7514 17.3155 51.3333 16.8003 51.3333Z" fill="#522100"/>
<path d="M24.2671 51.3333H23.3337C22.8185 51.3333 22.4004 51.7514 22.4004 52.2666C22.4004 52.7818 22.8185 53.2 23.3337 53.2H24.2671C24.7823 53.2 25.2004 52.7818 25.2004 52.2666C25.2004 51.7514 24.7823 51.3333 24.2671 51.3333Z" fill="#522100"/>
<path d="M13.0669 51.3333H12.1335C11.6183 51.3333 11.2002 51.7514 11.2002 52.2666C11.2002 52.7818 11.6183 53.2 12.1335 53.2H13.0669C13.5821 53.2 14.0002 52.7818 14.0002 52.2666C14.0002 51.7514 13.5821 51.3333 13.0669 51.3333Z" fill="#522100"/>
<path d="M20.5337 51.3333H19.6003C19.0851 51.3333 18.667 51.7514 18.667 52.2666C18.667 52.7818 19.0851 53.2 19.6003 53.2H20.5337C21.0489 53.2 21.467 52.7818 21.467 52.2666C21.467 51.7514 21.0489 51.3333 20.5337 51.3333Z" fill="#522100"/>
<path d="M46.6665 51.3333H45.7331C45.2179 51.3333 44.7998 51.7514 44.7998 52.2666C44.7998 52.7818 45.2179 53.2 45.7331 53.2H46.6665C47.1817 53.2 47.5998 52.7818 47.5998 52.2666C47.5998 51.7514 47.1817 51.3333 46.6665 51.3333Z" fill="#522100"/>
<path d="M50.3999 51.3333H49.4665C48.9513 51.3333 48.5332 51.7514 48.5332 52.2666C48.5332 52.7818 48.9513 53.2 49.4665 53.2H50.3999C50.9151 53.2 51.3332 52.7818 51.3332 52.2666C51.3332 51.7514 50.9151 51.3333 50.3999 51.3333Z" fill="#522100"/>
<path d="M5.60007 51.3333H4.66673C4.15153 51.3333 3.7334 51.7514 3.7334 52.2666C3.7334 52.7818 4.15153 53.2 4.66673 53.2H5.60007C6.11527 53.2 6.5334 52.7818 6.5334 52.2666C6.5334 51.7514 6.11527 51.3333 5.60007 51.3333Z" fill="#522100"/>
<path d="M35.4663 51.3333H34.5329C34.0177 51.3333 33.5996 51.7514 33.5996 52.2666C33.5996 52.7818 34.0177 53.2 34.5329 53.2H35.4663C35.9815 53.2 36.3996 52.7818 36.3996 52.2666C36.3996 51.7514 35.9815 51.3333 35.4663 51.3333Z" fill="#522100"/>
<path d="M31.7329 51.3333H30.7995C30.2843 51.3333 29.8662 51.7514 29.8662 52.2666C29.8662 52.7818 30.2843 53.2 30.7995 53.2H31.7329C32.2481 53.2 32.6662 52.7818 32.6662 52.2666C32.6662 51.7514 32.2481 51.3333 31.7329 51.3333Z" fill="#522100"/>
<path d="M39.1997 51.3333H38.2663C37.7511 51.3333 37.333 51.7514 37.333 52.2666C37.333 52.7818 37.7511 53.2 38.2663 53.2H39.1997C39.7149 53.2 40.133 52.7818 40.133 52.2666C40.133 51.7514 39.7149 51.3333 39.1997 51.3333Z" fill="#522100"/>
<path d="M28.0005 51.3333H27.0671C26.5519 51.3333 26.1338 51.7514 26.1338 52.2666C26.1338 52.7818 26.5519 53.2 27.0671 53.2H28.0005C28.5157 53.2 28.9338 52.7818 28.9338 52.2666C28.9338 51.7514 28.5157 51.3333 28.0005 51.3333Z" fill="#522100"/>
<path d="M42.9331 51.3333H41.9997C41.4845 51.3333 41.0664 51.7514 41.0664 52.2666C41.0664 52.7818 41.4845 53.2 41.9997 53.2H42.9331C43.4483 53.2 43.8664 52.7818 43.8664 52.2666C43.8664 51.7514 43.4483 51.3333 42.9331 51.3333Z" fill="#522100"/>
<path d="M39.1997 48.5333H38.2663C37.7511 48.5333 37.333 48.9515 37.333 49.4667C37.333 49.9819 37.7511 50.4 38.2663 50.4H39.1997C39.7149 50.4 40.133 49.9819 40.133 49.4667C40.133 48.9515 39.7149 48.5333 39.1997 48.5333Z" fill="#522100"/>
<path d="M9.33346 48.5333H8.40013C7.88493 48.5333 7.4668 48.9515 7.4668 49.4667C7.4668 49.9819 7.88493 50.4 8.40013 50.4H9.33346C9.84866 50.4 10.2668 49.9819 10.2668 49.4667C10.2668 48.9515 9.84866 48.5333 9.33346 48.5333Z" fill="#522100"/>
<path d="M24.2671 48.5333H23.3337C22.8185 48.5333 22.4004 48.9515 22.4004 49.4667C22.4004 49.9819 22.8185 50.4 23.3337 50.4H24.2671C24.7823 50.4 25.2004 49.9819 25.2004 49.4667C25.2004 48.9515 24.7823 48.5333 24.2671 48.5333Z" fill="#522100"/>
<path d="M35.4663 48.5333H34.5329C34.0177 48.5333 33.5996 48.9515 33.5996 49.4667C33.5996 49.9819 34.0177 50.4 34.5329 50.4H35.4663C35.9815 50.4 36.3996 49.9819 36.3996 49.4667C36.3996 48.9515 35.9815 48.5333 35.4663 48.5333Z" fill="#522100"/>
<path d="M20.5337 48.5333H19.6003C19.0851 48.5333 18.667 48.9515 18.667 49.4667C18.667 49.9819 19.0851 50.4 19.6003 50.4H20.5337C21.0489 50.4 21.467 49.9819 21.467 49.4667C21.467 48.9515 21.0489 48.5333 20.5337 48.5333Z" fill="#522100"/>
<path d="M13.0669 48.5333H12.1335C11.6183 48.5333 11.2002 48.9515 11.2002 49.4667C11.2002 49.9819 11.6183 50.4 12.1335 50.4H13.0669C13.5821 50.4 14.0002 49.9819 14.0002 49.4667C14.0002 48.9515 13.5821 48.5333 13.0669 48.5333Z" fill="#522100"/>
<path d="M42.9331 48.5333H41.9997C41.4845 48.5333 41.0664 48.9515 41.0664 49.4667C41.0664 49.9819 41.4845 50.4 41.9997 50.4H42.9331C43.4483 50.4 43.8664 49.9819 43.8664 49.4667C43.8664 48.9515 43.4483 48.5333 42.9331 48.5333Z" fill="#522100"/>
<path d="M16.8003 48.5333H15.8669C15.3517 48.5333 14.9336 48.9515 14.9336 49.4667C14.9336 49.9819 15.3517 50.4 15.8669 50.4H16.8003C17.3155 50.4 17.7336 49.9819 17.7336 49.4667C17.7336 48.9515 17.3155 48.5333 16.8003 48.5333Z" fill="#522100"/>
<path d="M28.0005 48.5333H27.0671C26.5519 48.5333 26.1338 48.9515 26.1338 49.4667C26.1338 49.9819 26.5519 50.4 27.0671 50.4H28.0005C28.5157 50.4 28.9338 49.9819 28.9338 49.4667C28.9338 48.9515 28.5157 48.5333 28.0005 48.5333Z" fill="#522100"/>
<path d="M31.7331 1.86667H32.6665C33.1817 1.86667 33.5998 1.44853 33.5998 0.933333C33.5998 0.418133 33.1817 0 32.6665 0H31.7331C31.2179 0 30.7998 0.418133 30.7998 0.933333C30.7998 1.44853 31.2179 1.86667 31.7331 1.86667Z" fill="#522100"/>
<path d="M27.9997 1.86667H28.9331C29.4483 1.86667 29.8664 1.44853 29.8664 0.933333C29.8664 0.418133 29.4483 0 28.9331 0H27.9997C27.4845 0 27.0664 0.418133 27.0664 0.933333C27.0664 1.44853 27.4845 1.86667 27.9997 1.86667Z" fill="#522100"/>
<path d="M35.4665 1.86667H36.3999C36.9151 1.86667 37.3332 1.44853 37.3332 0.933333C37.3332 0.418133 36.9151 0 36.3999 0H35.4665C34.9513 0 34.5332 0.418133 34.5332 0.933333C34.5332 1.44853 34.9513 1.86667 35.4665 1.86667Z" fill="#522100"/>
<path d="M24.2663 1.86667H25.1997C25.7149 1.86667 26.133 1.44853 26.133 0.933333C26.133 0.418133 25.7149 0 25.1997 0H24.2663C23.7511 0 23.333 0.418133 23.333 0.933333C23.333 1.44853 23.7511 1.86667 24.2663 1.86667Z" fill="#522100"/>
<path d="M20.5329 1.86667H21.4663C21.9815 1.86667 22.3996 1.44853 22.3996 0.933333C22.3996 0.418133 21.9815 0 21.4663 0H20.5329C20.0177 0 19.5996 0.418133 19.5996 0.933333C19.5996 1.44853 20.0177 1.86667 20.5329 1.86667Z" fill="#522100"/>
<path d="M50.4001 1.86667H51.3335C51.8487 1.86667 52.2668 1.44853 52.2668 0.933333C52.2668 0.418133 51.8487 0 51.3335 0H50.4001C49.8849 0 49.4668 0.418133 49.4668 0.933333C49.4668 1.44853 49.8849 1.86667 50.4001 1.86667Z" fill="#522100"/>
<path d="M46.6667 1.86667H47.6001C48.1153 1.86667 48.5334 1.44853 48.5334 0.933333C48.5334 0.418133 48.1153 0 47.6001 0H46.6667C46.1515 0 45.7334 0.418133 45.7334 0.933333C45.7334 1.44853 46.1515 1.86667 46.6667 1.86667Z" fill="#522100"/>
<path d="M39.1999 1.86667H40.1333C40.6485 1.86667 41.0666 1.44853 41.0666 0.933333C41.0666 0.418133 40.6485 0 40.1333 0H39.1999C38.6847 0 38.2666 0.418133 38.2666 0.933333C38.2666 1.44853 38.6847 1.86667 39.1999 1.86667Z" fill="#522100"/>
<path d="M16.7995 1.86667H17.7329C18.2481 1.86667 18.6662 1.44853 18.6662 0.933333C18.6662 0.418133 18.2481 0 17.7329 0H16.7995C16.2843 0 15.8662 0.418133 15.8662 0.933333C15.8662 1.44853 16.2843 1.86667 16.7995 1.86667Z" fill="#522100"/>
<path d="M55.0669 0H54.1335C53.6183 0 53.2002 0.418133 53.2002 0.933333C53.2002 1.44853 53.6183 1.86667 54.1335 1.86667H55.0669C55.5821 1.86667 56.0002 1.44853 56.0002 0.933333C56.0002 0.418133 55.5821 0 55.0669 0Z" fill="#522100"/>
<path d="M13.0671 1.86667H14.0005C14.5157 1.86667 14.9338 1.44853 14.9338 0.933333C14.9338 0.418133 14.5157 0 14.0005 0H13.0671C12.5519 0 12.1338 0.418133 12.1338 0.933333C12.1338 1.44853 12.5519 1.86667 13.0671 1.86667Z" fill="#522100"/>
<path d="M5.60033 1.86667H6.53366C7.04886 1.86667 7.46699 1.44853 7.46699 0.933333C7.46699 0.418133 7.04886 0 6.53366 0H5.60033C5.08513 0 4.66699 0.418133 4.66699 0.933333C4.66699 1.44853 5.08513 1.86667 5.60033 1.86667Z" fill="#522100"/>
<path d="M1.86693 1.86667H2.80026C3.31546 1.86667 3.73359 1.44853 3.73359 0.933333C3.73359 0.418133 3.31546 0 2.80026 0H1.86693C1.35173 0 0.933594 0.418133 0.933594 0.933333C0.933594 1.44853 1.35173 1.86667 1.86693 1.86667Z" fill="#522100"/>
<path d="M9.33372 1.86667H10.2671C10.7823 1.86667 11.2004 1.44853 11.2004 0.933333C11.2004 0.418133 10.7823 0 10.2671 0H9.33372C8.81852 0 8.40039 0.418133 8.40039 0.933333C8.40039 1.44853 8.81852 1.86667 9.33372 1.86667Z" fill="#522100"/>
<path d="M9.33372 4.66665H10.2671C10.7823 4.66665 11.2004 4.24852 11.2004 3.73332C11.2004 3.21812 10.7823 2.79999 10.2671 2.79999H9.33372C8.81852 2.79999 8.40039 3.21812 8.40039 3.73332C8.40039 4.24852 8.81852 4.66665 9.33372 4.66665Z" fill="#522100"/>
<path d="M5.60033 4.66665H6.53366C7.04886 4.66665 7.46699 4.24852 7.46699 3.73332C7.46699 3.21812 7.04886 2.79999 6.53366 2.79999H5.60033C5.08513 2.79999 4.66699 3.21812 4.66699 3.73332C4.66699 4.24852 5.08513 4.66665 5.60033 4.66665Z" fill="#522100"/>
<path d="M50.4001 4.66665H51.3335C51.8487 4.66665 52.2668 4.24852 52.2668 3.73332C52.2668 3.21812 51.8487 2.79999 51.3335 2.79999H50.4001C49.8849 2.79999 49.4668 3.21812 49.4668 3.73332C49.4668 4.24852 49.8849 4.66665 50.4001 4.66665Z" fill="#522100"/>
<path d="M42.9333 4.66665H43.8667C44.3819 4.66665 44.8 4.24852 44.8 3.73332C44.8 3.21812 44.3819 2.79999 43.8667 2.79999H42.9333C42.4181 2.79999 42 3.21812 42 3.73332C42 4.24852 42.4181 4.66665 42.9333 4.66665Z" fill="#522100"/>
<path d="M31.7331 4.66665H32.6665C33.1817 4.66665 33.5998 4.24852 33.5998 3.73332C33.5998 3.21812 33.1817 2.79999 32.6665 2.79999H31.7331C31.2179 2.79999 30.7998 3.21812 30.7998 3.73332C30.7998 4.24852 31.2179 4.66665 31.7331 4.66665Z" fill="#522100"/>
<path d="M46.6667 4.66665H47.6001C48.1153 4.66665 48.5334 4.24852 48.5334 3.73332C48.5334 3.21812 48.1153 2.79999 47.6001 2.79999H46.6667C46.1515 2.79999 45.7334 3.21812 45.7334 3.73332C45.7334 4.24852 46.1515 4.66665 46.6667 4.66665Z" fill="#522100"/>
<path d="M35.4665 4.66665H36.3999C36.9151 4.66665 37.3332 4.24852 37.3332 3.73332C37.3332 3.21812 36.9151 2.79999 36.3999 2.79999H35.4665C34.9513 2.79999 34.5332 3.21812 34.5332 3.73332C34.5332 4.24852 34.9513 4.66665 35.4665 4.66665Z" fill="#522100"/>
<path d="M20.5329 4.66665H21.4663C21.9815 4.66665 22.3996 4.24852 22.3996 3.73332C22.3996 3.21812 21.9815 2.79999 21.4663 2.79999H20.5329C20.0177 2.79999 19.5996 3.21812 19.5996 3.73332C19.5996 4.24852 20.0177 4.66665 20.5329 4.66665Z" fill="#522100"/>
<path d="M13.0671 4.66665H14.0005C14.5157 4.66665 14.9338 4.24852 14.9338 3.73332C14.9338 3.21812 14.5157 2.79999 14.0005 2.79999H13.0671C12.5519 2.79999 12.1338 3.21812 12.1338 3.73332C12.1338 4.24852 12.5519 4.66665 13.0671 4.66665Z" fill="#522100"/>
<path d="M27.9997 4.66665H28.9331C29.4483 4.66665 29.8664 4.24852 29.8664 3.73332C29.8664 3.21812 29.4483 2.79999 28.9331 2.79999H27.9997C27.4845 2.79999 27.0664 3.21812 27.0664 3.73332C27.0664 4.24852 27.4845 4.66665 27.9997 4.66665Z" fill="#522100"/>
<path d="M24.2663 4.66665H25.1997C25.7149 4.66665 26.133 4.24852 26.133 3.73332C26.133 3.21812 25.7149 2.79999 25.1997 2.79999H24.2663C23.7511 2.79999 23.333 3.21812 23.333 3.73332C23.333 4.24852 23.7511 4.66665 24.2663 4.66665Z" fill="#522100"/>
<path d="M24.2663 7.46667H25.1997C25.7149 7.46667 26.133 7.04854 26.133 6.53334C26.133 6.01814 25.7149 5.60001 25.1997 5.60001H24.2663C23.7511 5.60001 23.333 6.01814 23.333 6.53334C23.333 7.04854 23.7511 7.46667 24.2663 7.46667Z" fill="#522100"/>
<path d="M46.6667 7.46667H47.6001C48.1153 7.46667 48.5334 7.04854 48.5334 6.53334C48.5334 6.01814 48.1153 5.60001 47.6001 5.60001H46.6667C46.1515 5.60001 45.7334 6.01814 45.7334 6.53334C45.7334 7.04854 46.1515 7.46667 46.6667 7.46667Z" fill="#522100"/>
<path d="M20.5329 7.46667H21.4663C21.9815 7.46667 22.3996 7.04854 22.3996 6.53334C22.3996 6.01814 21.9815 5.60001 21.4663 5.60001H20.5329C20.0177 5.60001 19.5996 6.01814 19.5996 6.53334C19.5996 7.04854 20.0177 7.46667 20.5329 7.46667Z" fill="#522100"/>
<path d="M16.7995 7.46667H17.7329C18.2481 7.46667 18.6662 7.04854 18.6662 6.53334C18.6662 6.01814 18.2481 5.60001 17.7329 5.60001H16.7995C16.2843 5.60001 15.8662 6.01814 15.8662 6.53334C15.8662 7.04854 16.2843 7.46667 16.7995 7.46667Z" fill="#522100"/>
<path d="M39.1999 7.46667H40.1333C40.6485 7.46667 41.0666 7.04854 41.0666 6.53334C41.0666 6.01814 40.6485 5.60001 40.1333 5.60001H39.1999C38.6847 5.60001 38.2666 6.01814 38.2666 6.53334C38.2666 7.04854 38.6847 7.46667 39.1999 7.46667Z" fill="#522100"/>
<path d="M13.0671 7.46667H14.0005C14.5157 7.46667 14.9338 7.04854 14.9338 6.53334C14.9338 6.01814 14.5157 5.60001 14.0005 5.60001H13.0671C12.5519 5.60001 12.1338 6.01814 12.1338 6.53334C12.1338 7.04854 12.5519 7.46667 13.0671 7.46667Z" fill="#522100"/>
<path d="M35.4665 7.46667H36.3999C36.9151 7.46667 37.3332 7.04854 37.3332 6.53334C37.3332 6.01814 36.9151 5.60001 36.3999 5.60001H35.4665C34.9513 5.60001 34.5332 6.01814 34.5332 6.53334C34.5332 7.04854 34.9513 7.46667 35.4665 7.46667Z" fill="#522100"/>
<path d="M31.7331 7.46667H32.6665C33.1817 7.46667 33.5998 7.04854 33.5998 6.53334C33.5998 6.01814 33.1817 5.60001 32.6665 5.60001H31.7331C31.2179 5.60001 30.7998 6.01814 30.7998 6.53334C30.7998 7.04854 31.2179 7.46667 31.7331 7.46667Z" fill="#522100"/>
<path d="M9.33372 7.46667H10.2671C10.7823 7.46667 11.2004 7.04854 11.2004 6.53334C11.2004 6.01814 10.7823 5.60001 10.2671 5.60001H9.33372C8.81852 5.60001 8.40039 6.01814 8.40039 6.53334C8.40039 7.04854 8.81852 7.46667 9.33372 7.46667Z" fill="#522100"/>
<path d="M42.9333 7.46667H43.8667C44.3819 7.46667 44.8 7.04854 44.8 6.53334C44.8 6.01814 44.3819 5.60001 43.8667 5.60001H42.9333C42.4181 5.60001 42 6.01814 42 6.53334C42 7.04854 42.4181 7.46667 42.9333 7.46667Z" fill="#522100"/>
<path d="M39.1997 54.1334H38.2663C37.7511 54.1334 37.333 54.5515 37.333 55.0667C37.333 55.5819 37.7511 56 38.2663 56H39.1997C39.7149 56 40.133 55.5819 40.133 55.0667C40.133 54.5515 39.7149 54.1334 39.1997 54.1334Z" fill="#CD8C5D"/>
<path d="M9.33346 51.3333H8.40013C7.88493 51.3333 7.4668 51.7514 7.4668 52.2666C7.4668 52.7818 7.88493 53.2 8.40013 53.2H9.33346C9.84866 53.2 10.2668 52.7818 10.2668 52.2666C10.2668 51.7514 9.84866 51.3333 9.33346 51.3333Z" fill="#CD8C5D"/>
<path d="M31.7329 48.5333H30.7995C30.2843 48.5333 29.8662 48.9515 29.8662 49.4667C29.8662 49.9819 30.2843 50.4 30.7995 50.4H31.7329C32.2481 50.4 32.6662 49.9819 32.6662 49.4667C32.6662 48.9515 32.2481 48.5333 31.7329 48.5333Z" fill="#CD8C5D"/>
<path d="M46.6665 48.5333H45.7331C45.2179 48.5333 44.7998 48.9515 44.7998 49.4667C44.7998 49.9819 45.2179 50.4 45.7331 50.4H46.6665C47.1817 50.4 47.5998 49.9819 47.5998 49.4667C47.5998 48.9515 47.1817 48.5333 46.6665 48.5333Z" fill="#CD8C5D"/>
<path d="M42.9333 1.86667H43.8667C44.3819 1.86667 44.8 1.44853 44.8 0.933333C44.8 0.418133 44.3819 0 43.8667 0H42.9333C42.4181 0 42 0.418133 42 0.933333C42 1.44853 42.4181 1.86667 42.9333 1.86667Z" fill="#CD8C5D"/>
<path d="M39.1999 4.66665H40.1333C40.6485 4.66665 41.0666 4.24852 41.0666 3.73332C41.0666 3.21812 40.6485 2.79999 40.1333 2.79999H39.1999C38.6847 2.79999 38.2666 3.21812 38.2666 3.73332C38.2666 4.24852 38.6847 4.66665 39.1999 4.66665Z" fill="#CD8C5D"/>
<path d="M16.7995 4.66665H17.7329C18.2481 4.66665 18.6662 4.24852 18.6662 3.73332C18.6662 3.21812 18.2481 2.79999 17.7329 2.79999H16.7995C16.2843 2.79999 15.8662 3.21812 15.8662 3.73332C15.8662 4.24852 16.2843 4.66665 16.7995 4.66665Z" fill="#CD8C5D"/>
<path d="M27.9997 7.46667H28.9331C29.4483 7.46667 29.8664 7.04854 29.8664 6.53334C29.8664 6.01814 29.4483 5.60001 28.9331 5.60001H27.9997C27.4845 5.60001 27.0664 6.01814 27.0664 6.53334C27.0664 7.04854 27.4845 7.46667 27.9997 7.46667Z" fill="#CD8C5D"/>
</svg>
