<svg width="56" height="56" viewBox="0 0 56 56" fill="none" xmlns="http://www.w3.org/2000/svg">
<path d="M35.6686 15.0514H23.4414H24L28.8121 8.02235C29.1671 7.49385 29.9428 7.49385 30.2977 8.02235L35 15L35.6686 15.0514Z" fill="#CD8C5D"/>
<path d="M35.3809 54.1795H46.6729V35.3156L29.5557 24.4837L12.4375 35.3156V54.1795H23.7305V42.5895C23.7305 39.3639 26.3389 36.749 29.5557 36.749C32.7725 36.749 35.3809 39.3638 35.3809 42.5895V54.1795Z" fill="#CD8C5D"/>
<path d="M49.0144 34.8894L34.4876 25.6971V18.9975C35.3955 18.7767 36.0726 17.9572 36.0726 16.9799C36.0726 15.8341 35.143 14.902 34.0002 14.902H33.2338L28.9773 8.56406C28.8207 8.33087 28.6127 8.14406 28.3741 8.01412V4.04819H30.6474C31.0995 4.04819 31.4658 3.6808 31.4658 3.22766C31.4658 2.77452 31.0995 2.40712 30.6474 2.40712H28.3741V0.820531C28.3741 0.367391 28.0078 0 27.5556 0C27.1036 0 26.7372 0.367391 26.7372 0.820531V2.40702H24.4639C24.0118 2.40702 23.6455 2.77441 23.6455 3.22755C23.6455 3.68069 24.0119 4.04808 24.4639 4.04808H26.7372V8.01402C26.4987 8.14406 26.2906 8.33076 26.1341 8.56384L21.8776 14.9019H21.1111C19.9683 14.9019 19.0387 15.834 19.0387 16.9798C19.0387 17.9571 19.7158 18.7766 20.6237 18.9973V25.697L6.09686 34.8894C5.41005 35.3241 5 36.0769 5 36.9035C5 37.7745 5.46536 38.5731 6.21456 38.9872C6.56255 39.1795 6.93933 39.2754 7.31502 39.2754C7.73522 39.2754 8.15422 39.1556 8.53057 38.9174L27.5556 26.8789L46.5805 38.9174C47.2933 39.3687 48.1591 39.3946 48.8965 38.9873C49.6457 38.5732 50.1111 37.7746 50.1111 36.9036C50.1113 36.0769 49.7012 35.3241 49.0144 34.8894ZM27.4918 9.48062C27.498 9.47133 27.5146 9.44661 27.5556 9.44661C27.5966 9.44661 27.6133 9.47133 27.6195 9.48073L31.2604 14.9021H23.8508L27.4918 9.48062ZM21.1111 16.5432H34.0002C34.2404 16.5432 34.4358 16.7392 34.4358 16.9799C34.4358 17.2208 34.2403 17.4167 34.0002 17.4167H21.1111C20.8709 17.4167 20.6756 17.2207 20.6756 16.9799C20.6756 16.7392 20.8709 16.5432 21.1111 16.5432ZM32.8508 19.0579V24.6613L27.9924 21.587C27.7256 21.4182 27.3857 21.4182 27.1188 21.587L22.2605 24.6613V19.0579H32.8508ZM48.1064 37.5501C48.0072 37.605 47.7444 37.7133 47.4543 37.5295L27.9924 25.2145C27.7256 25.0458 27.3857 25.0458 27.1188 25.2145L7.65701 37.5296C7.36684 37.7129 7.10416 37.6049 7.00478 37.5501C6.77428 37.4227 6.63673 37.1809 6.63673 36.9036C6.63673 36.6475 6.76458 36.4077 6.97042 36.2774L27.5556 23.2515L48.1408 36.2774C48.3465 36.4077 48.4745 36.6475 48.4745 36.9036C48.4744 37.1808 48.3368 37.4225 48.1064 37.5501Z" fill="#522100"/>
<path d="M44.6731 39.7422C44.221 39.7422 43.8547 40.1096 43.8547 40.5627V54.3588H34.1988V43.5894C34.1988 39.9164 31.2186 36.9282 27.5553 36.9282C23.892 36.9282 20.9117 39.9163 20.9117 43.5894V54.3588H11.2559V40.5628C11.2559 40.1096 10.8894 39.7423 10.4375 39.7423C9.98556 39.7423 9.61914 40.1097 9.61914 40.5628V55.1795C9.61914 55.6327 9.98556 56 10.4375 56H44.6731C45.1251 56 45.4914 55.6326 45.4914 55.1795V40.5628C45.4913 40.1096 45.125 39.7422 44.6731 39.7422ZM32.5619 54.3588H22.5486V43.5894C22.5486 40.8214 24.7945 38.5693 27.5553 38.5693C30.316 38.5693 32.562 40.8214 32.562 43.5894V54.3588H32.5619Z" fill="#522100"/>
</svg>
