<svg width="23" height="23" viewBox="0 0 23 23" xmlns="http://www.w3.org/2000/svg">
<path d="M13.434 10.0286C13.7216 9.20878 13.8655 8.54997 13.8655 8.0522C13.8655 7.78867 13.7812 7.55442 13.6125 7.34946C13.4539 7.13473 13.2406 7.02737 12.9728 7.02737C12.2091 7.02737 11.4653 7.49586 10.7413 8.43285C10.0172 9.36007 9.42712 10.4337 8.97089 11.6537C8.51466 12.8835 8.28655 13.84 8.28655 14.5232C8.28655 15.3431 8.63368 15.753 9.32794 15.753C10.3594 15.753 11.4306 14.5672 12.5414 12.1954C12.8588 11.561 13.1563 10.8387 13.434 10.0286ZM16.4392 5.16805C17.4508 5.16805 17.9567 5.66094 17.9567 6.64672C17.9567 6.85169 17.917 7.04689 17.8376 7.23234L15.3085 13.4984C14.9416 14.3963 14.7581 14.9771 14.7581 15.2406C14.7581 15.4163 14.8473 15.5578 15.0259 15.6652C15.2044 15.7725 15.3978 15.8262 15.6061 15.8262C16.8359 15.8262 18.041 15.1381 19.2212 13.7619C20.4312 12.4248 21.0362 10.9266 21.0362 9.26735C21.0362 8.13516 20.7932 7.10057 20.3072 6.16359C19.8312 5.23637 19.1716 4.45067 18.3286 3.80649C17.4856 3.15256 16.5235 2.6499 15.4424 2.29854C14.3614 1.95693 13.2505 1.78612 12.11 1.78612C10.8603 1.78612 9.60565 2.03013 8.34605 2.51814C7.08646 3.00615 6.00043 3.66985 5.08797 4.50923C4.42346 5.11436 3.85813 5.79758 3.39198 6.55888C2.92583 7.32994 2.56878 8.14492 2.32083 9.00382C2.08279 9.86272 1.96378 10.7265 1.96378 11.5952C1.96378 12.9421 2.23157 14.2011 2.76714 15.3724C3.31263 16.5436 4.05649 17.5587 4.99871 18.4176C5.95084 19.2862 7.05671 19.9597 8.3163 20.4379C9.57589 20.9162 10.9 21.1553 12.2885 21.1553C13.191 21.1553 14.0638 21.0528 14.9069 20.8479C15.7499 20.6429 16.5533 20.3403 17.3169 19.9402C18.0906 19.54 18.7898 19.052 19.4146 18.4761C19.9403 17.9979 20.4114 17.4562 20.8279 16.851C20.9965 16.6266 21.2247 16.5143 21.5123 16.5143C22.0677 16.5143 22.3454 16.7876 22.3454 17.3342C22.3454 17.4903 22.3008 17.6367 22.2115 17.7734C21.6561 18.6811 21.0362 19.4424 20.3519 20.0573C19.2609 21.0333 18.0013 21.7653 16.5731 22.2533C15.135 22.7511 13.6274 23 12.0505 23C9.88831 23 7.8799 22.4925 6.02523 21.4774C4.17055 20.4623 2.70267 19.0715 1.6216 17.3049C0.540535 15.5481 0 13.6351 0 11.5659C0 8.35476 1.18521 5.62678 3.55563 3.38192C5.91613 1.12731 8.837 0 12.3182 0C13.7167 0 15.0606 0.219605 16.3499 0.658816C17.6492 1.09803 18.7947 1.72756 19.7865 2.54742C20.7883 3.36728 21.5768 4.35307 22.152 5.50477C22.7173 6.65648 23 7.92043 23 9.29663C23 10.3215 22.7868 11.3463 22.3603 12.3711C21.9338 13.3959 21.3437 14.3134 20.5899 15.1235C19.8361 15.9336 18.9485 16.5778 17.9269 17.056C16.9053 17.5343 15.8491 17.7734 14.7581 17.7734C13.2803 17.7734 12.5414 17.1439 12.5414 15.8848C11.2322 17.0658 9.88335 17.6563 8.49483 17.6563C7.37408 17.6563 6.51121 17.2805 5.90621 16.529C5.30121 15.7774 4.99871 14.8453 4.99871 13.7327C4.99871 12.4736 5.31608 11.1657 5.95084 9.80904C6.57568 8.46213 7.44847 7.33482 8.56921 6.42712C9.68003 5.51941 10.9148 5.06556 12.2736 5.06556C13.4142 5.06556 14.3019 5.49989 14.9366 6.36855L15.0705 6.06111C15.3284 5.46573 15.7846 5.16805 16.4392 5.16805Z"/>
</svg>
