<svg width="21" height="21" viewBox="0 0 21 21" xmlns="http://www.w3.org/2000/svg">
<path d="M16.8363 12.9221C16.3997 12.4696 15.8732 12.2276 15.3152 12.2276C14.7616 12.2276 14.2306 12.4651 13.776 12.9176L12.3539 14.3289C12.2369 14.2661 12.1199 14.2079 12.0074 14.1497C11.8454 14.069 11.6924 13.9928 11.5619 13.9122C10.2298 13.0699 9.01919 11.9722 7.8581 10.552C7.29556 9.8441 6.91753 9.24823 6.64301 8.64339C7.01204 8.30737 7.35406 7.9579 7.68709 7.62188C7.8131 7.49643 7.93911 7.3665 8.06512 7.24106C9.01019 6.3002 9.01019 5.08156 8.06512 4.1407L6.83652 2.91758C6.69701 2.77869 6.553 2.63532 6.41799 2.49195C6.14797 2.21418 5.86445 1.92744 5.57193 1.65862C5.1354 1.22851 4.61336 1.00002 4.06432 1.00002C3.51528 1.00002 2.98424 1.22851 2.5342 1.65862C2.5297 1.6631 2.5297 1.6631 2.5252 1.66758L0.995091 3.20432C0.419048 3.7778 0.0905236 4.47672 0.0185182 5.28765C-0.0894898 6.5959 0.297538 7.81453 0.594561 8.61202C1.32361 10.5699 2.4127 12.3844 4.03732 14.3289C6.00846 16.6721 8.38014 18.5224 11.0893 19.8262C12.1244 20.3145 13.506 20.8925 15.0496 20.9911C15.1441 20.9955 15.2431 21 15.3332 21C16.3727 21 17.2458 20.6282 17.9298 19.8889C17.9344 19.8799 17.9433 19.8755 17.9478 19.8665C18.1819 19.5842 18.4519 19.3289 18.7354 19.0556C18.9289 18.8719 19.1269 18.6792 19.3205 18.4776C19.766 18.0161 20 17.4785 20 16.9274C20 16.3719 19.7615 15.8387 19.307 15.3907L16.8363 12.9221Z M10.431 5.47104C11.7047 5.68463 12.8617 6.28656 13.7854 7.20888C14.7091 8.1312 15.307 9.28653 15.5258 10.5584C15.5792 10.8787 15.8563 11.102 16.1723 11.102C16.2112 11.102 16.2452 11.0972 16.2841 11.0923C16.6439 11.0341 16.8821 10.6943 16.8237 10.3351C16.5612 8.79624 15.832 7.39335 14.7188 6.28171C13.6055 5.17007 12.2006 4.44193 10.6595 4.17979C10.2998 4.12154 9.96435 4.3594 9.90115 4.71377C9.83796 5.06813 10.0713 5.41279 10.431 5.47104Z M20.9898 10.1458C20.5572 7.61184 19.3613 5.30604 17.5237 3.47111C15.6861 1.63618 13.377 0.442024 10.8394 0.00999089C10.4845 -0.0531151 10.1491 0.1896 10.0859 0.543965C10.0276 0.903184 10.2658 1.23813 10.6255 1.30124C12.8909 1.68473 14.9569 2.75753 16.6001 4.39343C18.2432 6.03419 19.3127 8.09727 19.6967 10.3594C19.7502 10.6798 20.0273 10.9031 20.3433 10.9031C20.3822 10.9031 20.4162 10.8982 20.4551 10.8934C20.81 10.84 21.053 10.5002 20.9898 10.1458Z"/>
</svg>
