<svg width="24" height="33" viewBox="0 0 24 33" xmlns="http://www.w3.org/2000/svg">
<path fill-rule="evenodd" clip-rule="evenodd" d="M21.2913 13.9803C21.4279 13.3399 21.5 12.6742 21.5 11.9896C21.5 6.75067 17.2489 2.5 12 2.5C6.75113 2.5 2.5 6.75067 2.5 11.9896C2.5 12.6742 2.5721 13.3399 2.70871 13.9803C5.77974 14.8415 8.33522 17.1041 10.2255 19.9524C10.8829 20.943 11.4764 22.0262 12 23.1862C12.5236 22.0262 13.1171 20.943 13.7745 19.9524C15.6648 17.1041 18.2203 14.8415 21.2913 13.9803ZM13.3092 26.7254C15.2657 20.7377 18.9632 16.5735 23.2608 16.1424C23.739 14.8485 24 13.4495 24 11.9896C24 5.36794 18.6276 0 12 0C5.37243 0 0 5.36794 0 11.9896C0 13.4495 0.260961 14.8485 0.739156 16.1424C5.03683 16.5735 8.73427 20.7377 10.6908 26.7254C11.3197 28.6497 11.7687 30.7624 12 33C12.2313 30.7624 12.6803 28.6497 13.3092 26.7254Z"/>
</svg>
