<svg width="100" height="29" viewBox="0 0 100 29" xmlns="http://www.w3.org/2000/svg">
<path d="M36.9155 11.343V3.08426H40.3981C42.9851 3.08426 44.7762 4.57679 44.7762 7.26336C44.7762 9.75092 42.8856 11.4425 40.3981 11.4425L36.9155 11.343ZM42.5871 7.16386C42.5871 5.87033 41.7911 4.8753 40.2985 4.8753H38.9055V9.35291H40.2985C41.7911 9.45241 42.5871 8.45739 42.5871 7.16386ZM45.5722 7.16386C45.5722 4.6763 47.4627 2.88526 49.9503 2.88526C52.4378 2.88526 54.3284 4.5768 54.3284 7.16386C54.3284 9.75092 52.4378 11.4425 49.9503 11.4425C47.4627 11.4425 45.5722 9.75092 45.5722 7.16386ZM52.2388 7.16386C52.2388 5.77083 51.3433 4.7758 49.9503 4.7758C48.5572 4.7758 47.6617 5.77083 47.6617 7.16386C47.6617 8.45739 48.5572 9.55191 49.9503 9.55191C51.3433 9.55191 52.2388 8.5569 52.2388 7.16386ZM60.199 11.343L58.806 8.55689H57.7115V11.343H55.6219V3.08426H59.801C61.5921 3.08426 62.5871 4.27829 62.5871 5.87033C62.5871 7.36286 61.6916 8.05938 60.8955 8.35789L62.5871 11.4425H60.199V11.343ZM60.4975 5.87033C60.4975 5.27331 60.0995 4.9748 59.5025 4.9748H57.811V6.66635H59.5025C60 6.66635 60.4975 6.36784 60.4975 5.87033ZM63.4826 7.16386C63.4826 4.6763 65.3731 2.88526 67.8607 2.88526C70.3483 2.88526 72.2388 4.5768 72.2388 7.16386C72.2388 9.75092 70.3483 11.4425 67.8607 11.4425C65.3731 11.4425 63.4826 9.75092 63.4826 7.16386ZM70.0498 7.16386C70.0498 5.77083 69.1542 4.7758 67.7612 4.7758C66.3682 4.7758 65.4727 5.77083 65.4727 7.16386C65.4727 8.45739 66.3682 9.55191 67.7612 9.55191C69.1542 9.55191 70.0498 8.5569 70.0498 7.16386ZM79.1045 11.343V7.95987H75.7214V11.343H73.5323V3.08426H75.7214V6.16884H79.1045V3.08426H81.194V11.343H79.1045ZM82.3881 7.16386C82.3881 4.6763 84.2786 2.88526 86.7662 2.88526C89.2537 2.88526 91.1443 4.5768 91.1443 7.16386C91.1443 9.75092 89.2537 11.4425 86.7662 11.4425C84.2786 11.4425 82.3881 9.75092 82.3881 7.16386ZM89.0547 7.16386C89.0547 5.77083 88.1592 4.7758 86.7662 4.7758C85.3731 4.7758 84.4776 5.77083 84.4776 7.16386C84.4776 8.45739 85.3731 9.55191 86.7662 9.55191C88.2587 9.55191 89.0547 8.5569 89.0547 7.16386ZM94.3283 11.343L91.2438 3.08426H93.6318L95.6219 9.0544L97.6119 3.08426H100L96.9154 11.343H94.3283ZM36.9155 25.0743V16.7161H40.3981C42.9851 16.7161 44.8757 18.2086 44.8757 20.8952C44.8757 23.4822 42.9851 25.0743 40.3981 25.0743H36.9155ZM42.7861 20.8952C42.7861 19.6016 41.9901 18.6066 40.4975 18.6066H39.1045V23.1838H40.4975C41.8906 23.1838 42.7861 22.1887 42.7861 20.8952ZM46.1692 25.0743V16.7161H52.2388V18.6066H48.3582V19.9002H52.1393V21.6912H48.3582V23.0842H52.2388V24.9748H46.1692V25.0743ZM53.2339 23.8803L54.3284 22.2882C54.9254 22.8852 55.8209 23.3827 56.9154 23.3827C57.612 23.3827 58.1095 23.0843 58.1095 22.6862C58.1095 21.5917 53.4329 22.4872 53.4329 19.2036C53.4329 17.8106 54.6269 16.6166 56.7164 16.6166C58.01 16.6166 59.204 17.0146 60.0995 17.8106L58.9055 19.3032C58.209 18.7061 57.3135 18.4076 56.5174 18.4076C55.9204 18.4076 55.6219 18.6066 55.6219 19.0046C55.6219 19.9997 60.2985 19.3031 60.2985 22.3877C60.2985 24.0793 59.005 25.1738 56.8159 25.1738C55.2239 25.1738 54.1294 24.6763 53.2339 23.8803ZM61.5921 16.7161H63.6816V24.9748H61.5921V16.7161ZM65.0746 20.8952C65.0746 18.3081 67.1642 16.6166 69.5522 16.6166C71.3433 16.6166 72.5373 17.6116 73.0348 18.7061L71.2438 19.7012C70.9453 19.2037 70.2488 18.7061 69.4528 18.7061C68.0597 18.7061 67.0647 19.7012 67.0647 21.0942C67.0647 22.4872 68.0597 23.4822 69.4528 23.4822C70.0498 23.4822 70.7463 23.2832 70.9453 22.9847V22.2882H69.0547V20.3977H73.0348V23.6813C72.1393 24.6763 70.9453 25.2733 69.3532 25.2733C67.0647 25.1738 65.0746 23.4822 65.0746 20.8952ZM80.398 25.0743L76.9154 20.1987V25.0743H74.8259V16.7161H77.0149L80.398 21.2932V16.7161H82.4876V25.0743H80.398Z M11.2438 -6.07314e-06H0V28.4577H11.3433C20.8955 28.4577 26.9652 22.8855 26.9652 14.2288C26.9652 5.57213 20.796 -6.07314e-06 11.2438 -6.07314e-06ZM11.0448 22.786H5.97014V6.06965H11.0448C17.0149 6.06965 20.995 8.45771 20.995 14.1293C21.0945 18.9055 17.3134 22.786 11.0448 22.786ZM12.1393 10.8458H10.8458V17.6119H12.1393C14.7263 17.6119 16.2189 16.1194 16.2189 14.1293C16.2189 11.8408 14.5273 10.8458 12.1393 10.8458Z"/>
</svg>
