<svg width="50" height="50" viewBox="0 0 50 50" fill="none" xmlns="http://www.w3.org/2000/svg">
<rect x="9.80371" y="4" width="38.2353" height="45" rx="6" fill="#FFF5D2"/>
<path d="M19.469 34.7908H13.0703C12.4925 34.7908 12.0244 35.261 12.0244 35.8419C12.0244 36.4221 12.4925 36.8927 13.0703 36.8927H19.469C20.0465 36.8927 20.5146 36.4221 20.5146 35.8419C20.5146 35.261 20.0465 34.7908 19.469 34.7908Z" fill="#CD8C5D"/>
<path d="M36.9306 34.7908H30.5316C29.9544 34.7908 29.4863 35.261 29.4863 35.8419C29.4863 36.4221 29.9544 36.8927 30.5316 36.8927H36.9306C37.5081 36.8927 37.9765 36.4221 37.9765 35.8419C37.9765 35.261 37.5081 34.7908 36.9306 34.7908Z" fill="#CD8C5D"/>
<path d="M1.03591 23.3757C1.61308 23.3757 2.0815 22.9052 2.0815 22.325V16.586L5.85573 14.2839V36.7669C5.69621 39.3005 6.69234 41.7686 8.56406 43.473V47.6775C8.56406 48.9328 9.57329 49.9523 10.822 49.9582H16.5416C17.7906 49.9523 18.8005 48.9328 18.8005 47.6775V45.46H31.1799V47.7193C31.1799 48.9746 32.1892 49.9947 33.4385 50H39.1575C40.4069 49.9947 41.4161 48.9746 41.4161 47.7193V43.5148C43.24 41.7732 44.2305 39.3259 44.1349 36.7985V14.2839L47.9091 16.586V22.325C47.9091 22.9052 48.3769 23.3757 48.9547 23.3757C49.5319 23.3757 50 22.9052 50 22.325V16.0183C50.002 15.6495 49.812 15.3063 49.4985 15.1144L44.1349 11.8458V8.69243C44.1349 2.28071 39.6698 0 35.4875 0H14.5448C10.3624 0 5.89799 2.28071 5.89799 8.69243V11.8458L0.502631 15.0933C0.188821 15.2856 -0.00182274 15.6281 0.000142667 15.9975V22.3036C-0.00444327 22.5844 0.101689 22.8555 0.295608 23.057C0.490183 23.2582 0.756823 23.3734 1.03591 23.3757ZM42.0434 27.2967H26.0457V11.3304H42.0535L42.0434 27.2967ZM23.9548 27.2967H7.94692V11.3304H23.9548V27.2967ZM16.7293 47.7088C16.7303 47.8036 16.6566 47.882 16.5626 47.8872H10.8331C10.7391 47.882 10.6654 47.8036 10.6654 47.7088V44.7448C11.8869 45.2288 13.19 45.4712 14.5025 45.46H16.7293V47.7088ZM39.3351 47.7088C39.3357 47.8036 39.262 47.882 39.168 47.8872H33.4385C33.3442 47.882 33.2708 47.8036 33.2708 47.7088V45.46H35.456C36.7676 45.4801 38.071 45.2446 39.2931 44.7655L39.3351 47.7088ZM35.456 43.3574H14.5448C12.579 43.3574 7.98885 42.7156 7.98885 36.7669V29.4094H42.0535V36.7669C42.0535 38.7535 41.4161 43.3574 35.456 43.3574ZM14.5448 2.03867H35.456C37.4214 2.03867 42.0119 2.67981 42.0119 8.62921V9.22853H7.94692V8.62921C7.94692 2.63799 12.5371 2.03867 14.5448 2.03867Z" fill="#CD8C5D"/>
</svg>
