<svg width="50" height="50" viewBox="0 0 50 50" fill="none" xmlns="http://www.w3.org/2000/svg">
<path fill-rule="evenodd" clip-rule="evenodd" d="M14.0808 0C13.6536 0 13.3077 0.355593 13.3077 0.794347V2.91189H10.9904C10.141 2.91189 9.36076 3.62148 9.25802 4.48888L7.99662 15.0954L5.62846 15.0953V10.7151C5.62846 10.5196 5.55929 10.3406 5.44535 10.2022C5.30396 10.03 5.09237 9.92076 4.85636 9.92076C4.42912 9.92076 4.08325 10.2763 4.08325 10.7151V15.8897C4.08325 15.9576 4.09139 16.0236 4.10665 16.0866C4.11886 16.1339 4.13513 16.1796 4.15446 16.2231C4.23991 16.4136 4.39758 16.5633 4.59086 16.6359L4.63969 16.6524L4.67936 16.6632C4.73633 16.6768 4.79533 16.684 4.85636 16.684H7.80843L7.33846 20.6355L5.18494 20.6356C4.05172 20.6356 3.125 21.5888 3.125 22.7537V35.9487H4.17786V47.3698C4.17786 48.2435 4.87366 48.9583 5.72306 48.9583H11.8622C12.7126 48.9583 13.4074 48.2435 13.4074 47.3698V40.1855H39.7156V47.3698C39.7156 48.2435 40.4114 48.9583 41.2608 48.9583H47.3989C48.2493 48.9583 48.9441 48.2435 48.9441 47.3698V35.9487H50L49.9969 22.7537C49.9969 21.5888 49.0702 20.6356 47.936 20.6356L45.7855 20.6355L45.3156 16.6839H48.3114C48.7386 16.6839 49.0845 16.3283 49.0845 15.8895V10.715C49.0845 10.2763 48.7386 9.92076 48.3114 9.92076C47.8851 9.92076 47.5382 10.2763 47.5382 10.7151V15.0953H45.1274L43.866 4.48888C43.7622 3.62148 42.983 2.91189 42.1336 2.91189H39.8142V0.794347C39.8142 0.355593 39.4684 0 39.0422 0C38.8143 0 38.6098 0.100899 38.4684 0.261497C38.4308 0.304413 38.3972 0.351588 38.3687 0.402196C38.3545 0.426737 38.3423 0.452042 38.3321 0.478045C38.3219 0.502078 38.3128 0.526746 38.3057 0.551923L38.2884 0.617727C38.2762 0.674502 38.269 0.73363 38.269 0.794347V2.91189H14.8529V0.794347C14.8529 0.355593 14.507 0 14.0808 0ZM43.6646 15.8899L42.3319 4.68343C42.3238 4.61171 42.2028 4.50058 42.1326 4.50058H10.9904C10.9212 4.50058 10.8002 4.61057 10.792 4.68159L9.45943 15.8899H43.6646ZM17.0929 25.7432C18.5476 25.7432 19.7266 24.5311 19.7266 23.0359C19.7266 21.5408 18.5476 20.3287 17.0929 20.3287C15.6382 20.3287 14.4592 21.5408 14.4592 23.0359C14.4592 24.5311 15.6382 25.7432 17.0929 25.7432ZM38.6637 23.0359C38.6637 24.5311 37.4847 25.7432 36.0301 25.7432C34.5754 25.7432 33.3964 24.5311 33.3964 23.0359C33.3964 21.5408 34.5754 20.3287 36.0301 20.3287C37.4847 20.3287 38.6637 21.5408 38.6637 23.0359Z" fill="#FFF5D2"/>
<path d="M48.9583 30.7426C48.9583 30.7378 48.9577 30.7332 48.9576 30.7284L48.9567 23.4323C48.9567 21.852 47.6717 20.5663 46.0921 20.5663H44.6068L44.2273 17.4591H46.4697C46.9011 17.4591 47.2509 17.1092 47.2509 16.6775V11.5856C47.2509 11.1539 46.9011 10.804 46.4697 10.804C46.0382 10.804 45.6884 11.1539 45.6884 11.5856V15.8959H44.0364L42.75 5.36449C42.5967 4.1093 41.4865 3.12602 40.2224 3.12602H37.8786V1.82331C37.8786 1.39165 37.5289 1.04169 37.0974 1.04169C36.6659 1.04169 36.3161 1.39165 36.3161 1.82331V3.12602H12.6404V1.82331C12.6404 1.39165 12.2906 1.04169 11.8592 1.04169C11.4277 1.04169 11.0779 1.39165 11.0779 1.82331V3.12602H8.73417C7.47021 3.12602 6.36 4.1093 6.20667 5.36459L4.92042 15.896H3.31281V11.5857C3.31281 11.154 2.96302 10.8041 2.53156 10.8041C2.1001 10.8041 1.75031 11.154 1.75031 11.5857V16.6776C1.75031 17.1093 2.1001 17.4592 2.53156 17.4592H4.72948L4.35 20.5664H2.86458C1.285 20.5664 0 21.8521 0 23.4324V36.4169C0 36.8485 0.349792 37.1985 0.78125 37.1985H1.0651V47.6551C1.0651 48.9482 2.11646 50 3.40885 50H9.61542C10.9078 50 11.9592 48.9482 11.9592 47.6551V39.5433C11.9592 39.1117 11.6094 38.7617 11.1779 38.7617C10.7465 38.7617 10.3967 39.1117 10.3967 39.5433V47.6551C10.3967 48.0861 10.0462 48.4368 9.61542 48.4368H3.40885C2.97802 48.4368 2.6276 48.0861 2.6276 47.6551V37.1985H46.3292V47.6551C46.3292 48.0861 45.9787 48.4368 45.5479 48.4368H39.3414C38.9105 48.4368 38.5601 48.0861 38.5601 47.6551V39.5433C38.5601 39.1117 38.2103 38.7617 37.7789 38.7617C37.3474 38.7617 36.9976 39.1117 36.9976 39.5433V47.6551C36.9976 48.9482 38.049 50 39.3414 50H45.5479C46.8403 50 47.8917 48.9482 47.8917 47.6551V37.1985H48.1771C48.3843 37.1985 48.583 37.1161 48.7296 36.9695C48.876 36.823 48.9583 36.6241 48.9583 36.4167L48.9576 30.7566C48.9577 30.7519 48.9583 30.7474 48.9583 30.7426ZM2.86458 22.1296H6.26C7.0549 22.1296 7.94177 22.801 8.15771 23.5663L9.36104 27.8285C9.47833 28.2439 9.91042 28.4858 10.3252 28.3682C10.7404 28.2509 10.982 27.8189 10.8647 27.4036L9.66146 23.1414C9.25385 21.6975 7.75979 20.5664 6.26 20.5664H5.92417L7.7576 5.55416C7.81396 5.09342 8.27021 4.68916 8.73417 4.68916H40.2225C40.6865 4.68916 41.1428 5.09331 41.1991 5.55406L43.0326 20.5663H42.6968C41.1971 20.5663 39.703 21.6974 39.2953 23.1413L38.0921 27.4035C37.9749 27.8189 38.2164 28.2508 38.6316 28.3681C39.0467 28.4853 39.4784 28.2439 39.5957 27.8284L40.799 23.5662C41.015 22.8009 41.9019 22.1295 42.6968 22.1295H43.912C43.9158 22.1295 46.0921 22.1295 46.0921 22.1295C46.8101 22.1295 47.3942 22.7138 47.3942 23.4323L47.395 29.9608H1.5625V23.4323C1.5625 22.714 2.14656 22.1296 2.86458 22.1296ZM47.3957 35.6352H1.5625V31.5242H47.3952L47.3957 35.6352Z" fill="#CD8C5D"/>
<path d="M34.6536 39.8038H14.3027C13.8713 39.8038 13.5215 40.1538 13.5215 40.5855C13.5215 41.0171 13.8713 41.3671 14.3027 41.3671H34.6536C35.085 41.3671 35.4348 41.0171 35.4348 40.5855C35.4348 40.1538 35.085 39.8038 34.6536 39.8038Z" fill="#CD8C5D"/>
<path d="M15.4244 20.2644C13.5255 20.2644 11.9805 21.8101 11.9805 23.71C11.9805 25.6099 13.5255 27.1556 15.4244 27.1556C17.3234 27.1556 18.8684 25.6099 18.8684 23.71C18.8684 21.8101 17.3235 20.2644 15.4244 20.2644ZM15.4244 25.5924C14.387 25.5924 13.543 24.7479 13.543 23.71C13.543 22.6721 14.387 21.8277 15.4244 21.8277C16.4618 21.8277 17.3059 22.6721 17.3059 23.71C17.3059 24.7479 16.4619 25.5924 15.4244 25.5924Z" fill="#CD8C5D"/>
<path d="M33.5319 20.2644C31.6329 20.2644 30.0879 21.8101 30.0879 23.71C30.0879 25.6099 31.6329 27.1556 33.5319 27.1556C35.4308 27.1556 36.9758 25.6099 36.9758 23.71C36.9758 21.8101 35.4308 20.2644 33.5319 20.2644ZM33.5319 25.5924C32.4945 25.5924 31.6504 24.7479 31.6504 23.71C31.6504 22.6721 32.4945 21.8277 33.5319 21.8277C34.5692 21.8277 35.4133 22.6721 35.4133 23.71C35.4133 24.7479 34.5692 25.5924 33.5319 25.5924Z" fill="#CD8C5D"/>
<path d="M21.2832 20.2644C20.8517 20.2644 20.502 20.6144 20.502 21.046V26.374C20.502 26.8057 20.8517 27.1556 21.2832 27.1556C21.7147 27.1556 22.0645 26.8057 22.0645 26.374V21.046C22.0645 20.6144 21.7147 20.2644 21.2832 20.2644Z" fill="#CD8C5D"/>
<path d="M24.4785 20.2644C24.0471 20.2644 23.6973 20.6144 23.6973 21.046V26.374C23.6973 26.8057 24.0471 27.1556 24.4785 27.1556C24.91 27.1556 25.2598 26.8057 25.2598 26.374V21.046C25.2598 20.6144 24.91 20.2644 24.4785 20.2644Z" fill="#CD8C5D"/>
<path d="M27.6738 20.2644C27.2424 20.2644 26.8926 20.6144 26.8926 21.046V26.374C26.8926 26.8057 27.2424 27.1556 27.6738 27.1556C28.1053 27.1556 28.4551 26.8057 28.4551 26.374V21.046C28.4551 20.6144 28.1053 20.2644 27.6738 20.2644Z" fill="#CD8C5D"/>
<path d="M41.0021 16.6776C41.0021 16.246 40.6523 15.896 40.2209 15.896H8.73828C8.30682 15.896 7.95703 16.246 7.95703 16.6776C7.95703 17.1093 8.30682 17.4592 8.73828 17.4592H40.2209C40.6523 17.4592 41.0021 17.1093 41.0021 16.6776Z" fill="#CD8C5D"/>
</svg>
