<svg width="50" height="50" viewBox="0 0 50 50" fill="none" xmlns="http://www.w3.org/2000/svg">
<path fill-rule="evenodd" clip-rule="evenodd" d="M40.6885 44.0682H17.3818C14.0635 44.0682 11.374 41.4163 11.374 38.1451V8.82562C11.374 5.55426 14.0645 2.90259 17.3818 2.90259H40.6885C44.0068 2.90259 46.6963 5.5545 46.6963 8.82562V38.1451C46.6963 41.4163 44.0068 44.0682 40.6885 44.0682ZM32.6973 10.845H42.9502V28.1732H15.1211V10.845H25.373H32.6973ZM15.1211 31.5426H22.2891V35.152H15.1211V31.5426ZM35.7822 31.5427H42.9512V35.152H35.7822V31.5427Z" fill="#FFF5D2"/>
<path d="M47.7239 43.9493L43.08 38.7684C43.4226 37.9603 43.6125 37.0742 43.6125 36.145V6.82562C43.6125 3.05585 40.5127 0 36.6887 0L22.0563 0.00023769C21.5508 0.00023769 21.1409 0.404272 21.1409 0.902696C21.1409 1.40112 21.5508 1.80516 22.0563 1.80516H36.6887C39.5015 1.80516 41.7815 4.05306 41.7815 6.82574V36.145C41.7815 38.918 39.5013 41.1656 36.6887 41.1656H31.7186V39.7627C31.7186 37.8393 30.1369 36.2801 28.186 36.2801H21.8859C19.9349 36.2801 18.3533 37.8394 18.3533 39.7627V41.1656H13.383C10.5702 41.1656 8.29019 38.9177 8.29019 36.145V6.82562C8.29019 4.0527 10.5704 1.80504 13.383 1.80504H17.7843C18.2899 1.80504 18.6998 1.401 18.6998 0.902578C18.6998 0.404154 18.2899 0.000118265 17.7843 0.000118265H13.383C9.55899 0.000118265 6.45919 3.05597 6.45919 6.82574V36.145C6.45919 37.1415 6.67862 38.0878 7.0698 38.9422L2.27605 44.2058C1.91426 44.5539 1.90715 45.1253 2.26027 45.482C2.43972 45.6632 2.67746 45.7542 2.91557 45.7542C3.1462 45.7542 3.37684 45.6689 3.55497 45.4977L8.06316 40.5084C8.51372 41.0414 9.04544 41.5046 9.63859 41.8821L4.59447 48.5584C4.29253 48.9582 4.37636 49.5235 4.78187 49.8213C4.94602 49.9419 5.13788 50 5.32793 50C5.60734 50 5.88326 49.8744 6.06283 49.6365H44.3345C44.5144 49.8744 44.79 50 45.0694 50C45.2778 50 45.4881 49.9302 45.662 49.7849C46.0344 49.4737 46.0759 48.9196 45.7844 48.5336L40.6501 41.7379C41.2058 41.3543 41.7014 40.8924 42.1215 40.3685L46.445 45.2411C46.623 45.4123 46.8537 45.4977 47.0842 45.4977C47.3222 45.4977 47.5602 45.4067 47.7395 45.2254C48.0929 44.8688 48.0858 44.2973 47.7239 43.9493ZM20.184 39.7627C20.184 38.8376 20.9475 38.0851 21.8857 38.0851H28.1857C29.1242 38.0851 29.8875 38.8377 29.8875 39.7627V41.1656H20.184V39.7627ZM42.9711 47.8317H7.42665L11.3304 42.6646C11.9792 42.8633 12.6684 42.9706 13.3826 42.9706H36.6886C37.4996 42.9706 38.2778 42.8313 39.0016 42.5777L42.9711 47.8317Z" fill="#CD8C5D"/>
<path d="M39.8673 8.84489C39.8673 8.34646 39.4575 7.94243 38.9519 7.94243H29.5219C29.0966 5.88545 27.2472 4.33282 25.0369 4.33282C22.8265 4.33282 20.9772 5.88533 20.5518 7.94243H11.1225C10.6169 7.94243 10.207 8.34646 10.207 8.84489V26.173C10.207 26.6715 10.6169 27.0755 11.1225 27.0755H28.8929C29.3985 27.0755 29.8083 26.6715 29.8083 26.173C29.8083 25.6746 29.3985 25.2706 28.8929 25.2706H12.0378V9.74746H20.5516C20.9767 11.8047 22.8263 13.3577 25.0368 13.3577C27.2473 13.3577 29.0968 11.8048 29.5219 9.74746H38.0363V25.2706H33.165C32.6594 25.2706 32.2496 25.6746 32.2496 26.173C32.2496 26.6715 32.6594 27.0755 33.165 27.0755H38.9518C39.4574 27.0755 39.8672 26.6715 39.8672 26.173L39.8673 8.84489ZM25.0366 11.5525C23.5223 11.5525 22.2903 10.338 22.2903 8.84512C22.2903 7.35222 23.5223 6.13774 25.0366 6.13774C26.551 6.13774 27.783 7.35222 27.783 8.84512C27.783 10.338 26.551 11.5525 25.0366 11.5525Z" fill="#CD8C5D"/>
<path d="M11.1195 28.64C10.6139 28.64 10.2041 29.044 10.2041 29.5425V33.1518C10.2041 33.6503 10.6139 34.0543 11.1195 34.0543H18.2879C18.7935 34.0543 19.2034 33.6503 19.2034 33.1518V29.5425C19.2034 29.044 18.7935 28.64 18.2879 28.64H11.1195ZM17.3724 32.2494H12.035V30.4451H17.3724V32.2494Z" fill="#CD8C5D"/>
<path d="M38.9505 28.64H31.782C31.2764 28.64 30.8665 29.044 30.8665 29.5425V33.1518C30.8665 33.6503 31.2764 34.0543 31.782 34.0543H38.9505C39.4561 34.0543 39.8659 33.6503 39.8659 33.1518V29.5425C39.866 29.0442 39.4561 28.64 38.9505 28.64ZM38.035 32.2494H32.6975V30.4451H38.035V32.2494Z" fill="#CD8C5D"/>
</svg>
