<svg width="50" height="50" viewBox="0 0 50 50" fill="none" xmlns="http://www.w3.org/2000/svg">
<path fill-rule="evenodd" clip-rule="evenodd" d="M29.7796 5H22.1071C21.2356 5 20.4921 5.64116 20.3493 6.51588L19.8545 9.53509H12.6685C11.5446 9.53509 10.5404 10.2508 10.1562 11.3263L7.87968 17.6985H6.34113C6.34113 16.6964 5.54422 15.8844 4.55937 15.8844H3.66848C2.68455 15.8844 1.88672 16.6964 1.88672 17.6985C1.88672 18.7003 2.68455 19.5125 3.66848 19.5125L7.23202 19.5125L4.44973 23.0539C3.94395 23.6971 3.66848 24.4964 3.66848 25.3203V42.1883C3.66848 42.6892 4.0674 43.0952 4.55937 43.0952H7.23202C7.72398 43.0952 8.1229 42.6892 8.1229 42.1883V37.6531H43.7628V42.1883C43.7628 42.6892 44.1617 43.0952 44.6537 43.0952H47.3264C47.8183 43.0952 48.2172 42.6892 48.2172 42.1883V25.3203C48.2172 24.4964 47.9418 23.697 47.436 23.0539L44.6528 19.5125L48.2172 19.5125C49.2021 19.5125 49.9999 18.7003 49.9999 17.6985C49.9999 16.6964 49.203 15.8844 48.2182 15.8844H47.3273C46.3433 15.8844 45.5455 16.6964 45.5455 17.6985H44.0051L41.7295 11.3263C41.3454 10.2508 40.3412 9.53509 39.2172 9.53509H32.0321L31.5374 6.51588C31.3936 5.64116 30.6502 5 29.7796 5ZM28.616 8.6281H23.2698C22.7778 8.6281 22.3789 8.22202 22.3789 7.72112C22.3789 7.22023 22.7778 6.81414 23.2698 6.81414H28.616C29.1079 6.81414 29.5069 7.22023 29.5069 7.72112C29.5069 8.2219 29.1079 8.6281 28.616 8.6281ZM40.0547 11.9462C39.9275 11.5891 39.5912 11.3492 39.2181 11.3492H12.6685C12.2954 11.3492 11.9591 11.5891 11.832 11.9462L9.0147 19.832V20.4194H42.8719V19.832L40.0547 11.9462ZM35.0475 29.4897H16.8373C16.4283 29.4897 16.0718 29.2064 15.9732 28.8027L15.5273 26.9886C15.3872 26.4162 15.8119 25.8616 16.3924 25.8616H35.4934C36.0729 25.8616 36.4976 26.4162 36.3575 26.9886L35.9116 28.8027C35.8131 29.2065 35.4565 29.4897 35.0475 29.4897ZM9.90651 34.932C10.6445 34.932 11.2424 34.3229 11.2424 33.5714C11.2424 32.8201 10.6445 32.2109 9.90651 32.2109C9.16764 32.2109 8.56972 32.8201 8.56972 33.5714C8.56972 34.3229 9.16764 34.932 9.90651 34.932ZM43.3178 33.5714C43.3178 34.3229 42.7199 34.932 41.982 34.932C41.2431 34.932 40.6452 34.3229 40.6452 33.5714C40.6452 32.8201 41.2431 32.2109 41.982 32.2109C42.7199 32.2109 43.3178 32.8201 43.3178 33.5714ZM9.45968 29.9432C10.9365 29.9432 12.1333 28.725 12.1333 27.2222C12.1333 25.7194 10.9365 24.5011 9.45968 24.5011C7.98379 24.5011 6.78704 25.7194 6.78704 27.2222C6.78704 28.725 7.98379 29.9432 9.45968 29.9432ZM45.0996 27.2222C45.0996 28.725 43.9029 29.9432 42.426 29.9432C40.9501 29.9432 39.7534 28.725 39.7534 27.2222C39.7534 25.7194 40.9501 24.5011 42.426 24.5011C43.9029 24.5011 45.0996 25.7194 45.0996 27.2222Z" fill="#FFF5D2"/>
<path d="M34.3899 20.797H32.6681C32.2223 20.797 31.8608 21.1615 31.8608 21.6111C31.8608 22.0606 32.2222 22.4251 32.6681 22.4251H34.3899C34.8358 22.4251 35.1973 22.0607 35.1973 21.6111C35.1972 21.1615 34.8358 20.797 34.3899 20.797Z" fill="#CD8C5D"/>
<path d="M34.6014 27.5218C34.283 27.1107 33.8037 26.8748 33.2864 26.8748H14.826C14.3087 26.8748 13.8295 27.1107 13.511 27.5218C13.1926 27.9331 13.0819 28.4591 13.2075 28.9651L13.638 30.7018C13.8241 31.452 14.4897 31.976 15.2566 31.976H32.8559C33.6228 31.976 34.2883 31.452 34.4744 30.7017L34.905 28.9651C35.0305 28.459 34.9198 27.933 34.6014 27.5218ZM33.3386 28.5704L32.908 30.3069C32.902 30.3312 32.8806 30.348 32.8559 30.348H15.2566C15.2319 30.348 15.2103 30.331 15.2044 30.307L14.7738 28.5704C14.7718 28.5627 14.7674 28.5447 14.7835 28.5239C14.7997 28.503 14.8181 28.503 14.8259 28.503H33.2864C33.2943 28.503 33.3126 28.503 33.3288 28.5239C33.3449 28.5447 33.3406 28.5626 33.3386 28.5704Z" fill="#CD8C5D"/>
<path d="M45.5838 22.425C46.9785 22.425 48.1132 21.2808 48.1132 19.8745C48.1132 18.4681 46.9785 17.324 45.5838 17.324H44.7227C43.4651 17.324 42.4192 18.2545 42.2256 19.4684L40.0721 13.4966C39.5867 12.1504 38.3062 11.2461 36.8857 11.2461H30.7459L30.2915 8.95519C30.056 7.76706 29.0127 6.90479 27.8112 6.90479H20.3018C19.1003 6.90479 18.0572 7.76706 17.8215 8.95519L17.3672 11.2461H11.2274C9.80692 11.2461 8.52637 12.1505 8.04101 13.4965L5.88757 19.4683C5.69409 18.2545 4.64819 17.324 3.39057 17.324H2.52951C1.1347 17.324 0 18.4681 0 19.8745C0 21.2808 1.1347 22.425 2.52942 22.425H3.39048C3.78807 22.425 4.16433 22.3318 4.49943 22.1662L2.65384 24.4926C2.05299 25.2498 1.72211 26.2009 1.72211 27.1706V43.3177C1.72211 44.2454 2.4705 45 3.39048 45H5.97374C6.89372 45 7.64211 44.2454 7.64211 43.3177V39.7904H40.471V43.3177C40.471 44.2454 41.2194 45 42.1394 45H44.7226C45.6426 45 46.391 44.2454 46.391 43.3177V27.1706C46.391 26.2009 46.0601 25.2497 45.4593 24.4926L43.6137 22.1662C43.9488 22.3318 44.325 22.425 44.7226 22.425H45.5838ZM3.39057 20.797H2.52951C2.02498 20.797 1.61461 20.3832 1.61461 19.8745C1.61461 19.3657 2.02498 18.9519 2.52951 18.9519H3.39057C3.8951 18.9519 4.30547 19.3657 4.30547 19.8745C4.30547 20.3831 3.89501 20.797 3.39057 20.797ZM19.4048 9.27433C19.49 8.84461 19.8673 8.53268 20.3018 8.53268H27.8112C28.2458 8.53268 28.6231 8.84461 28.7083 9.27433L29.0994 11.2461H19.0136L19.4048 9.27433ZM6.02759 43.3177C6.02759 43.3477 6.00344 43.372 5.97374 43.372H3.39048C3.36078 43.372 3.33663 43.3477 3.33663 43.3177V39.2823C3.85347 39.6041 4.46184 39.7904 5.11259 39.7904H6.02749L6.02759 43.3177ZM33.5824 38.1624H14.5308V36.3716C14.5308 36.3417 14.555 36.3173 14.5847 36.3173H33.5286C33.5583 36.3173 33.5825 36.3417 33.5825 36.3716L33.5824 38.1624ZM44.7765 43.3177C44.7765 43.3477 44.7523 43.372 44.7226 43.372H42.1394C42.1097 43.372 42.0855 43.3477 42.0855 43.3177V39.7904H43.0004C43.6512 39.7904 44.2595 39.6041 44.7764 39.2823L44.7765 43.3177ZM44.1987 25.5096C44.5712 25.9793 44.7766 26.5692 44.7766 27.1707V36.3716C44.7766 37.3591 43.9799 38.1624 43.0006 38.1624H35.1969V36.3716C35.1969 35.444 34.4485 34.6893 33.5285 34.6893H14.5847C13.6647 34.6893 12.9163 35.444 12.9163 36.3716V38.1624H5.11269C4.13341 38.1624 3.33673 37.3591 3.33673 36.3716V27.1707C3.33673 26.5692 3.54196 25.9793 3.91465 25.5096L6.36175 22.425H29.2231C29.6689 22.425 30.0304 22.0606 30.0304 21.611C30.0304 21.1614 29.669 20.7969 29.2231 20.7969H7.12639L9.55855 14.0527C9.81275 13.3477 10.4835 12.874 11.2276 12.874H36.8858C37.6299 12.874 38.3006 13.3478 38.5548 14.0527L40.987 20.7969H37.8342C37.3884 20.7969 37.0269 21.1614 37.0269 21.611C37.0269 22.0605 37.3883 22.425 37.8342 22.425H41.7516L44.1987 25.5096ZM43.8077 19.8745C43.8077 19.3657 44.2181 18.9519 44.7226 18.9519H45.5837C46.0882 18.9519 46.4986 19.3657 46.4986 19.8745C46.4986 20.3832 46.0882 20.797 45.5837 20.797H44.7226C44.2182 20.797 43.8077 20.3831 43.8077 19.8745Z" fill="#CD8C5D"/>
<path d="M8.55681 32.9527C7.63684 32.9527 6.88845 33.7074 6.88845 34.635C6.88845 35.5627 7.63684 36.3173 8.55681 36.3173C9.47679 36.3173 10.2252 35.5627 10.2252 34.635C10.2252 33.7074 9.47679 32.9527 8.55681 32.9527Z" fill="#CD8C5D"/>
<path d="M39.5562 32.9527C38.6362 32.9527 37.8879 33.7074 37.8879 34.635C37.8879 35.5627 38.6362 36.3173 39.5562 36.3173C40.4762 36.3173 41.2246 35.5627 41.2246 34.635C41.2246 33.7074 40.4761 32.9527 39.5562 32.9527Z" fill="#CD8C5D"/>
<path d="M8.12656 26.0067C6.49438 26.0067 5.16657 27.3456 5.16657 28.9914C5.16657 30.6372 6.49438 31.9761 8.12656 31.9761C9.75875 31.9761 11.0866 30.6372 11.0866 28.9914C11.0866 27.3456 9.75875 26.0067 8.12656 26.0067ZM8.12656 30.348C7.38466 30.348 6.78109 29.7395 6.78109 28.9913C6.78109 28.2431 7.38457 27.6346 8.12656 27.6346C8.86856 27.6346 9.47204 28.2431 9.47204 28.9913C9.47204 29.7395 8.86847 30.348 8.12656 30.348Z" fill="#CD8C5D"/>
<path d="M39.9865 26.0067C38.3543 26.0067 37.0265 27.3456 37.0265 28.9914C37.0265 30.6372 38.3543 31.9761 39.9865 31.9761C41.6186 31.9761 42.9464 30.6372 42.9464 28.9914C42.9464 27.3456 41.6186 26.0067 39.9865 26.0067ZM39.9865 30.348C39.2446 30.348 38.641 29.7395 38.641 28.9913C38.641 28.2431 39.2445 27.6346 39.9865 27.6346C40.7284 27.6346 41.3319 28.2431 41.3319 28.9913C41.3319 29.7395 40.7285 30.348 39.9865 30.348Z" fill="#CD8C5D"/>
</svg>
