<svg width="27" height="44" viewBox="0 0 27 44" xmlns="http://www.w3.org/2000/svg">
<path fill-rule="evenodd" clip-rule="evenodd" d="M13.5 0C8.81396 0 5.16943 1.42331 2.7605 4.30579C0.352295 7.1875 0 10.5506 0 12.2825V31.7177C0 33.4495 0.352295 36.8126 2.7605 39.6943C5.16943 42.5768 8.81396 44 13.5 44C18.186 44 21.8306 42.5768 24.2395 39.6943C26.6477 36.8126 27 33.4495 27 31.7177V12.2825C27 10.5506 26.6477 7.1875 24.2395 4.30579C21.8306 1.42331 18.186 0 13.5 0ZM2.35986 12.2825C2.35986 11.4703 2.49146 9.07065 3.85815 6.84595C5.15649 4.73285 7.60742 2.71307 12.3201 2.4238V6.51849C10.9187 7.01688 9.91772 8.3736 9.91772 9.95853V13.7236C9.91772 15.3086 10.9187 16.6653 12.3201 17.1637V22.4886C12.3201 23.1385 12.8389 23.6822 13.5 23.6822C14.1611 23.6822 14.6799 23.1385 14.6799 22.4886V17.1637C16.0813 16.6653 17.0823 15.3086 17.0823 13.7236V9.95853C17.0823 8.3736 16.0813 7.01688 14.6799 6.51849V2.4238C19.3928 2.71313 21.8435 4.73291 23.1418 6.84601C24.5085 9.07068 24.6401 11.4703 24.6401 12.2825V31.7177C24.6401 32.548 24.5032 35.0331 23.0537 37.2966C21.6287 39.522 18.8848 41.6129 13.5 41.6129C8.11523 41.6129 5.37134 39.522 3.94629 37.2966C2.49683 35.0331 2.35986 32.548 2.35986 31.7177V12.2825ZM12.2776 9.95853C12.2776 9.25641 12.8357 8.70154 13.5 8.70154C14.1643 8.70154 14.7224 9.25641 14.7224 9.95853V13.7236C14.7224 14.4258 14.1643 14.9807 13.5 14.9807C12.8357 14.9807 12.2776 14.4258 12.2776 13.7236V9.95853Z"/>
</svg>
