<svg width="56" height="56" viewBox="0 0 56 56" fill="none" xmlns="http://www.w3.org/2000/svg">
<path d="M19.469 56C19.1843 56 18.9046 55.8889 18.6954 55.6796L14.2032 51.1875H7.65625C3.43459 51.1875 0 47.7529 0 43.5312V26.6875C0 22.4658 3.43459 19.0312 7.65625 19.0312H18.7031C19.3071 19.0312 19.7969 19.5209 19.7969 20.125C19.7969 20.7291 19.3071 21.2188 18.7031 21.2188H7.65625C4.64078 21.2188 2.1875 23.672 2.1875 26.6875V43.5312C2.1875 46.5467 4.64078 49 7.65625 49H14.7633C15.2107 49 15.5974 49.2692 15.7664 49.6571L18.377 52.2676L18.3785 50.093C18.3789 49.4892 18.8684 49 19.4722 49H31.2812C34.2967 49 36.75 46.5467 36.75 43.5312V35.9844C36.75 35.3803 37.2398 34.8906 37.8438 34.8906C38.4477 34.8906 38.9375 35.3803 38.9375 35.9844V43.5312C38.9375 47.7529 35.5029 51.1875 31.2812 51.1875H20.5651L20.5625 54.907C20.5622 55.3492 20.2956 55.7478 19.8869 55.9169C19.7518 55.9728 19.6097 56 19.469 56Z" fill="#522100"/>
<path d="M40.1029 1.09375H37.3347C29.159 1.09375 22.5312 7.72144 22.5312 15.8972C22.5312 24.0729 29.1589 30.7007 37.3347 30.7007H40.1029C41.6182 30.7007 43.0801 30.4725 44.4566 30.0496L49 34.5904V27.729C52.5868 25.0275 54.9062 20.7333 54.9062 15.8971C54.9062 7.72144 48.2786 1.09375 40.1029 1.09375Z" fill="#CD8C5D"/>
<path d="M49.0002 35.6841C48.7156 35.6841 48.4361 35.573 48.2268 35.364L44.1376 31.2771C42.8251 31.6205 41.471 31.7943 40.1028 31.7943H37.3346C28.569 31.7943 21.4375 24.663 21.4375 15.8972C21.4375 7.13147 28.569 0 37.3347 0H40.1029C48.8685 0 56 7.13147 56 15.8972C56 18.4365 55.4189 20.8634 54.2725 23.1106C53.2632 25.0892 51.825 26.8603 50.0938 28.2624V34.5904C50.0938 35.0327 49.8273 35.4315 49.4187 35.6008C49.2834 35.6569 49.1412 35.6841 49.0002 35.6841ZM44.4565 28.9557C44.7421 28.9557 45.0215 29.0678 45.2297 29.2759L47.9062 31.9509V27.7291C47.9062 27.3855 48.0677 27.062 48.3419 26.8554C51.8186 24.237 53.8125 20.2428 53.8125 15.8972C53.8125 8.33766 47.6625 2.1875 40.1029 2.1875H37.3347C29.7752 2.1875 23.625 8.33766 23.625 15.8972C23.625 23.4568 29.775 29.6069 37.3347 29.6069H40.1029C41.4767 29.6069 42.8334 29.4042 44.1353 29.0041C44.241 28.9716 44.3493 28.9557 44.4565 28.9557Z" fill="#522100"/>
<path d="M39.0252 20.4285C38.4213 20.4285 37.9315 19.9388 37.9315 19.3347V16.707C37.9315 15.7273 38.602 14.893 39.5621 14.6782C40.747 14.413 41.5462 13.3366 41.4622 12.1185C41.3791 10.9124 40.4069 9.94016 39.2007 9.85703C38.5127 9.80957 37.8589 10.0407 37.3586 10.5076C36.8579 10.975 36.582 11.6094 36.582 12.294C36.582 12.8981 36.0922 13.3878 35.4883 13.3878C34.8843 13.3878 34.3945 12.8981 34.3945 12.294C34.3945 11.0153 34.9308 9.78135 35.866 8.90842C36.8141 8.02325 38.0529 7.58543 39.351 7.67457C41.6408 7.83239 43.4867 9.67821 43.6445 11.968C43.8014 14.2453 42.3228 16.2619 40.1189 16.7944V19.3347C40.119 19.9388 39.6293 20.4285 39.0252 20.4285Z" fill="#522100"/>
<path d="M39.0273 24.7549C38.7397 24.7549 38.4575 24.6389 38.2541 24.4355C38.0507 24.2321 37.9336 23.9499 37.9336 23.6611C37.9336 23.3735 38.0506 23.0913 38.2541 22.8879C38.4575 22.6844 38.7397 22.5674 39.0273 22.5674C39.315 22.5674 39.5972 22.6844 39.8006 22.8879C40.004 23.0913 40.1211 23.3735 40.1211 23.6611C40.1211 23.9499 40.0041 24.231 39.8006 24.4355C39.5972 24.6389 39.315 24.7549 39.0273 24.7549Z" fill="#522100"/>
<path d="M30.0781 42.2188C29.7905 42.2188 29.5083 42.1017 29.3048 41.8983C29.1014 41.6948 28.9844 41.4127 28.9844 41.125C28.9844 40.8373 29.1013 40.5552 29.3048 40.3517C29.5083 40.1483 29.7905 40.0312 30.0781 40.0312C30.3658 40.0312 30.648 40.1483 30.8513 40.3517C31.0547 40.5552 31.1719 40.8373 31.1719 41.125C31.1719 41.4137 31.0548 41.6948 30.8513 41.8983C30.648 42.1017 30.3658 42.2188 30.0781 42.2188Z" fill="#CD8C5D"/>
<path d="M30.0781 36.0938H7C6.39603 36.0938 5.90625 35.6041 5.90625 35C5.90625 34.3959 6.39603 33.9062 7 33.9062H30.0781C30.6821 33.9062 31.1719 34.3959 31.1719 35C31.1719 35.6041 30.6822 36.0938 30.0781 36.0938Z" fill="#CD8C5D"/>
<path d="M25.7761 42.2188H7C6.39603 42.2188 5.90625 41.7291 5.90625 41.125C5.90625 40.5209 6.39603 40.0312 7 40.0312H25.7761C26.38 40.0312 26.8698 40.5209 26.8698 41.125C26.8698 41.7291 26.3802 42.2188 25.7761 42.2188Z" fill="#CD8C5D"/>
<path d="M22.9688 29.9688H7C6.39603 29.9688 5.90625 29.4791 5.90625 28.875C5.90625 28.2709 6.39603 27.7812 7 27.7812H22.9688C23.5727 27.7812 24.0625 28.2709 24.0625 28.875C24.0625 29.4791 23.5728 29.9688 22.9688 29.9688Z" fill="#CD8C5D"/>
</svg>
