<svg width="25" height="30" viewBox="0 0 25 30" xmlns="http://www.w3.org/2000/svg">
<path d="M1 3.88638V26.1136C1 27.7404 2.83874 28.6866 4.16248 27.7411L19.7215 16.6275C20.8382 15.8298 20.8382 14.1702 19.7215 13.3725L4.16248 2.25891C2.83874 1.31339 1 2.25963 1 3.88638Z" fill="#FFF5D2"/>
<path d="M7.16248 2.25887L6.87186 2.66574L6.87186 2.66574L7.16248 2.25887ZM22.7215 13.3725L23.0122 12.9656L23.0122 12.9656L22.7215 13.3725ZM22.7215 16.6274L22.4309 16.2206L22.4309 16.2206L22.7215 16.6274ZM7.16248 27.741L7.4531 28.1479L7.4531 28.1479L7.16248 27.741ZM4.16248 2.25887L3.87186 2.66574L3.87186 2.66574L4.16248 2.25887ZM19.7215 13.3725L20.0122 12.9656L20.0122 12.9656L19.7215 13.3725ZM19.7215 16.6274L19.4309 16.2206L19.4309 16.2206L19.7215 16.6274ZM4.16248 27.741L4.4531 28.1479L4.4531 28.1479L4.16248 27.741ZM4.5 26.1136V3.88634H3.5V26.1136H4.5ZM6.87186 2.66574L22.4309 13.7794L23.0122 12.9656L7.4531 1.852L6.87186 2.66574ZM22.4309 16.2206L6.87186 27.3342L7.4531 28.1479L23.0122 17.0343L22.4309 16.2206ZM22.4309 13.7794C23.2684 14.3776 23.2685 15.6223 22.4309 16.2206L23.0122 17.0343C24.408 16.0372 24.408 13.9627 23.0122 12.9656L22.4309 13.7794ZM4.5 3.88634C4.5 2.66628 5.87905 1.95659 6.87186 2.66574L7.4531 1.852C5.79842 0.670096 3.5 1.85291 3.5 3.88634H4.5ZM3.5 26.1136C3.5 28.147 5.79843 29.3298 7.4531 28.1479L6.87186 27.3342C5.87906 28.0433 4.5 27.3336 4.5 26.1136H3.5ZM1.5 26.1136V3.88634H0.5V26.1136H1.5ZM3.87186 2.66574L19.4309 13.7794L20.0122 12.9656L4.4531 1.852L3.87186 2.66574ZM19.4309 16.2206L3.87186 27.3342L4.4531 28.1479L20.0122 17.0343L19.4309 16.2206ZM19.4309 13.7794C20.2684 14.3776 20.2685 15.6223 19.4309 16.2206L20.0122 17.0343C21.408 16.0372 21.408 13.9627 20.0122 12.9656L19.4309 13.7794ZM1.5 3.88634C1.5 2.66628 2.87905 1.95659 3.87186 2.66574L4.4531 1.852C2.79842 0.670096 0.5 1.85291 0.5 3.88634H1.5ZM0.5 26.1136C0.5 28.147 2.79843 29.3298 4.4531 28.1479L3.87186 27.3342C2.87906 28.0433 1.5 27.3336 1.5 26.1136H0.5Z"/>
</svg>
