<svg width="31" height="33" viewBox="0 0 31 33" xmlns="http://www.w3.org/2000/svg">
<path d="M13.4522 27.976C12.9578 27.9891 12.3854 27.9891 11.7869 27.963H8.96377V26.7066L8.44338 26.4579C8.4694 25.8559 8.88571 26.0129 9.47115 26.0129L19.814 26.026C19.9701 26.1831 20.2043 26.4972 20.3474 26.6935L21.0109 27.1515C20.9848 27.1123 21.2841 27.4787 21.2971 28.0284C21.2971 28.0546 21.2971 28.1331 21.2971 28.2378C20.4124 28.6304 19.7879 29.2717 18.4609 30.2009C18.4349 30.2271 18.3959 30.2533 18.3439 30.2664C18.0837 29.8868 17.6673 29.5073 17.3811 29.2194C16.4444 28.4865 15.4427 28.0284 13.4522 27.976ZM8.49542 27.963H8.2092C8.2092 27.1777 8.3393 27.1385 7.8059 26.7066C7.49366 25.6596 7.85793 25.7774 7.89696 25.0576C7.72784 24.822 7.40259 24.5733 7.18142 24.3377C6.86919 24.0367 6.50491 23.4871 6.32278 23.0683C6.07559 22.2438 5.86743 21.9427 5.81539 20.8827L5.52918 21.1706C5.43811 21.2753 5.4251 21.3015 5.30801 21.4323C5.13888 21.6156 5.0348 21.7464 4.85266 21.9427C4.02004 22.8065 2.52391 24.0367 2.08157 25.0314C1.5872 26.1307 1.8474 27.3871 2.52391 27.9891C3.10935 28.5257 3.03129 28.2116 3.3045 29.1932L3.34353 29.311C3.27848 29.3371 3.22644 29.3502 3.16139 29.3371C3.10935 29.3371 3.0443 29.3371 2.97925 29.3241C2.94022 29.2717 2.92721 29.2063 2.90119 29.1408C2.73206 28.6042 2.86216 28.7089 2.49789 28.4472C2.27672 28.2771 2.1206 28.1069 1.96448 27.8713C0.520393 25.6465 2.49789 23.6834 4.08509 22.3092C4.5014 21.9427 5.89345 20.5816 6.02355 20.032C6.15365 21.5763 6.16666 22.3354 7.19443 23.7881C7.38958 24.0498 7.55871 24.2461 7.76687 24.4424C8.8727 25.4763 7.98803 25.0052 8.04007 26.0915C8.06609 26.6673 8.27425 26.6019 8.49542 26.9029V27.963ZM2.69303 29.2848C2.14662 29.1932 1.39205 29.0361 1.17088 29.1408C1.00176 29.2717 0.975737 29.7036 0.910688 29.9653C0.845639 30.2664 0.78059 30.5543 0.71554 30.8553C0.273206 30.9469 0.0390295 30.7898 0 31.0647L0.0260197 31.6536L6.01054 32.9493L6.03656 32.9231C6.07559 32.9624 6.03656 32.9493 6.15365 32.9885C6.33578 33.054 11.2275 32.8184 11.4486 32.8053C13.296 32.753 15.1044 32.6483 16.9388 32.5697C17.3681 32.5567 17.6153 32.753 18.1357 32.7791C18.591 32.8053 19.0464 32.7661 19.4497 32.6352C20.2173 32.3865 22.455 32.3603 24.2633 32.3342C25.6424 32.3473 27.5808 32.2949 29.9356 32.1509L30.6511 32.1248C30.7292 31.9285 30.7032 31.5489 30.6642 31.3395L30.3129 31.3133V31.261C29.8575 28.7875 30.0657 28.9445 29.3111 29.0885C29.168 28.6959 28.7647 28.421 29.155 27.675C29.5453 26.9291 31.6139 25.7904 30.8203 23.3169C29.7665 20.0451 25.8375 19.9404 25.4732 15.9487C25.6294 15.7524 25.9286 15.5692 25.7985 15.0849C25.6554 14.5614 25.5123 15.1373 25.5253 14.1034C25.5253 13.2527 25.5123 12.4151 25.5253 11.5644H26.3579C26.514 11.7869 26.3319 11.7345 26.6311 11.8392C26.8263 11.7345 26.9954 11.5906 26.9954 11.2241C26.9954 10.8184 26.8393 10.8053 26.6571 10.5959C26.436 10.6875 26.436 10.7661 26.4099 10.7922C26.3969 10.8053 26.3839 10.8315 26.3839 10.8446C26.3709 10.8446 26.3709 10.8708 26.3579 10.8839H25.5253V9.71907C25.5383 9.70598 25.5643 9.66672 25.5643 9.67981L25.7855 9.44423C25.5513 8.92074 24.8488 8.89456 24.5886 9.44423L24.8227 9.6929C24.8227 9.6929 24.8488 9.70598 24.8618 9.71907V10.8839H23.9771C23.769 10.5698 23.9511 10.7006 23.769 10.609C23.2095 10.9362 23.2225 11.5906 23.769 11.8392C23.9381 11.7607 23.808 11.8654 23.9251 11.656C23.9381 11.656 23.9511 11.6298 23.9511 11.6167C23.9511 11.6037 23.9641 11.5775 23.9771 11.5644H24.8618V14.3782C24.8618 14.7577 24.9008 14.6007 24.7447 14.8101C24.5626 15.0326 24.3804 15.2681 24.6146 15.6346C24.8488 16.001 24.9398 15.7524 24.8097 16.4591C24.7577 16.7994 24.6926 17.0873 24.5756 17.3883C24.3934 17.9118 24.0682 18.4877 23.7039 18.7625C23.5218 17.4668 22.3379 16.0796 21.6223 15.5037C19.827 14.051 17.3941 12.3366 16.1972 10.2687C15.95 9.83686 15.5077 8.92074 15.4947 8.30563C15.4817 7.96535 15.846 8.00462 15.872 7.45494C15.885 6.99688 15.6118 6.80057 15.3906 6.565V2.93978H16.3534C16.5485 2.97904 16.3403 3.08374 16.6396 3.24079C17.4722 2.87434 17.0559 1.98439 16.7827 1.86661C16.4444 1.74882 16.5355 1.97131 16.4184 2.15453H15.4297L15.3906 0.741087L15.7289 0.557863C15.5207 -0.175034 14.519 -0.201209 14.2978 0.57095L14.6491 0.741087L14.6361 2.15453C13.257 2.15453 13.6343 2.20688 13.5172 1.84043C13.27 1.85352 13.1659 1.89278 13.0489 2.07601C12.9188 2.25923 12.8797 2.46863 12.9318 2.73038C12.9708 2.86125 13.0749 3.08374 13.205 3.16226C13.4652 3.30623 13.5042 3.14918 13.5562 3.08374L14.6361 2.93978L14.6491 6.57809C13.5562 7.18011 14.3759 8.05697 14.4019 8.1224C14.6881 8.86839 13.27 10.7006 12.8277 11.2372C11.2405 13.1611 7.22045 16.3806 6.94725 17.3098C6.56996 17.1135 6.67404 17.048 6.68705 16.4984C6.68705 16.1843 6.70006 15.844 6.67404 15.543L6.68705 14.1688C8.11813 14.1557 7.32453 14.1688 7.76687 14.4175C8.30027 14.195 8.35231 13.449 7.76687 13.2134C7.32453 13.4359 8.13114 13.5275 6.68705 13.4752C6.68705 11.499 6.71307 12.5067 6.96026 12.0486C6.7521 11.499 6.01054 11.4466 5.75034 12.0486C6.01054 12.4936 6.01054 11.656 6.01054 13.4883H5.17791C4.98276 13.2265 5.17791 13.3574 4.98276 13.2134C4.3713 13.3705 4.38431 14.2342 4.98276 14.4175L5.17791 14.1557H6.01054V17.1135C5.08684 18.0689 6.23171 17.7155 5.84141 19.0112C4.85266 22.3223 -0.195147 23.8535 1.22292 27.4002C1.39205 27.819 1.70429 28.264 2.02953 28.5781C2.14662 28.6828 2.40682 28.9576 2.69303 29.2848ZM27.815 29.0361C27.1515 28.8529 26.5661 28.4603 25.7855 28.1724L28.6216 28.0677C28.5696 28.6042 28.7257 28.6697 28.8688 29.0361C28.5566 29.0361 28.1923 29.0361 27.815 29.0361ZM6.24472 15.1242L6.25773 13.9332L5.04781 13.9201L4.94373 14.2342C4.59247 13.9332 4.65752 13.7893 4.82665 13.4097C5.06082 13.4883 4.82665 13.3574 4.94373 13.5144L5.02179 13.6453C5.0348 13.6453 5.0348 13.6715 5.04781 13.6846H6.25773V12.101L5.93248 11.9701C6.24472 11.6953 6.37481 11.7345 6.73909 11.9047C6.58297 12.4543 6.47889 11.1718 6.47889 13.6846C7.53269 13.6846 7.48065 13.8024 7.77988 13.5144C7.89696 13.4228 7.68881 13.4883 7.89696 13.4228C8.10512 13.8024 8.05308 13.9201 7.84492 14.2342C7.72784 14.1034 7.79289 14.1557 7.70182 13.9201H6.4919L6.47889 15.399L6.40083 17.048C6.17967 16.9564 6.24472 17.048 6.24472 16.6423V15.1242ZM29.0379 21.6156C29.6754 22.2961 30.7422 23.4347 30.2999 24.9921C30.0137 25.9737 29.194 26.7589 28.2964 27.1515L27.828 27.2955C26.475 27.6227 24.7967 27.6227 23.3656 27.4526C21.9346 27.2824 20.9068 26.6411 20.3604 25.6857C19.1895 23.6441 20.7247 22.2045 21.9866 20.9481C22.1948 20.7387 22.4029 20.6078 22.6241 20.4115C23.4437 19.6524 24.4194 18.841 24.8618 17.8725C24.9789 17.5977 25.0569 17.2444 25.187 16.9826C26.1237 19.43 26.9694 19.6917 29.0379 21.6156ZM8.44338 24.5864C11.6308 24.5733 16.2493 24.4948 19.3976 24.5864C19.4107 25.0706 19.4757 25.267 19.6188 25.6203L8.44338 25.6072C8.72959 25.1623 8.78163 25.0183 8.44338 24.5864ZM15.4166 9.74525C15.5077 9.83686 15.6508 10.2295 15.7679 10.4389C16.3664 11.5251 18.4609 13.6846 19.2155 14.1295C20.8417 15.5037 22.6501 16.4068 22.3249 18.9588C22.1948 20.0058 21.2971 20.8957 20.7637 21.4323C19.866 22.3485 19.7099 22.885 19.4107 23.8273C19.3586 23.9844 19.3846 23.9059 19.3456 23.9844C18.1097 24.0498 11.4226 24.0367 10.3558 23.8928C8.98979 23.7095 8.00104 23.1991 7.4156 22.3223C6.80414 21.4192 6.46588 19.9665 6.85618 18.7363C7.05133 18.1212 7.29851 17.6893 7.59774 17.2182C8.24823 16.2366 10.0696 14.6399 10.9543 13.8154C11.6308 13.1872 13.6213 11.0933 14.1287 10.2164C14.4539 9.62746 14.6751 8.96 14.9873 8.84221C15.2085 9.01235 15.3386 9.44423 15.4166 9.74525ZM6.17967 17.5584C5.98452 17.4537 6.28375 17.6108 6.0886 17.5061L5.99753 17.4537C6.19268 17.2705 6.55695 17.2705 6.68705 17.5454C6.73909 17.6631 6.56996 17.9772 6.45287 18.0558C6.45287 17.7678 6.45287 17.7024 6.17967 17.5584ZM25.6033 15.4252C25.4082 15.6608 25.5773 15.5692 25.3041 15.6739C25.3822 15.2289 25.2911 15.1111 24.8878 15.0195C25.2 14.653 25.5903 14.9017 25.6033 15.4252ZM25.0699 11.1194V9.50967C24.6406 9.49658 24.8618 9.56202 24.7837 9.35262C25.0439 9.07779 25.3692 9.22175 25.6033 9.36571C25.5123 9.56202 25.6424 9.49658 25.3041 9.50967V11.1063H26.488C26.6701 10.7661 26.501 10.8839 26.6962 10.8184C26.8913 11.1718 26.9303 11.2896 26.6962 11.6298C26.514 11.5644 26.5921 11.5251 26.488 11.355H25.3041C25.3041 11.9308 25.3041 12.5067 25.3041 13.0695V14.3782C25.2781 14.7185 25.3561 14.5483 25.2 14.6399C25.0049 14.5614 25.0699 14.6661 25.0569 14.3128L25.0699 11.355H23.899C23.899 11.3681 23.886 11.3943 23.886 11.4074L23.7039 11.6167C23.3917 11.3288 23.5088 11.054 23.6779 10.8053C23.9381 10.9362 23.808 11.2241 23.886 11.054C23.886 11.0409 23.899 11.0933 23.899 11.1063L25.0699 11.1194ZM15.0524 7.95227C15.3516 7.10158 14.8702 7.15393 14.6621 6.91836C15.4947 6.55191 15.95 7.78213 15.0524 7.95227ZM14.8963 0.610213C14.7401 0.505513 14.7792 0.57095 14.7141 0.531688C14.545 0.440076 14.6361 0.584038 14.558 0.400813C14.8182 0.0867149 15.2215 0.0998023 15.4687 0.400813C15.3906 0.610213 15.3516 0.466251 15.1434 0.610213V2.37702L16.5485 2.3901L16.6916 2.04983C17.0429 2.31158 17.0949 2.78273 16.6916 3.00521L16.6135 2.8089C16.5745 2.71729 16.5875 2.73038 16.5485 2.66494L15.1434 2.69112C15.1434 3.28005 15.2345 6.26399 15.0524 6.49956C14.8442 6.42104 14.8963 6.55191 14.8963 6.15929V2.66494H13.4912C13.3871 2.83508 13.4782 2.67803 13.4131 2.86125L13.3481 3.00521C12.9448 2.79581 12.9838 2.27232 13.3481 2.04983L13.4912 2.3901L14.8963 2.36393V0.610213ZM7.44162 27.963H7.40259C7.24647 27.963 6.99929 27.976 6.79113 27.9499H5.9585C5.85442 28.0153 5.39908 28.0807 5.20393 28.1724C4.86567 28.3163 4.41033 28.6697 3.99402 28.9576C3.87693 28.722 3.74683 28.4995 3.66877 28.421C3.38255 28.1069 2.08157 27.8321 2.3808 26.1569C2.54993 25.267 3.33052 24.4294 3.79887 23.8797C4.70956 22.8065 4.6315 22.7934 5.36005 21.7857C5.45112 24.5079 5.91947 23.9844 6.92123 25.8951C7.23346 26.5103 7.45463 27.2432 7.44162 27.963ZM18.4219 31.7321L18.9033 31.9415C18.7472 31.9546 18.578 31.9677 18.4219 31.9808C18.1747 31.9808 18.0186 31.9415 17.7844 31.9023C17.7974 31.8238 17.7584 31.9023 17.8105 31.8238C18.0446 31.7714 18.1617 31.7321 18.4219 31.7321ZM19.5928 31.8892L18.7472 31.261C19.9831 29.2586 21.3751 28.1985 23.899 28.2771C25.122 28.3032 25.7464 28.6435 26.6571 29.0492C28.0882 29.7036 28.0882 29.6382 29.5193 29.5204L29.8445 31.3264C29.7275 31.6144 29.4282 31.4442 29.0249 31.4704C27.1125 31.562 25.6294 31.6536 24.5235 31.7452C22.9363 31.8107 21.219 31.7976 19.5928 31.8892ZM18.1877 31.2872C17.6804 31.3264 17.4982 31.4835 17.1209 31.706C16.8998 31.8368 16.0151 31.8107 15.7029 31.8238C14.7271 31.8499 13.7774 31.9415 12.8147 31.9546C10.8762 31.9939 8.91173 32.1902 6.97327 32.2164C7.0123 31.5882 7.24647 30.9338 7.36356 30.358L7.90997 30.4103C8.3393 30.4496 8.69056 30.3972 9.08086 30.2925C9.35406 30.214 9.9265 29.9261 10.0436 29.913C10.1477 29.8083 10.642 29.5335 10.8112 29.4288C12.6846 28.3163 14.7401 27.976 16.6266 29.2063C17.264 29.6905 18.1617 30.4103 18.1877 31.2872ZM6.4919 32.0593L6.42685 32.2556C5.88044 32.2818 1.17088 31.1694 1.13185 31.1432C1.15787 30.7768 1.37904 30.3056 1.34001 29.9915C1.37904 29.9392 1.34001 30.0308 1.39205 29.8999L1.44409 29.7167C1.49613 29.5858 1.47011 29.6512 1.52215 29.5989C2.02953 29.5989 2.7841 29.7559 3.3045 29.8345C4.44936 30.0046 5.71131 30.1486 6.86919 30.2925L6.4919 32.0593ZM11.6698 28.4995L11.6958 28.4734C10.7851 28.722 9.75737 29.7298 8.72959 29.8868C8.59949 29.9784 8.02706 29.9392 7.79289 29.9261C6.92123 29.7036 4.35829 29.5596 4.16314 29.4026C4.52742 29.1147 5.06082 28.7089 5.49015 28.5519C6.02355 28.3556 6.85618 28.421 7.49366 28.421C8.2092 28.421 8.92474 28.421 9.64028 28.421C9.99155 28.421 10.3558 28.421 10.7071 28.421C10.9283 28.421 11.6828 28.3687 11.6698 28.4995Z M21.752 21.6025C21.2836 22.0867 20.9193 22.4139 20.5681 23.0944C19.5533 25.0444 21.1145 26.7589 23.066 27.1253C23.9246 27.2955 25.5248 27.3347 26.4095 27.1908C28.5561 27.073 30.8068 25.3062 29.5318 23.0159C29.0895 22.2306 27.086 20.0843 26.6046 19.8618C26.9689 20.8041 29.6359 23.1991 27.9967 25.5679C27.6064 26.1438 27.1771 26.3925 26.5136 26.6149C24.8613 27.0337 23.2091 26.772 22.5586 25.581C22.2463 24.979 22.1943 24.1022 22.4155 23.3693C22.6236 22.6887 23.0009 22.2045 23.2741 21.6679C23.5603 21.3014 23.8986 20.6994 24.1198 20.2937C24.393 19.7964 24.5751 19.3645 24.7182 18.7625V18.6316L24.6532 18.6578C24.2108 19.1551 24.3539 19.2336 23.5343 19.9796C22.9229 20.5293 22.3374 21.0135 21.752 21.6025Z M20.4243 20.9743C21.4521 19.7964 22.4279 18.7887 21.5172 17.0088C21.2179 16.3937 21.0228 16.2628 20.6195 15.8571C20.2942 15.5692 18.2257 13.8154 18.0826 13.7631C18.5249 14.8624 19.4486 15.543 19.956 17.1396C20.1902 17.8333 20.3073 18.8934 20.0471 19.5739C19.969 19.9796 19.7739 20.333 19.6047 20.634C19.3445 21.1182 18.9412 21.6025 18.5379 21.9558C15.988 24.233 8.85862 23.8142 9.80834 18.7363C10.2767 16.9957 11.4346 15.7 12.3322 14.5483C13.1909 13.449 14.3748 11.9047 14.5829 10.1248C14.5439 9.90231 14.5829 10.0332 14.3358 10.4782C14.2317 10.6745 14.1406 10.8053 13.9975 11.0147C12.3583 13.593 8.18211 16.1974 7.32346 18.684C6.68598 20.5424 7.45356 22.6233 9.53513 23.3169C10.8101 23.7488 12.5144 23.6179 13.9975 23.6179C15.5977 23.6179 17.2239 23.631 18.8241 23.6179C18.9933 23.3562 19.0713 22.8196 19.4486 22.2568C19.7608 21.7726 20.034 21.4323 20.4243 20.9743Z"/>
</svg>
