<svg width="20" height="22" viewBox="0 0 20 22" fill="none" xmlns="http://www.w3.org/2000/svg">
<path d="M4.5 10.58C9.7 9.908 16.6667 3.58 19.5 0.5L11 10.58L19.5 21.5C16.1667 18.14 8.5 11.252 4.5 10.58Z" fill="#CD8C5D"/>
<path fill-rule="evenodd" clip-rule="evenodd" d="M15.8305 0.124806C16.0346 0.304556 16.0575 0.614437 15.8822 0.822329L7.64342 10.5926L15.8946 21.1929C16.057 21.4016 16.0288 21.7007 15.8302 21.8754C15.6316 22.0501 15.3313 22.0399 15.145 21.8521C13.4895 20.1833 10.7549 17.6358 7.94111 15.4252C6.53411 14.3198 5.11518 13.3048 3.80697 12.527C2.48851 11.7431 1.32387 11.2254 0.417162 11.0731C0.172821 11.032 -0.0046071 10.8182 9.11479e-05 10.5705C0.00478936 10.3228 0.190197 10.1159 0.435919 10.0841C2.89949 9.76576 5.85273 8.08574 8.58828 6.04242C11.3058 4.0126 13.7331 1.68224 15.132 0.161493C15.3161 -0.0386443 15.6264 -0.0549427 15.8305 0.124806ZM2.37864 10.6558C3.00011 10.9263 3.65243 11.2717 4.31803 11.6675C5.67649 12.4752 7.13256 13.5182 8.5589 14.6388C9.48435 15.3659 10.4006 16.1283 11.2735 16.8842L6.60544 10.8871C6.46036 10.7007 6.4655 10.4382 6.61776 10.2577L10.0637 6.17126C9.77537 6.3979 9.48276 6.62246 9.18672 6.84359C7.024 8.45903 4.631 9.9275 2.37864 10.6558Z" fill="#522100"/>
</svg>
