<svg width="16" height="16" viewBox="0 0 16 16" xmlns="http://www.w3.org/2000/svg">
<path d="M2.05368 0H13.9465C15.0759 0 16 0.836183 16 2.05349V13.9465C16 15.1638 15.0759 16 13.9465 16H2.05368C0.923917 16 0 15.1638 0 13.9465V2.05349C0 0.836183 0.923917 0 2.05368 0ZM11.6554 1.77767C11.2592 1.77767 10.9354 2.10163 10.9354 2.49803V4.22215C10.9354 4.61839 11.2592 4.94251 11.6554 4.94251H13.4638C13.8601 4.94251 14.1842 4.61839 14.1842 4.22215V2.49803C14.1842 2.10163 13.8601 1.77767 13.4638 1.77767H11.6554ZM14.1918 6.76634H12.7835C12.9168 7.20136 12.9889 7.66216 12.9889 8.1389C12.9889 10.8002 10.7619 12.9575 8.01528 12.9575C5.26883 12.9575 3.04216 10.8002 3.04216 8.1389C3.04216 7.66183 3.11411 7.20119 3.24751 6.76634H1.77802V13.525C1.77802 13.8747 2.06419 14.1611 2.41411 14.1611H13.556C13.9059 14.1611 14.1921 13.8749 14.1921 13.525L14.1918 6.76634ZM8.01511 4.85167C6.24055 4.85167 4.80177 6.24558 4.80177 7.96526C4.80177 9.68493 6.24055 11.0788 8.01511 11.0788C9.78984 11.0788 11.2288 9.68493 11.2288 7.96526C11.2288 6.24558 9.79001 4.85167 8.01511 4.85167Z"/>
</svg>
