<svg width="284" height="256" viewBox="0 0 284 256" fill="none" xmlns="http://www.w3.org/2000/svg">
<path fill-rule="evenodd" clip-rule="evenodd" d="M142.5 240C200.766 240 248 192.766 248 134.5C248 76.234 200.766 29 142.5 29C84.234 29 37 76.234 37 134.5C37 192.766 84.234 240 142.5 240ZM77.1291 182.209C76.7133 182.144 76.2744 182.073 75.8243 182C73.207 181.575 70.2146 181.089 69.236 181.518C68.5877 181.982 68.3449 183.236 68.1261 184.365L68.1259 184.367C68.0488 184.765 67.9746 185.147 67.8868 185.475C67.718 186.197 67.5493 186.904 67.3806 187.611C67.212 188.317 67.0434 189.024 66.8748 189.746C66.0385 189.906 65.3457 189.907 64.7931 189.909C63.8301 189.911 63.293 189.912 63.1644 190.75L63.2993 193.577L94.332 199.794L94.4669 199.669C94.5442 199.741 94.5624 199.776 94.5893 199.803C94.6328 199.846 94.6987 199.866 95.0741 199.983C96.0185 200.297 121.384 199.166 122.531 199.104C128.893 198.937 135.166 198.659 141.449 198.381L141.451 198.381L141.453 198.381C144.629 198.24 147.807 198.1 151 197.973C152.143 197.941 153.037 198.174 154.002 198.425C154.916 198.662 155.894 198.917 157.207 198.978C159.568 199.104 161.929 198.915 164.02 198.287C167.902 197.123 179.035 196.975 188.282 196.852L188.981 196.843C196.132 196.905 206.184 196.654 218.395 195.963L222.105 195.838C222.51 194.896 222.375 193.074 222.173 192.069L220.351 191.944V191.692C219.904 189.444 219.58 187.648 219.323 186.22C218.684 182.676 218.451 181.388 217.752 181.041C217.352 180.842 216.8 180.95 215.933 181.12C215.699 181.166 215.441 181.217 215.157 181.267C214.982 180.823 214.732 180.41 214.479 179.992C213.657 178.635 212.801 177.22 214.347 174.484C214.834 173.622 215.826 172.651 216.993 171.508C220.675 167.902 226.107 162.582 222.982 153.569C220.535 146.536 215.096 142.553 209.667 138.576C202.975 133.675 196.298 128.785 195.255 118.21C195.401 118.041 195.57 117.874 195.745 117.7C196.55 116.906 197.496 115.972 196.942 114.065C196.652 113.082 196.362 112.906 196.12 112.76C195.743 112.532 195.484 112.375 195.525 109.354C195.525 107.994 195.518 106.64 195.51 105.289L195.51 105.281C195.495 102.58 195.48 99.889 195.525 97.1697H199.843C200.152 97.5776 200.205 97.793 200.24 97.9315C200.295 98.1555 200.301 98.1782 201.26 98.4887C202.272 97.9862 203.149 97.2953 203.149 95.5368C203.149 94.0635 202.685 93.6691 202.05 93.129C201.846 92.9553 201.624 92.7666 201.395 92.5221C200.483 92.8714 200.296 93.181 200.19 93.3565C200.163 93.4019 200.141 93.4384 200.113 93.4642C200.045 93.527 199.978 93.6526 199.978 93.7154C199.94 93.7154 199.923 93.755 199.904 93.8009C199.889 93.8367 199.873 93.8763 199.843 93.9038H195.525V88.3141C195.548 88.2934 195.577 88.2589 195.607 88.2243L195.608 88.2234C195.668 88.1536 195.728 88.0838 195.728 88.1257L196.875 86.9952C195.66 84.483 192.017 84.3573 190.668 86.9952L191.882 88.1885C191.882 88.1885 192.017 88.2513 192.085 88.3141V93.9038H187.497C186.969 93.1665 186.926 92.9401 186.908 92.8498C186.904 92.829 186.902 92.8154 186.895 92.8044C186.882 92.7838 186.854 92.7725 186.774 92.74C186.704 92.7115 186.594 92.6667 186.418 92.5849C183.517 94.1551 183.585 97.2954 186.418 98.4887C186.65 98.389 186.773 98.3508 186.841 98.33C186.889 98.3152 186.908 98.3092 186.918 98.296C186.925 98.287 186.927 98.2747 186.931 98.2539C186.944 98.1864 186.973 98.0298 187.227 97.6094C187.295 97.6094 187.362 97.4838 187.362 97.421C187.362 97.3582 187.43 97.2325 187.497 97.1697H192.085V110.673C192.085 111.06 192.094 111.331 192.101 111.527C192.111 111.833 192.115 111.958 192.069 112.058C192.037 112.126 191.982 112.183 191.89 112.279C191.796 112.377 191.664 112.515 191.478 112.746C190.533 113.813 189.589 114.944 190.803 116.702C191.153 117.209 191.441 117.471 191.659 117.668C192.194 118.154 192.295 118.245 191.815 120.659C191.545 122.292 191.208 123.674 190.601 125.118C189.656 127.631 187.97 130.394 186.081 131.713C185.136 125.495 178.997 118.838 175.287 116.074C173.857 115.004 172.349 113.903 170.799 112.772C162.253 106.536 152.408 99.3514 147.155 90.952C145.873 88.8794 143.579 84.483 143.512 81.5311C143.481 80.7934 143.85 80.4274 144.276 80.0047C144.793 79.4916 145.394 78.8949 145.468 77.4487C145.526 75.5645 144.494 74.6032 143.475 73.6551C143.306 73.4972 143.136 73.3393 142.972 73.1779V55.7807H147.964C148.424 55.8663 148.452 56.0166 148.492 56.2259C148.539 56.4774 148.602 56.8139 149.449 57.2252C153.766 55.4667 151.607 51.1959 150.191 50.6306C148.952 50.2315 148.824 50.6464 148.641 51.2343C148.565 51.4791 148.48 51.7539 148.302 52.0124H143.175L142.972 45.2293L144.726 44.35C143.647 40.8329 138.452 40.7073 137.305 44.4128L139.127 45.2293L139.059 52.0124C138.134 52.0124 137.361 52.0166 136.716 52.0201C134.267 52.0334 133.648 52.0368 133.48 51.7629C133.423 51.6703 133.417 51.546 133.41 51.3796C133.4 51.1653 133.388 50.8811 133.258 50.505C131.976 50.5678 131.436 50.7562 130.829 51.6355C130.154 52.5148 129.952 53.5197 130.222 54.7758C130.424 55.4039 130.964 56.4716 131.639 56.8484C132.789 57.4375 133.106 56.9762 133.341 56.6329C133.369 56.5931 133.395 56.5545 133.421 56.5197C133.434 56.5028 133.447 56.4867 133.46 56.4716L139.059 55.7807L139.127 73.2407C134.062 75.8231 136.92 79.4594 137.68 80.4264C137.77 80.5413 137.831 80.6185 137.845 80.6518C139.329 84.2317 131.976 93.0246 129.682 95.5996C126.007 99.7218 119.818 105.083 113.965 110.153C106.71 116.438 99.9734 122.273 99.1893 124.741C97.6298 123.991 97.6563 123.639 97.7654 122.191C97.7932 121.822 97.8263 121.383 97.84 120.848C97.84 120.475 97.8442 120.094 97.8483 119.711V119.707C97.861 118.542 97.874 117.349 97.7725 116.263L97.84 109.668C102.614 109.628 102.614 109.639 102.617 109.97C102.618 110.154 102.621 110.436 103.439 110.861C106.205 109.794 106.475 106.214 103.439 105.083C102.618 105.465 102.627 105.767 102.633 105.985C102.645 106.377 102.648 106.501 97.84 106.339C97.84 100.047 97.8994 100.059 98.3137 100.137C98.5239 100.176 98.8253 100.233 99.2567 99.4935C98.1773 96.8557 94.332 96.6045 92.9827 99.4935C93.406 100.163 93.6965 100.228 93.8958 100.272C93.953 100.284 94.0027 100.295 94.0459 100.318C94.332 100.472 94.332 101.159 94.332 106.402H90.0144C89.5084 105.774 89.5084 105.617 89.5084 105.531C89.5084 105.444 89.5084 105.429 89.0024 105.083C85.8317 105.837 85.8992 109.982 89.0024 110.861L90.0144 109.605H94.332V123.799C91.8003 126.223 92.2653 126.891 92.9675 127.901C93.5939 128.802 94.4091 129.975 93.455 132.906C91.3625 139.391 85.7642 144.453 80.3701 149.331C72.5471 156.405 65.1535 163.091 69.5059 173.165C70.3829 175.175 72.0019 177.31 73.6885 178.817C74.2957 179.32 75.6449 180.639 77.1291 182.209Z" fill="#E9B30F"/>
<path d="M132.541 176.559C130.003 176.675 127.119 176.675 124.005 176.444H109.586V170.093L106.933 168.823C107.048 165.821 109.24 166.513 112.123 166.513L164.955 166.629C165.763 167.437 166.916 169.054 167.724 169.977L171.069 172.287C170.954 172.056 172.453 173.903 172.569 176.79C172.569 176.905 172.569 177.367 172.569 177.829C168.07 179.792 164.84 183.025 158.034 187.759C157.919 187.875 157.688 187.99 157.457 188.106C156.073 186.143 153.997 184.295 152.497 182.794C147.883 179.099 142.692 176.79 132.541 176.559ZM107.279 176.444H105.779C105.779 172.402 106.471 172.287 103.703 170.093C102.088 164.781 103.933 165.359 104.164 161.664C103.357 160.509 101.626 159.239 100.473 157.969C98.8578 156.468 97.0122 153.697 96.0893 151.503C94.8205 147.346 93.7823 145.73 93.5516 140.418L92.052 141.919C91.5906 142.496 91.4752 142.612 90.8984 143.305C90.091 144.228 89.5142 144.921 88.5914 145.845C84.3233 150.233 76.71 156.468 74.4029 161.548C71.8652 167.091 73.2494 173.557 76.71 176.559C79.7092 179.33 79.2478 177.714 80.7474 182.679L80.9781 183.256C80.632 183.372 80.4013 183.487 80.0552 183.372C79.8245 183.372 79.4785 183.372 79.1324 183.256C78.9017 183.025 78.9017 182.679 78.7863 182.332C77.9789 179.561 78.5556 180.139 76.71 178.753C75.5565 177.945 74.749 177.021 73.9415 175.866C66.5589 164.551 76.71 154.62 84.7847 147.577C86.8611 145.73 94.013 138.802 94.7051 136.03C95.3972 143.882 95.3972 147.692 100.703 155.082C101.742 156.468 102.549 157.392 103.587 158.431C109.24 163.627 104.741 161.317 104.972 166.86C105.087 169.747 106.125 169.4 107.279 171.017V176.444ZM77.6328 183.256C74.8643 182.794 70.9423 181.986 69.9042 182.563C69.0967 183.256 68.866 185.45 68.5199 186.72C68.1738 188.221 67.8278 189.722 67.4817 191.223C65.1747 191.685 64.0211 190.877 63.7904 192.262L63.9058 195.265L94.4744 201.846L94.5898 201.731C94.8205 201.962 94.5898 201.846 95.1665 202.077C96.0894 202.424 121.121 201.269 122.159 201.153C131.618 200.923 140.846 200.345 150.19 199.999C152.382 199.883 153.651 200.922 156.304 201.038C158.611 201.153 160.918 200.922 162.994 200.345C166.916 199.075 178.336 198.96 187.565 198.844C194.601 198.96 204.522 198.613 216.518 197.92L220.21 197.805C220.556 196.766 220.44 194.918 220.325 193.764L218.479 193.648V193.417C216.172 180.831 217.21 181.64 213.404 182.332C212.712 180.369 210.635 178.984 212.596 175.173C214.557 171.363 225.17 165.59 221.132 153.004C215.711 136.377 195.639 135.799 193.794 115.593C194.601 114.554 196.101 113.63 195.409 111.205C194.716 108.549 193.909 111.436 194.024 106.24C194.024 101.968 193.909 97.6955 194.024 93.3078H198.292C199.1 94.4624 198.177 94.116 199.677 94.6933C200.715 94.116 201.522 93.4232 201.522 91.5758C201.522 89.4974 200.715 89.4974 199.792 88.3427C198.639 88.8046 198.639 89.1509 198.523 89.3819C198.408 89.4973 198.408 89.6128 198.408 89.6128C198.292 89.6128 198.292 89.7283 198.292 89.8438H194.024V83.955C194.14 83.8395 194.255 83.724 194.255 83.724L195.409 82.5694C194.255 79.9136 190.679 79.7982 189.295 82.5694L190.448 83.8395C190.448 83.8395 190.564 83.955 190.679 83.955V89.8438H186.18C185.142 88.2272 186.065 88.92 185.142 88.4581C182.258 90.0747 182.374 93.4232 185.142 94.6933C185.95 94.3469 185.373 94.8088 185.95 93.7696C186.065 93.7696 186.065 93.6541 186.065 93.5387C186.065 93.4232 186.18 93.3078 186.18 93.3078H190.679V107.626C190.679 109.589 190.91 108.78 190.102 109.819C189.18 110.974 188.257 112.129 189.41 113.976C190.564 115.824 191.025 114.554 190.448 118.133C190.218 119.865 189.872 121.366 189.295 122.867C188.372 125.523 186.757 128.41 184.796 129.795C183.873 123.214 177.875 116.17 174.184 113.283C165.071 105.894 152.613 97.2336 146.499 86.7261C145.23 84.5323 142.923 79.9136 142.923 76.796C142.807 75.064 144.768 75.295 144.884 72.5238C144.999 70.2145 143.5 69.1753 142.461 68.0206V49.6614H147.422C148.46 49.8924 147.306 50.3542 148.921 51.1625C153.189 49.315 150.998 44.8118 149.613 44.2345C147.883 43.6572 148.344 44.8118 147.768 45.7356H142.692L142.461 38.5766L144.192 37.6529C143.154 33.958 137.963 33.8425 136.924 37.7684L138.77 38.5766L138.655 45.7356C131.618 45.7356 133.579 45.9665 132.887 44.119C131.618 44.2345 131.041 44.35 130.465 45.2737C129.773 46.1974 129.657 47.2366 129.888 48.6222C130.119 49.315 130.58 50.4697 131.272 50.8161C132.656 51.5089 132.772 50.7006 133.118 50.4697L138.655 49.7769L138.77 68.2515C133.233 71.2536 137.386 75.7568 137.501 76.1032C139.001 79.9136 131.734 89.1509 129.426 91.9221C121.352 101.737 100.819 118.018 99.4346 122.752C97.4736 121.713 98.0504 121.366 98.0504 118.595C98.0504 116.978 98.1657 115.246 97.935 113.745L98.0504 106.817C105.318 106.702 101.28 106.817 103.587 108.087C106.356 106.933 106.587 103.122 103.587 101.968C101.28 103.122 105.433 103.584 98.0504 103.353C98.0504 93.3077 98.1657 98.3883 99.4346 96.0789C98.3964 93.3077 94.5898 93.0768 93.2055 96.0789C94.5898 98.3883 94.5898 94.116 94.5898 103.353H90.3217C89.2835 101.968 90.3217 102.661 89.2835 101.968C86.169 102.776 86.2843 107.164 89.2835 108.087L90.3217 106.702H94.5898V121.713C89.8603 126.562 95.7433 124.715 93.7823 131.296C88.7067 148.154 62.9829 155.891 70.2502 173.903C71.0577 175.982 72.6726 178.291 74.4029 179.908C74.8643 180.139 76.1332 181.524 77.6328 183.256ZM205.906 181.986C202.561 181.062 199.561 179.099 195.524 177.598L210.058 177.021C209.828 179.792 210.635 180.023 211.327 181.986C209.712 181.986 207.867 181.986 205.906 181.986ZM95.7433 111.321L95.8587 105.316L89.6296 105.201L89.0528 106.817C87.2072 105.316 87.5532 104.508 88.4761 102.661C89.6296 103.007 88.4761 102.43 89.0528 103.238L89.3989 103.931C89.5142 103.931 89.5142 104.046 89.5142 104.162H95.7433V96.0789L94.1284 95.3861C95.7433 94.0005 96.4354 94.2315 98.2811 95.0397C97.4736 97.8109 96.8968 91.3448 96.8968 104.046C102.318 104.046 101.972 104.623 103.587 103.238C104.164 102.776 103.126 103.122 104.164 102.776C105.202 104.739 104.972 105.316 103.933 106.933C103.357 106.24 103.703 106.586 103.241 105.316H97.0122L96.8968 112.822L96.5508 121.251C95.3973 120.789 95.7433 121.251 95.7433 119.172V111.321ZM212.135 144.228C215.365 147.692 220.786 153.466 218.595 161.433C217.095 166.398 212.942 170.439 208.328 172.402L205.906 173.095C198.985 174.712 190.448 174.712 183.181 173.903C175.914 173.095 170.608 169.747 167.839 164.897C161.841 154.505 169.685 147.231 176.145 140.88C177.183 139.841 178.221 139.148 179.374 138.109C183.527 134.298 188.487 130.142 190.794 125.176C191.371 123.791 191.833 121.943 192.409 120.673C197.254 133.144 201.522 134.529 212.135 144.228ZM107.048 159.355C123.313 159.239 146.845 158.893 162.994 159.355C163.11 161.779 163.34 162.819 164.148 164.551L107.048 164.435C108.432 162.241 108.778 161.548 107.048 159.355ZM142.577 83.955C143.038 84.4168 143.73 86.3798 144.422 87.5344C147.422 93.0768 158.149 104.046 162.071 106.24C170.377 113.168 179.605 117.787 177.99 130.719C177.298 136.03 172.799 140.534 170.031 143.305C165.417 147.923 164.609 150.695 163.11 155.429C162.879 156.237 162.994 155.775 162.764 156.237C156.419 156.583 122.275 156.468 116.853 155.775C109.932 154.851 104.856 152.196 101.857 147.808C98.7425 143.189 97.0122 135.799 98.9732 129.564C100.011 126.447 101.28 124.253 102.78 121.828C106.125 116.863 115.353 108.78 119.968 104.508C123.428 101.275 133.579 90.652 136.117 86.2643C137.732 83.2622 138.885 79.9136 140.5 79.3363C141.539 80.26 142.231 82.4539 142.577 83.955ZM95.3973 123.675C94.3591 123.098 95.974 123.906 94.9358 123.445L94.4744 123.214C95.5126 122.29 97.3582 122.29 98.0504 123.675C98.2811 124.253 97.4736 125.869 96.8968 126.216C96.7815 124.715 96.7815 124.368 95.3973 123.675ZM194.601 112.822C193.563 113.976 194.486 113.514 193.102 114.092C193.448 111.782 192.986 111.205 191.025 110.743C192.525 108.896 194.486 110.166 194.601 112.822ZM191.833 90.8829V82.8003C189.641 82.6848 190.794 83.0312 190.333 81.992C191.717 80.6064 193.332 81.2992 194.486 82.1075C194.024 83.1467 194.716 82.8003 192.986 82.8003V90.8829H198.985C199.907 89.151 199.1 89.7283 200.023 89.3819C201.061 91.2293 201.176 91.8067 200.023 93.5387C199.1 93.1923 199.446 92.9613 198.985 92.1531H192.986C192.986 95.0397 192.986 98.0419 192.986 100.813V107.51C192.871 109.242 193.217 108.318 192.409 108.896C191.371 108.549 191.717 109.011 191.717 107.279L191.833 92.2685H185.834C185.834 92.384 185.719 92.4995 185.719 92.4995L184.796 93.5387C183.181 92.0376 183.758 90.652 184.681 89.3819C186.065 90.0747 185.373 91.4603 185.719 90.652C185.719 90.5366 185.834 90.8829 185.834 90.8829H191.833ZM140.731 74.8331C142.231 70.5609 139.808 70.7918 138.77 69.6371C143.038 67.6742 145.345 74.0248 140.731 74.8331ZM139.924 37.5374C139.116 36.9601 139.347 37.3065 139.001 37.191C138.193 36.7292 138.655 37.422 138.193 36.4982C139.578 34.8817 141.539 34.9972 142.807 36.4982C142.461 37.5374 142.231 36.8446 141.193 37.5374V46.5438L148.344 46.6593L149.037 44.9273C150.882 46.3129 151.113 48.6222 149.037 49.7769L148.69 48.7377C148.46 48.2758 148.575 48.3913 148.344 48.0449L141.193 48.1604C141.193 51.1625 141.654 66.2886 140.731 67.5587C139.693 67.2123 139.924 67.7897 139.924 65.8267V48.0449H132.772C132.195 48.8531 132.656 48.1604 132.426 49.0841L132.08 49.7769C130.003 48.7377 130.234 46.082 132.08 44.9273L132.772 46.6593L139.924 46.5438V37.5374ZM101.857 176.444H101.626C100.819 176.444 99.55 176.559 98.5118 176.328H94.2437C93.667 176.675 91.3599 177.021 90.437 177.483C88.7067 178.176 86.3997 180.023 84.208 181.524C83.6312 180.369 82.9391 179.215 82.593 178.753C81.0934 177.136 74.5183 175.751 76.0179 167.206C76.8253 162.703 80.8627 158.431 83.2851 155.66C87.8993 150.233 87.5532 150.117 91.2445 145.037C91.7059 158.893 94.1284 156.237 99.2039 165.936C100.819 169.169 101.972 172.864 101.857 176.444ZM157.919 195.611L160.341 196.65C159.534 196.766 158.726 196.766 157.919 196.881C156.65 196.881 155.842 196.65 154.689 196.535C154.804 196.188 154.574 196.535 154.804 196.188C155.958 195.842 156.65 195.611 157.919 195.611ZM163.917 196.419L159.649 193.186C165.993 183.025 173.03 177.598 185.95 178.06C192.179 178.176 195.409 179.908 200.023 181.986C207.29 185.335 207.29 184.988 214.673 184.411L216.288 193.533C215.711 195.034 214.211 194.11 212.135 194.225C202.33 194.687 194.832 195.149 189.18 195.611C180.989 196.073 172.223 195.957 163.917 196.419ZM156.765 193.417C154.227 193.648 153.189 194.456 151.344 195.496C150.19 196.188 145.691 196.073 144.076 196.073C139.116 196.188 134.271 196.65 129.311 196.766C119.391 196.997 109.355 197.92 99.4346 198.151C99.6653 194.918 100.819 191.685 101.396 188.683L104.164 188.914C106.356 189.145 108.201 188.799 110.162 188.337C111.547 187.99 114.431 186.489 115.123 186.374C115.699 185.796 118.122 184.411 119.045 183.949C128.619 178.291 139.116 176.559 148.69 182.794C152.036 185.219 156.65 188.914 156.765 193.417ZM97.0122 197.343L96.6661 198.382C93.8976 198.498 69.7888 192.84 69.6734 192.724C69.7888 190.877 70.9423 188.452 70.7116 186.836C70.9423 186.605 70.7116 187.067 70.9423 186.374L71.173 185.45C71.4038 184.757 71.2884 185.104 71.5191 184.873C74.0569 184.873 77.9789 185.681 80.632 186.027C86.515 186.836 92.9748 187.644 98.8579 188.337L97.0122 197.343ZM123.428 179.215L123.543 179.099C118.929 180.369 113.623 185.45 108.432 186.258C107.74 186.72 104.856 186.489 103.703 186.489C99.2039 185.335 86.169 184.642 85.1308 183.833C86.9764 182.332 89.7449 180.254 91.9367 179.561C94.7051 178.522 98.8578 178.868 102.203 178.868C105.894 178.868 109.47 178.868 113.162 178.868C115.007 178.868 116.853 178.868 118.583 178.868C119.737 178.868 123.543 178.522 123.428 179.215Z" fill="#522100"/>
<path d="M174.991 144.228C172.569 146.653 170.723 148.385 168.993 151.849C163.802 161.779 171.761 170.439 181.797 172.287C186.18 173.095 194.37 173.326 198.869 172.633C209.828 172.056 221.363 163.049 214.788 151.387C212.481 147.346 202.33 136.492 199.792 135.338C201.638 140.072 215.249 152.311 206.944 164.32C204.983 167.206 202.791 168.476 199.331 169.631C190.91 171.709 182.489 170.439 179.144 164.435C177.529 161.433 177.298 156.93 178.452 153.235C179.49 149.771 181.451 147.346 182.835 144.575C184.335 142.727 186.065 139.61 187.103 137.647C188.487 135.107 189.41 132.913 190.102 129.911V129.218L189.756 129.333C187.449 131.874 188.257 132.22 183.989 136.03C180.874 138.686 177.875 141.226 174.991 144.228Z" fill="#522100"/>
<path d="M168.185 140.995C173.376 134.991 178.452 129.911 173.722 120.904C172.223 117.787 171.184 117.094 169.108 115.015C167.493 113.514 156.881 104.623 156.188 104.393C158.496 109.935 163.11 113.399 165.763 121.597C166.916 125.177 167.608 130.488 166.224 133.952C165.878 136.03 164.84 137.762 163.917 139.379C162.533 141.804 160.572 144.344 158.496 146.076C145.461 157.623 109.124 155.544 113.969 129.68C116.392 120.789 122.275 114.207 126.889 108.434C131.272 102.891 137.271 95.0397 138.424 85.9179C138.193 84.7632 138.424 85.456 137.155 87.7654C136.578 88.8046 136.117 89.3819 135.425 90.5366C127.004 103.584 105.779 116.863 101.396 129.449C98.1657 138.917 102.088 149.424 112.7 153.004C119.16 155.198 127.927 154.505 135.425 154.505C143.615 154.505 151.92 154.62 160.11 154.505C160.918 153.119 161.379 150.464 163.34 147.577C164.725 145.037 166.224 143.305 168.185 140.995Z" fill="#522100"/>
<path d="M259.43 158.662C257.007 171.594 252.509 183.718 246.279 194.803H239.358C245.933 183.718 250.663 171.594 253.316 158.662H259.43ZM199.215 241.336C182.143 250.689 162.648 256 141.885 256C121.121 256 101.626 250.689 84.6694 241.336H98.6271C111.893 246.878 126.543 249.88 141.885 249.88C157.227 249.88 171.761 246.878 185.142 241.336H199.215ZM37.4898 194.803C31.2608 183.718 26.762 171.479 24.3396 158.662H30.4533C32.9911 171.594 37.8359 183.833 44.411 194.803H37.4898Z" fill="#522100"/>
<path d="M23.0707 229.212C23.0707 231.406 22.2632 232.907 20.6482 233.715C19.4947 234.292 17.7644 234.523 15.2267 234.523H0C0.34606 229.558 0.576767 224.131 0.576767 218.242C0.576767 208.89 3.922 204.156 10.7278 204.156C13.1503 204.156 15.1113 204.386 16.7262 204.964C19.264 205.772 20.4176 207.042 20.4176 208.89C20.4176 212.469 17.303 215.587 11.0739 218.012V218.242L11.1893 218.127C12.1121 218.473 13.6117 219.166 15.4573 220.09C17.5337 221.129 18.8026 221.937 19.4947 222.515C21.8018 224.478 23.0707 226.672 23.0707 229.212ZM13.4964 209.582C13.4964 208.197 13.381 207.273 13.0349 206.811C12.6889 206.003 11.8814 205.657 10.6125 205.657C9.57434 205.657 8.65149 206.465 7.84402 208.081C7.26725 209.467 6.9212 210.622 6.9212 211.892V217.319H7.26725C9.1129 217.319 10.6125 216.51 11.7661 214.894C12.9196 213.162 13.4964 211.545 13.4964 209.582ZM15.342 228.634C15.342 226.21 14.6499 224.016 12.9196 222.168C11.3046 220.09 9.22827 219.166 6.9212 219.166C6.9212 224.131 6.80586 228.75 6.57516 233.138H10.3818C13.7271 233.022 15.342 231.521 15.342 228.634ZM43.6036 234.523H38.182C37.8359 231.29 37.7206 227.826 37.7206 223.9C35.2981 224.478 33.5678 225.748 32.645 227.942C31.9529 229.443 31.4915 231.637 31.6068 234.523H24.801C24.801 232.098 26.0699 229.674 28.4923 227.364C30.7994 225.17 33.2218 223.785 35.7595 223.323C29.5305 220.783 26.3006 218.127 26.3006 215.356C26.3006 213.277 28.3769 212.123 32.5297 212.123H43.6036C43.2575 216.164 43.1422 219.513 43.1422 222.284C43.1422 226.787 43.2575 230.828 43.6036 234.523ZM38.182 213.277H34.7214C32.8757 213.277 32.0682 214.317 32.0682 216.28C32.0682 217.781 32.645 219.166 33.9139 220.321C34.7214 221.129 35.9903 221.937 37.7206 222.861C37.7206 219.051 37.8359 215.818 38.182 213.277ZM71.7498 212.123C70.4809 214.548 69.6734 216.972 68.9813 219.513H68.866V219.397L68.9813 219.282C67.3664 215.125 64.7132 213.162 61.0219 213.277C61.1373 215.702 61.2527 219.282 61.368 223.9C61.368 228.75 61.4833 232.329 61.5987 234.523H55.7157C55.831 232.445 55.9464 228.981 55.9464 223.9C56.0617 219.397 56.1771 215.818 56.2924 213.277H55.485C53.7547 213.277 52.2551 213.855 50.8708 215.125C49.602 216.28 48.7945 217.665 48.3331 219.397H48.2177C47.5256 216.741 46.7181 214.317 45.4492 212.007H71.7498V212.123ZM89.5142 216.164L86.2843 219.513C84.3233 216.395 82.1316 214.894 79.9399 214.894C79.1324 214.894 78.4403 215.356 77.7482 216.395C77.1714 217.203 76.9407 218.127 76.9407 219.051C76.9407 221.129 77.7482 223.669 79.3631 226.556C81.2088 229.789 83.0544 231.29 85.0154 231.29C86.515 231.29 87.5532 230.482 88.3607 228.634L89.3989 229.443C87.4379 232.329 85.1308 234.408 82.4777 235.332C76.3639 232.791 73.3648 229.212 73.3648 224.593C73.3648 221.706 74.1722 219.051 75.9025 216.626C77.6328 214.086 79.8245 212.354 82.4777 211.314C85.2461 212.123 87.5532 213.739 89.5142 216.164ZM110.278 234.523H104.049C104.049 232.329 103.472 230.136 102.549 227.942C101.396 225.401 100.011 223.785 98.2811 223.323C98.2811 227.826 98.1657 231.637 97.935 234.523H92.3981C92.7441 230.136 92.9748 225.055 92.9748 219.166C92.9748 216.164 92.7441 213.855 92.3981 212.123H97.935C98.1657 214.894 98.2811 218.012 98.2811 221.476H98.3964C99.5499 218.589 100.473 216.51 101.396 215.24C102.895 212.816 104.741 211.661 106.587 211.661C107.855 211.661 109.009 211.892 110.162 212.469L108.778 217.55C107.855 217.203 106.817 216.972 105.548 216.972C104.049 216.972 102.78 217.434 101.742 218.358C101.05 219.051 100.357 220.205 99.6653 221.822C106.817 224.247 110.278 228.519 110.278 234.523ZM132.772 234.523H127.235C127.004 230.597 126.889 225.286 126.889 218.589C125.389 220.205 124.005 221.937 122.621 223.669C120.89 225.748 119.737 227.595 119.045 229.212C119.045 231.059 118.929 232.791 118.814 234.408H113.277C113.623 230.02 113.854 225.979 113.854 222.168V219.744C113.854 216.626 113.738 213.97 113.277 212.007H118.699C119.045 214.432 119.275 218.935 119.275 225.863C119.852 225.17 121.236 223.554 123.428 220.898C125.274 218.935 126.427 217.088 127.235 215.702C127.35 214.548 127.465 213.393 127.581 212.007H133.002C132.656 213.739 132.426 216.049 132.426 218.82C132.195 225.055 132.426 230.366 132.772 234.523ZM151.69 205.888C150.305 209.352 148.575 211.084 146.499 211.084C144.422 211.084 142.807 209.352 141.423 205.888L142.461 205.195C143.038 206.58 144.422 207.273 146.614 207.273C148.691 207.273 150.075 206.58 150.767 205.195L151.69 205.888ZM156.304 234.523H150.767C150.536 230.597 150.421 225.286 150.421 218.589C148.921 220.205 147.537 221.937 146.153 223.669C144.422 225.748 143.269 227.595 142.577 229.212C142.577 231.059 142.461 232.791 142.346 234.408H136.809C137.155 230.02 137.386 225.979 137.386 222.168V219.744C137.386 216.626 137.271 213.97 136.809 212.007H142.231C142.577 214.432 142.807 218.935 142.807 225.863C143.384 225.17 144.768 223.554 146.96 220.898C148.806 218.935 149.959 217.088 150.767 215.702C150.882 214.548 150.998 213.393 151.113 212.007H156.535C156.188 213.739 155.958 216.049 155.958 218.82C155.727 225.055 155.842 230.366 156.304 234.523ZM197.139 234.523H190.91C190.448 231.175 190.218 226.441 190.218 220.436C190.333 213.739 190.102 209.005 189.872 206.234H181.451C181.682 209.005 181.797 212.238 181.797 216.049V221.476C181.797 225.979 181.682 230.366 181.451 234.523H174.876C175.222 229.443 175.452 222.746 175.452 214.548C175.452 210.391 175.222 207.158 174.876 204.733H196.216C196.447 206.927 196.562 211.314 196.562 218.012V223.092C196.562 227.595 196.793 231.406 197.139 234.523ZM219.171 222.168C219.171 225.055 218.364 227.595 216.634 230.136C214.903 232.56 212.712 234.408 210.058 235.332C204.06 232.329 200.946 228.75 200.946 224.593C200.946 221.706 201.753 219.051 203.483 216.626C205.214 214.086 207.405 212.354 210.058 211.314C216.172 214.548 219.171 218.127 219.171 222.168ZM215.365 227.711C215.365 225.17 214.442 222.63 212.596 220.321C210.981 218.473 208.905 216.741 206.252 215.356C205.214 216.164 204.752 217.434 204.752 219.051C204.752 221.591 205.675 224.131 207.521 226.325C209.136 228.288 211.212 229.905 213.865 231.29C214.903 230.251 215.365 228.981 215.365 227.711ZM238.32 216.164L235.09 219.513C233.129 216.395 230.937 214.894 228.746 214.894C227.938 214.894 227.246 215.356 226.669 216.395C226.093 217.203 225.862 218.127 225.862 219.051C225.862 221.129 226.669 223.669 228.284 226.556C230.13 229.789 231.976 231.29 233.937 231.29C235.436 231.29 236.474 230.482 237.282 228.634L238.32 229.443C236.359 232.329 233.937 234.408 231.284 235.332C225.285 232.791 222.171 229.212 222.171 224.593C222.171 221.706 222.978 219.051 224.708 216.626C226.439 214.086 228.63 212.354 231.284 211.314C234.052 212.123 236.474 213.739 238.32 216.164ZM260.122 234.523H254.239C253.547 232.56 252.97 230.482 252.509 228.288C250.894 232.791 248.471 234.985 245.357 234.985C243.742 234.985 242.357 234.408 241.435 233.369C240.512 232.329 240.05 230.944 240.05 229.096C240.05 226.902 241.089 224.362 243.165 221.36C244.088 219.974 245.933 217.781 248.702 214.663L247.779 212.123H253.777C254.931 214.894 256.084 218.589 257.123 223.208C258.738 229.096 259.66 232.907 260.122 234.523ZM251.586 225.748C251.586 223.554 250.894 220.321 249.509 215.933C247.779 218.012 246.626 219.859 245.933 221.36C245.241 223.092 244.78 225.17 244.78 227.711C244.78 228.404 245.011 229.212 245.357 229.789C245.818 230.482 246.395 230.828 247.202 230.828C250.086 230.828 251.586 229.096 251.586 225.748ZM284 233.369C282.731 235.909 281.808 238.334 281.232 240.643H281.116C280.885 240.066 280.424 239.257 279.617 238.218C278.694 237.179 278.117 236.371 277.886 235.909C276.502 234.87 274.541 234.408 271.888 234.408C269.004 234.408 267.043 234.754 266.005 235.447C264.851 236.14 263.929 237.872 263.121 240.643H263.006C262.89 239.488 261.967 236.948 260.468 233.369H261.16C264.39 233.369 266.697 230.482 268.081 224.709C268.889 221.245 269.235 216.972 269.235 212.123H275.002C275.81 217.781 276.617 221.937 277.309 224.593C279.04 230.482 281.232 233.369 284 233.369ZM275.81 233.369C273.387 229.212 271.773 223.9 270.734 217.434C270.734 220.667 270.388 223.438 269.812 225.632C269.119 228.173 267.966 230.713 266.466 233.253H275.81V233.369Z" fill="#522100"/>
<path d="M23.4167 121.943C25.2624 122.867 27.2234 123.675 29.0691 124.137C26.9927 124.715 25.6085 125.523 24.9163 126.562C24.2242 127.486 23.8782 129.102 23.7628 131.296C23.6475 133.028 23.9935 134.298 24.801 135.107C25.3777 135.684 26.6466 136.261 28.3769 136.839C27.5695 136.839 26.5313 137.07 25.3777 137.416C24.4549 137.762 23.4167 137.993 22.4939 138.34V137.762C22.6093 135.684 20.6483 134.067 16.8416 132.797C14.1885 131.989 11.42 131.527 8.42079 131.296C7.49796 131.296 6.69049 131.412 6.11372 131.643L6.34444 127.024C10.8432 126.678 14.0731 126.331 16.0341 125.985C20.879 125.292 23.4167 123.906 23.4167 121.943ZM23.186 127.717C19.8408 129.218 15.6881 130.257 10.8432 130.719C15.2266 130.95 19.264 132.22 22.84 134.414L23.186 127.717Z" fill="#522100"/>
<path d="M9.80504 104.739L13.6117 106.355C13.1503 106.817 12.9196 107.395 12.8042 108.087C12.5735 109.589 13.9578 110.974 17.0723 112.475C19.3794 113.514 21.5711 114.207 23.7628 114.554C27.4541 115.131 30.684 115.131 33.5678 114.438L34.1446 117.902C31.1454 117.325 28.1462 116.747 25.4931 116.055L24.801 119.865C19.3794 118.941 13.381 119.172 6.80585 120.442L7.61334 116.055C13.8424 115.362 19.4947 115.362 24.5703 116.286L24.6856 115.824C21.1097 114.9 17.9951 113.861 15.342 112.706C10.7279 110.743 8.53617 108.78 8.88223 106.933C8.99758 106.125 9.34363 105.432 9.80504 104.739Z" fill="#522100"/>
<path d="M14.8806 88.5736L17.7644 90.5366C17.0723 90.8829 16.6109 91.3448 16.3802 92.0376C16.0341 93.0768 16.8416 94.8088 18.8026 97.4645C18.9179 97.4645 20.9943 96.7717 25.0317 95.6171C27.5695 94.9243 29.6458 94.3469 31.2608 94.0005L29.8765 98.6192C28.2616 98.8501 25.4931 99.5429 21.3404 100.582C24.2242 103.584 26.8773 105.547 29.4151 106.24L26.762 108.549C25.2624 106.817 23.0707 104.277 20.3022 100.813C16.2648 101.852 12.9196 102.43 10.1511 102.661L11.42 98.5037C13.2656 98.5037 15.342 98.1573 17.7644 97.58C14.6499 93.6542 13.2656 91.1139 13.6117 90.1901C13.8424 89.6128 14.3038 89.0355 14.8806 88.5736Z" fill="#522100"/>
<path d="M27.4541 78.6435C29.4151 79.5672 31.1454 80.8374 32.4143 82.6848C33.7986 84.5323 34.3753 86.6107 34.4907 88.6891C33.5678 88.92 32.4143 89.3819 31.0301 90.1902C29.6458 90.9984 28.6077 91.4603 27.9155 91.6912C26.762 92.0376 25.3777 91.8067 24.1089 91.2294C22.1478 90.3056 20.4176 89.0355 19.1487 87.188C17.7644 85.3406 17.1877 83.2622 17.1877 81.1838C18.1105 80.9529 19.264 80.491 20.6483 79.6827C22.0325 78.8745 23.0707 78.4126 23.7628 78.1816C24.801 77.9507 26.0699 78.0662 27.4541 78.6435ZM30.3379 82.9158C28.8383 82.223 27.4541 81.992 26.0699 82.223C24.9163 82.3384 23.5321 82.8003 21.9171 83.6086C20.9943 84.0704 20.5329 84.3014 20.4176 84.3014C19.8408 84.5323 19.264 84.7632 18.8026 84.8787C19.1487 85.8024 19.9561 86.4952 21.1097 87.0726C22.7246 87.7654 24.2242 88.1118 25.4931 87.9963C26.762 87.8808 28.1462 87.419 29.7612 86.4952C30.684 86.0334 31.1454 85.8024 31.1454 85.687C31.7222 85.456 32.1836 85.2251 32.645 85.1096C32.0682 84.0704 31.3761 83.2622 30.3379 82.9158Z" fill="#522100"/>
<path d="M41.4119 67.7897C42.5654 68.4825 43.0268 69.2907 42.9115 70.4454C42.7961 71.1382 42.4501 72.1774 41.6426 73.4475L37.0285 81.1838C34.606 79.4518 31.9529 77.7198 28.9537 75.9878C24.2242 73.1011 22.84 69.9835 24.9163 66.5195C25.6085 65.3649 26.4159 64.3257 27.1081 63.7483C28.2616 62.7091 29.2998 62.4782 30.2226 63.0555C32.0683 64.2102 32.645 66.635 32.0682 70.5609H32.1836C32.645 70.2145 33.4525 69.6371 34.4907 68.9443C35.6442 68.2515 36.4517 67.7897 36.9131 67.5587C38.6434 66.9814 40.143 66.9814 41.4119 67.7897ZM28.6076 66.7505C27.9155 66.4041 27.4541 66.1731 27.1081 66.0577C26.5313 66.0577 26.1852 66.2886 25.7238 66.8659C25.3777 67.4433 25.4931 68.1361 26.0699 68.9443C26.5313 69.6371 27.1081 70.2145 27.6848 70.5609L30.4533 72.1774L30.5687 72.0619C31.1454 71.1382 31.1454 70.099 30.684 68.9443C30.2226 68.0206 29.5305 67.3278 28.6076 66.7505ZM38.7588 71.4846C37.6052 70.7918 36.221 70.5609 34.7214 70.6763C33.2218 70.9073 32.0683 71.6001 31.3761 72.7547C33.9139 74.2558 36.221 75.7568 38.4127 77.2579L39.5662 75.295C40.6044 73.6785 40.2584 72.4083 38.7588 71.4846Z" fill="#522100"/>
<path d="M53.4086 57.6286L51.1015 60.5153C49.4866 59.5915 47.1795 57.975 44.1803 55.5502C42.9114 56.1275 41.6426 57.1667 40.3737 58.8987C43.0268 60.9771 45.4492 62.9401 47.6409 64.903L45.2185 68.0206C43.0268 65.9422 40.0276 63.4019 36.221 60.3998C34.26 58.8987 32.7603 57.7441 31.4915 57.0513L33.7985 54.0492C35.0674 54.742 37.0284 56.1276 39.6816 58.3214C40.9504 56.7049 42.2194 55.6657 43.4882 54.9729L41.7579 53.5873C39.9123 52.0862 38.2973 50.9316 36.7977 50.1233L39.2202 47.1212C40.6044 48.0449 42.104 49.1996 43.9496 50.5852C44.4111 50.9316 44.9878 51.3934 45.7953 52.0862C46.6028 52.779 47.2949 53.2409 47.6409 53.5873C49.948 55.3193 51.7937 56.7049 53.4086 57.6286Z" fill="#522100"/>
<path d="M56.9846 40.1932C58.4842 41.8097 59.5223 43.6572 60.0991 45.851C60.6759 48.0449 60.5605 50.2388 59.753 52.2017C58.8302 51.9708 57.5613 52.0862 55.9464 52.3172C54.3314 52.5481 53.1779 52.6636 52.6011 52.5481C51.3323 52.4326 50.2941 51.7398 49.1405 50.7006C47.6409 49.1996 46.6028 47.2366 46.026 45.0428C45.4492 42.7334 45.5646 40.655 46.3721 38.6921C47.2949 38.8076 48.5638 38.8076 50.1787 38.5766C51.7937 38.3457 52.9472 38.2302 53.524 38.3457C54.7928 38.4612 55.9464 39.154 56.9846 40.1932ZM58.1381 45.1582C56.9846 44.0036 55.7157 43.1953 54.4468 42.8489C53.2933 42.5025 51.909 42.5025 50.0634 42.618C49.0252 42.7334 48.4484 42.7334 48.4484 42.7334C47.8716 42.7334 47.2949 42.7334 46.8335 42.618C46.8335 43.6572 47.2949 44.5809 48.1024 45.5046C49.3713 46.7748 50.6401 47.583 51.909 48.0449C53.0626 48.3913 54.5621 48.5068 56.4078 48.2758C57.446 48.1604 57.9074 48.0449 58.0227 48.0449C58.5995 48.0449 59.1763 48.0449 59.6377 48.0449C59.407 46.8902 58.9456 45.9665 58.1381 45.1582Z" fill="#522100"/>
<path d="M66.0975 37.3065C65.6361 37.6529 64.8286 38.2303 63.7904 39.0385C62.7522 39.8468 61.9448 40.3087 61.4833 40.7705L60.5605 39.6159C62.7522 37.8839 64.1365 36.6137 64.8286 35.8055L66.0975 37.3065Z" fill="#522100"/>
<path d="M83.0544 33.3806L79.9399 35.459C78.5556 33.958 76.9407 31.6487 75.0951 28.6465C73.0187 25.298 71.4037 22.9887 70.3656 21.7185L66.2128 24.4897C67.251 25.7599 68.2892 27.3764 69.5581 29.2239L71.2884 31.8796C72.788 34.0734 74.0569 36.3828 75.3257 38.5766L72.0959 40.655C70.5963 37.9993 68.6353 34.5353 65.9822 30.494C64.5979 28.4156 63.4444 26.9145 62.5215 25.8753L73.134 18.9473C73.9415 19.9865 75.4411 22.0649 77.5175 25.4135L79.1324 27.9537C80.5167 30.1476 81.9009 31.9951 83.0544 33.3806Z" fill="#522100"/>
<path d="M89.6296 13.5204C90.2064 14.7905 89.9756 16.638 88.9375 18.9473C88.13 20.5639 87.0918 22.1804 85.8229 23.7969C86.9764 26.1063 88.13 28.3001 89.3989 30.3785L85.8229 32.1105C84.4387 29.6857 83.0544 27.03 81.6702 24.1433C80.632 21.9495 80.1706 19.9865 80.4013 18.0236C80.632 15.8297 81.7856 14.2132 83.8619 13.174C85.2462 12.4812 86.2843 12.1348 87.0918 12.0193C88.13 11.9039 89.0528 12.3658 89.6296 13.5204ZM86.169 15.7143C85.8229 15.0215 85.4768 14.5596 85.2461 14.3287C84.7847 13.9823 84.3233 13.8668 83.6312 14.2132C82.8237 14.5596 82.593 15.4833 82.8237 16.9844C82.9391 18.0236 83.2852 19.0628 83.8619 20.102L85.3615 23.1041C87.0918 20.4484 87.3225 18.0236 86.169 15.7143Z" fill="#522100"/>
<path d="M107.625 22.7577L103.703 24.1433C102.895 23.2196 101.972 21.834 100.819 19.9866C100.934 23.6815 100.011 25.9908 97.935 26.6836C96.7815 27.1455 95.7433 27.03 94.7051 26.3372C93.8977 25.7599 93.2055 24.8361 92.7441 23.6815C92.052 21.9495 92.052 19.7556 92.5134 17.2153C92.7441 15.9452 93.4362 13.8668 94.3591 10.8647C93.8976 10.2874 93.4362 9.82549 92.8595 9.36362L97.1276 7.7471C98.6272 9.4791 100.357 11.9039 102.434 15.1369C104.972 18.9473 106.587 21.4876 107.625 22.7577ZM99.6653 18.4855C99.0886 16.869 97.589 14.5596 95.3973 11.673C95.0512 13.6359 94.8205 15.2524 94.8205 16.638C94.8205 18.37 95.0512 19.9865 95.628 21.4876C95.8587 22.0649 96.0894 22.5268 96.5508 22.8732C97.0122 23.3351 97.589 23.4505 98.0504 23.2196C100.011 22.5268 100.473 20.9103 99.6653 18.4855Z" fill="#522100"/>
<path d="M121.698 16.2916C122.044 17.5617 121.698 18.6009 120.89 19.1783C120.314 19.6401 119.275 19.9865 117.891 20.3329L109.124 22.2959C108.663 19.4092 108.086 16.2916 107.279 12.8276C106.01 7.40069 107.394 4.2831 111.201 3.35937C112.585 3.01297 113.738 2.8975 114.777 3.01296C116.276 3.12843 117.199 3.70576 117.43 4.74496C117.891 6.82336 116.507 9.01723 113.277 11.2111V11.3266C113.854 11.442 114.777 11.5575 116.046 11.9039C117.314 12.2503 118.237 12.4812 118.699 12.7122C120.314 13.6359 121.352 14.7905 121.698 16.2916ZM113.508 6.24603C113.277 5.43776 113.162 4.97589 112.931 4.74496C112.585 4.2831 112.123 4.16764 111.431 4.39858C110.855 4.51404 110.393 5.09138 110.162 6.13057C109.932 6.93884 109.932 7.7471 110.162 8.4399L110.855 11.5575H111.085C112.123 11.3266 112.931 10.6338 113.392 9.47909C113.738 8.32443 113.854 7.28523 113.508 6.24603ZM117.199 16.8689C116.853 15.4833 116.161 14.3287 115.007 13.4049C113.738 12.4812 112.47 12.1348 111.085 12.3658C111.777 15.2524 112.239 18.0236 112.7 20.5639L114.892 20.102C116.853 19.6401 117.545 18.6009 117.199 16.8689Z" fill="#522100"/>
<path d="M134.733 8.20896C134.963 10.4028 134.617 12.4812 133.695 14.5596C132.772 16.638 131.272 18.2545 129.426 19.2937C128.734 18.6009 127.812 17.7927 126.427 16.9844C125.043 16.1762 124.12 15.4834 123.659 15.0215C122.851 14.0978 122.275 12.9431 122.159 11.442C121.929 9.24816 122.275 7.16976 123.197 5.09137C124.236 3.01297 125.62 1.39645 127.465 0.357254C128.158 1.05005 129.08 1.85832 130.465 2.66658C131.849 3.47485 132.772 4.16764 133.233 4.62951C134.041 5.55324 134.502 6.7079 134.733 8.20896ZM132.541 12.8276C132.426 11.2111 131.849 9.8255 131.041 8.67084C130.349 7.7471 129.196 6.70791 127.696 5.78417C126.889 5.20684 126.427 4.86044 126.312 4.86044C125.851 4.51404 125.389 4.16765 125.043 3.82125C124.466 4.62951 124.12 5.6687 124.351 6.82337C124.582 8.55536 125.043 10.0564 125.735 11.0956C126.427 12.1348 127.581 13.0586 129.196 14.0978C130.003 14.5596 130.465 14.906 130.58 14.906C131.041 15.2524 131.503 15.5988 131.849 15.9452C132.426 14.906 132.656 13.8668 132.541 12.8276Z" fill="#522100"/>
<path d="M150.305 11.0956C150.305 13.174 149.383 14.906 147.652 16.4071C146.037 17.7927 144.076 18.4855 142 18.37C142 17.2153 141.654 16.1761 140.731 15.1369C139.924 14.2132 139.116 13.2895 138.309 12.3658C137.501 11.0956 137.04 9.71003 137.04 8.20896C137.04 5.6687 137.732 3.70578 138.885 2.32018C140.154 0.703652 142 -0.104613 144.422 0.0108533C146.268 0.0108533 147.768 0.703649 148.806 1.97378C149.844 3.24391 150.421 4.74497 150.421 6.59244L146.614 6.47696V5.09137C146.729 2.20471 145.922 0.819108 144.307 0.703642C142.346 0.703642 141.308 3.35937 141.308 8.78629C141.308 9.82549 141.539 11.2111 142 13.0586C142.461 14.906 142.692 16.4071 142.692 17.3308C144.307 17.4463 145.345 16.638 145.922 15.1369C146.268 14.2132 146.499 12.8276 146.499 10.8647L150.305 11.0956Z" fill="#522100"/>
<path d="M164.263 19.8711L160.341 19.4092C159.88 17.6772 159.534 15.137 159.418 11.9039C159.303 8.43991 159.072 5.89965 158.726 4.39858C156.65 7.28525 155.496 10.2874 155.035 13.405C154.804 15.2524 154.92 16.9844 155.266 18.7164L151.344 18.1391C151.228 17.4463 151.113 16.7535 151.228 16.1762C151.574 13.7514 152.382 11.442 153.766 9.24817C154.689 7.86257 156.188 5.78417 158.38 3.35938C158.265 2.66658 158.034 1.97377 157.803 1.28098L161.841 1.85831C162.302 3.82124 162.764 6.82337 162.879 10.8647C163.225 14.7906 163.571 17.7927 164.263 19.8711Z" fill="#522100"/>
<path d="M178.452 23.4505L174.414 22.4113C174.299 21.2567 174.299 19.5247 174.414 17.3308C172.338 20.4484 170.377 21.7185 168.185 21.2567C167.032 20.9103 166.224 20.2175 165.763 19.1783C165.417 18.2545 165.417 17.0999 165.763 15.8298C166.224 13.9823 167.378 12.1348 169.223 10.4028C170.146 9.4791 171.876 8.0935 174.414 6.24603C174.414 5.55323 174.299 4.86043 174.068 4.16763L178.452 5.3223C178.682 7.51616 178.682 10.6338 178.567 14.4442C178.452 18.8319 178.452 21.834 178.452 23.4505ZM174.299 15.4833C174.76 13.7514 174.876 11.0956 174.76 7.4007C173.376 8.7863 172.223 10.0564 171.53 11.0956C170.492 12.4812 169.8 13.9823 169.454 15.5988C169.339 16.1762 169.339 16.7535 169.454 17.2153C169.569 17.9081 169.915 18.2545 170.492 18.37C172.338 18.9473 173.722 17.9081 174.299 15.4833Z" fill="#522100"/>
<path d="M193.794 26.1063C193.332 27.3764 192.525 27.9537 191.487 28.0692C190.794 28.0692 189.641 27.8383 188.372 27.3764L180.067 24.0279C181.336 21.3721 182.604 18.4855 183.989 15.2524C186.065 10.0564 188.949 8.20896 192.64 9.71002C193.909 10.2874 194.947 10.8647 195.755 11.442C196.908 12.3657 197.37 13.405 196.908 14.4442C196.101 16.4071 193.678 17.4463 189.756 17.4463V17.5617C190.218 18.0236 190.91 18.7164 191.717 19.6401C192.64 20.6793 193.217 21.3721 193.448 21.834C194.255 23.2196 194.37 24.7207 193.794 26.1063ZM189.756 24.1433C190.333 22.8732 190.333 21.4876 189.872 20.102C189.41 18.6009 188.487 17.5618 187.219 17.0999C186.065 19.8711 185.027 22.4113 183.873 24.7207L185.95 25.5289C187.795 26.2217 189.064 25.7599 189.756 24.1433ZM192.871 13.2895C193.217 12.5967 193.332 12.0193 193.217 11.6729C193.217 11.0956 192.871 10.7492 192.179 10.5183C191.602 10.2873 190.91 10.5183 190.102 11.2111C189.41 11.7884 189.064 12.4812 188.718 13.0586L187.565 16.0607L187.795 16.1761C188.833 16.638 189.872 16.5225 190.794 15.8297C191.717 15.1369 192.409 14.3287 192.871 13.2895Z" fill="#522100"/>
<path d="M205.675 36.3828L202.445 34.5353C203.137 32.8033 204.406 30.2631 206.252 27.03C205.444 25.8753 204.175 24.7207 202.445 23.7969C200.83 26.6836 199.215 29.4548 197.6 31.8796L194.14 29.9167C195.87 27.3764 197.946 24.0279 200.253 19.7556C201.407 17.5617 202.33 15.9452 202.791 14.5596L206.136 16.4071C205.675 17.7927 204.522 19.9866 202.907 22.8732C204.637 23.9124 205.906 24.9516 206.713 26.1063L207.751 24.1433C208.905 22.0649 209.828 20.3329 210.405 18.7164L213.75 20.5639C213.058 22.065 212.25 23.7969 211.097 25.7599C210.866 26.2217 210.405 26.9145 209.943 27.8383C209.482 28.762 209.02 29.4548 208.79 29.9167C207.405 32.5724 206.367 34.6508 205.675 36.3828Z" fill="#522100"/>
<path d="M220.325 42.9644C219.402 44.119 218.249 44.5809 216.98 44.2345C216.172 44.0036 215.134 43.3108 213.75 42.2716L207.867 37.6529C209.943 35.459 212.02 32.9188 214.096 30.2631L215.249 28.8775C216.864 26.7991 218.018 25.1825 218.825 23.7969L221.94 26.2217C220.556 28.3001 219.056 30.3785 217.672 32.1105C218.941 33.1497 219.979 34.8817 220.671 37.3065C221.363 39.8468 221.248 41.6942 220.325 42.9644ZM216.749 40.1932C218.364 38.1148 218.479 35.5745 216.98 32.8033C215.249 34.9972 213.404 37.3065 211.443 39.3849L213.173 40.7705C213.865 41.3479 214.557 41.5788 215.019 41.4633C215.595 41.3478 216.172 40.886 216.749 40.1932ZM222.286 48.9686L219.171 46.5438C220.902 44.119 222.632 41.8097 224.478 39.3849C226.785 36.3828 228.746 34.1889 230.13 32.6879L233.129 35.1127C232.091 36.0364 230.707 37.5375 229.092 39.6159C226.323 43.3108 224.016 46.4284 222.286 48.9686Z" fill="#522100"/>
<path d="M233.36 60.9772L230.707 58.0905C232.668 56.0121 235.667 53.1254 239.704 49.4305C239.589 49.4305 237.859 49.6614 234.513 49.8924C232.206 50.1233 230.591 50.4697 229.784 50.9316C229.669 50.9316 229.438 51.278 228.976 51.7398C228.284 52.3172 227.592 53.01 226.669 53.7028L224.016 50.8161C226.439 48.9686 229.438 46.3129 232.898 43.0799C234.744 41.3479 236.013 39.9622 236.936 38.8076L239.474 41.5788C238.435 42.7335 237.282 44.119 235.667 45.5046C236.128 45.0428 234.744 46.3129 231.63 49.1996C231.976 49.1996 233.591 48.9686 236.59 48.7377C238.551 48.5068 240.166 48.2758 241.435 47.814C242.242 47.1212 243.05 46.5438 243.626 46.082L246.164 48.8532C245.011 49.546 243.626 50.7006 242.011 52.2017C238.551 55.5502 235.667 58.4369 233.36 60.9772ZM247.318 43.4262C245.011 44.4654 243.28 44.35 242.242 43.1953C241.204 42.0406 241.319 40.4241 242.473 38.1148L243.28 38.2302C243.165 39.154 243.511 40.1932 244.434 41.1169C245.357 42.1561 246.279 42.618 247.318 42.5025V43.4262Z" fill="#522100"/>
<path d="M248.01 81.5302C246.049 81.7611 244.088 82.223 242.011 82.9158V82.8003H242.127C242.242 82.6848 242.588 82.223 243.165 81.4147C243.742 80.491 244.088 79.9136 244.203 79.6827C244.549 78.528 244.434 77.2579 243.626 75.9878L239.589 69.2907C240.858 68.7134 242.588 67.9051 244.665 66.635C248.817 64.0947 252.162 62.0163 254.585 60.1689L256.661 63.5174C254.585 64.903 251.816 66.7505 248.356 68.8289C245.818 70.4454 243.742 71.4846 242.357 72.2928L244.895 76.5651C246.164 75.8723 248.587 74.4867 252.163 72.2928C255.162 70.4454 257.584 69.1753 259.545 68.367L261.506 71.4846C259.545 72.4083 257.007 73.6785 254.124 75.4105C249.971 77.9507 247.548 79.3363 246.972 79.6827L248.01 81.5302Z" fill="#522100"/>
<path d="M257.353 92.9614C253.777 93.7696 251.124 91.9222 249.163 87.419C250.201 86.9571 250.894 86.1488 251.355 84.9942C252.162 82.8003 252.624 81.7611 252.739 81.6456C253.547 80.26 254.816 79.2208 256.546 78.528C258.738 77.6043 260.814 77.3734 262.66 77.9507C264.621 78.528 266.12 79.9136 267.043 82.1075C267.735 83.6086 267.851 85.1096 267.504 86.3798C267.158 87.7654 266.236 88.92 264.851 89.7283L263.352 86.3798C265.89 85.3406 266.812 83.8395 266.005 82.1075C265.197 80.1446 262.314 80.26 257.353 82.4539C258.046 82.5694 258.622 83.0312 259.314 83.6086C259.891 84.1859 260.353 84.7632 260.583 85.456C261.16 86.7262 261.391 87.8808 261.391 89.0355C261.391 90.5365 260.814 91.4603 259.66 91.9221L258.161 88.5736C258.853 88.3427 259.314 87.8808 259.43 87.188C259.66 86.6107 259.545 85.9179 259.314 85.3406C258.968 84.6478 258.622 84.0704 258.276 83.6086C257.93 83.1467 257.353 82.9158 256.546 82.6848C255.738 83.0312 254.7 83.955 253.431 85.2251C252.162 86.4952 251.124 87.419 250.317 87.7654C250.778 88.92 251.586 89.6128 252.739 89.8438C253.777 90.0747 254.816 89.9592 255.969 89.4974L257.353 92.9614Z" fill="#522100"/>
<path d="M257.238 109.704L256.2 106.125C257.815 105.316 260.583 104.393 264.159 103.353C264.39 101.968 264.275 100.351 263.698 98.2728C260.468 99.1965 257.469 100.005 254.585 100.698L253.431 96.8872C256.431 96.3099 260.237 95.2707 264.851 94.0005C267.158 93.3077 269.004 92.7304 270.273 92.0376L271.311 95.7325C270.042 96.3099 267.735 97.1181 264.39 98.0419C264.967 100.005 265.082 101.621 264.851 103.122L266.928 102.545C269.235 101.852 271.08 101.275 272.58 100.582L273.618 104.277C272.119 104.854 270.273 105.432 268.081 106.125C267.62 106.24 266.812 106.471 265.774 106.817C264.736 107.164 263.929 107.279 263.467 107.51C261.16 108.203 258.968 108.896 257.238 109.704Z" fill="#522100"/>
<path d="M277.656 126.562C275.695 125.985 273.734 125.638 271.657 125.407V125.292C271.657 125.292 271.657 125.292 271.773 125.292C271.888 125.292 272.465 124.946 273.388 124.253C274.31 123.56 274.772 123.214 274.887 122.983C275.695 121.943 276.041 120.673 275.81 119.172V118.941C273.964 119.288 271.196 119.75 267.504 120.327C263.813 120.904 261.045 121.366 259.199 121.713L258.622 117.556C260.468 117.44 263.236 117.094 266.928 116.632C270.619 116.17 273.388 115.824 275.233 115.708L275.118 115.131C274.887 113.861 274.31 112.822 273.157 112.013C272.119 111.321 270.965 110.974 269.581 110.743V110.628C271.542 109.935 273.388 109.011 275.118 107.857L277.656 126.562Z" fill="#522100"/>
<path d="M275.118 141.804C273.618 141.804 272.119 140.88 270.504 138.917C269.35 137.531 268.427 135.915 267.389 133.952C264.851 133.952 262.314 134.183 260.006 134.414L259.891 130.373C262.66 130.142 265.659 130.026 268.889 129.911C271.311 129.911 273.272 130.372 274.887 131.296C276.733 132.451 277.771 134.183 277.771 136.492C277.771 138.109 277.656 139.148 277.425 139.841C277.194 141.111 276.387 141.688 275.118 141.804ZM274.541 137.762C275.348 137.762 275.925 137.647 276.271 137.531C276.848 137.3 277.079 136.839 277.079 136.146C277.079 135.222 276.387 134.645 274.887 134.183C273.849 133.952 272.811 133.721 271.657 133.837H268.312C269.927 136.492 272.003 137.762 274.541 137.762Z" fill="#522100"/>
</svg>
