<svg width="69" height="62" viewBox="0 0 69 62" fill="none" xmlns="http://www.w3.org/2000/svg">
<path d="M32.2087 42.8007C31.5955 42.8168 30.8855 42.8168 30.1432 42.7847H26.6415V41.2423L25.9961 40.937C26.0283 40.198 26.5447 40.3908 27.2709 40.3908L40.0994 40.4068C40.2931 40.5996 40.5835 40.9852 40.761 41.2262L41.584 41.7885C41.5517 41.7403 41.9229 42.1902 41.939 42.865C41.939 42.8971 41.939 42.9935 41.939 43.1221C40.8417 43.604 40.0672 44.3913 38.4212 45.532C38.389 45.5641 38.3406 45.5963 38.276 45.6123C37.9533 45.1464 37.4369 44.6805 37.0819 44.327C35.9201 43.4273 34.6776 42.865 32.2087 42.8007ZM26.0606 42.7847H25.7056C25.7056 41.8207 25.867 41.7725 25.2054 41.2423C24.8181 39.957 25.2699 40.1016 25.3183 39.2179C25.1086 38.9287 24.7051 38.6235 24.4308 38.3343C24.0436 37.9648 23.5917 37.29 23.3658 36.7759C23.0592 35.7637 22.801 35.3941 22.7365 34.0928L22.3815 34.4462C22.2685 34.5748 22.2524 34.6069 22.1072 34.7676C21.8974 34.9925 21.7683 35.1532 21.5424 35.3941C20.5096 36.4545 18.6539 37.9648 18.1053 39.1858C17.4921 40.5354 17.8148 42.0777 18.6539 42.8168C19.3801 43.4755 19.2833 43.0899 19.6221 44.2949L19.6705 44.4395C19.5899 44.4716 19.5253 44.4877 19.4446 44.4716C19.3801 44.4716 19.2994 44.4716 19.2187 44.4556C19.1703 44.3913 19.1542 44.311 19.1219 44.2306C18.9121 43.5719 19.0735 43.7004 18.6217 43.3791C18.3473 43.1703 18.1537 42.9614 17.9601 42.6722C16.1689 39.9409 18.6217 37.531 20.5903 35.844C21.1067 35.3941 22.8333 33.7232 22.9947 33.0485C23.156 34.9443 23.1722 35.8761 24.447 37.6595C24.689 37.9808 24.8988 38.2218 25.157 38.4628C26.5286 39.7321 25.4313 39.1537 25.4958 40.4872C25.5281 41.1941 25.7863 41.1138 26.0606 41.4833V42.7847ZM18.8637 44.4074C18.186 44.2949 17.2501 44.1021 16.9757 44.2306C16.766 44.3913 16.7337 44.9215 16.653 45.2428C16.5723 45.6123 16.4916 45.9658 16.4109 46.3353C15.8623 46.4478 15.5718 46.255 15.5234 46.5924L15.5557 47.3154L22.9785 48.9059L23.0108 48.8738C23.0592 48.922 23.0108 48.9059 23.156 48.9541C23.382 49.0345 29.4493 48.7453 29.7236 48.7292C32.015 48.6649 34.258 48.5364 36.5333 48.44C37.0658 48.4239 37.3724 48.6649 38.0178 48.6971C38.5826 48.7292 39.1474 48.681 39.6476 48.5203C40.5997 48.2151 43.3752 48.183 45.6181 48.1508C47.3286 48.1669 49.733 48.1026 52.6537 47.9259L53.5412 47.8938C53.638 47.6528 53.6058 47.1868 53.5573 46.9298L53.1217 46.8976V46.8334C52.5569 43.7968 52.8151 43.9896 51.8791 44.1664C51.7016 43.6844 51.2014 43.347 51.6855 42.4312C52.1696 41.5154 54.7353 40.1177 53.751 37.0811C52.4439 33.0645 47.5707 32.936 47.1189 28.0358C47.3125 27.7948 47.6836 27.5698 47.5223 26.9754C47.3448 26.3327 47.1673 27.0397 47.1834 25.7704C47.1834 24.7261 47.1673 23.6979 47.1834 22.6535H48.2161C48.4098 22.9267 48.1839 22.8624 48.555 22.9909C48.7971 22.8624 49.0068 22.6857 49.0068 22.2358C49.0068 21.7378 48.8132 21.7217 48.5873 21.4646C48.313 21.5771 48.313 21.6735 48.2807 21.7056C48.2645 21.7217 48.2484 21.7538 48.2484 21.7699C48.2323 21.7699 48.2323 21.802 48.2161 21.8181H47.1834V20.3882C47.1995 20.3721 47.2318 20.3239 47.2318 20.34L47.5061 20.0508C47.2157 19.4081 46.3443 19.376 46.0216 20.0508L46.312 20.3561C46.312 20.3561 46.3443 20.3721 46.3604 20.3882V21.8181H45.2631C45.005 21.4325 45.2309 21.5932 45.005 21.4807C44.3111 21.8824 44.3272 22.6857 45.005 22.9909C45.2147 22.8945 45.0534 23.0231 45.1986 22.766C45.2147 22.766 45.2309 22.7339 45.2309 22.7178C45.2309 22.7017 45.247 22.6696 45.2631 22.6535H46.3604V26.1078C46.3604 26.5737 46.4088 26.3809 46.2152 26.638C45.9893 26.9111 45.7634 27.2003 46.0538 27.6502C46.3443 28.1 46.4573 27.7948 46.2959 28.6624C46.2313 29.0801 46.1507 29.4335 46.0054 29.8031C45.7795 30.4457 45.3761 31.1526 44.9243 31.49C44.6984 29.8995 43.2299 28.1964 42.3424 27.4895C40.1156 25.7061 37.098 23.6015 35.6135 21.063C35.3069 20.5328 34.7582 19.4081 34.7421 18.653C34.726 18.2353 35.1778 18.2835 35.2101 17.6087C35.2262 17.0464 34.8873 16.8054 34.613 16.5162V12.0658H35.8071C36.0492 12.114 35.791 12.2426 36.1621 12.4353C37.1949 11.9855 36.6785 10.893 36.3396 10.7484C35.9201 10.6038 36.033 10.8769 35.8878 11.1018H34.6614L34.613 9.36668L35.0326 9.14175C34.7744 8.24204 33.5319 8.2099 33.2575 9.15782L33.6932 9.36668L33.6771 11.1018C31.9666 11.1018 32.4346 11.1661 32.2893 10.7163C31.9827 10.7323 31.8537 10.7805 31.7084 11.0054C31.5471 11.2304 31.4986 11.4874 31.5632 11.8088C31.6116 11.9694 31.7407 12.2426 31.9021 12.339C32.2248 12.5157 32.2732 12.3229 32.3377 12.2426L33.6771 12.0658L33.6932 16.5323C32.3377 17.2713 33.3544 18.3478 33.3866 18.4281C33.7416 19.3439 31.9827 21.5932 31.4341 22.2519C29.4654 24.6136 24.4792 28.566 24.1404 29.7067C23.6724 29.4657 23.8015 29.3853 23.8176 28.7106C23.8176 28.325 23.8338 27.9072 23.8015 27.5377L23.8176 25.8507C25.5927 25.8347 24.6083 25.8507 25.157 26.156C25.8186 25.8829 25.8831 24.9671 25.157 24.6779C24.6083 24.951 25.6088 25.0635 23.8176 24.9992C23.8176 22.5732 23.8499 23.8103 24.1565 23.248C23.8983 22.5732 22.9785 22.5089 22.6558 23.248C22.9785 23.7943 22.9785 22.766 22.9785 25.0153H21.9458C21.7037 24.694 21.9458 24.8546 21.7037 24.6779C20.9453 24.8707 20.9615 25.9311 21.7037 26.156L21.9458 25.8347H22.9785V29.4657C21.8328 30.6385 23.2529 30.2047 22.7688 31.7953C21.5424 35.8601 15.2814 37.7398 17.0403 42.0938C17.2501 42.6079 17.6373 43.1542 18.0407 43.5398C18.186 43.6683 18.5087 44.0057 18.8637 44.4074ZM50.0234 44.1021C49.2005 43.8772 48.4743 43.3952 47.5061 43.0417L51.0239 42.9132C50.9594 43.5719 51.153 43.6522 51.3305 44.1021C50.9432 44.1021 50.4914 44.1021 50.0234 44.1021ZM23.269 27.0236L23.2851 25.5615L21.7844 25.5455L21.6553 25.9311C21.2196 25.5615 21.3003 25.3848 21.5101 24.9189C21.8006 25.0153 21.5101 24.8546 21.6553 25.0474L21.7522 25.2081C21.7683 25.2081 21.7683 25.2402 21.7844 25.2563H23.2851V23.3123L22.8817 23.1516C23.269 22.8142 23.4304 22.8624 23.8822 23.0713C23.6885 23.7461 23.5595 22.1716 23.5595 25.2563C24.8665 25.2563 24.802 25.4009 25.1731 25.0474C25.3183 24.935 25.0602 25.0153 25.3183 24.935C25.5765 25.4009 25.512 25.5455 25.2538 25.9311C25.1086 25.7704 25.1892 25.8347 25.0763 25.5455H23.5756L23.5595 27.361L23.4626 29.3853C23.1883 29.2729 23.269 29.3853 23.269 28.8873V27.0236ZM51.5403 34.9925C52.331 35.8279 53.6542 37.2257 53.1055 39.1376C52.7505 40.3426 51.7339 41.3066 50.6205 41.7885L50.0396 41.9653C48.3614 42.3669 46.2798 42.3669 44.5047 42.1581C42.7297 41.9492 41.4549 41.162 40.7772 39.9891C39.3249 37.4828 41.229 35.7155 42.7943 34.1731C43.0524 33.916 43.3106 33.7554 43.5849 33.5144C44.6015 32.5825 45.8118 31.5864 46.3604 30.3975C46.5057 30.0601 46.6025 29.6263 46.7638 29.305C47.9257 32.3094 48.9746 32.6307 51.5403 34.9925ZM25.9961 38.6395C29.9495 38.6235 35.678 38.5271 39.5831 38.6395C39.5992 39.234 39.6799 39.475 39.8574 39.9088L25.9961 39.8927C26.3511 39.3465 26.4156 39.1697 25.9961 38.6395ZM34.6453 20.4203C34.7582 20.5328 34.9357 21.0148 35.081 21.2718C35.8232 22.6053 38.4212 25.2563 39.3572 25.8025C41.3742 27.4895 43.6172 28.5981 43.2138 31.731C43.0524 33.0163 41.939 34.1088 41.2774 34.7676C40.164 35.8922 39.9704 36.5509 39.5992 37.7077C39.5347 37.9005 39.5669 37.8041 39.5185 37.9005C37.9855 37.9808 29.6914 37.9648 28.3682 37.788C26.6738 37.5631 25.4474 36.9365 24.7213 35.8601C23.9629 34.7515 23.5433 32.9681 24.0274 31.4579C24.2695 30.7028 24.5761 30.1726 24.9472 29.5942C25.754 28.3892 28.0131 26.4291 29.1104 25.417C29.9495 24.6458 32.4184 22.0752 33.0478 20.9987C33.4512 20.2757 33.7255 19.4563 34.1128 19.3117C34.3871 19.5206 34.5485 20.0508 34.6453 20.4203ZM23.1883 30.0119C22.9463 29.8834 23.3174 30.0762 23.0754 29.9477L22.9624 29.8834C23.2044 29.6585 23.6563 29.6585 23.8176 29.9959C23.8822 30.1405 23.6724 30.526 23.5272 30.6224C23.5272 30.269 23.5272 30.1887 23.1883 30.0119ZM47.2802 27.3931C47.0382 27.6823 47.2479 27.5698 46.9091 27.6984C47.0059 27.1521 46.8929 27.0075 46.3927 26.8951C46.78 26.4452 47.2641 26.7505 47.2802 27.3931ZM46.6186 22.1073V20.1311C46.0861 20.1151 46.3604 20.1954 46.2636 19.9383C46.5863 19.6009 46.9898 19.7777 47.2802 19.9544C47.1673 20.1954 47.3286 20.1151 46.9091 20.1311V22.0912H48.3775C48.6034 21.6735 48.3936 21.8181 48.6357 21.7378C48.8777 22.1715 48.9261 22.3161 48.6357 22.7339C48.4098 22.6535 48.5066 22.6053 48.3775 22.3965H46.9091C46.9091 23.1034 46.9091 23.8103 46.9091 24.5012V26.1078C46.8768 26.5255 46.9736 26.3167 46.78 26.4291C46.5379 26.3327 46.6186 26.4613 46.6025 26.0275L46.6186 22.3965H45.1663C45.1663 22.4125 45.1502 22.4447 45.1502 22.4607L44.9243 22.7178C44.537 22.3643 44.6822 22.027 44.892 21.7217C45.2147 21.8824 45.0534 22.2358 45.1502 22.027C45.1502 22.0109 45.1663 22.0752 45.1663 22.0912L46.6186 22.1073ZM34.1935 18.2192C34.5646 17.1749 33.9675 17.2392 33.7094 16.95C34.7421 16.5001 35.3069 18.0104 34.1935 18.2192ZM33.9998 9.20602C33.8062 9.07748 33.8546 9.15782 33.7739 9.10962C33.5641 8.99715 33.6771 9.17388 33.5803 8.94895C33.903 8.56336 34.4032 8.57943 34.7098 8.94895C34.613 9.20602 34.5646 9.02929 34.3064 9.20602V11.375L36.0492 11.391L36.2267 10.9733C36.6623 11.2946 36.7269 11.873 36.2267 12.1462L36.1298 11.9052C36.0814 11.7927 36.0976 11.8088 36.0492 11.7284L34.3064 11.7606C34.3064 12.4835 34.4194 16.1467 34.1935 16.4359C33.9353 16.3395 33.9998 16.5001 33.9998 16.0181V11.7284H32.2571C32.128 11.9373 32.2409 11.7445 32.1602 11.9694L32.0796 12.1462C31.5793 11.8891 31.6277 11.2464 32.0796 10.9733L32.2571 11.391L33.9998 11.3589V9.20602ZM24.7536 42.7847H24.7051C24.5115 42.7847 24.2049 42.8007 23.9467 42.7686H22.914C22.7849 42.8489 22.2201 42.9293 21.9781 43.0417C21.5585 43.2185 20.9937 43.6522 20.4774 44.0057C20.3321 43.7165 20.1708 43.4434 20.074 43.347C19.7189 42.9614 18.1053 42.624 18.4764 40.5675C18.6862 39.475 19.6544 38.4468 20.2353 37.772C21.3649 36.4545 21.2681 36.4385 22.1717 35.2014C22.2847 38.5432 22.8656 37.9005 24.1081 40.2462C24.4954 41.0013 24.7697 41.901 24.7536 42.7847ZM38.3728 47.4118L38.9699 47.6688C38.7762 47.6849 38.5665 47.701 38.3728 47.717C38.0662 47.717 37.8726 47.6688 37.5821 47.6206C37.5983 47.5242 37.5499 47.6206 37.6144 47.5242C37.9049 47.46 38.0501 47.4118 38.3728 47.4118ZM39.8251 47.6046L38.7762 46.8334C40.3092 44.3752 42.0358 43.0739 45.1663 43.1703C46.6832 43.2024 47.4577 43.6201 48.5873 44.1182C50.3623 44.9215 50.3623 44.8412 52.1373 44.6966L52.5407 46.9137C52.3955 47.2672 52.0244 47.0583 51.5241 47.0904C49.1521 47.2029 47.3125 47.3154 45.9409 47.4278C43.9722 47.5082 41.8422 47.4921 39.8251 47.6046ZM38.0824 46.8655C37.453 46.9137 37.2271 47.1065 36.7592 47.3796C36.4848 47.5403 35.3876 47.5082 35.0003 47.5242C33.79 47.5564 32.6121 47.6688 31.418 47.6849C29.0136 47.7331 26.577 47.9741 24.1726 48.0062C24.2211 47.235 24.5115 46.4317 24.6567 45.7248L25.3345 45.7891C25.867 45.8373 26.3027 45.773 26.7868 45.6445C27.1256 45.5481 27.8356 45.1946 27.9809 45.1785C28.11 45.05 28.7232 44.7126 28.9329 44.5841C31.2566 43.2185 33.8062 42.8007 36.146 44.311C36.9367 44.9054 38.0501 45.7891 38.0824 46.8655ZM23.5756 47.8134L23.4949 48.0544C22.8172 48.0866 16.9757 46.7209 16.9273 46.6888C16.9596 46.2389 17.2339 45.6605 17.1855 45.2749C17.2339 45.2107 17.1855 45.3231 17.2501 45.1625L17.3146 44.9376C17.3791 44.7769 17.3469 44.8572 17.4114 44.793C18.0407 44.793 18.9767 44.9858 19.6221 45.0821C21.0421 45.291 22.6074 45.4677 24.0435 45.6445L23.5756 47.8134ZM29.9979 43.4434L30.0302 43.4113C28.9007 43.7165 27.6259 44.9536 26.3511 45.1464C26.1897 45.2589 25.4797 45.2107 25.1892 45.1946C24.1081 44.9215 20.9292 44.7448 20.6871 44.552C21.139 44.1985 21.8006 43.7004 22.3331 43.5076C22.9947 43.2667 24.0274 43.347 24.8181 43.347C25.7056 43.347 26.5931 43.347 27.4806 43.347C27.9163 43.347 28.3682 43.347 28.8038 43.347C29.0782 43.347 30.0141 43.2827 29.9979 43.4434Z" fill="#522100"/>
<path d="M42.5038 34.9764C41.9229 35.5709 41.4711 35.9725 41.0354 36.808C39.7767 39.2019 41.7131 41.3065 44.1336 41.7564C45.1986 41.9653 47.1834 42.0135 48.2807 41.8367C50.9432 41.6921 53.7349 39.5232 52.1535 36.7116C51.6048 35.7476 49.1198 33.1127 48.5228 32.8396C48.9746 33.9964 52.2826 36.9365 50.2494 39.8445C49.7653 40.5514 49.2328 40.8567 48.4098 41.1298C46.3604 41.6439 44.3111 41.3226 43.5043 39.8606C43.117 39.1215 43.0525 38.0451 43.3268 37.1454C43.585 36.3099 44.0529 35.7155 44.3918 35.0567C44.7468 34.6069 45.1663 33.8678 45.4407 33.3698C45.7795 32.7592 46.0054 32.2291 46.1829 31.49V31.3293L46.1023 31.3615C45.5536 31.972 45.7311 32.0684 44.7145 32.9842C43.9561 33.659 43.23 34.2534 42.5038 34.9764Z" fill="#522100"/>
<path d="M40.8578 34.2052C42.1326 32.7593 43.3428 31.5221 42.2133 29.3371C41.8421 28.582 41.6001 28.4213 41.0999 27.9233C40.6964 27.5698 38.1307 25.4169 37.9532 25.3527C38.5019 26.7022 39.6476 27.5377 40.2769 29.4978C40.5674 30.3493 40.7126 31.6507 40.3898 32.4861C40.293 32.9842 40.051 33.418 39.8412 33.7875C39.5185 34.382 39.0182 34.9764 38.518 35.4102C35.3552 38.2057 26.5124 37.6916 27.6904 31.4579C28.2713 29.3211 29.7074 27.7305 30.8209 26.3167C31.8859 24.9671 33.3543 23.0713 33.6125 20.8862C33.5641 20.6131 33.6125 20.7738 33.3059 21.32C33.1768 21.561 33.0638 21.7217 32.8863 21.9787C30.8531 25.1438 25.6733 28.341 24.6083 31.3936C23.8176 33.675 24.7696 36.2296 27.3515 37.0811C28.9329 37.6113 31.0468 37.4506 32.8863 37.4506C34.8711 37.4506 36.8882 37.4667 38.873 37.4506C39.0828 37.1293 39.1796 36.4706 39.6476 35.7797C40.0348 35.1853 40.3737 34.7675 40.8578 34.2052Z" fill="#522100"/>
<path d="M63.0456 38.4789C62.4485 41.5958 61.3513 44.5359 59.8506 47.219H58.1562C59.7537 44.552 60.9156 41.6118 61.561 38.4789H63.0456ZM48.3936 58.4654C44.2626 60.7147 39.5185 62 34.4839 62C29.4492 62 24.7051 60.7147 20.5741 58.4654H23.9789C27.2063 59.7989 30.7563 60.538 34.4839 60.538C38.2114 60.538 41.7453 59.7989 44.9888 58.4654H48.3936ZM9.11716 47.219C7.60032 44.5359 6.50304 41.5958 5.92212 38.4789H7.40668C8.03601 41.6118 9.21398 44.552 10.8115 47.219H9.11716Z" fill="#522100"/>
<path d="M5.59939 55.5253C5.59939 56.0555 5.38962 56.425 5.00234 56.6178C4.72802 56.7463 4.29233 56.8106 3.67914 56.8106H0C0.0968195 55.6217 0.129093 54.3042 0.129093 52.8743C0.129093 50.609 0.952058 49.4683 2.58185 49.4683C3.16277 49.4683 3.64687 49.5325 4.03414 49.6611C4.64733 49.8539 4.93779 50.1591 4.93779 50.609C4.93779 51.4766 4.17937 52.2156 2.66253 52.8101V52.8583L2.69481 52.8422C2.92072 52.9225 3.27572 53.0832 3.74369 53.3242C4.24392 53.5812 4.56665 53.774 4.72802 53.9026C5.30893 54.3685 5.59939 54.8987 5.59939 55.5253ZM3.27572 50.7857C3.27572 50.4644 3.24345 50.2394 3.16277 50.1109C3.06595 49.9181 2.87231 49.8217 2.58185 49.8217C2.32367 49.8217 2.11389 50.0145 1.92025 50.4001C1.77502 50.7214 1.69434 51.0267 1.69434 51.3159V52.6173H1.77502C2.22685 52.6173 2.58185 52.4084 2.87231 52.0228C3.14663 51.6533 3.27572 51.2516 3.27572 50.7857ZM3.72755 55.3807C3.72755 54.8023 3.55005 54.2721 3.14663 53.8062C2.74322 53.3081 2.25912 53.0671 1.69434 53.0671C1.69434 54.2721 1.66207 55.3967 1.61366 56.4411H2.53344C3.34027 56.4411 3.72755 56.0876 3.72755 55.3807ZM10.5856 56.8106H9.27853C9.19785 56.0394 9.16558 55.1879 9.16558 54.256C8.56852 54.3846 8.16511 54.7059 7.9392 55.22C7.76169 55.5895 7.66487 56.1197 7.68101 56.8106H6.03508C6.03508 56.2161 6.34167 55.6377 6.93873 55.0754C7.50351 54.5452 8.08442 54.2239 8.69761 54.0954C7.18078 53.4688 6.40622 52.8261 6.40622 52.1674C6.40622 51.6533 6.90645 51.3962 7.90692 51.3962H10.5856C10.5049 52.3602 10.4726 53.1796 10.4726 53.8544C10.4726 54.9469 10.5049 55.9269 10.5856 56.8106ZM9.27853 51.6854H8.43943C8.00374 51.6854 7.79397 51.9264 7.79397 52.4084C7.79397 52.7779 7.9392 53.0993 8.22965 53.3884C8.42329 53.5812 8.74602 53.7901 9.16558 54.015C9.16558 53.0671 9.19785 52.2959 9.27853 51.6854ZM17.4436 51.3962C17.137 51.9746 16.9273 52.5691 16.782 53.1957H16.7659V53.1796L16.782 53.1635C16.3948 52.1674 15.7493 51.6854 14.8456 51.7015C14.8779 52.2959 14.9102 53.1475 14.9263 54.256C14.9263 55.4289 14.9586 56.2804 14.9909 56.8106H13.5709C13.587 56.3125 13.6193 55.461 13.6193 54.256C13.6354 53.1635 13.6677 52.312 13.7161 51.7015H13.5225C13.1029 51.7015 12.7318 51.8461 12.409 52.1513C12.1024 52.4245 11.8927 52.7619 11.7797 53.1957H11.7636C11.6022 52.553 11.3924 51.9585 11.102 51.3962H17.4436ZM21.736 52.3763L20.9453 53.1957C20.4612 52.4405 19.9448 52.071 19.4123 52.071C19.2187 52.071 19.0412 52.1835 18.8798 52.4245C18.7507 52.6333 18.6862 52.8422 18.6862 53.0671C18.6862 53.5812 18.8798 54.1918 19.2671 54.8826C19.7028 55.6538 20.1546 56.0394 20.6387 56.0394C20.9937 56.0394 21.268 55.8305 21.4455 55.3967L21.6876 55.5895C21.2035 56.2965 20.6387 56.7784 19.9932 57.0034C18.5087 56.3929 17.7664 55.5253 17.7664 54.4167C17.7664 53.7258 17.9761 53.0832 18.3957 52.4887C18.8152 51.8782 19.3478 51.4605 19.9932 51.2034C20.7032 51.3962 21.2841 51.7979 21.736 52.3763ZM26.8029 56.8106H25.3022C25.3022 56.2804 25.1731 55.7502 24.9471 55.22C24.6728 54.5934 24.334 54.2239 23.8983 54.0954C23.8983 55.1879 23.866 56.1037 23.8176 56.8106H22.4621C22.5428 55.7502 22.5912 54.5131 22.5912 53.0993C22.5912 52.3763 22.5428 51.8139 22.4621 51.3962H23.8176C23.866 52.0549 23.8983 52.8101 23.8983 53.6616H23.9144C24.1887 52.9707 24.4308 52.4727 24.6406 52.1674C25.0117 51.589 25.4474 51.2998 25.9153 51.2998C26.2219 51.2998 26.5124 51.3641 26.7867 51.5087L26.464 52.7297C26.2381 52.6333 25.9799 52.5851 25.6894 52.5851C25.3183 52.5851 25.0117 52.6976 24.7696 52.9225C24.5921 53.0993 24.4308 53.3724 24.2533 53.758C25.9476 54.3364 26.8029 55.3485 26.8029 56.8106ZM32.257 56.8106H30.9177C30.8531 55.8627 30.837 54.5774 30.837 52.9707C30.482 53.3724 30.127 53.7901 29.7881 54.1918C29.3686 54.6898 29.0781 55.1397 28.9167 55.5413C28.9167 55.9751 28.9006 56.3929 28.8522 56.8106H27.4967C27.5935 55.7502 27.6258 54.7702 27.6258 53.8544V53.2599C27.6258 52.5048 27.5935 51.8782 27.4967 51.3962H28.8038C28.8845 51.9746 28.9329 53.0832 28.9329 54.738C29.062 54.5774 29.4008 54.1757 29.9495 53.5491C30.3852 53.0671 30.6918 52.6333 30.8693 52.2799C30.8854 52.0067 30.9177 51.7175 30.95 51.3962H32.257C32.1602 51.8139 32.1118 52.3602 32.1118 53.035C32.1118 54.5292 32.1602 55.7984 32.257 56.8106ZM36.8559 49.886C36.5171 50.7214 36.0975 51.1392 35.5973 51.1392C35.0971 51.1392 34.6936 50.7214 34.3548 49.886L34.5968 49.7253C34.742 50.0627 35.0648 50.2394 35.5973 50.2394C36.0975 50.2394 36.4364 50.0627 36.6139 49.7253L36.8559 49.886ZM37.9694 56.8106H36.63C36.5655 55.8627 36.5493 54.5774 36.5493 52.9707C36.1943 53.3724 35.8393 53.7901 35.5005 54.1918C35.0809 54.6898 34.7905 55.1397 34.6291 55.5413C34.6291 55.9751 34.613 56.3929 34.5645 56.8106H33.2091C33.3059 55.7502 33.3382 54.7702 33.3382 53.8544V53.2599C33.3382 52.5048 33.3059 51.8782 33.2091 51.3962H34.5161C34.613 51.9746 34.6452 53.0832 34.6452 54.738C34.7743 54.5774 35.1132 54.1757 35.6618 53.5491C36.0975 53.0671 36.4041 52.6333 36.5816 52.2799C36.5978 52.0067 36.63 51.7175 36.6623 51.3962H37.9694C37.8725 51.8139 37.8403 52.3602 37.8403 53.035C37.8403 54.5292 37.8725 55.7984 37.9694 56.8106ZM47.9095 56.8106H46.3927C46.2797 55.9912 46.2152 54.8505 46.2313 53.4045C46.2474 51.7818 46.2152 50.6411 46.1506 49.9824H44.1013C44.1497 50.6411 44.1819 51.4284 44.1819 52.3441V53.6455C44.1819 54.722 44.1497 55.7823 44.0851 56.8106H42.4876C42.5844 55.5735 42.6328 53.9508 42.6328 51.9746C42.6328 50.9624 42.5844 50.1752 42.5037 49.6129H47.6836C47.7481 50.143 47.7643 51.2034 47.7643 52.8101V54.0472C47.7643 55.1236 47.8127 56.0555 47.9095 56.8106ZM53.2507 53.8222C53.2507 54.5131 53.0409 55.1397 52.6375 55.7341C52.218 56.3286 51.6855 56.7624 51.04 57.0034C49.5716 56.2804 48.8293 55.4128 48.8293 54.4167C48.8293 53.7258 49.0391 53.0832 49.4425 52.4887C49.862 51.8782 50.3945 51.4605 51.04 51.2034C52.5084 51.9746 53.2507 52.8422 53.2507 53.8222ZM52.3309 55.1557C52.3309 54.5292 52.105 53.9347 51.6532 53.3724C51.2659 52.9225 50.7495 52.5048 50.1202 52.1835C49.862 52.3923 49.7491 52.6976 49.7491 53.0671C49.7491 53.6937 49.975 54.2882 50.4268 54.8344C50.8141 55.3003 51.3304 55.702 51.9598 56.0394C52.2018 55.7823 52.3309 55.4771 52.3309 55.1557ZM57.898 52.3763L57.1235 53.1957C56.6394 52.4405 56.123 52.071 55.5744 52.071C55.3807 52.071 55.2032 52.1835 55.058 52.4245C54.9128 52.6333 54.8482 52.8422 54.8482 53.0671C54.8482 53.5812 55.0419 54.1918 55.4291 54.8826C55.8648 55.6538 56.3328 56.0394 56.8007 56.0394C57.1719 56.0394 57.4301 55.8305 57.6237 55.3967L57.8658 55.5895C57.3817 56.2965 56.8007 56.7784 56.1553 57.0034C54.6869 56.3929 53.9446 55.5253 53.9446 54.4167C53.9446 53.7258 54.1543 53.0832 54.5578 52.4887C54.9773 51.8782 55.5098 51.4605 56.1553 51.2034C56.8653 51.3962 57.4462 51.7979 57.898 52.3763ZM63.207 56.8106H61.7869C61.6256 56.3447 61.4804 55.8466 61.3674 55.3164C60.964 56.3929 60.3831 56.923 59.6408 56.923C59.2374 56.923 58.9146 56.7945 58.6887 56.5214C58.4628 56.2643 58.366 55.9269 58.366 55.4931C58.366 54.9629 58.6242 54.3364 59.1244 53.6134C59.3503 53.292 59.8021 52.7619 60.4799 52.0067L60.254 51.3962H61.7063C61.9806 52.071 62.2549 52.9547 62.5131 54.0793C62.852 55.5092 63.0779 56.4089 63.207 56.8106ZM61.1253 54.6898C61.1253 54.1596 60.9478 53.3724 60.609 52.3281C60.1894 52.8422 59.899 53.276 59.7537 53.6294C59.5762 54.0472 59.4794 54.5613 59.4794 55.1718C59.4794 55.3485 59.5278 55.5253 59.6246 55.6699C59.7376 55.8466 59.8828 55.9269 60.0603 55.9269C60.7703 55.9269 61.1253 55.5092 61.1253 54.6898ZM69 56.5374C68.6934 57.164 68.4675 57.7424 68.3223 58.3047H68.3061C68.2577 58.1602 68.1286 57.9674 67.9511 57.7264C67.7252 57.4693 67.5961 57.2765 67.5316 57.164C67.2088 56.923 66.7247 56.8106 66.0631 56.8106C65.3531 56.8106 64.8852 56.8909 64.627 57.0516C64.3527 57.2283 64.1106 57.646 63.917 58.3047H63.9008C63.8686 58.0156 63.6588 57.4211 63.2876 56.5374H63.4652C64.2558 56.5374 64.8045 55.8305 65.1434 54.4488C65.337 53.6134 65.4338 52.5851 65.4338 51.3962H66.8377C67.0313 52.7619 67.225 53.758 67.4025 54.4006C67.8059 55.8305 68.3384 56.5374 69 56.5374ZM66.9991 56.5374C66.4181 55.5253 66.0147 54.24 65.7565 52.6976C65.7565 53.4688 65.6759 54.1436 65.5306 54.6898C65.3693 55.3003 65.0949 55.9109 64.7077 56.5374H66.9991Z" fill="#522100"/>
<path d="M4.76021 32.6789C5.22817 32.8717 5.7284 33.0163 6.2125 33.0967V33.1127C5.7284 33.3055 5.40567 33.5465 5.26044 33.8196C5.11521 34.0606 5.0668 34.4623 5.08294 35.0086C5.11521 35.4263 5.22817 35.7315 5.43794 35.9083C5.59931 36.0529 5.92204 36.1653 6.37387 36.2457V36.2617H6.35773C6.14795 36.2939 5.92204 36.3581 5.64772 36.4706C5.42181 36.5831 5.1959 36.6795 4.95385 36.7758V36.6473C4.92157 36.1332 4.42134 35.7797 3.42087 35.5869C2.74314 35.4423 2.03313 35.3941 1.29084 35.4263C1.06493 35.4423 0.871292 35.4905 0.726063 35.5709L0.677653 34.4302C1.77494 34.2374 2.56563 34.0767 3.04973 33.9321C4.21156 33.5786 4.77634 33.1609 4.76021 32.6789ZM1.77494 35.1531H1.7588V35.1692L1.77494 35.1531ZM4.82475 34.1088C4.03406 34.5748 3.03359 34.9122 1.83949 35.1371C2.93677 35.0889 3.95338 35.2977 4.90544 35.7637L4.82475 34.1088ZM1.04879 28.5499L2.01699 28.8712C1.92017 29.0158 1.85562 29.1604 1.83949 29.3211C1.80721 29.6906 2.17835 30.028 2.98518 30.3172C3.5661 30.5421 4.11474 30.6706 4.66339 30.7188C5.58317 30.8152 6.39 30.751 7.08387 30.5421L7.29365 31.3936C6.53523 31.3133 5.80908 31.2008 5.11521 31.0723L5.01839 32.0202C3.64678 31.8756 2.16222 32.0202 0.564697 32.4701L0.677653 31.3776C2.22676 31.0884 3.63065 31.008 4.8893 31.1366V31.0402C4.00179 30.8634 3.2111 30.6546 2.51722 30.4136C1.33925 29.9959 0.774473 29.5621 0.822883 29.1122C0.839019 28.9033 0.919702 28.7266 1.04879 28.5499ZM1.87176 24.453L2.63018 24.8707C2.46881 24.9671 2.35586 25.0956 2.32358 25.2724C2.27517 25.5294 2.51722 25.9632 3.04973 26.5416C3.082 26.5255 3.58224 26.3327 4.5343 25.9311C5.13135 25.6901 5.64772 25.5133 6.05113 25.3848L5.80908 26.5577C5.42181 26.6541 4.74407 26.879 3.75974 27.2485C4.55043 27.9072 5.2443 28.325 5.88977 28.4535L5.29271 29.0801C4.8893 28.6945 4.29225 28.1161 3.50155 27.3449C2.53336 27.6823 1.71039 27.9233 1.03266 28.0518L1.24243 27.0075C1.71039 26.9593 2.22676 26.8308 2.80768 26.6219C1.95244 25.7222 1.53289 25.1599 1.59744 24.9189C1.62971 24.7261 1.72653 24.5654 1.87176 24.453ZM4.90544 21.561C5.42181 21.7378 5.85749 22.043 6.19636 22.4768C6.55137 22.9106 6.76114 23.4087 6.79342 23.9388C6.55137 24.0031 6.27705 24.1316 5.95431 24.3405C5.61545 24.5654 5.3734 24.71 5.21203 24.7582C4.92157 24.8546 4.59884 24.8386 4.24384 24.71C3.7436 24.5172 3.30792 24.212 2.96905 23.7782C2.59791 23.3283 2.40427 22.8463 2.37199 22.3161C2.59791 22.2519 2.88836 22.1233 3.2111 21.8984C3.53383 21.6896 3.77588 21.545 3.93724 21.4968C4.2277 21.4004 4.55043 21.4325 4.90544 21.561ZM5.69613 22.5411C5.32499 22.4125 4.95385 22.3643 4.61498 22.4286C4.34066 22.4768 4.00179 22.6214 3.59837 22.8463C3.3886 22.9749 3.25951 23.0391 3.24337 23.0552C3.11428 23.1195 2.98518 23.1677 2.87223 23.1998C2.98518 23.4408 3.17882 23.6015 3.45314 23.6978C3.8727 23.8585 4.24384 23.9067 4.56657 23.8585C4.87316 23.8103 5.21203 23.6657 5.59931 23.4247C5.80908 23.2962 5.92204 23.2159 5.93818 23.2159C6.06727 23.1355 6.18023 23.0873 6.29318 23.0552C6.14795 22.7981 5.95431 22.6375 5.69613 22.5411ZM8.1973 18.5245C8.48776 18.6691 8.63299 18.8779 8.63299 19.1511C8.63299 19.3278 8.5523 19.5849 8.39094 19.9062L7.42274 21.9145C6.79342 21.545 6.09954 21.1754 5.30885 20.7898C4.06633 20.1954 3.66292 19.4563 4.08247 18.5727C4.24384 18.2514 4.4052 18.0104 4.58271 17.8336C4.84089 17.5444 5.08294 17.4802 5.34112 17.5926C5.80908 17.8176 6.01886 18.4281 5.93818 19.4081L5.97045 19.4242V19.4081C6.06727 19.2957 6.26091 19.1511 6.50296 18.9583C6.77728 18.7494 6.97092 18.6209 7.08387 18.5727C7.48729 18.3799 7.85843 18.3638 8.1973 18.5245ZM4.98612 18.5406C4.80862 18.4602 4.67952 18.412 4.59884 18.4281C4.46975 18.4281 4.35679 18.5084 4.27611 18.653C4.21156 18.7976 4.25997 18.9743 4.42134 19.1671C4.55043 19.3439 4.69566 19.4563 4.85703 19.5367L5.56704 19.8741L5.59931 19.8419C5.71227 19.6009 5.69613 19.3439 5.56704 19.0868C5.43794 18.8458 5.2443 18.6691 4.98612 18.5406ZM7.63252 19.5045C7.30979 19.3439 6.97092 19.3117 6.61591 19.4081C6.22864 19.4885 5.97045 19.6973 5.82522 20.0026C6.48682 20.3239 7.10001 20.6292 7.64865 20.9344L7.8907 20.4364C8.10048 20.0026 8.0198 19.6973 7.63252 19.5045ZM11.0857 15.6807L10.5694 16.4519C10.1498 16.2591 9.55277 15.8896 8.77822 15.3594C8.47162 15.5201 8.16503 15.8253 7.87457 16.2431C8.56844 16.709 9.19777 17.1588 9.77868 17.6087L9.23004 18.412C8.63299 17.93 7.84229 17.3677 6.84183 16.6929C6.34159 16.3395 5.93818 16.0985 5.61545 15.9539L6.14795 15.1827C6.47068 15.3273 6.98705 15.6486 7.69706 16.1306C7.98752 15.7129 8.27798 15.4076 8.58458 15.247L8.13275 14.9256C7.64865 14.6043 7.2291 14.3472 6.85796 14.1544L7.39047 13.3672C7.74547 13.5439 8.14889 13.801 8.63299 14.1223C8.74594 14.2026 8.90731 14.3151 9.11708 14.4597C9.343 14.6204 9.50436 14.7328 9.61732 14.7971C10.1821 15.1827 10.6662 15.4719 11.0857 15.6807ZM11.8119 11.1822C12.2153 11.5517 12.5058 12.0016 12.6671 12.5317C12.8285 13.078 12.8285 13.5921 12.651 14.1062C12.4089 14.0741 12.1024 14.0902 11.7312 14.1705C11.3278 14.2508 11.0535 14.283 10.8921 14.2669C10.5694 14.2508 10.2951 14.1062 10.0207 13.8653C9.61732 13.4957 9.32686 13.0459 9.16549 12.5157C9.00413 11.9694 9.00413 11.4392 9.18163 10.9412C9.42368 10.9733 9.73027 10.9412 10.1014 10.8769C10.5048 10.7966 10.7792 10.7644 10.9405 10.7644C11.2471 10.7966 11.5376 10.9412 11.8119 11.1822ZM12.1669 12.4032C11.8764 12.1301 11.5537 11.9694 11.2148 11.8891C10.9405 11.8248 10.5694 11.8248 10.1176 11.8891C9.85937 11.9212 9.73027 11.9373 9.71414 11.9534C9.55277 11.9694 9.42368 11.9694 9.29459 11.9534C9.31072 12.2104 9.43981 12.4353 9.66573 12.6281C9.98846 12.9334 10.3112 13.1262 10.6339 13.1905C10.9244 13.2708 11.2955 13.2708 11.7473 13.1744C11.9894 13.1423 12.1185 13.1101 12.1346 13.1101C12.2799 13.0941 12.4089 13.078 12.5219 13.0941C12.4896 12.8209 12.3767 12.5799 12.1669 12.4032ZM14.0871 10.2825C13.9742 10.3789 13.7967 10.5395 13.5385 10.7323C13.2803 10.9412 13.1028 11.0858 12.9899 11.1982L12.7478 10.9251C13.2642 10.4592 13.6031 10.1218 13.7644 9.91293L14.0871 10.2825ZM18.3311 9.01322L17.5888 9.55947C17.2338 9.20601 16.7981 8.67582 16.2817 7.9689C15.7008 7.18165 15.2651 6.6354 14.9908 6.33014L14.0065 7.06919C14.2647 7.37445 14.5551 7.74398 14.894 8.19383L15.3619 8.82042C15.7654 9.35061 16.1365 9.8808 16.4754 10.3949L15.7008 10.9733C15.2974 10.3307 14.7326 9.52734 14.0065 8.56336C13.6515 8.0653 13.3449 7.71184 13.0867 7.47085L15.604 5.59109C15.8299 5.83208 16.2333 6.3462 16.8142 7.11739L17.2499 7.71184C17.6533 8.24203 18.0083 8.67582 18.3311 9.01322ZM19.8479 3.95232C20.0254 4.25758 19.977 4.70744 19.735 5.28583C19.5574 5.68748 19.3154 6.08914 18.9927 6.52293C19.2993 7.08526 19.622 7.61544 19.9447 8.09743L19.0734 8.57942C18.7022 7.98497 18.3311 7.34232 17.9438 6.65146C17.6695 6.12127 17.5404 5.62322 17.5726 5.17336C17.6049 4.61104 17.8792 4.20938 18.3795 3.93625C18.7183 3.75952 18.9765 3.64706 19.154 3.61493C19.4768 3.56673 19.7027 3.67919 19.8479 3.95232ZM19.0411 4.53071C18.9443 4.37004 18.8636 4.25758 18.799 4.19331C18.6699 4.09692 18.5408 4.09692 18.3956 4.17725C18.2181 4.27365 18.1536 4.51464 18.2342 4.8681C18.2827 5.12516 18.3795 5.38222 18.5086 5.63929L18.8958 6.3462C19.2993 5.68748 19.3477 5.09303 19.0411 4.53071ZM24.5275 5.99274L23.5755 6.37834C23.3657 6.16947 23.1075 5.83208 22.817 5.38222C22.8816 6.298 22.6718 6.86033 22.1716 7.06919C21.8811 7.18165 21.6229 7.16559 21.3809 7.02099C21.1711 6.87639 20.9936 6.66753 20.8645 6.36227C20.687 5.94455 20.6386 5.41436 20.7516 4.7717C20.8 4.46644 20.9291 3.93625 21.155 3.1972C21.042 3.06867 20.9129 2.94014 20.7677 2.84374L21.8166 2.40995C22.1877 2.81161 22.6557 3.40606 23.2043 4.17725C23.8175 5.07696 24.2693 5.68748 24.5275 5.99274ZM22.4943 5.02876C22.3168 4.62711 21.9457 4.08085 21.3647 3.37393C21.2841 3.87199 21.2679 4.28971 21.2679 4.61104C21.3002 5.02876 21.3809 5.43042 21.5422 5.79995C21.5907 5.92848 21.6713 6.04094 21.7843 6.12127C21.9134 6.23374 22.0425 6.24981 22.1554 6.20161C22.6234 6.00881 22.7364 5.60715 22.4943 5.02876ZM28.0614 4.24151C28.1421 4.56284 28.0937 4.80384 27.8839 4.98057C27.7387 5.09303 27.4966 5.20549 27.1416 5.28583L24.9793 5.84815C24.8502 5.12516 24.6889 4.35398 24.463 3.51853C24.1241 2.18502 24.4307 1.39777 25.3989 1.14071C25.7216 1.06038 26.0282 1.02825 26.2703 1.04431C26.6575 1.06038 26.8835 1.20498 26.948 1.46204C27.0771 1.97616 26.7382 2.52242 25.9475 3.1008V3.11687H25.9637C26.1089 3.13294 26.3509 3.16507 26.6575 3.22933C26.9803 3.30967 27.2062 3.37393 27.3191 3.42213C27.7226 3.61493 27.9807 3.88805 28.0614 4.24151ZM25.9959 1.8155C25.9475 1.6227 25.883 1.51024 25.8346 1.44597C25.7378 1.33351 25.6087 1.31744 25.4473 1.34957C25.2859 1.39777 25.1891 1.54237 25.1407 1.78336C25.1084 1.99223 25.1084 2.18502 25.1407 2.36175L25.3343 3.11687H25.3828C25.6571 3.0526 25.8346 2.87587 25.9475 2.60275C26.0444 2.34569 26.0605 2.08862 25.9959 1.8155ZM26.948 4.43431C26.8673 4.11298 26.6737 3.82379 26.3832 3.61493C26.0605 3.37393 25.7378 3.30967 25.415 3.39C25.5925 4.09692 25.7378 4.7717 25.8668 5.38222L26.4155 5.25369C26.8835 5.12516 27.061 4.8681 26.948 4.43431ZM31.3372 2.08862C31.4178 2.63488 31.3533 3.149 31.1435 3.66313C30.9337 4.19331 30.5949 4.59497 30.143 4.88417C29.9817 4.70744 29.7235 4.53071 29.3846 4.35398C29.0296 4.17725 28.7876 4.01658 28.6585 3.90412C28.4326 3.69526 28.3035 3.40606 28.2389 3.03654C28.1582 2.50635 28.2228 1.99223 28.4326 1.4781C28.6585 0.931848 28.9973 0.530189 29.433 0.257061C29.6105 0.433791 29.8687 0.594455 30.2076 0.771184C30.5626 0.96398 30.8046 1.10858 30.9176 1.22104C31.1435 1.4299 31.2726 1.7191 31.3372 2.08862ZM30.8369 3.26147C30.7885 2.85981 30.6433 2.53848 30.4174 2.26535C30.2399 2.04043 29.9494 1.8155 29.5783 1.5745C29.3524 1.44597 29.2394 1.38171 29.2233 1.36564C29.078 1.28531 28.9812 1.18891 28.9005 1.10858C28.7553 1.31744 28.6908 1.5745 28.7392 1.8637C28.8037 2.29749 28.9489 2.65095 29.1426 2.90801C29.3201 3.149 29.6267 3.39 30.0301 3.59886C30.2399 3.72739 30.3528 3.79166 30.369 3.79166C30.498 3.87199 30.611 3.95232 30.6917 4.03265C30.8369 3.77559 30.8853 3.53459 30.8369 3.26147ZM35.4197 2.73128C35.4197 3.2454 35.2099 3.67919 34.7742 4.04872C34.3708 4.38611 33.9029 4.56284 33.3865 4.56284C33.3865 4.27365 33.2735 4.01658 33.0638 3.75952C32.854 3.55066 32.6604 3.32573 32.4506 3.1008C32.2408 2.79554 32.1278 2.45815 32.1278 2.05649C32.1278 1.44597 32.2731 0.96398 32.5474 0.594455C32.854 0.192796 33.3219 0 33.919 0C34.3708 0 34.742 0.160663 35.0163 0.48199C35.2906 0.771184 35.4197 1.15678 35.4197 1.6227H34.4838V1.28531C34.4999 0.578388 34.3063 0.224929 33.9029 0.224929C33.4188 0.208862 33.1767 0.883649 33.1767 2.23322C33.1767 2.47422 33.2413 2.82768 33.3704 3.2936C33.4995 3.75952 33.564 4.09692 33.564 4.33791C33.9513 4.35398 34.2256 4.16118 34.3547 3.77559C34.4354 3.55066 34.4838 3.21327 34.4838 2.73128H35.4197ZM39.0182 4.83597L38.05 4.7235C37.9209 4.30578 37.8241 3.69526 37.7756 2.89194C37.7111 2.02436 37.6304 1.39777 37.5497 1.02825C37.0495 1.7673 36.7752 2.52242 36.6945 3.2936C36.6461 3.74346 36.6784 4.19331 36.7913 4.59497L35.807 4.49857C35.7747 4.33791 35.7586 4.17725 35.7747 4.01658C35.8393 3.42213 36.0329 2.84374 36.3718 2.26535C36.5815 1.91189 36.9365 1.41384 37.4691 0.771184C37.4368 0.594455 37.3722 0.433791 37.3238 0.273128L38.3243 0.369526C38.4695 0.851516 38.5825 1.59057 38.6632 2.60275C38.7438 3.59886 38.8568 4.33791 39.0182 4.83597ZM42.6973 5.68748L41.713 5.44649C41.6807 5.14123 41.6807 4.7235 41.713 4.17725C41.2127 4.94843 40.6964 5.26976 40.18 5.14123C39.8734 5.0609 39.6798 4.88417 39.5829 4.61104C39.4861 4.38611 39.4861 4.11298 39.5668 3.79166C39.6798 3.3418 39.9702 2.89194 40.4382 2.45815C40.6641 2.23322 41.0998 1.89583 41.7291 1.4299C41.713 1.26924 41.6807 1.09251 41.6323 0.931848L42.7296 1.22104C42.7941 1.7673 42.7941 2.50635 42.7618 3.45426C42.7134 4.54677 42.6973 5.30189 42.6973 5.68748ZM41.6807 3.71132C41.7775 3.2936 41.8259 2.61881 41.7775 1.7191C41.4225 2.05649 41.1482 2.37782 40.9707 2.63488C40.7286 2.98834 40.5511 3.35786 40.4543 3.74346C40.4059 3.88805 40.4059 4.01658 40.4382 4.14512C40.4866 4.30578 40.5673 4.40218 40.6964 4.43431C41.1966 4.56284 41.5193 4.32185 41.6807 3.71132ZM46.683 6.298C46.5701 6.60327 46.3926 6.77999 46.1183 6.79606C45.9408 6.82819 45.6664 6.76393 45.3276 6.6354L43.2298 5.88028C43.5364 5.22156 43.843 4.48251 44.1335 3.66313C44.6176 2.37782 45.3276 1.89583 46.2473 2.23322C46.5701 2.36175 46.8444 2.49028 47.038 2.65095C47.3285 2.87587 47.4415 3.11687 47.3446 3.37393C47.1671 3.87199 46.5701 4.12905 45.5857 4.16118V4.17725H45.6019C45.7148 4.27365 45.8762 4.43431 46.1021 4.6753C46.328 4.9163 46.4733 5.09303 46.5378 5.20549C46.7637 5.59109 46.8121 5.96061 46.683 6.298ZM46.3603 3.13294C46.4249 2.94014 46.4571 2.81161 46.441 2.73128C46.4249 2.60275 46.3442 2.50635 46.1828 2.44208C46.0214 2.39388 45.8601 2.44208 45.6826 2.61881C45.5212 2.77948 45.4244 2.94014 45.3598 3.1008L45.0855 3.83985L45.1339 3.85592C45.376 3.95232 45.6342 3.92019 45.8762 3.74346C46.1021 3.59886 46.2635 3.39 46.3603 3.13294ZM45.6664 5.83208C45.7794 5.51075 45.7794 5.17336 45.6664 4.8199C45.5373 4.45038 45.3114 4.20938 44.9887 4.09692C44.7305 4.78777 44.4723 5.41436 44.2303 6.00881L44.7466 6.20161C45.2146 6.36227 45.5051 6.24981 45.6664 5.83208ZM49.7651 8.96502L48.9422 8.51516C49.1035 8.09743 49.4101 7.47085 49.8619 6.6354C49.6683 6.3462 49.3456 6.08914 48.8937 5.83208C48.4903 6.57113 48.1031 7.22985 47.7158 7.85644L46.8605 7.39052C47.2801 6.74786 47.7803 5.91241 48.3451 4.85203C48.6356 4.32185 48.8453 3.90412 48.9583 3.56673L49.7813 4.01658C49.6683 4.35398 49.4101 4.90023 48.9906 5.63929C49.4424 5.88028 49.7651 6.15341 49.9588 6.4426L50.2331 5.96061C50.5074 5.44649 50.7333 4.99663 50.8785 4.62711L51.7338 5.07696C51.5724 5.44649 51.3626 5.88028 51.0722 6.37834C51.0238 6.4908 50.927 6.66753 50.7979 6.89246C50.6688 7.13345 50.5719 7.29412 50.5074 7.42265C50.1685 8.0171 49.9265 8.53123 49.7651 8.96502ZM53.9768 12.1622L53.2345 11.5517C53.654 10.9733 54.122 10.3949 54.59 9.81653C55.2031 9.09355 55.6711 8.54729 56.0261 8.2099L56.7684 8.82042C56.4941 9.04535 56.1552 9.41488 55.7518 9.89686C55.0095 10.7805 54.4286 11.5356 53.9768 12.1622ZM53.5249 10.668C53.2829 10.9572 53.0086 11.0536 52.702 10.9572C52.4922 10.909 52.234 10.7323 51.8951 10.4592L50.459 9.27028C50.9915 8.72402 51.524 8.14563 52.0565 7.48691L52.347 7.14952C52.7504 6.66753 53.057 6.24981 53.2506 5.91241L53.9929 6.52293C53.6379 7.05312 53.2668 7.53511 52.8956 7.9689C53.2022 8.24203 53.4443 8.67582 53.6218 9.25421C53.7993 9.89686 53.767 10.3789 53.5249 10.668ZM52.6536 9.96113C53.0893 9.44701 53.1215 8.83649 52.7665 8.12957C52.3147 8.67582 51.8467 9.20601 51.3626 9.72013L51.7822 10.0736C51.9597 10.2182 52.1049 10.2825 52.2502 10.2503C52.3792 10.2343 52.5083 10.1218 52.6536 9.96113ZM60.3991 11.0054C59.8182 11.2464 59.3987 11.2304 59.1405 10.9572C58.8823 10.668 58.8984 10.2503 59.205 9.70407L59.4148 9.7362C59.3825 9.9772 59.4632 10.2182 59.673 10.4592C59.915 10.7162 60.1409 10.8287 60.383 10.7966L60.3991 11.0054ZM56.8814 15.2791L56.2198 14.5722C56.72 14.0741 57.4784 13.3672 58.495 12.4514C58.4627 12.4514 58.0432 12.4996 57.2041 12.5639C56.6232 12.6121 56.2198 12.6924 56.0261 12.8209C56.01 12.8209 55.9293 12.8852 55.8002 12.9977C55.6388 13.1423 55.4452 13.3029 55.2193 13.4636L54.5738 12.7567C55.1709 12.2907 55.9293 11.6642 56.8168 10.8608C57.2686 10.4431 57.6075 10.1057 57.8173 9.8326L58.4627 10.5235C58.2046 10.8126 57.898 11.134 57.5107 11.4874C57.6236 11.391 57.2848 11.6802 56.5102 12.3871C56.5909 12.3871 56.9943 12.355 57.7205 12.2907C58.2207 12.2586 58.6241 12.1783 58.9307 12.098C59.1405 11.9212 59.318 11.7766 59.4793 11.6642L60.1248 12.355C59.8343 12.5317 59.4793 12.8049 59.0759 13.1744C58.1884 13.9777 57.4461 14.6846 56.8814 15.2791ZM60.5444 20.597C60.0764 20.6452 59.5762 20.7577 59.0759 20.9344L59.0598 20.9184C59.0598 20.9184 59.0759 20.9184 59.0759 20.9023C59.1243 20.8862 59.205 20.7738 59.3341 20.5488C59.4793 20.3239 59.56 20.1793 59.5923 20.1311C59.6891 19.8419 59.6568 19.5367 59.4632 19.2314L58.4627 17.5926C58.7855 17.448 59.205 17.2392 59.7375 16.9179C60.7541 16.2913 61.5932 15.7611 62.2064 15.3112L62.7067 16.1467C62.1903 16.5001 61.5126 16.9339 60.6573 17.448C60.0118 17.8336 59.5116 18.1228 59.1566 18.2996L59.8021 19.3599C60.1087 19.1993 60.7057 18.8458 61.5932 18.3156C62.3355 17.8658 62.9487 17.5444 63.4328 17.3356L63.9008 18.1228C63.4005 18.3478 62.8035 18.6691 62.0773 19.1029C61.0446 19.7134 60.4475 20.0669 60.2862 20.1633L60.5444 20.597ZM62.8358 23.6175C61.9482 23.8103 61.2705 23.3444 60.8025 22.2197C61.0446 22.1233 61.2382 21.9306 61.3512 21.6253C61.5771 21.1112 61.6901 20.838 61.6901 20.8059C61.8998 20.4846 62.2226 20.2275 62.6582 20.0508C63.2069 19.8098 63.7071 19.7777 64.1751 19.9223C64.6753 20.0829 65.0303 20.4203 65.2562 20.9666C65.4176 21.3361 65.4499 21.6896 65.3531 22.027C65.2562 22.3804 65.0303 22.6535 64.6753 22.8463L64.3203 22.0109C64.9658 21.7538 65.1917 21.4004 65.0142 20.9666C64.8044 20.4846 64.0944 20.5006 62.868 21.0148C63.0455 21.063 63.1908 21.1594 63.3521 21.304C63.4812 21.4486 63.5942 21.6092 63.6749 21.786C63.7878 22.0751 63.8524 22.3804 63.8362 22.6535C63.8201 23.0231 63.6749 23.2641 63.4167 23.3765L63.0617 22.5411C63.223 22.4768 63.336 22.3643 63.4005 22.2197C63.4489 22.0751 63.4328 21.9145 63.3683 21.7538C63.2876 21.561 63.2069 21.4325 63.1101 21.3361C63.0133 21.2397 62.868 21.1594 62.6744 21.0951C62.4646 21.1915 62.2064 21.4004 61.8837 21.7217C61.561 22.043 61.3028 22.2519 61.093 22.3483C61.206 22.6214 61.3996 22.7981 61.6739 22.8624C61.916 22.9427 62.1903 22.9106 62.4807 22.7821L62.8358 23.6175ZM62.7551 27.8912L62.5292 26.9914C62.9487 26.8147 63.6264 26.6219 64.5462 26.3809C64.6108 26.0435 64.5946 25.6258 64.4655 25.1278C63.6587 25.3366 62.9003 25.5133 62.1903 25.6579L61.9482 24.71C62.6905 24.5815 63.6426 24.3726 64.8205 24.0674C65.4015 23.9228 65.8533 23.7782 66.176 23.6336L66.4019 24.5494C66.0792 24.694 65.4983 24.8707 64.6753 25.0796C64.8044 25.5615 64.8205 25.9793 64.756 26.3327L65.2885 26.1881C65.8533 26.0435 66.3374 25.8989 66.7247 25.7543L66.9506 26.6862C66.5794 26.8147 66.1115 26.9593 65.5628 27.0878C65.4337 27.12 65.2401 27.1682 64.9819 27.2324C64.7237 27.2967 64.5301 27.3449 64.401 27.377C63.7394 27.5538 63.1908 27.7144 62.7551 27.8912ZM67.6767 32.4058C67.2088 32.2291 66.7085 32.1166 66.1922 32.0684V32.0523H66.2083C66.2406 32.0523 66.3858 31.972 66.6117 31.8114C66.8376 31.6668 66.9667 31.5704 66.999 31.5382C67.2249 31.2812 67.3217 30.9759 67.2733 30.6064V30.5582C66.8215 30.6385 66.1276 30.7188 65.2078 30.8152C64.288 30.9116 63.6103 31.008 63.1423 31.0723L63.0455 30.0601C63.5135 30.0441 64.1912 29.9959 65.111 29.8995C66.0469 29.8191 66.7247 29.7709 67.1926 29.7549L67.1765 29.6103C67.1442 29.305 66.9828 29.0479 66.7085 28.8391C66.4665 28.6623 66.176 28.5499 65.8372 28.5017V28.4856C66.3374 28.325 66.7892 28.1161 67.2249 27.859L67.6767 32.4058ZM66.8053 36.4063C66.4503 36.3903 66.0792 36.1332 65.7242 35.603C65.466 35.2656 65.2401 34.8318 65.0465 34.3498C64.401 34.3177 63.7878 34.3016 63.1908 34.3338L63.2392 33.3377C63.933 33.3377 64.6753 33.3537 65.466 33.3859C66.0792 33.418 66.5633 33.5626 66.9506 33.8357C67.4024 34.157 67.6122 34.5908 67.5799 35.1692C67.5638 35.5387 67.5154 35.8279 67.4508 35.9886C67.3217 36.2939 67.1119 36.4224 66.8053 36.4063ZM66.7247 35.4102C66.9183 35.4263 67.0474 35.4102 67.1442 35.3781C67.2733 35.3299 67.354 35.2174 67.354 35.0568C67.3701 34.8479 67.2088 34.6712 66.8538 34.5587C66.6117 34.4623 66.3374 34.4141 66.0469 34.398L65.2401 34.3498C65.5951 35.0246 66.0953 35.3781 66.7247 35.4102Z" fill="#522100"/>
</svg>
