<svg width="284" height="256" viewBox="0 0 284 256" fill="none" xmlns="http://www.w3.org/2000/svg">
<path fill-rule="evenodd" clip-rule="evenodd" d="M142.5 233C200.766 233 248 185.766 248 127.5C248 69.2338 200.766 21.9998 142.5 21.9998C84.234 21.9998 37 69.2338 37 127.5C37 185.766 84.234 233 142.5 233ZM77.1291 175.209C76.7133 175.144 76.2744 175.073 75.8243 175C73.207 174.575 70.2146 174.089 69.236 174.518C68.5877 174.982 68.3449 176.236 68.1261 177.365L68.1259 177.366C68.0488 177.765 67.9746 178.147 67.8868 178.475C67.718 179.197 67.5493 179.904 67.3806 180.611C67.212 181.317 67.0434 182.023 66.8748 182.745C66.0385 182.906 65.3457 182.907 64.7931 182.909C63.8301 182.911 63.293 182.912 63.1644 183.75L63.2993 186.576L94.332 192.794L94.4669 192.669C94.5442 192.741 94.5624 192.776 94.5893 192.803C94.6328 192.846 94.6987 192.866 95.0741 192.983C96.0185 193.297 121.384 192.166 122.531 192.103C128.893 191.937 135.166 191.659 141.449 191.381L141.451 191.381L141.453 191.381C144.629 191.24 147.807 191.099 151 190.973C152.143 190.941 153.037 191.173 154.002 191.424C154.916 191.662 155.894 191.917 157.207 191.978C159.568 192.103 161.929 191.915 164.02 191.287C167.902 190.123 179.035 189.975 188.282 189.852L188.981 189.842C196.132 189.905 206.184 189.654 218.395 188.963L222.105 188.837C222.51 187.895 222.375 186.074 222.173 185.069L220.351 184.944V184.692C219.904 182.444 219.58 180.648 219.323 179.219C218.684 175.676 218.451 174.388 217.752 174.041C217.352 173.842 216.8 173.95 215.933 174.12C215.699 174.166 215.441 174.216 215.157 174.267C214.982 173.822 214.732 173.41 214.479 172.991C213.657 171.635 212.801 170.22 214.347 167.484C214.834 166.622 215.826 165.651 216.993 164.508C220.675 160.902 226.107 155.582 222.982 146.569C220.535 139.536 215.096 135.553 209.667 131.576C202.975 126.675 196.298 121.785 195.255 111.21C195.401 111.041 195.57 110.874 195.745 110.7C196.55 109.906 197.496 108.972 196.942 107.064C196.652 106.082 196.362 105.906 196.12 105.76C195.743 105.532 195.484 105.375 195.525 102.354C195.525 100.993 195.518 99.64 195.51 98.2889L195.51 98.2808C195.495 95.5802 195.48 92.8888 195.525 90.1695H199.843C200.152 90.5774 200.205 90.7928 200.24 90.9313C200.295 91.1553 200.301 91.178 201.26 91.4885C202.272 90.986 203.149 90.2952 203.149 88.5366C203.149 87.0633 202.685 86.6689 202.05 86.1288C201.846 85.9551 201.624 85.7664 201.395 85.5219C200.483 85.8712 200.296 86.1809 200.19 86.3564C200.163 86.4018 200.141 86.4382 200.113 86.464C200.045 86.5268 199.978 86.6524 199.978 86.7152C199.94 86.7152 199.923 86.7548 199.904 86.8007C199.889 86.8365 199.873 86.8761 199.843 86.9037H195.525V81.3139C195.548 81.2932 195.577 81.2587 195.607 81.2241L195.608 81.2232C195.668 81.1534 195.728 81.0836 195.728 81.1255L196.875 79.995C195.66 77.4828 192.017 77.3572 190.668 79.995L191.882 81.1883C191.882 81.1883 192.017 81.2511 192.085 81.3139V86.9037H187.497C186.969 86.1663 186.926 85.9399 186.908 85.8496C186.904 85.8288 186.902 85.8152 186.895 85.8042C186.882 85.7836 186.854 85.7723 186.774 85.7399C186.704 85.7113 186.594 85.6665 186.418 85.5847C183.517 87.1549 183.585 90.2952 186.418 91.4885C186.65 91.3888 186.773 91.3506 186.841 91.3298C186.889 91.315 186.908 91.309 186.918 91.2958C186.925 91.2868 186.927 91.2745 186.931 91.2537C186.944 91.1862 186.973 91.0296 187.227 90.6092C187.295 90.6092 187.362 90.4836 187.362 90.4208C187.362 90.358 187.43 90.2324 187.497 90.1695H192.085V103.673C192.085 104.06 192.094 104.331 192.101 104.527C192.111 104.833 192.115 104.957 192.069 105.058C192.037 105.126 191.982 105.183 191.89 105.279C191.796 105.377 191.664 105.515 191.478 105.745C190.533 106.813 189.589 107.944 190.803 109.702C191.153 110.209 191.441 110.471 191.659 110.668C192.194 111.154 192.295 111.245 191.815 113.659C191.545 115.292 191.208 116.674 190.601 118.118C189.656 120.63 187.97 123.394 186.081 124.713C185.136 118.495 178.997 111.838 175.287 109.074C173.857 108.004 172.349 106.903 170.799 105.772C162.253 99.5357 152.408 92.3512 147.155 83.9518C145.873 81.8792 143.579 77.4828 143.512 74.5309C143.481 73.7932 143.85 73.4272 144.276 73.0045C144.793 72.4914 145.394 71.8947 145.468 70.4485C145.526 68.5644 144.494 67.603 143.475 66.6549C143.306 66.497 143.136 66.3391 142.972 66.1777V48.7805H147.964C148.424 48.8661 148.452 49.0165 148.492 49.2257C148.539 49.4772 148.602 49.8137 149.449 50.225C153.766 48.4665 151.607 44.1957 150.191 43.6304C148.952 43.2314 148.824 43.6462 148.641 44.2341C148.565 44.4789 148.48 44.7537 148.302 45.0122H143.175L142.972 38.2291L144.726 37.3499C143.647 33.8327 138.452 33.7071 137.305 37.4127L139.127 38.2291L139.059 45.0122C138.134 45.0122 137.361 45.0164 136.716 45.0199C134.267 45.0332 133.648 45.0366 133.48 44.7627C133.423 44.6701 133.417 44.5458 133.41 44.3794C133.4 44.1651 133.388 43.8809 133.258 43.5048C131.976 43.5676 131.436 43.7561 130.829 44.6353C130.154 45.5146 129.952 46.5195 130.222 47.7756C130.424 48.4037 130.964 49.4714 131.639 49.8482C132.789 50.4374 133.106 49.976 133.341 49.6327C133.369 49.5929 133.395 49.5543 133.421 49.5195C133.434 49.5026 133.447 49.4865 133.46 49.4714L139.059 48.7805L139.127 66.2405C134.062 68.823 136.92 72.4592 137.68 73.4263C137.77 73.5411 137.831 73.6183 137.845 73.6516C139.329 77.2316 131.976 86.0244 129.682 88.5994C126.007 92.7216 119.818 98.0833 113.965 103.153C106.71 109.437 99.9734 115.273 99.1893 117.741C97.6298 116.99 97.6563 116.638 97.7654 115.191C97.7932 114.822 97.8263 114.383 97.84 113.847C97.84 113.475 97.8442 113.094 97.8483 112.711V112.707C97.861 111.541 97.874 110.349 97.7725 109.263L97.84 102.668C102.614 102.628 102.614 102.639 102.617 102.97C102.618 103.154 102.621 103.436 103.439 103.861C106.205 102.794 106.475 99.2136 103.439 98.0831C102.618 98.4652 102.627 98.7669 102.633 98.9853C102.645 99.377 102.648 99.5005 97.84 99.3392C97.84 93.0471 97.8994 93.0584 98.3137 93.1366C98.5239 93.1762 98.8253 93.2331 99.2567 92.4934C98.1773 89.8555 94.332 89.6043 92.9827 92.4934C93.406 93.1633 93.6965 93.2274 93.8958 93.2714C93.953 93.2841 94.0027 93.295 94.0459 93.3182C94.332 93.4714 94.332 94.1587 94.332 99.402H90.0144C89.5084 98.774 89.5084 98.6169 89.5084 98.5306C89.5084 98.4442 89.5084 98.4285 89.0024 98.0831C85.8317 98.8368 85.8992 102.982 89.0024 103.861L90.0144 102.605H94.332V116.799C91.8003 119.223 92.2653 119.891 92.9675 120.901C93.5939 121.802 94.4091 122.975 93.455 125.906C91.3625 132.391 85.7642 137.453 80.3701 142.331C72.5471 149.405 65.1535 156.091 69.5059 166.165C70.3829 168.174 72.0019 170.31 73.6885 171.817C74.2957 172.32 75.6449 173.638 77.1291 175.209Z" fill="#F4E5C4"/>
<path d="M132.541 176.559C130.003 176.674 127.119 176.674 124.005 176.443H109.586V170.093L106.933 168.823C107.048 165.82 109.24 166.513 112.123 166.513L164.955 166.629C165.763 167.437 166.916 169.054 167.724 169.977L171.069 172.287C170.954 172.056 172.453 173.903 172.569 176.79C172.569 176.905 172.569 177.367 172.569 177.829C168.07 179.792 164.84 183.025 158.034 187.759C157.919 187.875 157.688 187.99 157.457 188.106C156.073 186.143 153.997 184.295 152.497 182.794C147.883 179.099 142.692 176.79 132.541 176.559ZM107.279 176.443H105.779C105.779 172.402 106.471 172.287 103.703 170.093C102.088 164.781 103.933 165.359 104.164 161.664C103.357 160.509 101.626 159.239 100.473 157.969C98.8578 156.468 97.0122 153.697 96.0893 151.503C94.8205 147.346 93.7823 145.729 93.5516 140.418L92.052 141.919C91.5906 142.496 91.4752 142.612 90.8984 143.305C90.091 144.228 89.5142 144.921 88.5914 145.845C84.3233 150.233 76.71 156.468 74.4029 161.548C71.8652 167.091 73.2494 173.557 76.71 176.559C79.7092 179.33 79.2478 177.714 80.7474 182.679L80.9781 183.256C80.632 183.371 80.4013 183.487 80.0552 183.371C79.8245 183.371 79.4785 183.371 79.1324 183.256C78.9017 183.025 78.9017 182.679 78.7863 182.332C77.9789 179.561 78.5557 180.138 76.71 178.753C75.5565 177.944 74.749 177.021 73.9415 175.866C66.5589 164.55 76.71 154.62 84.7847 147.577C86.8611 145.729 94.013 138.801 94.7051 136.03C95.3972 143.882 95.3972 147.692 100.703 155.082C101.742 156.468 102.549 157.391 103.587 158.431C109.24 163.627 104.741 161.317 104.972 166.86C105.087 169.746 106.125 169.4 107.279 171.016V176.443ZM77.6328 183.256C74.8643 182.794 70.9423 181.986 69.9042 182.563C69.0967 183.256 68.866 185.45 68.5199 186.72C68.1738 188.221 67.8278 189.722 67.4817 191.223C65.1747 191.685 64.0211 190.877 63.7904 192.262L63.9058 195.264L94.4744 201.846L94.5898 201.731C94.8205 201.962 94.5898 201.846 95.1665 202.077C96.0894 202.423 121.121 201.269 122.159 201.153C131.618 200.922 140.846 200.345 150.19 199.999C152.382 199.883 153.651 200.922 156.304 201.038C158.611 201.153 160.918 200.922 162.994 200.345C166.916 199.075 178.336 198.959 187.565 198.844C194.601 198.959 204.522 198.613 216.518 197.92L220.21 197.805C220.556 196.766 220.44 194.918 220.325 193.763L218.479 193.648V193.417C216.172 180.831 217.21 181.639 213.404 182.332C212.712 180.369 210.635 178.984 212.596 175.173C214.557 171.363 225.17 165.59 221.132 153.004C215.711 136.377 195.639 135.799 193.794 115.593C194.601 114.553 196.101 113.63 195.409 111.205C194.716 108.549 193.909 111.436 194.024 106.24C194.024 101.968 193.909 97.6953 194.024 93.3076H198.292C199.1 94.4622 198.177 94.1158 199.677 94.6932C200.715 94.1158 201.522 93.423 201.522 91.5756C201.522 89.4972 200.715 89.4972 199.792 88.3425C198.639 88.8044 198.639 89.1508 198.523 89.3817C198.408 89.4972 198.408 89.6126 198.408 89.6126C198.292 89.6126 198.292 89.7281 198.292 89.8436H194.024V83.9548C194.14 83.8393 194.255 83.7238 194.255 83.7238L195.409 82.5692C194.255 79.9135 190.679 79.798 189.295 82.5692L190.448 83.8393C190.448 83.8393 190.564 83.9548 190.679 83.9548V89.8436H186.18C185.142 88.227 186.065 88.9198 185.142 88.458C182.258 90.0745 182.374 93.423 185.142 94.6932C185.95 94.3468 185.373 94.8086 185.95 93.7694C186.065 93.7694 186.065 93.654 186.065 93.5385C186.065 93.423 186.18 93.3076 186.18 93.3076H190.679V107.625C190.679 109.588 190.91 108.78 190.102 109.819C189.18 110.974 188.257 112.129 189.41 113.976C190.564 115.824 191.025 114.553 190.448 118.133C190.218 119.865 189.872 121.366 189.295 122.867C188.372 125.523 186.757 128.409 184.796 129.795C183.873 123.213 177.875 116.17 174.184 113.283C165.071 105.893 152.613 97.2334 146.499 86.726C145.23 84.5321 142.923 79.9135 142.923 76.7959C142.807 75.0639 144.768 75.2948 144.884 72.5236C144.999 70.2143 143.5 69.1751 142.461 68.0204V49.6612H147.422C148.46 49.8922 147.306 50.354 148.921 51.1623C153.189 49.3148 150.998 44.8117 149.613 44.2343C147.883 43.657 148.344 44.8116 147.768 45.7354H142.692L142.461 38.5765L144.192 37.6527C143.154 33.9578 137.963 33.8423 136.924 37.7682L138.77 38.5765L138.655 45.7354C131.618 45.7354 133.579 45.9663 132.887 44.1188C131.618 44.2343 131.041 44.3498 130.465 45.2735C129.773 46.1972 129.657 47.2364 129.888 48.622C130.119 49.3148 130.58 50.4695 131.272 50.8159C132.656 51.5087 132.772 50.7004 133.118 50.4695L138.655 49.7767L138.77 68.2513C133.233 71.2535 137.386 75.7567 137.501 76.1031C139.001 79.9134 131.734 89.1508 129.426 91.922C121.352 101.737 100.819 118.017 99.4346 122.752C97.4736 121.712 98.0504 121.366 98.0504 118.595C98.0504 116.978 98.1657 115.246 97.935 113.745L98.0504 106.817C105.318 106.702 101.28 106.817 103.587 108.087C106.356 106.933 106.587 103.122 103.587 101.968C101.28 103.122 105.433 103.584 98.0504 103.353C98.0504 93.3075 98.1657 98.3881 99.4346 96.0788C98.3964 93.3076 94.5898 93.0766 93.2055 96.0788C94.5898 98.3881 94.5898 94.1158 94.5898 103.353H90.3217C89.2835 101.968 90.3217 102.66 89.2835 101.968C86.169 102.776 86.2843 107.164 89.2835 108.087L90.3217 106.702H94.5898V121.712C89.8603 126.562 95.7433 124.714 93.7823 131.296C88.7067 148.154 62.9829 155.89 70.2502 173.903C71.0577 175.982 72.6726 178.291 74.4029 179.907C74.8643 180.138 76.1332 181.524 77.6328 183.256ZM205.906 181.986C202.561 181.062 199.561 179.099 195.524 177.598L210.059 177.021C209.828 179.792 210.635 180.023 211.327 181.986C209.712 181.986 207.867 181.986 205.906 181.986ZM95.7433 111.32L95.8587 105.316L89.6296 105.201L89.0528 106.817C87.2072 105.316 87.5532 104.508 88.4761 102.66C89.6296 103.007 88.4761 102.429 89.0528 103.238L89.3989 103.93C89.5142 103.93 89.5142 104.046 89.5142 104.161H95.7433V96.0788L94.1284 95.3859C95.7433 94.0004 96.4354 94.2313 98.2811 95.0396C97.4736 97.8108 96.8968 91.3446 96.8968 104.046C102.318 104.046 101.972 104.623 103.587 103.238C104.164 102.776 103.126 103.122 104.164 102.776C105.202 104.739 104.972 105.316 103.933 106.933C103.357 106.24 103.703 106.586 103.241 105.316H97.0122L96.8968 112.821L96.5508 121.25C95.3973 120.789 95.7433 121.25 95.7433 119.172V111.32ZM212.135 144.228C215.365 147.692 220.786 153.466 218.595 161.433C217.095 166.398 212.942 170.439 208.328 172.402L205.906 173.095C198.985 174.711 190.448 174.711 183.181 173.903C175.914 173.095 170.608 169.746 167.839 164.897C161.841 154.505 169.685 147.23 176.145 140.88C177.183 139.841 178.221 139.148 179.374 138.109C183.527 134.298 188.487 130.141 190.794 125.176C191.371 123.791 191.833 121.943 192.409 120.673C197.254 133.143 201.522 134.529 212.135 144.228ZM107.048 159.354C123.313 159.239 146.845 158.892 162.994 159.354C163.11 161.779 163.34 162.818 164.148 164.55L107.048 164.435C108.432 162.241 108.778 161.548 107.048 159.354ZM142.577 83.9548C143.038 84.4166 143.73 86.3796 144.422 87.5342C147.422 93.0766 158.149 104.046 162.071 106.24C170.377 113.168 179.605 117.786 177.99 130.719C177.298 136.03 172.799 140.533 170.031 143.305C165.417 147.923 164.609 150.694 163.11 155.429C162.879 156.237 162.994 155.775 162.764 156.237C156.419 156.583 122.275 156.468 116.853 155.775C109.932 154.851 104.856 152.195 101.857 147.808C98.7425 143.189 97.0122 135.799 98.9732 129.564C100.011 126.446 101.28 124.253 102.78 121.828C106.125 116.863 115.353 108.78 119.968 104.508C123.428 101.275 133.579 90.6518 136.117 86.2641C137.732 83.262 138.885 79.9135 140.5 79.3361C141.539 80.2598 142.231 82.4537 142.577 83.9548ZM95.3973 123.675C94.3591 123.098 95.974 123.906 94.9358 123.444L94.4744 123.213C95.5126 122.29 97.3582 122.29 98.0504 123.675C98.2811 124.253 97.4736 125.869 96.8968 126.216C96.7815 124.714 96.7815 124.368 95.3973 123.675ZM194.601 112.821C193.563 113.976 194.486 113.514 193.102 114.092C193.448 111.782 192.986 111.205 191.025 110.743C192.525 108.896 194.486 110.166 194.601 112.821ZM191.833 90.8828V82.8001C189.641 82.6846 190.794 83.031 190.333 81.9919C191.717 80.6063 193.332 81.299 194.486 82.1073C194.024 83.1465 194.716 82.8001 192.986 82.8001V90.8828H198.985C199.907 89.1508 199.1 89.7281 200.023 89.3817C201.061 91.2292 201.176 91.8065 200.023 93.5385C199.1 93.1921 199.446 92.9612 198.985 92.1529H192.986C192.986 95.0396 192.986 98.0417 192.986 100.813V107.51C192.871 109.242 193.217 108.318 192.409 108.896C191.371 108.549 191.717 109.011 191.717 107.279L191.833 92.2684H185.834C185.834 92.3838 185.719 92.4993 185.719 92.4993L184.796 93.5385C183.181 92.0374 183.758 90.6518 184.681 89.3817C186.065 90.0745 185.373 91.4601 185.719 90.6518C185.719 90.5364 185.834 90.8828 185.834 90.8828H191.833ZM140.731 74.8329C142.231 70.5607 139.808 70.7916 138.77 69.6369C143.038 67.674 145.345 74.0247 140.731 74.8329ZM139.924 37.5373C139.116 36.9599 139.347 37.3063 139.001 37.1909C138.193 36.729 138.655 37.4218 138.193 36.4981C139.578 34.8815 141.539 34.997 142.807 36.4981C142.461 37.5373 142.231 36.8445 141.193 37.5373V46.5437L148.344 46.6591L149.037 44.9271C150.882 46.3127 151.113 48.622 149.037 49.7767L148.69 48.7375C148.46 48.2756 148.575 48.3911 148.344 48.0447L141.193 48.1602C141.193 51.1623 141.654 66.2884 140.731 67.5585C139.693 67.2121 139.924 67.7895 139.924 65.8265V48.0447H132.772C132.195 48.853 132.656 48.1602 132.426 49.0839L132.08 49.7767C130.003 48.7375 130.234 46.0818 132.08 44.9271L132.772 46.6591L139.924 46.5437V37.5373ZM101.857 176.443H101.626C100.819 176.443 99.55 176.559 98.5118 176.328H94.2437C93.667 176.674 91.3599 177.021 90.437 177.483C88.7067 178.175 86.3997 180.023 84.208 181.524C83.6312 180.369 82.9391 179.215 82.593 178.753C81.0934 177.136 74.5183 175.751 76.0179 167.206C76.8253 162.703 80.8627 158.431 83.2852 155.659C87.8993 150.233 87.5532 150.117 91.2445 145.037C91.7059 158.893 94.1284 156.237 99.2039 165.936C100.819 169.169 101.972 172.864 101.857 176.443ZM157.919 195.611L160.341 196.65C159.534 196.766 158.726 196.766 157.919 196.881C156.65 196.881 155.842 196.65 154.689 196.535C154.804 196.188 154.574 196.535 154.804 196.188C155.958 195.842 156.65 195.611 157.919 195.611ZM163.917 196.419L159.649 193.186C165.993 183.025 173.03 177.598 185.95 178.06C192.179 178.175 195.409 179.907 200.023 181.986C207.29 185.334 207.29 184.988 214.673 184.411L216.288 193.532C215.711 195.034 214.211 194.11 212.135 194.225C202.33 194.687 194.832 195.149 189.18 195.611C180.989 196.073 172.223 195.957 163.917 196.419ZM156.765 193.417C154.227 193.648 153.189 194.456 151.344 195.495C150.19 196.188 145.691 196.073 144.076 196.073C139.116 196.188 134.271 196.65 129.311 196.766C119.391 196.996 109.355 197.92 99.4346 198.151C99.6653 194.918 100.819 191.685 101.396 188.683L104.164 188.914C106.356 189.145 108.201 188.798 110.162 188.336C111.547 187.99 114.431 186.489 115.123 186.374C115.699 185.796 118.122 184.411 119.045 183.949C128.619 178.291 139.116 176.559 148.69 182.794C152.036 185.219 156.65 188.914 156.765 193.417ZM97.0122 197.343L96.6661 198.382C93.8976 198.498 69.7888 192.84 69.6734 192.724C69.7888 190.877 70.9423 188.452 70.7116 186.835C70.9423 186.604 70.7116 187.066 70.9423 186.374L71.173 185.45C71.4038 184.757 71.2884 185.103 71.5191 184.872C74.0569 184.872 77.9789 185.681 80.632 186.027C86.515 186.835 92.9748 187.644 98.8579 188.336L97.0122 197.343ZM123.428 179.215L123.543 179.099C118.929 180.369 113.623 185.45 108.432 186.258C107.74 186.72 104.856 186.489 103.703 186.489C99.2039 185.334 86.169 184.642 85.1308 183.833C86.9764 182.332 89.7449 180.254 91.9367 179.561C94.7051 178.522 98.8578 178.868 102.203 178.868C105.894 178.868 109.47 178.868 113.162 178.868C115.007 178.868 116.853 178.868 118.583 178.868C119.737 178.868 123.543 178.522 123.428 179.215Z" fill="#522100"/>
<path d="M174.991 144.228C172.569 146.653 170.723 148.385 168.993 151.849C163.802 161.779 171.761 170.439 181.797 172.287C186.18 173.095 194.37 173.326 198.869 172.633C209.828 172.056 221.363 163.049 214.788 151.387C212.481 147.346 202.33 136.492 199.792 135.337C201.638 140.071 215.249 152.311 206.944 164.319C204.983 167.206 202.791 168.476 199.331 169.631C190.91 171.709 182.489 170.439 179.144 164.435C177.529 161.433 177.298 156.93 178.452 153.235C179.49 149.771 181.451 147.346 182.835 144.575C184.335 142.727 186.065 139.61 187.103 137.647C188.487 135.106 189.41 132.913 190.102 129.91V129.218L189.756 129.333C187.449 131.873 188.257 132.22 183.989 136.03C180.874 138.686 177.875 141.226 174.991 144.228Z" fill="#522100"/>
<path d="M168.185 140.995C173.376 134.991 178.452 129.91 173.722 120.904C172.223 117.786 171.184 117.094 169.108 115.015C167.493 113.514 156.881 104.623 156.188 104.392C158.496 109.935 163.11 113.399 165.763 121.597C166.916 125.176 167.608 130.488 166.224 133.952C165.878 136.03 164.84 137.762 163.917 139.379C162.533 141.803 160.572 144.344 158.496 146.076C145.461 157.622 109.124 155.544 113.969 129.68C116.392 120.789 122.275 114.207 126.889 108.434C131.272 102.891 137.271 95.0396 138.424 85.9177C138.193 84.7631 138.424 85.4559 137.155 87.7652C136.578 88.8044 136.117 89.3817 135.425 90.5364C127.004 103.584 105.779 116.863 101.396 129.449C98.1657 138.917 102.088 149.424 112.7 153.004C119.16 155.198 127.927 154.505 135.425 154.505C143.615 154.505 151.92 154.62 160.11 154.505C160.918 153.119 161.379 150.463 163.34 147.577C164.725 145.037 166.224 143.305 168.185 140.995Z" fill="#522100"/>
<path d="M259.43 158.662C257.007 171.594 252.509 183.718 246.279 194.803H239.358C245.933 183.718 250.663 171.594 253.316 158.662H259.43ZM199.215 241.336C182.143 250.688 162.648 256 141.885 256C121.121 256 101.626 250.688 84.6694 241.336H98.6271C111.893 246.878 126.543 249.88 141.885 249.88C157.227 249.88 171.761 246.878 185.142 241.336H199.215ZM37.4898 194.803C31.2608 183.718 26.762 171.478 24.3396 158.662H30.4533C32.9911 171.594 37.8359 183.833 44.411 194.803H37.4898Z" fill="#522100"/>
<path d="M23.0707 229.212C23.0707 231.405 22.2632 232.907 20.6482 233.715C19.4947 234.292 17.7644 234.523 15.2267 234.523H0C0.34606 229.558 0.576767 224.131 0.576767 218.242C0.576767 208.889 3.922 204.155 10.7278 204.155C13.1503 204.155 15.1113 204.386 16.7262 204.964C19.264 205.772 20.4176 207.042 20.4176 208.89C20.4176 212.469 17.303 215.587 11.0739 218.011V218.242L11.1893 218.127C12.1121 218.473 13.6117 219.166 15.4573 220.09C17.5337 221.129 18.8026 221.937 19.4947 222.515C21.8018 224.477 23.0707 226.671 23.0707 229.212ZM13.4964 209.582C13.4964 208.197 13.381 207.273 13.0349 206.811C12.6889 206.003 11.8814 205.656 10.6125 205.656C9.57434 205.656 8.65149 206.465 7.84402 208.081C7.26725 209.467 6.9212 210.621 6.9212 211.892V217.319H7.26725C9.1129 217.319 10.6125 216.51 11.7661 214.894C12.9196 213.162 13.4964 211.545 13.4964 209.582ZM15.342 228.634C15.342 226.209 14.6499 224.016 12.9196 222.168C11.3046 220.09 9.22827 219.166 6.9212 219.166C6.9212 224.131 6.80586 228.75 6.57516 233.137H10.3818C13.7271 233.022 15.342 231.521 15.342 228.634ZM43.6036 234.523H38.182C37.8359 231.29 37.7206 227.826 37.7206 223.9C35.2981 224.477 33.5678 225.748 32.645 227.941C31.9529 229.443 31.4915 231.636 31.6068 234.523H24.801C24.801 232.098 26.0699 229.673 28.4923 227.364C30.7994 225.17 33.2218 223.785 35.7595 223.323C29.5305 220.783 26.3006 218.127 26.3006 215.356C26.3006 213.277 28.3769 212.123 32.5297 212.123H43.6036C43.2575 216.164 43.1422 219.512 43.1422 222.284C43.1422 226.787 43.2575 230.828 43.6036 234.523ZM38.182 213.277H34.7214C32.8757 213.277 32.0682 214.316 32.0682 216.279C32.0682 217.78 32.645 219.166 33.9139 220.321C34.7214 221.129 35.9903 221.937 37.7206 222.861C37.7206 219.051 37.8359 215.817 38.182 213.277ZM71.7498 212.123C70.4809 214.547 69.6734 216.972 68.9813 219.512H68.866V219.397L68.9813 219.281C67.3664 215.125 64.7132 213.162 61.0219 213.277C61.1373 215.702 61.2527 219.281 61.368 223.9C61.368 228.75 61.4833 232.329 61.5987 234.523H55.7157C55.831 232.445 55.9464 228.981 55.9464 223.9C56.0617 219.397 56.1771 215.817 56.2924 213.277H55.485C53.7547 213.277 52.2551 213.855 50.8708 215.125C49.602 216.279 48.7945 217.665 48.3331 219.397H48.2177C47.5256 216.741 46.7181 214.316 45.4492 212.007H71.7498V212.123ZM89.5142 216.164L86.2843 219.512C84.3233 216.395 82.1316 214.894 79.9399 214.894C79.1324 214.894 78.4403 215.356 77.7482 216.395C77.1714 217.203 76.9407 218.127 76.9407 219.051C76.9407 221.129 77.7482 223.669 79.3631 226.556C81.2088 229.789 83.0544 231.29 85.0154 231.29C86.515 231.29 87.5532 230.482 88.3607 228.634L89.3989 229.443C87.4379 232.329 85.1308 234.408 82.4777 235.331C76.3639 232.791 73.3648 229.212 73.3648 224.593C73.3648 221.706 74.1722 219.051 75.9025 216.626C77.6328 214.085 79.8245 212.353 82.4777 211.314C85.2461 212.123 87.5532 213.739 89.5142 216.164ZM110.278 234.523H104.049C104.049 232.329 103.472 230.135 102.549 227.941C101.396 225.401 100.011 223.785 98.2811 223.323C98.2811 227.826 98.1657 231.636 97.935 234.523H92.3981C92.7441 230.135 92.9748 225.055 92.9748 219.166C92.9748 216.164 92.7441 213.855 92.3981 212.123H97.935C98.1657 214.894 98.2811 218.011 98.2811 221.475H98.3964C99.5499 218.589 100.473 216.51 101.396 215.24C102.895 212.815 104.741 211.661 106.587 211.661C107.855 211.661 109.009 211.892 110.162 212.469L108.778 217.549C107.855 217.203 106.817 216.972 105.548 216.972C104.049 216.972 102.78 217.434 101.742 218.358C101.05 219.051 100.357 220.205 99.6653 221.822C106.817 224.247 110.278 228.519 110.278 234.523ZM132.772 234.523H127.235C127.004 230.597 126.889 225.286 126.889 218.589C125.389 220.205 124.005 221.937 122.621 223.669C120.89 225.748 119.737 227.595 119.045 229.212C119.045 231.059 118.929 232.791 118.814 234.408H113.277C113.623 230.02 113.854 225.979 113.854 222.168V219.743C113.854 216.626 113.738 213.97 113.277 212.007H118.699C119.045 214.432 119.275 218.935 119.275 225.863C119.852 225.17 121.236 223.554 123.428 220.898C125.274 218.935 126.427 217.088 127.235 215.702C127.35 214.547 127.465 213.393 127.581 212.007H133.002C132.656 213.739 132.426 216.048 132.426 218.82C132.195 225.055 132.426 230.366 132.772 234.523ZM151.69 205.887C150.305 209.351 148.575 211.083 146.499 211.083C144.422 211.083 142.807 209.351 141.423 205.887L142.461 205.195C143.038 206.58 144.422 207.273 146.614 207.273C148.691 207.273 150.075 206.58 150.767 205.195L151.69 205.887ZM156.304 234.523H150.767C150.536 230.597 150.421 225.286 150.421 218.589C148.921 220.205 147.537 221.937 146.153 223.669C144.422 225.748 143.269 227.595 142.577 229.212C142.577 231.059 142.461 232.791 142.346 234.408H136.809C137.155 230.02 137.386 225.979 137.386 222.168V219.743C137.386 216.626 137.271 213.97 136.809 212.007H142.231C142.577 214.432 142.807 218.935 142.807 225.863C143.384 225.17 144.768 223.554 146.96 220.898C148.806 218.935 149.959 217.088 150.767 215.702C150.882 214.547 150.998 213.393 151.113 212.007H156.535C156.188 213.739 155.958 216.048 155.958 218.82C155.727 225.055 155.842 230.366 156.304 234.523ZM197.139 234.523H190.91C190.448 231.175 190.218 226.44 190.218 220.436C190.333 213.739 190.102 209.005 189.872 206.234H181.451C181.682 209.005 181.797 212.238 181.797 216.048V221.475C181.797 225.979 181.682 230.366 181.451 234.523H174.876C175.222 229.443 175.452 222.745 175.452 214.547C175.452 210.391 175.222 207.158 174.876 204.733H196.216C196.447 206.927 196.562 211.314 196.562 218.011V223.092C196.562 227.595 196.793 231.405 197.139 234.523ZM219.171 222.168C219.171 225.055 218.364 227.595 216.634 230.135C214.903 232.56 212.712 234.408 210.058 235.331C204.06 232.329 200.946 228.75 200.946 224.593C200.946 221.706 201.753 219.051 203.483 216.626C205.214 214.085 207.405 212.353 210.058 211.314C216.172 214.547 219.171 218.127 219.171 222.168ZM215.365 227.711C215.365 225.17 214.442 222.63 212.596 220.321C210.981 218.473 208.905 216.741 206.252 215.356C205.214 216.164 204.752 217.434 204.752 219.051C204.752 221.591 205.675 224.131 207.521 226.325C209.136 228.288 211.212 229.904 213.865 231.29C214.903 230.251 215.365 228.981 215.365 227.711ZM238.32 216.164L235.09 219.512C233.129 216.395 230.937 214.894 228.746 214.894C227.938 214.894 227.246 215.356 226.669 216.395C226.093 217.203 225.862 218.127 225.862 219.051C225.862 221.129 226.669 223.669 228.284 226.556C230.13 229.789 231.976 231.29 233.937 231.29C235.436 231.29 236.474 230.482 237.282 228.634L238.32 229.443C236.359 232.329 233.937 234.408 231.284 235.331C225.285 232.791 222.171 229.212 222.171 224.593C222.171 221.706 222.978 219.051 224.708 216.626C226.439 214.085 228.63 212.353 231.284 211.314C234.052 212.123 236.474 213.739 238.32 216.164ZM260.122 234.523H254.239C253.547 232.56 252.97 230.482 252.509 228.288C250.894 232.791 248.471 234.985 245.357 234.985C243.742 234.985 242.357 234.408 241.435 233.368C240.512 232.329 240.05 230.944 240.05 229.096C240.05 226.902 241.089 224.362 243.165 221.36C244.088 219.974 245.933 217.78 248.702 214.663L247.779 212.123H253.777C254.931 214.894 256.084 218.589 257.123 223.207C258.738 229.096 259.66 232.907 260.122 234.523ZM251.586 225.748C251.586 223.554 250.894 220.321 249.509 215.933C247.779 218.011 246.626 219.859 245.933 221.36C245.241 223.092 244.78 225.17 244.78 227.711C244.78 228.403 245.011 229.212 245.357 229.789C245.818 230.482 246.395 230.828 247.202 230.828C250.086 230.828 251.586 229.096 251.586 225.748ZM284 233.368C282.731 235.909 281.808 238.333 281.232 240.643H281.116C280.885 240.065 280.424 239.257 279.617 238.218C278.694 237.179 278.117 236.371 277.886 235.909C276.502 234.869 274.541 234.408 271.888 234.408C269.004 234.408 267.043 234.754 266.005 235.447C264.851 236.14 263.929 237.872 263.121 240.643H263.006C262.89 239.488 261.967 236.948 260.468 233.368H261.16C264.39 233.368 266.697 230.482 268.081 224.708C268.889 221.244 269.235 216.972 269.235 212.123H275.002C275.81 217.78 276.617 221.937 277.309 224.593C279.04 230.482 281.232 233.368 284 233.368ZM275.81 233.368C273.387 229.212 271.773 223.9 270.734 217.434C270.734 220.667 270.388 223.438 269.812 225.632C269.119 228.172 267.966 230.713 266.466 233.253H275.81V233.368Z" fill="#522100"/>
<path d="M23.4167 121.943C25.2624 122.867 27.2234 123.675 29.0691 124.137C26.9927 124.714 25.6084 125.523 24.9163 126.562C24.2242 127.486 23.8781 129.102 23.7628 131.296C23.6474 133.028 23.9935 134.298 24.801 135.106C25.3777 135.684 26.6466 136.261 28.3769 136.838C27.5695 136.838 26.5313 137.069 25.3777 137.416C24.4549 137.762 23.4167 137.993 22.4939 138.339V137.762C22.6093 135.684 20.6483 134.067 16.8416 132.797C14.1885 131.989 11.42 131.527 8.42078 131.296C7.49795 131.296 6.69048 131.411 6.11371 131.642L6.34443 127.024C10.8432 126.677 14.0731 126.331 16.0341 125.985C20.8789 125.292 23.4167 123.906 23.4167 121.943ZM23.186 127.717C19.8408 129.218 15.688 130.257 10.8432 130.719C15.2266 130.95 19.264 132.22 22.8399 134.414L23.186 127.717Z" fill="#522100"/>
<path d="M9.80504 104.739L13.6117 106.355C13.1503 106.817 12.9196 107.394 12.8042 108.087C12.5735 109.588 13.9577 110.974 17.0723 112.475C19.3794 113.514 21.5711 114.207 23.7628 114.553C27.4541 115.131 30.684 115.131 33.5678 114.438L34.1446 117.902C31.1454 117.325 28.1462 116.747 25.4931 116.054L24.801 119.865C19.3794 118.941 13.381 119.172 6.80585 120.442L7.61333 116.054C13.8424 115.362 19.4947 115.362 24.5703 116.285L24.6856 115.824C21.1097 114.9 17.9951 113.861 15.342 112.706C10.7279 110.743 8.53617 108.78 8.88223 106.933C8.99758 106.124 9.34363 105.432 9.80504 104.739Z" fill="#522100"/>
<path d="M14.8806 88.5734L17.7644 90.5364C17.0723 90.8828 16.6109 91.3446 16.3802 92.0374C16.0341 93.0766 16.8416 94.8086 18.8026 97.4644C18.9179 97.4644 20.9943 96.7716 25.0317 95.6169C27.5695 94.9241 29.6458 94.3468 31.2608 94.0004L29.8765 98.619C28.2616 98.85 25.4931 99.5427 21.3404 100.582C24.2242 103.584 26.8773 105.547 29.4151 106.24L26.762 108.549C25.2624 106.817 23.0707 104.277 20.3022 100.813C16.2648 101.852 12.9196 102.429 10.1511 102.66L11.42 98.5036C13.2656 98.5036 15.342 98.1572 17.7644 97.5798C14.6499 93.654 13.2656 91.1137 13.6117 90.19C13.8424 89.6126 14.3038 89.0353 14.8806 88.5734Z" fill="#522100"/>
<path d="M27.4541 78.6433C29.4151 79.5671 31.1454 80.8372 32.4143 82.6847C33.7986 84.5321 34.3753 86.6105 34.4907 88.6889C33.5678 88.9199 32.4143 89.3817 31.0301 90.19C29.6458 90.9982 28.6077 91.4601 27.9155 91.691C26.762 92.0374 25.3777 91.8065 24.1089 91.2292C22.1478 90.3054 20.4176 89.0353 19.1487 87.1879C17.7644 85.3404 17.1877 83.262 17.1877 81.1836C18.1105 80.9527 19.264 80.4908 20.6483 79.6825C22.0325 78.8743 23.0707 78.4124 23.7628 78.1815C24.801 77.9505 26.0699 78.066 27.4541 78.6433ZM30.3379 82.9156C28.8383 82.2228 27.4541 81.9919 26.0699 82.2228C24.9163 82.3383 23.5321 82.8001 21.9171 83.6084C20.9943 84.0703 20.5329 84.3012 20.4176 84.3012C19.8408 84.5321 19.264 84.7631 18.8026 84.8785C19.1487 85.8023 19.9561 86.495 21.1097 87.0724C22.7246 87.7652 24.2242 88.1116 25.4931 87.9961C26.762 87.8806 28.1462 87.4188 29.7612 86.495C30.684 86.0332 31.1454 85.8023 31.1454 85.6868C31.7222 85.4559 32.1836 85.2249 32.645 85.1095C32.0682 84.0703 31.3761 83.262 30.3379 82.9156Z" fill="#522100"/>
<path d="M41.4119 67.7895C42.5654 68.4823 43.0268 69.2905 42.9115 70.4452C42.7961 71.138 42.4501 72.1772 41.6426 73.4473L37.0285 81.1836C34.606 79.4516 31.9529 77.7196 28.9537 75.9876C24.2242 73.1009 22.84 69.9833 24.9164 66.5193C25.6085 65.3647 26.4159 64.3255 27.1081 63.7482C28.2616 62.709 29.2998 62.478 30.2226 63.0554C32.0683 64.21 32.645 66.6348 32.0682 70.5607H32.1836C32.645 70.2143 33.4525 69.6369 34.4907 68.9441C35.6442 68.2513 36.4517 67.7895 36.9131 67.5586C38.6434 66.9812 40.143 66.9812 41.4119 67.7895ZM28.6076 66.7503C27.9155 66.4039 27.4541 66.173 27.1081 66.0575C26.5313 66.0575 26.1852 66.2884 25.7238 66.8657C25.3777 67.4431 25.4931 68.1359 26.0699 68.9441C26.5313 69.6369 27.1081 70.2143 27.6848 70.5607L30.4533 72.1772L30.5687 72.0617C31.1454 71.138 31.1454 70.0988 30.684 68.9441C30.2226 68.0204 29.5305 67.3276 28.6076 66.7503ZM38.7588 71.4844C37.6052 70.7916 36.221 70.5607 34.7214 70.6761C33.2218 70.9071 32.0683 71.5999 31.3761 72.7545C33.9139 74.2556 36.221 75.7567 38.4127 77.2577L39.5662 75.2948C40.6044 73.6783 40.2584 72.4081 38.7588 71.4844Z" fill="#522100"/>
<path d="M53.4086 57.6284L51.1015 60.5151C49.4866 59.5914 47.1795 57.9748 44.1803 55.55C42.9114 56.1274 41.6426 57.1666 40.3737 58.8986C43.0268 60.977 45.4492 62.9399 47.6409 64.9028L45.2185 68.0204C43.0268 65.942 40.0276 63.4018 36.221 60.3996C34.2599 58.8986 32.7603 57.7439 31.4915 57.0511L33.7985 54.049C35.0674 54.7418 37.0284 56.1274 39.6816 58.3212C40.9504 56.7047 42.2193 55.6655 43.4882 54.9727L41.7579 53.5871C39.9123 52.086 38.2973 50.9314 36.7977 50.1231L39.2201 47.121C40.6044 48.0447 42.104 49.1994 43.9496 50.585C44.4111 50.9314 44.9878 51.3932 45.7953 52.086C46.6028 52.7788 47.2949 53.2407 47.6409 53.5871C49.948 55.3191 51.7936 56.7047 53.4086 57.6284Z" fill="#522100"/>
<path d="M56.9846 40.193C58.4841 41.8095 59.5223 43.657 60.0991 45.8509C60.6759 48.0447 60.5605 50.2386 59.753 52.2015C58.8302 51.9706 57.5613 52.086 55.9464 52.317C54.3314 52.5479 53.1779 52.6634 52.6011 52.5479C51.3323 52.4324 50.2941 51.7396 49.1405 50.7004C47.6409 49.1994 46.6028 47.2365 46.026 45.0426C45.4492 42.7333 45.5646 40.6549 46.3721 38.6919C47.2949 38.8074 48.5638 38.8074 50.1787 38.5765C51.7937 38.3455 52.9472 38.2301 53.524 38.3455C54.7928 38.461 55.9464 39.1538 56.9846 40.193ZM58.1381 45.158C56.9846 44.0034 55.7157 43.1951 54.4468 42.8487C53.2933 42.5023 51.909 42.5023 50.0634 42.6178C49.0252 42.7333 48.4484 42.7333 48.4484 42.7333C47.8716 42.7333 47.2949 42.7333 46.8335 42.6178C46.8335 43.657 47.2949 44.5807 48.1024 45.5044C49.3713 46.7746 50.6401 47.5828 51.909 48.0447C53.0625 48.3911 54.5621 48.5066 56.4078 48.2757C57.446 48.1602 57.9074 48.0447 58.0227 48.0447C58.5995 48.0447 59.1763 48.0447 59.6377 48.0447C59.407 46.89 58.9456 45.9663 58.1381 45.158Z" fill="#522100"/>
<path d="M66.0975 37.3063C65.6361 37.6527 64.8286 38.2301 63.7904 39.0383C62.7522 39.8466 61.9447 40.3085 61.4833 40.7703L60.5605 39.6157C62.7522 37.8837 64.1365 36.6135 64.8286 35.8053L66.0975 37.3063Z" fill="#522100"/>
<path d="M83.0544 33.3805L79.9399 35.4589C78.5556 33.9578 76.9407 31.6485 75.0951 28.6464C73.0187 25.2978 71.4037 22.9885 70.3656 21.7184L66.2128 24.4896C67.251 25.7597 68.2892 27.3762 69.5581 29.2237L71.2884 31.8794C72.788 34.0733 74.0569 36.3826 75.3257 38.5765L72.0959 40.6549C70.5963 37.9991 68.6353 34.5351 65.9821 30.4938C64.5979 28.4154 63.4444 26.9143 62.5215 25.8751L73.134 18.9472C73.9415 19.9864 75.4411 22.0648 77.5175 25.4133L79.1324 27.9535C80.5167 30.1474 81.9009 31.9949 83.0544 33.3805Z" fill="#522100"/>
<path d="M89.6296 13.5202C90.2063 14.7904 89.9756 16.6378 88.9374 18.9472C88.13 20.5637 87.0918 22.1802 85.8229 23.7967C86.9764 26.1061 88.13 28.2999 89.3989 30.3783L85.8229 32.1103C84.4387 29.6855 83.0544 27.0298 81.6702 24.1431C80.632 21.9493 80.1706 19.9863 80.4013 18.0234C80.632 15.8296 81.7855 14.213 83.8619 13.1738C85.2461 12.481 86.2843 12.1346 87.0918 12.0192C88.13 11.9037 89.0528 12.3656 89.6296 13.5202ZM86.169 15.7141C85.8229 15.0213 85.4768 14.5594 85.2461 14.3285C84.7847 13.9821 84.3233 13.8666 83.6312 14.213C82.8237 14.5594 82.593 15.4832 82.8237 16.9842C82.939 18.0234 83.2851 19.0626 83.8619 20.1018L85.3615 23.104C87.0918 20.4482 87.3225 18.0234 86.169 15.7141Z" fill="#522100"/>
<path d="M107.625 22.7576L103.703 24.1432C102.895 23.2194 101.972 21.8338 100.819 19.9864C100.934 23.6813 100.011 25.9906 97.935 26.6834C96.7815 27.1453 95.7433 27.0298 94.7051 26.337C93.8977 25.7597 93.2055 24.836 92.7441 23.6813C92.052 21.9493 92.052 19.7554 92.5134 17.2152C92.7441 15.945 93.4362 13.8666 94.359 10.8645C93.8976 10.2872 93.4362 9.82531 92.8595 9.36344L97.1276 7.74692C98.6271 9.47891 100.357 11.9037 102.434 15.1368C104.972 18.9472 106.587 21.4874 107.625 22.7576ZM99.6653 18.4853C99.0885 16.8688 97.589 14.5594 95.3973 11.6728C95.0512 13.6357 94.8205 15.2522 94.8205 16.6378C94.8205 18.3698 95.0512 19.9864 95.6279 21.4874C95.8586 22.0648 96.0894 22.5266 96.5508 22.873C97.0122 23.3349 97.589 23.4503 98.0504 23.2194C100.011 22.5266 100.473 20.9101 99.6653 18.4853Z" fill="#522100"/>
<path d="M121.698 16.2914C122.044 17.5616 121.698 18.6008 120.89 19.1781C120.314 19.64 119.275 19.9864 117.891 20.3328L109.124 22.2957C108.663 19.409 108.086 16.2914 107.279 12.8274C106.01 7.40051 107.394 4.28292 111.201 3.35918C112.585 3.01279 113.738 2.89732 114.777 3.01278C116.276 3.12825 117.199 3.70558 117.43 4.74478C117.891 6.82317 116.507 9.01705 113.277 11.2109V11.3264C113.854 11.4418 114.777 11.5573 116.045 11.9037C117.314 12.2501 118.237 12.481 118.699 12.712C120.314 13.6357 121.352 14.7904 121.698 16.2914ZM113.508 6.24585C113.277 5.43758 113.162 4.97571 112.931 4.74478C112.585 4.28291 112.123 4.16746 111.431 4.39839C110.855 4.51386 110.393 5.09119 110.162 6.13039C109.932 6.93866 109.932 7.74692 110.162 8.43972L110.855 11.5573H111.085C112.123 11.3264 112.931 10.6336 113.392 9.47891C113.738 8.32425 113.854 7.28504 113.508 6.24585ZM117.199 16.8688C116.853 15.4832 116.161 14.3285 115.007 13.4048C113.738 12.481 112.47 12.1346 111.085 12.3656C111.777 15.2522 112.239 18.0234 112.7 20.5637L114.892 20.1018C116.853 19.64 117.545 18.6008 117.199 16.8688Z" fill="#522100"/>
<path d="M134.733 8.20878C134.963 10.4026 134.617 12.481 133.695 14.5594C132.772 16.6378 131.272 18.2544 129.426 19.2936C128.734 18.6008 127.812 17.7925 126.427 16.9842C125.043 16.176 124.12 15.4832 123.659 15.0213C122.851 14.0976 122.275 12.9429 122.159 11.4418C121.929 9.24798 122.275 7.16958 123.197 5.09119C124.236 3.01279 125.62 1.39627 127.465 0.357071C128.158 1.04987 129.08 1.85813 130.465 2.6664C131.849 3.47467 132.772 4.16746 133.233 4.62933C134.041 5.55306 134.502 6.70771 134.733 8.20878ZM132.541 12.8274C132.426 11.2109 131.849 9.82532 131.041 8.67065C130.349 7.74692 129.196 6.70772 127.696 5.78399C126.889 5.20666 126.427 4.86026 126.312 4.86026C125.851 4.51386 125.389 4.16746 125.043 3.82106C124.466 4.62933 124.12 5.66852 124.351 6.82318C124.582 8.55518 125.043 10.0562 125.735 11.0954C126.427 12.1346 127.581 13.0584 129.196 14.0976C130.003 14.5594 130.465 14.9058 130.58 14.9058C131.041 15.2522 131.503 15.5986 131.849 15.945C132.426 14.9058 132.656 13.8666 132.541 12.8274Z" fill="#522100"/>
<path d="M150.305 11.0954C150.305 13.1738 149.383 14.9058 147.652 16.4069C146.037 17.7925 144.076 18.4853 142 18.3698C142 17.2152 141.654 16.176 140.731 15.1368C139.924 14.213 139.116 13.2893 138.309 12.3656C137.501 11.0954 137.04 9.70984 137.04 8.20878C137.04 5.66852 137.732 3.7056 138.885 2.32C140.154 0.703469 142 -0.104796 144.422 0.0106702C146.268 0.0106702 147.768 0.703465 148.806 1.9736C149.844 3.24373 150.421 4.74479 150.421 6.59226L146.614 6.47678V5.09119C146.729 2.20453 145.922 0.818925 144.307 0.703458C142.346 0.703458 141.308 3.35919 141.308 8.78611C141.308 9.82531 141.539 11.2109 142 13.0584C142.461 14.9058 142.692 16.4069 142.692 17.3306C144.307 17.4461 145.345 16.6378 145.922 15.1368C146.268 14.213 146.499 12.8274 146.499 10.8645L150.305 11.0954Z" fill="#522100"/>
<path d="M164.263 19.8709L160.341 19.409C159.88 17.677 159.534 15.1368 159.418 11.9037C159.303 8.43973 159.072 5.89946 158.726 4.3984C156.65 7.28506 155.496 10.2872 155.035 13.4048C154.804 15.2522 154.92 16.9842 155.266 18.7162L151.344 18.1389C151.228 17.4461 151.113 16.7533 151.228 16.176C151.574 13.7512 152.382 11.4419 153.766 9.24799C154.689 7.86239 156.188 5.78399 158.38 3.35919C158.265 2.66639 158.034 1.97359 157.803 1.28079L161.841 1.85812C162.302 3.82105 162.764 6.82319 162.879 10.8645C163.225 14.7904 163.571 17.7925 164.263 19.8709Z" fill="#522100"/>
<path d="M178.452 23.4504L174.414 22.4112C174.299 21.2565 174.299 19.5245 174.414 17.3306C172.338 20.4482 170.377 21.7184 168.185 21.2565C167.032 20.9101 166.224 20.2173 165.763 19.1781C165.417 18.2544 165.417 17.0997 165.763 15.8296C166.224 13.9821 167.378 12.1346 169.223 10.4026C170.146 9.47892 171.877 8.09331 174.414 6.24585C174.414 5.55305 174.299 4.86025 174.068 4.16745L178.452 5.32211C178.682 7.51598 178.682 10.6336 178.567 14.444C178.452 18.8317 178.452 21.8338 178.452 23.4504ZM174.299 15.4832C174.76 13.7512 174.876 11.0954 174.76 7.40051C173.376 8.78611 172.223 10.0562 171.53 11.0954C170.492 12.481 169.8 13.9821 169.454 15.5986C169.339 16.176 169.339 16.7533 169.454 17.2152C169.569 17.908 169.916 18.2544 170.492 18.3698C172.338 18.9472 173.722 17.908 174.299 15.4832Z" fill="#522100"/>
<path d="M193.794 26.1061C193.332 27.3762 192.525 27.9536 191.487 28.069C190.794 28.069 189.641 27.8381 188.372 27.3762L180.067 24.0277C181.336 21.372 182.604 18.4853 183.989 15.2522C186.065 10.0562 188.949 8.20877 192.64 9.70984C193.909 10.2872 194.947 10.8645 195.755 11.4418C196.908 12.3656 197.37 13.4048 196.908 14.444C196.101 16.4069 193.678 17.4461 189.756 17.4461V17.5616C190.218 18.0234 190.91 18.7162 191.717 19.64C192.64 20.6792 193.217 21.372 193.448 21.8338C194.255 23.2194 194.37 24.7205 193.794 26.1061ZM189.756 24.1431C190.333 22.873 190.333 21.4874 189.872 20.1018C189.41 18.6008 188.487 17.5616 187.219 17.0997C186.065 19.8709 185.027 22.4111 183.873 24.7205L185.95 25.5287C187.795 26.2215 189.064 25.7597 189.756 24.1431ZM192.871 13.2893C193.217 12.5965 193.332 12.0192 193.217 11.6728C193.217 11.0954 192.871 10.749 192.179 10.5181C191.602 10.2872 190.91 10.5181 190.102 11.2109C189.41 11.7882 189.064 12.481 188.718 13.0584L187.565 16.0605L187.795 16.176C188.833 16.6378 189.872 16.5224 190.794 15.8296C191.717 15.1368 192.409 14.3285 192.871 13.2893Z" fill="#522100"/>
<path d="M205.675 36.3826L202.445 34.5351C203.137 32.8031 204.406 30.2629 206.252 27.0298C205.444 25.8751 204.175 24.7205 202.445 23.7968C200.83 26.6834 199.215 29.4546 197.6 31.8794L194.14 29.9165C195.87 27.3762 197.946 24.0277 200.253 19.7554C201.407 17.5616 202.33 15.945 202.791 14.5594L206.136 16.4069C205.675 17.7925 204.522 19.9864 202.907 22.873C204.637 23.9122 205.906 24.9514 206.713 26.1061L207.751 24.1432C208.905 22.0648 209.828 20.3328 210.405 18.7162L213.75 20.5637C213.058 22.0648 212.25 23.7968 211.097 25.7597C210.866 26.2216 210.405 26.9143 209.943 27.8381C209.482 28.7618 209.02 29.4546 208.79 29.9165C207.405 32.5722 206.367 34.6506 205.675 36.3826Z" fill="#522100"/>
<path d="M220.325 42.9642C219.402 44.1189 218.249 44.5807 216.98 44.2343C216.172 44.0034 215.134 43.3106 213.75 42.2714L207.867 37.6527C209.943 35.4589 212.02 32.9186 214.096 30.2629L215.249 28.8773C216.864 26.7989 218.018 25.1824 218.825 23.7968L221.94 26.2216C220.556 28.3 219.056 30.3784 217.672 32.1104C218.941 33.1496 219.979 34.8815 220.671 37.3063C221.363 39.8466 221.248 41.6941 220.325 42.9642ZM216.749 40.193C218.364 38.1146 218.479 35.5743 216.98 32.8031C215.249 34.997 213.404 37.3063 211.443 39.3847L213.173 40.7703C213.865 41.3477 214.557 41.5786 215.019 41.4631C215.595 41.3477 216.172 40.8858 216.749 40.193ZM222.286 48.9684L219.171 46.5437C220.902 44.1189 222.632 41.8095 224.478 39.3847C226.785 36.3826 228.746 34.1887 230.13 32.6877L233.129 35.1125C232.091 36.0362 230.707 37.5373 229.092 39.6157C226.323 43.3106 224.016 46.4282 222.286 48.9684Z" fill="#522100"/>
<path d="M233.36 60.977L230.707 58.0903C232.668 56.0119 235.667 53.1253 239.704 49.4303C239.589 49.4303 237.859 49.6613 234.513 49.8922C232.206 50.1231 230.591 50.4695 229.784 50.9314C229.669 50.9314 229.438 51.2778 228.976 51.7397C228.284 52.317 227.592 53.0098 226.669 53.7026L224.016 50.8159C226.439 48.9685 229.438 46.3127 232.898 43.0797C234.744 41.3477 236.013 39.9621 236.936 38.8074L239.474 41.5786C238.435 42.7333 237.282 44.1189 235.667 45.5045C236.128 45.0426 234.744 46.3127 231.63 49.1994C231.976 49.1994 233.591 48.9685 236.59 48.7375C238.551 48.5066 240.166 48.2757 241.435 47.8138C242.242 47.121 243.05 46.5437 243.626 46.0818L246.164 48.853C245.011 49.5458 243.626 50.7004 242.011 52.2015C238.551 55.55 235.667 58.4367 233.36 60.977ZM247.318 43.4261C245.011 44.4653 243.28 44.3498 242.242 43.1951C241.204 42.0405 241.319 40.4239 242.473 38.1146L243.28 38.2301C243.165 39.1538 243.511 40.193 244.434 41.1167C245.357 42.1559 246.279 42.6178 247.318 42.5023V43.4261Z" fill="#522100"/>
<path d="M248.01 81.53C246.049 81.7609 244.088 82.2228 242.011 82.9156V82.8001H242.127C242.242 82.6847 242.588 82.2228 243.165 81.4145C243.742 80.4908 244.088 79.9135 244.203 79.6825C244.549 78.5279 244.434 77.2577 243.626 75.9876L239.589 69.2905C240.858 68.7132 242.588 67.9049 244.665 66.6348C248.817 64.0946 252.163 62.0161 254.585 60.1687L256.661 63.5172C254.585 64.9028 251.816 66.7503 248.356 68.8287C245.818 70.4452 243.742 71.4844 242.357 72.2927L244.895 76.5649C246.164 75.8721 248.587 74.4865 252.163 72.2927C255.162 70.4452 257.584 69.1751 259.545 68.3668L261.506 71.4844C259.545 72.4081 257.007 73.6783 254.124 75.4103C249.971 77.9505 247.548 79.3361 246.972 79.6825L248.01 81.53Z" fill="#522100"/>
<path d="M257.353 92.9612C253.777 93.7694 251.124 91.922 249.163 87.4188C250.201 86.9569 250.894 86.1486 251.355 84.994C252.162 82.8001 252.624 81.7609 252.739 81.6455C253.547 80.2599 254.816 79.2207 256.546 78.5279C258.738 77.6041 260.814 77.3732 262.66 77.9505C264.621 78.5279 266.12 79.9134 267.043 82.1073C267.735 83.6084 267.851 85.1095 267.504 86.3796C267.158 87.7652 266.236 88.9198 264.851 89.7281L263.352 86.3796C265.89 85.3404 266.812 83.8393 266.005 82.1073C265.197 80.1444 262.314 80.2599 257.353 82.4537C258.045 82.5692 258.622 83.031 259.314 83.6084C259.891 84.1857 260.353 84.7631 260.583 85.4559C261.16 86.726 261.391 87.8806 261.391 89.0353C261.391 90.5364 260.814 91.4601 259.66 91.922L258.161 88.5734C258.853 88.3425 259.314 87.8806 259.43 87.1878C259.66 86.6105 259.545 85.9177 259.314 85.3404C258.968 84.6476 258.622 84.0702 258.276 83.6084C257.93 83.1465 257.353 82.9156 256.546 82.6846C255.738 83.031 254.7 83.9548 253.431 85.2249C252.162 86.4951 251.124 87.4188 250.317 87.7652C250.778 88.9198 251.586 89.6126 252.739 89.8436C253.777 90.0745 254.816 89.959 255.969 89.4972L257.353 92.9612Z" fill="#522100"/>
<path d="M257.238 109.704L256.2 106.124C257.815 105.316 260.583 104.392 264.159 103.353C264.39 101.968 264.275 100.351 263.698 98.2726C260.468 99.1964 257.469 100.005 254.585 100.697L253.431 96.887C256.431 96.3097 260.237 95.2705 264.851 94.0004C267.158 93.3076 269.004 92.7302 270.273 92.0374L271.311 95.7324C270.042 96.3097 267.735 97.118 264.39 98.0417C264.967 100.005 265.082 101.621 264.851 103.122L266.928 102.545C269.235 101.852 271.08 101.275 272.58 100.582L273.618 104.277C272.119 104.854 270.273 105.432 268.081 106.124C267.62 106.24 266.812 106.471 265.774 106.817C264.736 107.164 263.929 107.279 263.467 107.51C261.16 108.203 258.968 108.896 257.238 109.704Z" fill="#522100"/>
<path d="M277.656 126.562C275.695 125.985 273.734 125.638 271.657 125.407V125.292C271.657 125.292 271.657 125.292 271.773 125.292C271.888 125.292 272.465 124.945 273.387 124.253C274.31 123.56 274.772 123.213 274.887 122.982C275.695 121.943 276.041 120.673 275.81 119.172V118.941C273.964 119.288 271.196 119.749 267.504 120.327C263.813 120.904 261.045 121.366 259.199 121.712L258.622 117.556C260.468 117.44 263.236 117.094 266.928 116.632C270.619 116.17 273.387 115.824 275.233 115.708L275.118 115.131C274.887 113.861 274.31 112.821 273.157 112.013C272.119 111.32 270.965 110.974 269.581 110.743V110.628C271.542 109.935 273.387 109.011 275.118 107.856L277.656 126.562Z" fill="#522100"/>
<path d="M275.118 141.803C273.618 141.803 272.119 140.88 270.504 138.917C269.35 137.531 268.427 135.915 267.389 133.952C264.851 133.952 262.314 134.183 260.006 134.414L259.891 130.372C262.66 130.141 265.659 130.026 268.889 129.91C271.311 129.91 273.272 130.372 274.887 131.296C276.733 132.451 277.771 134.183 277.771 136.492C277.771 138.109 277.656 139.148 277.425 139.841C277.194 141.111 276.387 141.688 275.118 141.803ZM274.541 137.762C275.348 137.762 275.925 137.647 276.271 137.531C276.848 137.3 277.079 136.838 277.079 136.146C277.079 135.222 276.387 134.645 274.887 134.183C273.849 133.952 272.811 133.721 271.657 133.836H268.312C269.927 136.492 272.003 137.762 274.541 137.762Z" fill="#522100"/>
</svg>
