<svg width="12" height="12" viewBox="0 0 12 12" xmlns="http://www.w3.org/2000/svg">
<path d="M11.4142 2.41423C11.9665 1.86192 11.9665 0.966537 11.4142 0.41423C10.8619 -0.138077 9.96653 -0.138077 9.41423 0.41423L5.91419 3.91429L2.4142 0.414291C1.86193 -0.138016 0.966496 -0.138016 0.414219 0.414291C-0.138073 0.966537 -0.138073 1.86198 0.414219 2.41429L3.91419 5.91423L0.414265 9.41417C-0.138012 9.96648 -0.138012 10.8619 0.414265 11.4142C0.966557 11.9665 1.86197 11.9665 2.41426 11.4142L5.91419 7.91423L9.41419 11.4142C9.96646 11.9665 10.8619 11.9665 11.4142 11.4142C11.9665 10.8619 11.9665 9.96654 11.4142 9.41423L7.91419 5.91423L11.4142 2.41423Z"/>
</svg>
