<svg width="36" height="36" viewBox="0 0 36 36" fill="none" xmlns="http://www.w3.org/2000/svg">
<path d="M2.58533 29.8286V4.11428C6.03243 3.08571 7.3251 1.02856 12.0649 1.02856C15.8567 1.02856 17.9537 3.94285 18.5282 5.65714C19.1027 3.94285 20.7688 1.02856 24.5606 1.02856C28.3524 1.02856 31.8857 3.59999 34.9019 4.11428V29.8286C32.7475 29.3143 29.4727 26.7428 24.9915 26.7428C20.5103 26.7428 18.8154 29.4857 18.5282 30.8571C18.0973 29.4857 16.2876 26.7428 12.4958 26.7428C8.70394 26.7428 4.73977 29.3143 2.58533 29.8286Z" fill="#E9B30F"/>
<path d="M18.5807 29.6837V8.509C18.5807 8.11727 18.3208 7.79987 18 7.79987C17.6793 7.79987 17.4194 8.11727 17.4194 8.509V29.6837C17.4194 30.0755 17.6793 30.3929 18 30.3929C18.3208 30.3929 18.5807 30.0755 18.5807 29.6837Z" fill="#522100"/>
<path d="M35.4194 3.1822C34.1918 3.1822 32.6621 2.53528 31.0426 1.85045C28.9916 0.983044 26.6668 0 24.2558 0C21.466 0 19.764 1.49305 18.8275 2.74556C18.4773 3.21416 18.2059 3.6837 18.0001 4.10019C17.7943 3.6837 17.5229 3.21416 17.1726 2.74556C16.2361 1.49305 14.5342 0 11.7444 0C9.33329 0 7.00854 0.983044 4.95755 1.85045C3.33786 2.53528 1.80821 3.1822 0.580645 3.1822C0.259897 3.1822 0 3.49961 0 3.89133V32.4543C0 32.8461 0.259897 33.1635 0.580645 33.1635C2.00361 33.1635 3.62299 32.4787 5.33737 31.7536C7.30188 30.9229 9.52854 29.9813 11.7442 29.9813C13.6441 29.9813 15.1819 30.7496 16.3149 32.2649C16.531 32.554 16.8984 32.5743 17.1352 32.3103C17.3721 32.0462 17.3886 31.5976 17.1724 31.3084C16.2358 30.056 14.5339 28.5629 11.7442 28.5629C9.33314 28.5629 7.00839 29.546 4.95739 30.4134C3.58436 30.9942 2.27582 31.5474 1.16129 31.7025V4.56529C2.43801 4.41675 3.852 3.81872 5.33737 3.19061C7.30188 2.35989 9.52854 1.41826 11.7442 1.41826C16.2253 1.41826 17.3978 5.764 17.4449 5.94667C17.5198 6.24432 17.745 6.4476 18 6.4476C18.255 6.4476 18.4802 6.24441 18.5551 5.94667C18.5664 5.90138 19.746 1.41826 24.2558 1.41826C26.4715 1.41826 28.6981 2.35989 30.6626 3.19061C32.1481 3.81881 33.562 4.41675 34.8387 4.56529V31.7025C33.7242 31.5474 32.4156 30.9942 31.0426 30.4135C28.9916 29.5461 26.6668 28.563 24.2558 28.563C21.4659 28.563 19.7639 30.0561 18.8275 31.3086C18.6113 31.5979 18.6279 32.0464 18.8647 32.3104C19.1016 32.5745 19.4689 32.5542 19.685 32.2651C20.8181 30.7497 22.3558 29.9814 24.2558 29.9814C26.4715 29.9814 28.6981 30.923 30.6626 31.7537C32.3771 32.4787 33.9965 33.1636 35.4194 33.1636C35.7401 33.1636 36 32.8462 36 32.4544V3.89133C36 3.4997 35.7401 3.1822 35.4194 3.1822Z" fill="#522100"/>
<path d="M35.4194 34.5817C34.1918 34.5817 32.6621 33.9348 31.0426 33.25C28.9916 32.3826 26.6668 31.3995 24.2558 31.3995C21.6357 31.3995 19.9752 32.7164 19.0071 33.9142L16.9928 33.9141C16.0247 32.7163 14.3642 31.3995 11.7442 31.3995C9.33313 31.3995 7.00839 32.3826 4.95739 33.25C3.33786 33.9348 1.80821 34.5817 0.580645 34.5817C0.259897 34.5817 0 34.8991 0 35.2909C0 35.6826 0.259897 36 0.580645 36C2.00361 36 3.62299 35.3152 5.33737 34.5902C7.30188 33.7594 9.52854 32.8178 11.7442 32.8178C13.6441 32.8178 15.1819 33.5861 16.3149 35.1014C16.4249 35.2485 16.5805 35.3323 16.7436 35.3323L19.2562 35.3324C19.4193 35.3324 19.5749 35.2485 19.685 35.1015C20.818 33.5861 22.3558 32.8178 24.2557 32.8178C26.4714 32.8178 28.698 33.7594 30.6626 34.5902C32.377 35.3152 33.9964 36 35.4193 36C35.74 36 35.9999 35.6826 35.9999 35.2909C35.9999 34.8991 35.7401 34.5817 35.4194 34.5817Z" fill="#522100"/>
</svg>
