<svg width="36" height="36" viewBox="0 0 36 36" fill="none" xmlns="http://www.w3.org/2000/svg">
<path d="M30.2828 4.27161L29.9312 5.32307C29.8711 5.5027 29.7039 5.62367 29.5157 5.62367C29.315 5.62367 29.1399 5.48632 29.0907 5.29027L28.886 4.47419C28.8598 4.37007 28.8598 4.26103 28.886 4.15691L29.016 3.63841C29.1033 3.29044 28.893 2.93734 28.5471 2.85116L28.0902 2.73732C27.9427 2.70056 27.787 2.71764 27.6508 2.78551L26.0276 3.59435C25.9389 3.63852 25.8414 3.66149 25.7425 3.66149H23.6991C23.6307 3.66149 23.5627 3.67249 23.4977 3.69407L20.7859 4.59493C20.6916 4.62627 20.6057 4.67921 20.5351 4.74958L18.8378 6.44109C18.7317 6.5469 18.6654 6.68663 18.6504 6.8363L18.3546 9.78347C18.3485 9.84423 18.351 9.90556 18.362 9.96563L18.9403 13.1358C18.9788 13.3464 18.9113 13.5625 18.7602 13.7131L18.4586 14.0137C18.1118 14.3593 17.5242 14.2052 17.3888 13.733L17.2292 13.176C17.1239 12.809 16.7277 12.613 16.375 12.7536L16.2715 12.7948C15.8496 12.963 15.3921 12.6498 15.3921 12.1927V11.2818C15.3921 11.0467 15.2029 10.8562 14.9695 10.8562C14.6883 10.8562 14.4855 10.5846 14.5636 10.3124L14.9166 9.0809C14.9971 8.80033 14.8299 8.50863 14.5484 8.43851C14.1811 8.34697 14.0365 7.89891 14.2803 7.60734L15.0941 6.63418C15.2527 6.44443 15.2115 6.15773 15.0059 6.02114C14.7408 5.84497 14.7653 5.44546 15.05 5.3036L15.716 4.97172C16.0588 4.80093 16.1624 4.35799 15.9314 4.05103C15.6722 3.70662 15.8383 3.20742 16.2511 3.08986L17.1799 2.8254C17.4634 2.74467 17.6317 2.45132 17.5595 2.16359C17.4648 1.7859 17.7804 1.43198 18.1633 1.4865L19.0217 1.6087C19.3577 1.65655 19.658 1.39378 19.658 1.05191C19.658 0.615992 20.1291 0.345842 20.5013 0.568358L20.7072 0.691494C21.0272 0.882863 21.4412 0.761333 21.6091 0.426737L21.6448 0.355625C21.8126 0.0210288 22.2266 -0.100501 22.5467 0.0908679L23.1686 0.46279C23.4202 0.613231 23.7409 0.573567 23.9489 0.366286L24.1281 0.187715C24.3786 -0.0619172 24.7819 -0.0619173 25.0324 0.187714L25.2652 0.419731C25.5753 0.72875 26.0556 0.521974 26.4752 0.402047C26.4999 0.39498 26.5246 0.391181 26.5491 0.391181C26.7116 0.391181 26.8824 0.891943 27.0149 1.42872C27.1239 1.87017 27.6234 2.10343 28.0117 1.87122L28.1311 1.79985C28.4929 1.58349 28.9601 1.76981 29.0769 2.17702L29.4067 3.32733C29.4634 3.52524 29.6432 3.66149 29.8478 3.66149C30.1617 3.66149 30.3831 3.97188 30.2828 4.27161Z" fill="#E9B30F"/>
<path d="M20.6422 21.6481C20.9047 20.6016 21.2987 16.4156 19.3295 15.1075C18.6735 16.7427 15.392 16.0886 15.392 16.0886C15.392 16.0886 17.689 19.6859 16.3764 23.6103C17.0327 22.3022 19.2203 21.8661 20.6422 21.6481Z" fill="#E9B30F"/>
<path d="M23.924 28.5158H28.5181L26.5492 35.0564L25.8929 34.7294L23.924 28.5158Z" fill="#E9B30F"/>
<path d="M8.50129 28.5158H12.4391L8.17314 35.0564L7.51685 34.0753L8.50129 28.5158Z" fill="#E9B30F"/>
<path d="M28.1898 17.3968C28.1898 17.758 28.4837 18.0508 28.8461 18.0508C29.2086 18.0508 29.5024 17.758 29.5024 17.3968C29.5024 17.0355 29.2086 16.7427 28.8461 16.7427C28.4837 16.7427 28.1898 17.0355 28.1898 17.3968Z" fill="#E9B30F"/>
<path d="M26.2211 14.7805C26.2211 15.1417 26.5149 15.4346 26.8774 15.4346C27.2398 15.4346 27.5337 15.1417 27.5337 14.7805C27.5337 14.4193 27.2398 14.1265 26.8774 14.1265C26.5149 14.1265 26.2211 14.4193 26.2211 14.7805Z" fill="#E9B30F"/>
<path d="M23.5957 12.8184C23.5957 13.1796 23.8895 13.4724 24.2519 13.4724C24.6144 13.4724 24.9082 13.1796 24.9082 12.8184C24.9082 12.4571 24.6144 12.1643 24.2519 12.1643C23.8895 12.1643 23.5957 12.4571 23.5957 12.8184Z" fill="#E9B30F"/>
<path fill-rule="evenodd" clip-rule="evenodd" d="M18.7836 14.7447C18.5826 15.0453 18.6641 15.4514 18.9657 15.6517C19.3124 15.882 19.5878 16.261 19.7924 16.7753C19.997 17.2892 20.115 17.8999 20.1691 18.5316C20.278 19.8035 20.1188 21.0391 20.0058 21.4895C19.9179 21.8399 20.1317 22.195 20.4833 22.2826C20.8349 22.3703 21.1913 22.1572 21.2792 21.8067C21.4287 21.2106 21.5977 19.83 21.4769 18.4203C21.4162 17.7111 21.2798 16.9646 21.0126 16.293C20.7455 15.6218 20.3317 14.987 19.6937 14.5633C19.3921 14.3629 18.9847 14.4442 18.7836 14.7447ZM14.8386 16.4397L14.8409 16.4435C14.8438 16.4482 14.8487 16.4562 14.8555 16.4674C14.8691 16.4899 14.8902 16.5254 14.9173 16.5731C14.9715 16.6685 15.0497 16.8124 15.1406 16.9985C15.3229 17.3712 15.5543 17.9092 15.7471 18.5624C16.1341 19.8738 16.3541 21.6095 15.7541 23.4035C15.6395 23.7462 15.8253 24.1166 16.1692 24.2308C16.513 24.345 16.8847 24.1598 16.9993 23.8171C17.7119 21.6867 17.4396 19.6616 17.0063 18.1933C16.7889 17.4566 16.5281 16.8499 16.3206 16.4255C16.2168 16.213 16.1257 16.0452 16.0595 15.9285C16.0263 15.8702 15.9993 15.8246 15.9799 15.7925C15.9702 15.7764 15.9624 15.7637 15.9567 15.7545L15.9497 15.7434L15.9474 15.7397L15.9466 15.7384L15.9462 15.7379C15.9461 15.7377 15.9459 15.7374 15.3922 16.0886L15.9459 15.7374C15.7513 15.4327 15.3457 15.3429 15.0399 15.5368C14.7343 15.7306 14.6441 16.1345 14.8382 16.4392C14.8382 16.4393 14.8383 16.4393 14.8383 16.4394L14.8386 16.4397Z" fill="#522100"/>
<path fill-rule="evenodd" clip-rule="evenodd" d="M28.1903 30.478C28.1903 30.1167 27.8965 29.8239 27.534 29.8239H26.2214C25.859 29.8239 25.5651 30.1167 25.5651 30.478C25.5651 30.8392 25.859 31.132 26.2214 31.132H27.534C27.8965 31.132 28.1903 30.8392 28.1903 30.478Z" fill="#522100"/>
<path fill-rule="evenodd" clip-rule="evenodd" d="M28.8457 28.5158C28.8457 28.1546 28.5519 27.8618 28.1894 27.8618H26.2205C25.8581 27.8618 25.5642 28.1546 25.5642 28.5158C25.5642 28.877 25.8581 29.1699 26.2205 29.1699H28.1894C28.5519 29.1699 28.8457 28.877 28.8457 28.5158Z" fill="#522100"/>
<path fill-rule="evenodd" clip-rule="evenodd" d="M13.0944 28.5158C13.0944 28.1546 12.8005 27.8618 12.4381 27.8618H10.4692C10.1067 27.8618 9.81289 28.1546 9.81289 28.5158C9.81289 28.877 10.1067 29.1699 10.4692 29.1699H12.4381C12.8005 29.1699 13.0944 28.877 13.0944 28.5158Z" fill="#522100"/>
<path fill-rule="evenodd" clip-rule="evenodd" d="M13.5584 16.2802C13.3021 16.0248 12.8866 16.0248 12.6303 16.2802L10.6614 18.2424C10.4051 18.4978 10.4051 18.9119 10.6614 19.1673C10.9177 19.4228 11.3332 19.4228 11.5895 19.1673L13.5584 17.2052C13.8147 16.9497 13.8147 16.5356 13.5584 16.2802Z" fill="#522100"/>
<path fill-rule="evenodd" clip-rule="evenodd" d="M11.7823 30.478C11.7823 30.1167 11.4885 29.8239 11.1261 29.8239H9.81346C9.451 29.8239 9.15717 30.1167 9.15717 30.478C9.15717 30.8392 9.451 31.132 9.81346 31.132H11.1261C11.4885 31.132 11.7823 30.8392 11.7823 30.478Z" fill="#522100"/>
<path fill-rule="evenodd" clip-rule="evenodd" d="M27.327 2.1583C26.7296 2.33055 26.2019 2.58325 25.8837 2.77351L25.5028 3.00131C25.4267 3.00509 25.3386 3.00734 25.2369 3.00734C23.8498 3.00734 21.014 3.34764 18.8662 5.48812C18.3408 6.01172 18.0654 6.73621 17.928 7.4808C17.7893 8.23274 17.7792 9.07144 17.8389 9.89745C17.9536 11.4833 18.333 13.1159 18.6633 14.1914C18.6562 14.2335 18.6444 14.2959 18.6248 14.3817C18.5818 14.5695 18.5078 14.8424 18.3859 15.2086C18.3708 15.2231 18.3131 15.2696 18.1477 15.3204C17.903 15.3954 17.5559 15.4345 17.1563 15.4345C16.7642 15.4345 16.359 15.397 16.0168 15.341C15.6536 15.2815 15.4286 15.2118 15.3579 15.1765C15.2644 15.1299 15.1571 15.0815 15.0474 15.0515C14.9504 15.025 14.7366 14.9798 14.5056 15.0821C14.2499 15.1953 14.1485 15.4083 14.1119 15.5028C14.0834 15.5761 14.0619 15.6701 14.0589 15.6832C14.0587 15.684 14.0585 15.6845 14.0585 15.6847C14.0554 15.6969 14.0531 15.7051 14.0515 15.7104C14.0357 15.7233 13.9884 15.7558 13.8797 15.7927C13.8799 15.7926 13.88 15.7925 13.88 15.7924C13.8798 15.7912 13.8209 15.8006 13.6694 15.7774C13.5046 15.7522 13.2902 15.6982 13.0312 15.6146C12.5148 15.4478 11.8864 15.1846 11.2411 14.8832C9.94677 14.2785 8.66537 13.5582 8.20918 13.2551C7.12898 12.5375 6.15161 12.927 5.74033 13.3369L5.69437 13.3827L5.65833 13.4365C5.43826 13.7655 4.91519 14.5794 4.63295 15.142C4.45779 15.4911 4.4684 15.8478 4.59156 16.1689C4.70217 16.4572 4.90125 16.7134 5.1013 16.9349C5.30672 17.1624 5.56213 17.4051 5.83094 17.6578C5.86479 17.6897 5.899 17.7218 5.93358 17.7543C6.17978 17.9854 6.4444 18.2338 6.72477 18.5132C7.98978 19.774 8.56936 20.6653 8.85507 21.5037C8.85617 21.5137 8.85826 21.5356 8.85951 21.5727C8.86211 21.6491 8.86039 21.7568 8.85271 21.8981C8.83741 22.1798 8.80064 22.5574 8.74512 23.0146C8.63433 23.9267 8.45356 25.1178 8.23942 26.4146C7.81433 28.9889 7.26233 31.9519 6.88047 33.9108C6.82035 34.0981 6.7479 34.3732 6.72407 34.6277C6.7123 34.7533 6.70379 34.9509 6.76449 35.1443C6.79686 35.2474 6.86217 35.3923 6.99893 35.5145C7.1488 35.6485 7.33457 35.7104 7.51699 35.7104C7.81569 35.7104 8.07141 35.5925 8.23243 35.4992C8.40279 35.4005 8.54577 35.2831 8.63735 35.1918L8.67962 35.1497L8.71355 35.1007C9.8054 33.5229 11.5252 31.0744 13.1349 28.8584C14.7629 26.6171 16.2309 24.6808 16.841 24.0728C17.5352 23.381 18.6242 22.9311 19.6549 22.7409C20.1636 22.647 20.6268 22.6225 20.9825 22.6524C21.1605 22.6674 21.2967 22.6947 21.3917 22.7255C21.4312 22.7383 21.4578 22.7498 21.4745 22.758C21.4821 22.7726 21.4921 22.7928 21.5046 22.8197C21.5487 22.9151 21.6036 23.052 21.6686 23.2323C21.798 23.5913 21.9527 24.0804 22.126 24.6644C22.472 25.8307 22.8799 27.3348 23.2908 28.8499L23.2925 28.8561C23.7014 30.364 24.1132 31.8824 24.464 33.065C24.6394 33.6563 24.8026 34.1738 24.9449 34.5685C25.0158 34.7651 25.0852 34.9418 25.152 35.0862C25.2063 35.2037 25.2962 35.3863 25.4292 35.5188C25.7848 35.8733 26.2226 36.0783 26.6881 35.9718C27.1082 35.8757 27.3556 35.5664 27.4647 35.3489L27.4994 35.2798L27.5169 35.2045C27.9503 33.3474 28.714 30.744 29.5017 28.0588C29.6986 27.3877 29.8969 26.7115 30.092 26.0407C31.055 22.7287 31.9529 19.4982 32.1246 17.7889C32.2326 16.7135 31.8532 15.7176 31.2828 14.8456C30.7134 13.975 29.9233 13.1803 29.1232 12.4832C28.4135 11.8649 27.6705 11.3022 27.0368 10.8222C26.9548 10.7601 26.8747 10.6994 26.7967 10.6402C26.4518 10.3782 26.1527 10.1475 25.9109 9.94422C25.6616 9.73447 25.5096 9.58345 25.4336 9.48255C25.252 9.24125 25.2599 9.12238 25.2622 9.10446C25.2638 9.0922 25.2715 9.04666 25.367 8.98005C25.4675 8.90997 25.6278 8.84733 25.8236 8.82204C26.0181 8.79691 26.2037 8.81444 26.3418 8.86033C26.5064 8.91503 26.8273 9.08974 27.2785 9.3576C27.3995 9.42945 27.5275 9.50648 27.659 9.58559C27.9798 9.77862 28.3212 9.98406 28.632 10.157C28.8537 10.2803 29.0751 10.3958 29.2788 10.4856C29.4694 10.5696 29.6976 10.6556 29.9178 10.6801C30.029 10.6924 30.1931 10.696 30.3656 10.632C30.563 10.5587 30.7341 10.4093 30.8247 10.1936C30.9043 10.0042 30.898 9.82048 30.8792 9.69239C30.8596 9.55874 30.8175 9.42733 30.7685 9.30504C30.4761 8.57665 30.4293 8.08117 30.4042 7.63126C30.4016 7.5853 30.3993 7.53847 30.397 7.49076C30.3762 7.06573 30.3521 6.57151 30.1025 6.01201L30.0965 5.99844L30.0898 5.98516C29.976 5.75829 29.7894 5.4032 29.5957 5.06812C29.5005 4.90354 29.389 4.71748 29.2746 4.54912C29.3118 4.50966 29.3534 4.46659 29.3996 4.41897C29.4083 4.41004 29.4171 4.40095 29.4261 4.39172C29.5124 4.30297 29.6111 4.20135 29.7036 4.09895C29.805 3.98662 29.9148 3.85611 30.0062 3.71735C30.0924 3.58635 30.196 3.39802 30.2291 3.17404C30.2671 2.9161 30.2062 2.62982 29.9896 2.39867C29.8023 2.1988 29.5537 2.10053 29.3339 2.04577C28.6464 1.87449 27.9139 1.98904 27.327 2.1583ZM28.6852 3.2706C28.6217 3.33912 28.5538 3.40897 28.4812 3.48372C28.473 3.49221 28.4647 3.50077 28.4563 3.50939C28.3628 3.60568 28.2576 3.71457 28.1678 3.8195C28.0867 3.91428 27.9725 4.05696 27.9021 4.22214C27.8309 4.38947 27.7325 4.78428 28.0544 5.10502C28.1133 5.16376 28.2632 5.38366 28.4584 5.72124C28.6326 6.02252 28.8032 6.34636 28.9088 6.55613C29.0495 6.87758 29.0632 7.13513 29.0865 7.57171C29.0887 7.61399 29.0911 7.65796 29.0936 7.70382C29.1142 8.07232 29.1506 8.49757 29.2924 9.02622C29.2856 9.02241 29.2787 9.01859 29.2718 9.01473C28.9814 8.8532 28.6722 8.66713 28.36 8.47927C28.2236 8.39715 28.0865 8.31468 27.9502 8.23377C27.5371 7.98848 27.0844 7.72815 26.7569 7.61933C26.0822 7.39522 25.207 7.49492 24.6143 7.9084C24.2996 8.12794 24.0201 8.47075 23.9602 8.93881C23.901 9.40122 24.0729 9.85466 24.3836 10.2674C24.5537 10.4936 24.8024 10.7236 25.0644 10.9439C25.334 11.1707 25.657 11.4192 26.001 11.6805C26.0806 11.741 26.1615 11.8023 26.2435 11.8644C26.8802 12.3468 27.5859 12.8814 28.2593 13.4681C29.0208 14.1316 29.7089 14.8347 30.1832 15.5599C30.6566 16.2838 30.8865 16.9816 30.8185 17.6586C30.6617 19.2196 29.8096 22.3117 28.8312 25.6766C28.6395 26.3359 28.4435 27.004 28.2482 27.6699C27.5127 30.1769 26.7863 32.6529 26.3327 34.5136C26.2906 34.4198 26.2396 34.2911 26.1802 34.1262C26.0507 33.7672 25.896 33.2781 25.7228 32.6941C25.3768 31.5278 24.9688 30.0237 24.5579 28.5086L24.5563 28.5025C24.1473 26.9945 23.7355 25.4762 23.3847 24.2935C23.2093 23.7023 23.0461 23.1847 22.9038 22.79C22.8329 22.5934 22.7635 22.4167 22.6967 22.2723C22.6424 22.1548 22.5525 21.9722 22.4195 21.8397C22.2372 21.6579 22.0073 21.5495 21.7976 21.4815C21.5811 21.4114 21.3404 21.3697 21.0928 21.3489C20.5975 21.3073 20.0147 21.3441 19.4159 21.4546C18.2316 21.6732 16.8595 22.2044 15.9129 23.1478C15.2104 23.8479 13.6704 25.8904 12.0717 28.0913C10.7625 29.8935 9.38222 31.847 8.32256 33.3658C8.69098 31.4448 9.16107 28.889 9.53459 26.6271C9.74977 25.324 9.93406 24.1114 10.0482 23.1718C10.1051 22.703 10.1458 22.2926 10.1634 21.9688C10.1722 21.8074 10.1758 21.6579 10.1714 21.5284C10.1675 21.4155 10.1566 21.2581 10.1085 21.1142C9.73498 19.9975 9.00088 18.9316 7.65291 17.5883C7.35777 17.2941 7.07841 17.0319 6.83293 16.8014C6.79849 16.7691 6.76472 16.7374 6.73167 16.7063C6.45698 16.4481 6.24069 16.2411 6.07694 16.0598C5.9101 15.8751 5.84213 15.7639 5.81853 15.7041C6.04668 15.2552 6.4682 14.5893 6.6992 14.2393C6.70941 14.2329 6.72163 14.2259 6.73581 14.2188C6.77842 14.1976 6.83359 14.1784 6.89903 14.1696C7.01732 14.1537 7.21337 14.1657 7.48109 14.3436C8.00934 14.6945 9.35312 15.4459 10.684 16.0676C11.3512 16.3793 12.0355 16.6681 12.6265 16.859C12.9213 16.9542 13.2094 17.0305 13.4701 17.0704C13.7118 17.1074 14.013 17.1273 14.2875 17.0361C14.617 16.9266 14.8737 16.7678 15.0568 16.5531C15.0781 16.5282 15.0976 16.5033 15.1157 16.4785C15.3253 16.5419 15.5655 16.5927 15.8039 16.6318C16.2104 16.6984 16.687 16.7426 17.1563 16.7426C17.6182 16.7426 18.1119 16.7 18.5337 16.5706C18.9287 16.4495 19.4398 16.1944 19.6248 15.6413C19.7616 15.2323 19.8498 14.9118 19.9046 14.6723C19.9553 14.4504 19.9866 14.259 19.9866 14.1264V14.0256L19.9561 13.9294C19.6391 12.9291 19.2584 11.329 19.1481 9.80346C19.093 9.04065 19.1075 8.32187 19.219 7.71731C19.3319 7.1054 19.5322 6.67438 19.7944 6.41311C21.5843 4.62922 23.9994 4.31546 25.2369 4.31546C25.7645 4.31546 26.1863 4.26767 26.4721 4.11623C26.5879 4.05482 26.7514 3.93713 26.8453 3.74186C27.0745 3.62997 27.3706 3.5075 27.6918 3.41488C28.044 3.31332 28.386 3.25944 28.6852 3.2706Z" fill="#522100"/>
</svg>
