<svg width="27" height="36" viewBox="0 0 27 36" fill="none" xmlns="http://www.w3.org/2000/svg">
<path fill-rule="evenodd" clip-rule="evenodd" d="M19 10.8378C19.2889 10.8378 19.5419 11.028 19.6176 11.302C19.846 12.1284 20.3725 12.9597 21.0873 13.8118C21.7724 14.6283 22.5929 15.4214 23.4196 16.2204C23.4541 16.2538 23.4886 16.2872 23.5231 16.3205C24.3705 17.1399 25.2266 17.9741 25.8674 18.8026C26.502 19.6232 27 20.5305 27 21.5003C27 23.2265 26.2572 24.3667 25.2893 25.0546C24.3539 25.7195 23.2503 25.9351 22.5048 25.9351H15.4952C14.7497 25.9351 13.6461 25.7195 12.7107 25.0546C11.7428 24.3667 11 23.2265 11 21.5003C11 20.5305 11.498 19.6232 12.1326 18.8026C12.7734 17.9741 13.6295 17.1399 14.4769 16.3205C14.5114 16.2872 14.5459 16.2538 14.5805 16.2204C15.4071 15.4214 16.2276 14.6283 16.9127 13.8118C17.6275 12.9597 18.154 12.1284 18.3824 11.302C18.4581 11.028 18.7111 10.8378 19 10.8378ZM13.1517 19.5639C12.5706 20.3154 12.28 20.9477 12.28 21.5003C12.28 22.8187 12.8223 23.5814 13.4607 24.0352C14.1316 24.512 14.9557 24.677 15.4952 24.677H22.5048C23.0443 24.677 23.8684 24.512 24.5393 24.0352C25.1777 23.5814 25.72 22.8187 25.72 21.5003C25.72 20.9477 25.4294 20.3154 24.8483 19.5639C24.2734 18.8204 23.4866 18.0501 22.6255 17.2174C22.5856 17.1789 22.5456 17.1402 22.5054 17.1014C21.6927 16.3159 20.8287 15.4809 20.0998 14.6122C19.6891 14.1227 19.3095 13.609 19 13.0713C18.6905 13.609 18.3109 14.1227 17.9002 14.6122C17.1713 15.4809 16.3073 16.3159 15.4946 17.1014C15.4544 17.1402 15.4144 17.1789 15.3745 17.2174C14.5134 18.0501 13.7266 18.8204 13.1517 19.5639Z" fill="#522100"/>
<path fill-rule="evenodd" clip-rule="evenodd" d="M19.5 4.29559C19.5 4.01947 19.2761 3.79559 19 3.79559C18.7239 3.79559 18.5 4.01947 18.5 4.29559V6.04608H17.1111C16.835 6.04608 16.6111 6.26996 16.6111 6.54608C16.6111 6.8222 16.835 7.04608 17.1111 7.04608H18.5V10.8599C18.3433 10.9973 18.2445 11.1983 18.2445 11.4222C18.2445 11.5819 18.2947 11.7299 18.3804 11.8516C18.0875 12.5533 17.6139 13.2523 17.0259 13.9554C16.3157 14.8047 15.4666 15.6282 14.6203 16.4488L14.5111 16.5547C13.6391 17.4006 12.7712 18.2496 12.1238 19.0895C11.4814 19.9228 11 20.8167 11 21.7559C11 23.4772 11.7349 24.5934 12.6739 25.2631C13.5897 25.9161 14.674 26.1288 15.4021 26.1288H22.5979C23.326 26.1288 24.4103 25.9161 25.3261 25.2631C26.2651 24.5934 27 23.4772 27 21.7559C27 20.8167 26.5186 19.9228 25.8762 19.0895C25.2288 18.2496 24.3609 17.4006 23.4889 16.5547L23.3797 16.4488C22.5334 15.6282 21.6843 14.8047 20.9741 13.9554C20.3862 13.2523 19.9126 12.5533 19.6197 11.8516C19.7054 11.73 19.7556 11.582 19.7556 11.4222C19.7556 11.1982 19.6567 10.9972 19.5 10.8597V7.04608H20.8889C21.165 7.04608 21.3889 6.8222 21.3889 6.54608C21.3889 6.26996 21.165 6.04608 20.8889 6.04608H19.5V4.29559ZM11.8889 21.7559C11.8889 21.1272 12.2169 20.4355 12.8226 19.6497C13.4232 18.8705 14.2419 18.067 15.1238 17.2114L15.2447 17.0942C16.081 16.2833 16.9609 15.4301 17.7023 14.5436C18.2086 13.9382 18.6632 13.3024 19 12.6359C19.3368 13.3024 19.7914 13.9382 20.2977 14.5436C21.0391 15.4301 21.919 16.2833 22.7553 17.0942L22.8762 17.2114C23.7581 18.067 24.5768 18.8705 25.1774 19.6497C25.7831 20.4355 26.1111 21.1272 26.1111 21.7559C26.1111 23.1704 25.5267 24.0139 24.8167 24.5202C24.0834 25.0431 23.189 25.2224 22.5979 25.2224H15.4021C14.811 25.2224 13.9166 25.0431 13.1833 24.5202C12.4733 24.0139 11.8889 23.1704 11.8889 21.7559Z" fill="#522100"/>
<path d="M3 26.6145C3 22.5507 9.54921 18.3394 13.0667 13.5691C13.8449 12.5137 14.2341 11.986 14.2795 11.9387C14.8623 11.3334 15.1377 11.3334 15.7205 11.9387C15.7659 11.986 16.1551 12.5137 16.9333 13.5691C20.4508 18.3394 27 22.5507 27 26.6145C27 31.7073 22.8095 32.9806 20.7143 32.9806H15H9.28571C7.19048 32.9806 3 31.7073 3 26.6145Z" fill="#E9B30F"/>
<path fill-rule="evenodd" clip-rule="evenodd" d="M13.5 0.503235C13.5 0.227112 13.2761 0.00323486 13 0.00323486C12.7239 0.00323486 12.5 0.227112 12.5 0.503235V3.66217H9.93054C9.65442 3.66217 9.43054 3.88605 9.43054 4.16217C9.43054 4.43829 9.65442 4.66217 9.93054 4.66217H12.5V10.9756C12.0712 11.1658 11.7723 11.5932 11.7723 12.0899C11.7723 12.3495 11.8539 12.5901 11.9931 12.7879C11.5172 13.9287 10.7476 15.0652 9.79211 16.2083C8.638 17.5891 7.25812 18.9279 5.883 20.2621L5.70557 20.4342C4.28851 21.8096 2.87823 23.1898 1.82617 24.5554C0.78241 25.9102 0 27.3635 0 28.8904C0 31.6889 1.19415 33.5038 2.72003 34.5925C4.20813 35.6541 5.97015 36 7.15344 36H18.8466C20.0298 36 21.7919 35.6541 23.28 34.5925C24.8058 33.5038 26 31.6889 26 28.8904C26 27.3635 25.2176 25.9102 24.1738 24.5554C23.1218 23.1898 21.7115 21.8096 20.2944 20.4342L20.1171 20.2621C18.7419 18.9279 17.362 17.5891 16.2079 16.2083C15.2524 15.0652 14.4829 13.9288 14.007 12.788C14.1462 12.5903 14.2278 12.3495 14.2278 12.0899C14.2278 11.5932 13.9289 11.1658 13.5 10.9756V4.66217H16.0695C16.3456 4.66217 16.5695 4.43829 16.5695 4.16217C16.5695 3.88605 16.3456 3.66217 16.0695 3.66217H13.5V0.503235ZM1.44446 28.8904C1.44446 27.8683 1.97754 26.7437 2.96179 25.4661C3.93774 24.1993 5.26801 22.8929 6.70117 21.502L6.89758 21.3114C8.25665 19.993 9.68658 18.6058 10.8912 17.1646C11.7139 16.1802 12.4527 15.1467 13 14.063C13.5473 15.1467 14.2861 16.1802 15.1088 17.1646C16.3134 18.6058 17.7433 19.993 19.1024 21.3114L19.2988 21.502C20.732 22.8929 22.0623 24.1993 23.0382 25.4661C24.0225 26.7437 24.5555 27.8683 24.5555 28.8904C24.5555 31.1902 23.606 32.5616 22.4522 33.3847C21.2606 34.2348 19.807 34.5262 18.8466 34.5262H7.15344C6.19299 34.5262 4.73938 34.2348 3.54779 33.3847C2.39404 32.5616 1.44446 31.1902 1.44446 28.8904Z" fill="#522100"/>
</svg>
