<svg width="6" height="4" viewBox="0 0 6 4" xmlns="http://www.w3.org/2000/svg">
<path d="M1.70711 0.292893C1.31658 -0.0976311 0.683418 -0.0976311 0.292893 0.292893C-0.0976311 0.683418 -0.0976311 1.31658 0.292893 1.70711L1.70711 0.292893ZM3 3L2.29289 3.70711C2.68342 4.09763 3.31658 4.09763 3.70711 3.70711L3 3ZM5.70711 1.70711C6.09763 1.31658 6.09763 0.683418 5.70711 0.292893C5.31658 -0.0976311 4.68342 -0.0976311 4.29289 0.292893L5.70711 1.70711ZM0.292893 1.70711L2.29289 3.70711L3.70711 2.29289L1.70711 0.292893L0.292893 1.70711ZM3.70711 3.70711L5.70711 1.70711L4.29289 0.292893L2.29289 2.29289L3.70711 3.70711Z"/>
</svg>
