<svg width="10" height="16" viewBox="0 0 10 16" xmlns="http://www.w3.org/2000/svg">
<path d="M4.01304 11.2698C2.77365 11.1404 1.65615 10.8349 0.699401 10.086C0.580687 9.99287 0.458121 9.90305 0.349787 9.79899C-0.0689798 9.39649 -0.111175 8.93551 0.220189 8.46045C0.503664 8.05392 0.979528 7.94517 1.47415 8.17859C1.56992 8.22384 1.66118 8.28031 1.74858 8.34097C3.53165 9.56708 5.98112 9.60093 7.77089 8.3961C7.94821 8.26003 8.13775 8.1491 8.35743 8.09246C8.78457 7.9827 9.18291 8.13972 9.41214 8.51373C9.67401 8.94087 9.67066 9.35778 9.348 9.6894C8.85305 10.1978 8.2578 10.5656 7.59642 10.8223C6.97103 11.065 6.28603 11.1871 5.60807 11.2682C5.71037 11.3797 5.7586 11.4345 5.82256 11.4988C6.74314 12.4245 7.66775 13.3463 8.58532 14.2748C8.89793 14.5912 8.96323 14.9834 8.7911 15.3514C8.6029 15.7536 8.18162 16.0182 7.76855 15.9899C7.50684 15.9718 7.30273 15.8414 7.12139 15.6586C6.42668 14.959 5.71891 14.2723 5.03827 13.5594C4.84019 13.3521 4.74492 13.3914 4.57011 13.5713C3.87121 14.2914 3.16094 15.0004 2.44647 15.7053C2.12565 16.0219 1.74389 16.0788 1.37184 15.898C0.976347 15.7062 0.724685 15.3022 0.744108 14.8961C0.757503 14.6215 0.89246 14.4117 1.08083 14.2235C1.99187 13.3131 2.9004 12.4003 3.80926 11.4884C3.86937 11.4278 3.92547 11.3634 4.01304 11.2698Z M4.76803 8.0985C2.55699 8.09096 0.74395 6.25657 0.756843 4.04029C0.769569 1.79955 2.58378 -0.00618417 4.81659 1.59185e-05C7.05392 0.00604843 8.84971 1.83775 8.83849 4.10179C8.82711 6.31355 7.00151 8.10621 4.76803 8.0985ZM6.77748 4.04565C6.77363 2.94522 5.89792 2.06917 4.80051 2.06816C3.6939 2.06699 2.81033 2.95896 2.81886 4.06945C2.82707 5.16569 3.71031 6.03555 4.81073 6.03153C5.90779 6.02767 6.78116 5.14592 6.77748 4.04565Z"/>
</svg>
