<svg width="16" height="16" viewBox="0 0 16 16" xmlns="http://www.w3.org/2000/svg">
<path d="M8.70658 8.70682H14.9986C15.3894 8.70699 15.7063 8.39012 15.7061 7.99937C15.7061 7.60845 15.3895 7.29191 14.9986 7.29191H8.70658L8.70641 0.999692C8.70641 0.608773 8.38988 0.292236 7.99896 0.292236C7.6082 0.29207 7.29133 0.60894 7.2915 0.999692L7.29167 7.29191L0.999448 7.29174C0.608697 7.29158 0.291826 7.60845 0.291992 7.9992C0.292159 8.19449 0.371377 8.37144 0.499292 8.49936C0.627208 8.62727 0.804155 8.70649 0.999615 8.70649L7.29183 8.70666V14.9987C7.29183 15.1942 7.37105 15.3711 7.49897 15.499C7.62688 15.6269 7.80383 15.7062 7.99929 15.7062C8.39004 15.7063 8.70691 15.3895 8.70675 14.9987L8.70658 8.70682Z"/>
</svg>
