<svg width="30" height="16" viewBox="0 0 30 16" xmlns="http://www.w3.org/2000/svg">
<path d="M29.1794 14.371C29.1419 14.2962 29.1098 14.2321 29.0777 14.1787C28.5694 13.2655 27.5955 12.1387 26.1614 10.8089L26.0972 10.7449H26.0811C25.4283 10.1254 25.0163 9.70882 24.845 9.49521C24.5293 9.08934 24.4598 8.67813 24.631 8.26158C24.7541 7.9465 25.2143 7.27895 26.0062 6.26427C26.4236 5.72489 26.7554 5.29232 27.0015 4.96656C28.762 2.62747 29.5272 1.13216 29.2918 0.485975L29.2008 0.336444C29.1419 0.245658 28.9814 0.160212 28.7299 0.0854461C28.4731 0.0106807 28.1466 -0.00534071 27.7507 0.0480632L23.3521 0.0801058C23.2825 0.0534039 23.1808 0.0587442 23.0471 0.0854461C22.9133 0.117488 22.8491 0.13351 22.8491 0.13351L22.7742 0.170892L22.7153 0.218956C22.6618 0.250998 22.6083 0.304402 22.5494 0.379167C22.4906 0.453933 22.437 0.544719 22.3996 0.646187C21.918 1.87448 21.3775 3.01732 20.7622 4.07472C20.3876 4.70488 20.0398 5.2496 19.7241 5.71421C19.4083 6.17883 19.1461 6.51527 18.9321 6.73423C18.7181 6.95318 18.5254 7.12942 18.3488 7.25759C18.1776 7.3911 18.0438 7.4445 17.9529 7.42314C17.8619 7.40178 17.7763 7.38041 17.6906 7.36439C17.5462 7.27361 17.4338 7.15078 17.3482 6.99057C17.2626 6.83035 17.2037 6.63276 17.1716 6.39778C17.1395 6.15747 17.1234 5.95453 17.1181 5.7783C17.1127 5.60741 17.1181 5.36175 17.1234 5.04667C17.1341 4.73158 17.1395 4.51797 17.1395 4.40582C17.1395 4.02131 17.1448 3.59942 17.1609 3.14549C17.1769 2.69155 17.1876 3.0814 17.1983 2.81972C17.2091 2.55805 17.2144 2.275 17.2144 1.98128C17.2144 1.68756 17.1983 1.45793 17.1609 1.28703C17.1234 1.12148 17.0699 0.955929 17.0004 0.801058C16.9308 0.646187 16.8238 0.523358 16.6846 0.432571C16.5455 0.347125 16.3743 0.2777 16.1709 0.224296C15.6305 0.101467 14.9455 0.0373827 14.1108 0.0267019C12.2165 0.00534039 11.0018 0.128169 10.4613 0.395188C10.2473 0.507336 10.0547 0.656868 9.88343 0.854462C9.7015 1.07876 9.67474 1.20159 9.80852 1.22295C10.4185 1.31373 10.852 1.53269 11.1088 1.87982L11.1998 2.06139C11.2694 2.1949 11.3443 2.42988 11.4138 2.76098C11.4834 3.09742 11.5316 3.46591 11.553 3.87178C11.6011 4.61409 11.6011 4.50195 11.553 5.03064C11.4995 5.55934 11.4513 5.97055 11.4085 6.26427C11.3603 6.55799 11.2961 6.79831 11.1998 6.97989C11.1088 7.16146 11.0446 7.27361 11.0179 7.31633C10.9858 7.35905 10.9643 7.38041 10.9429 7.3911C10.8092 7.43916 10.6754 7.46586 10.5309 7.46586C10.3864 7.46586 10.2152 7.39644 10.0119 7.25225C9.80852 7.10805 9.59447 6.9158 9.38043 6.6648C9.16104 6.4138 8.91489 6.06668 8.63663 5.61809C8.36373 5.16949 8.07477 4.6408 7.78046 4.03199L7.53431 3.58874C7.37913 3.3057 7.17044 2.88915 6.90824 2.34443C6.64068 1.79971 6.41059 1.27635 6.20724 0.763675C6.12698 0.55006 6.0039 0.389848 5.83802 0.2777L5.76311 0.229636C5.71495 0.186913 5.62933 0.14419 5.51696 0.101467C5.40458 0.0534035 5.28686 0.0213615 5.16379 0L0.979246 0.0320422C0.55116 0.0320422 0.262203 0.128169 0.107021 0.320423L0.0481596 0.41121C0.0160532 0.464613 0 0.544719 0 0.656867C0 0.769015 0.0321064 0.907866 0.0909682 1.06808C0.690288 2.52066 1.35917 3.89848 2.07622 5.23358C2.79326 6.56868 3.41934 7.63675 3.94909 8.44849C4.47885 9.26023 5.01931 10.0292 5.57047 10.7502C6.12163 11.4712 6.4855 11.9358 6.66209 12.1387C6.83867 12.3416 6.98315 12.4965 7.08482 12.598L7.46475 12.9665C7.7109 13.2121 8.06942 13.5005 8.54031 13.8423C9.01656 14.1841 9.54096 14.5205 10.1135 14.8516C10.6914 15.1827 11.3603 15.4497 12.1202 15.658C12.8854 15.8663 13.6292 15.9517 14.3516 15.909H16.1067C16.4653 15.877 16.7328 15.7648 16.9147 15.5726L16.9736 15.4978C17.0164 15.4391 17.0539 15.3429 17.086 15.2148C17.1234 15.0866 17.1395 14.9477 17.1395 14.7929C17.1288 14.355 17.1609 13.9598 17.2412 13.6126C17.3161 13.2602 17.4017 12.9985 17.5034 12.8223C17.5997 12.646 17.7121 12.4965 17.8298 12.3737C17.9528 12.2508 18.0385 12.1761 18.092 12.1547C18.1401 12.128 18.1829 12.112 18.2151 12.1013C18.4612 12.0212 18.7448 12.1013 19.0766 12.3363C19.4083 12.5766 19.7187 12.8703 20.0077 13.2228C20.2966 13.5753 20.6444 13.9651 21.0565 14.403C21.4632 14.8409 21.8217 15.1667 22.1267 15.3803L22.4317 15.5619C22.635 15.6847 22.9026 15.7969 23.229 15.8983C23.5554 15.9998 23.839 16.0265 24.0852 15.9731L27.9968 15.9144C28.3821 15.9144 28.6871 15.8503 28.8958 15.7221C29.1098 15.5939 29.2383 15.4551 29.2757 15.3002C29.3185 15.1453 29.3185 14.9744 29.2811 14.7822C29.249 14.5846 29.2115 14.4511 29.1794 14.371Z"/>
</svg>
