<svg width="23" height="16" viewBox="0 0 23 16" xmlns="http://www.w3.org/2000/svg">
<path d="M22.3874 6.12501C22.3793 5.67506 22.3437 5.10617 22.2813 4.41884C22.2187 3.73112 22.1291 3.11651 22.0125 2.57497C21.8792 1.96671 21.5896 1.45416 21.1438 1.03749C20.6981 0.620736 20.1792 0.379149 19.5874 0.312382C17.7373 0.1042 14.9415 0 11.2 0C7.45839 0 4.66256 0.1042 2.81255 0.312382C2.2208 0.379105 1.70404 0.620736 1.2625 1.03749C0.820781 1.45403 0.533265 1.96658 0.399905 2.57497C0.275038 3.11668 0.18117 3.73125 0.118693 4.41884C0.0563036 5.10617 0.0208402 5.67484 0.0125654 6.12501C0.00411551 6.575 0 7.19993 0 8C0 8.79998 0.00411551 9.42509 0.0126092 9.87499C0.020884 10.3252 0.0563474 10.8938 0.118737 11.5811C0.181214 12.2688 0.270835 12.8834 0.387514 13.425C0.520874 14.0335 0.810405 14.5459 1.25624 14.9624C1.70216 15.3791 2.22102 15.6207 2.8126 15.6874C4.66261 15.8958 7.45826 16 11.2 16C14.9419 16 17.7373 15.8958 19.5874 15.6874C20.1793 15.6208 20.6958 15.3791 21.1375 14.9624C21.5793 14.5459 21.8666 14.0332 22 13.425C22.1249 12.8834 22.2187 12.2688 22.2813 11.5811C22.3437 10.8939 22.379 10.325 22.3874 9.87499C22.3958 9.42509 22.4 8.79998 22.4 8C22.4 7.19993 22.3958 6.575 22.3874 6.12501ZM15.625 8.67502L9.22513 12.6749C9.1084 12.7582 8.96659 12.7998 8.8 12.7998C8.67509 12.7998 8.54594 12.7664 8.41262 12.6997C8.13767 12.5499 8.00024 12.3165 8.00024 11.9999V4.00015C8.00024 3.68366 8.13771 3.45021 8.41262 3.30026C8.69602 3.15005 8.96677 3.15845 9.22513 3.32526L15.6251 7.32515C15.875 7.46656 16 7.69169 16 8.00004C16 8.30827 15.875 8.53348 15.625 8.67502Z"/>
</svg>
